<?xml version="1.0" encoding="UTF-8" standalone="no"?>
<!-- Created with Inkscape (http://www.inkscape.org/) -->

<svg
   xmlns:dc="http://purl.org/dc/elements/1.1/"
   xmlns:cc="http://creativecommons.org/ns#"
   xmlns:rdf="http://www.w3.org/1999/02/22-rdf-syntax-ns#"
   xmlns:svg="http://www.w3.org/2000/svg"
   xmlns="http://www.w3.org/2000/svg"
   xmlns:sodipodi="http://sodipodi.sourceforge.net/DTD/sodipodi-0.dtd"
   xmlns:inkscape="http://www.inkscape.org/namespaces/inkscape"
   width="200"
   height="150"
   viewBox="0 0 52.916666 39.687502"
   version="1.1"
   id="svg12118"
   inkscape:version="0.92.3 (2405546, 2018-03-11)"
   sodipodi:docname="api-cloudwatch.svg">
  <defs
     id="defs12112">
    <path
       d="m 696.53,160.738 c 0,-23.307 -14.913,-43.087 -35.719,-50.454 V 53.579 C 660.811,23.977 636.834,0 607.231,0 H 89.299 C 59.696,0 35.719,23.977 35.719,53.579 l 0.134,56.615 C 15.002,117.517 0,137.341 0,160.738 c 0,2.5 0.179,4.956 0.491,7.322 l 35.228,224.854 v 0 L 17.994,621.385 c -0.089,1.25 -0.134,2.456 -0.134,3.706 0,29.603 23.977,53.579 53.579,53.579 h 553.652 c 29.603,0 53.579,-23.977 53.579,-53.579 0,-1.25 -0.045,-2.456 -0.134,-3.706 L 660.81,392.914 696.038,168.06 c 0.314,-2.366 0.492,-4.822 0.492,-7.322 z"
       id="SVGID_1_"
       inkscape:connector-curvature="0" />
    <path
       d="m 696.53,160.738 c 0,-23.307 -14.913,-43.087 -35.719,-50.454 V 53.579 C 660.811,23.977 636.834,0 607.231,0 H 89.299 C 59.696,0 35.719,23.977 35.719,53.579 l 0.134,56.615 C 15.002,117.517 0,137.341 0,160.738 c 0,2.5 0.179,4.956 0.491,7.322 l 35.228,224.854 v 0 L 17.994,621.385 c -0.089,1.25 -0.134,2.456 -0.134,3.706 0,29.603 23.977,53.579 53.579,53.579 h 553.652 c 29.603,0 53.579,-23.977 53.579,-53.579 0,-1.25 -0.045,-2.456 -0.134,-3.706 L 660.81,392.914 696.038,168.06 c 0.314,-2.366 0.492,-4.822 0.492,-7.322 z"
       id="SVGID_3_"
       inkscape:connector-curvature="0" />
    <path
       d="m 696.53,160.738 c 0,-23.307 -14.913,-43.087 -35.719,-50.454 V 53.579 C 660.811,23.977 636.834,0 607.231,0 H 89.299 C 59.696,0 35.719,23.977 35.719,53.579 l 0.134,56.615 C 15.002,117.517 0,137.341 0,160.738 c 0,2.5 0.179,4.956 0.491,7.322 l 35.228,224.854 v 0 L 17.994,621.385 c -0.089,1.25 -0.134,2.456 -0.134,3.706 0,29.603 23.977,53.579 53.579,53.579 h 553.652 c 29.603,0 53.579,-23.977 53.579,-53.579 0,-1.25 -0.045,-2.456 -0.134,-3.706 L 660.81,392.914 696.038,168.06 c 0.314,-2.366 0.492,-4.822 0.492,-7.322 z"
       id="SVGID_5_"
       inkscape:connector-curvature="0" />
    <path
       d="m 696.53,160.738 c 0,-23.307 -14.913,-43.087 -35.719,-50.454 V 53.579 C 660.811,23.977 636.834,0 607.231,0 H 89.299 C 59.696,0 35.719,23.977 35.719,53.579 l 0.134,56.615 C 15.002,117.517 0,137.341 0,160.738 c 0,2.5 0.179,4.956 0.491,7.322 l 35.228,224.854 v 0 L 17.994,621.385 c -0.089,1.25 -0.134,2.456 -0.134,3.706 0,29.603 23.977,53.579 53.579,53.579 h 553.652 c 29.603,0 53.579,-23.977 53.579,-53.579 0,-1.25 -0.045,-2.456 -0.134,-3.706 L 660.81,392.914 696.038,168.06 c 0.314,-2.366 0.492,-4.822 0.492,-7.322 z"
       id="SVGID_7_"
       inkscape:connector-curvature="0" />
    <path
       d="m 696.53,160.738 c 0,-23.307 -14.913,-43.087 -35.719,-50.454 V 53.579 C 660.811,23.977 636.834,0 607.231,0 H 89.299 C 59.696,0 35.719,23.977 35.719,53.579 l 0.134,56.615 C 15.002,117.517 0,137.341 0,160.738 c 0,2.5 0.179,4.956 0.491,7.322 l 35.228,224.854 v 0 L 17.994,621.385 c -0.089,1.25 -0.134,2.456 -0.134,3.706 0,29.603 23.977,53.579 53.579,53.579 h 553.652 c 29.603,0 53.579,-23.977 53.579,-53.579 0,-1.25 -0.045,-2.456 -0.134,-3.706 L 660.81,392.914 696.038,168.06 c 0.314,-2.366 0.492,-4.822 0.492,-7.322 z"
       id="SVGID_10_"
       inkscape:connector-curvature="0" />
    <path
       d="m 696.53,160.738 c 0,-23.307 -14.913,-43.087 -35.719,-50.454 V 53.579 C 660.811,23.977 636.834,0 607.231,0 H 89.299 C 59.696,0 35.719,23.977 35.719,53.579 l 0.134,56.615 C 15.002,117.517 0,137.341 0,160.738 c 0,2.5 0.179,4.956 0.491,7.322 l 35.228,224.854 v 0 L 17.994,621.385 c -0.089,1.25 -0.134,2.456 -0.134,3.706 0,29.603 23.977,53.579 53.579,53.579 h 553.652 c 29.603,0 53.579,-23.977 53.579,-53.579 0,-1.25 -0.045,-2.456 -0.134,-3.706 L 660.81,392.914 696.038,168.06 c 0.314,-2.366 0.492,-4.822 0.492,-7.322 z"
       id="SVGID_12_"
       inkscape:connector-curvature="0" />
    <path
       d="m 696.53,160.738 c 0,-23.307 -14.913,-43.087 -35.719,-50.454 V 53.579 C 660.811,23.977 636.834,0 607.231,0 H 89.299 C 59.696,0 35.719,23.977 35.719,53.579 l 0.134,56.615 C 15.002,117.517 0,137.341 0,160.738 c 0,2.5 0.179,4.956 0.491,7.322 l 35.228,224.854 v 0 L 17.994,621.385 c -0.089,1.25 -0.134,2.456 -0.134,3.706 0,29.603 23.977,53.579 53.579,53.579 h 553.652 c 29.603,0 53.579,-23.977 53.579,-53.579 0,-1.25 -0.045,-2.456 -0.134,-3.706 L 660.81,392.914 696.038,168.06 c 0.314,-2.366 0.492,-4.822 0.492,-7.322 z"
       id="SVGID_14_"
       inkscape:connector-curvature="0" />
    <path
       d="m 696.53,160.738 c 0,-23.307 -14.913,-43.087 -35.719,-50.454 V 53.579 C 660.811,23.977 636.834,0 607.231,0 H 89.299 C 59.696,0 35.719,23.977 35.719,53.579 l 0.134,56.615 C 15.002,117.517 0,137.341 0,160.738 c 0,2.5 0.179,4.956 0.491,7.322 l 35.228,224.854 v 0 L 17.994,621.385 c -0.089,1.25 -0.134,2.456 -0.134,3.706 0,29.603 23.977,53.579 53.579,53.579 h 553.652 c 29.603,0 53.579,-23.977 53.579,-53.579 0,-1.25 -0.045,-2.456 -0.134,-3.706 L 660.81,392.914 696.038,168.06 c 0.314,-2.366 0.492,-4.822 0.492,-7.322 z"
       id="SVGID_16_"
       inkscape:connector-curvature="0" />
    <path
       d="M 642.951,107.158 H 53.579 C 23.977,107.158 0,131.135 0,160.738 c 0,2.5 0.179,4.956 0.491,7.322 L 35.719,392.914 H 660.81 L 696.038,168.06 c 0.313,-2.411 0.491,-4.867 0.491,-7.322 10e-4,-29.603 -23.976,-53.58 -53.578,-53.58 z"
       id="SVGID_18_"
       inkscape:connector-curvature="0" />
    <path
       d="m 696.53,160.738 c 0,-23.307 -14.913,-43.087 -35.719,-50.454 V 53.579 C 660.811,23.977 636.834,0 607.231,0 H 89.299 C 59.696,0 35.719,23.977 35.719,53.579 l 0.134,56.615 C 15.002,117.517 0,137.341 0,160.738 c 0,2.5 0.179,4.956 0.491,7.322 l 35.228,224.854 v 0 L 17.994,621.385 c -0.089,1.25 -0.134,2.456 -0.134,3.706 0,29.603 23.977,53.579 53.579,53.579 h 553.652 c 29.603,0 53.579,-23.977 53.579,-53.579 0,-1.25 -0.045,-2.456 -0.134,-3.706 L 660.81,392.914 696.038,168.06 c 0.314,-2.366 0.492,-4.822 0.492,-7.322 z"
       id="SVGID_20_"
       inkscape:connector-curvature="0" />
    <path
       d="M 678.536,621.385 660.81,392.914 H 35.719 L 17.994,621.385 c -0.089,1.25 -0.134,2.456 -0.134,3.706 0,29.603 23.977,53.579 53.579,53.579 h 553.652 c 29.603,0 53.579,-23.977 53.579,-53.579 0,-1.25 -0.044,-2.456 -0.134,-3.706 z"
       id="SVGID_22_"
       inkscape:connector-curvature="0" />
    <path
       d="m 696.53,160.738 c 0,-23.307 -14.913,-43.087 -35.719,-50.454 V 53.579 C 660.811,23.977 636.834,0 607.231,0 H 89.299 C 59.696,0 35.719,23.977 35.719,53.579 l 0.134,56.615 C 15.002,117.517 0,137.341 0,160.738 c 0,2.5 0.179,4.956 0.491,7.322 l 35.228,224.854 v 0 L 17.994,621.385 c -0.089,1.25 -0.134,2.456 -0.134,3.706 0,29.603 23.977,53.579 53.579,53.579 h 553.652 c 29.603,0 53.579,-23.977 53.579,-53.579 0,-1.25 -0.045,-2.456 -0.134,-3.706 L 660.81,392.914 696.038,168.06 c 0.314,-2.366 0.492,-4.822 0.492,-7.322 z"
       id="SVGID_24_"
       inkscape:connector-curvature="0" />
    <path
       d="m 696.53,160.738 c 0,-23.307 -14.913,-43.087 -35.719,-50.454 V 53.579 C 660.811,23.977 636.834,0 607.231,0 H 89.299 C 59.696,0 35.719,23.977 35.719,53.579 l 0.134,56.615 C 15.002,117.517 0,137.341 0,160.738 c 0,2.5 0.179,4.956 0.491,7.322 l 35.228,224.854 v 0 L 17.994,621.385 c -0.089,1.25 -0.134,2.456 -0.134,3.706 0,29.603 23.977,53.579 53.579,53.579 h 553.652 c 29.603,0 53.579,-23.977 53.579,-53.579 0,-1.25 -0.045,-2.456 -0.134,-3.706 L 660.81,392.914 696.038,168.06 c 0.314,-2.366 0.492,-4.822 0.492,-7.322 z"
       id="SVGID_27_"
       inkscape:connector-curvature="0" />
    <path
       d="m 696.53,160.738 c 0,-23.307 -14.913,-43.087 -35.719,-50.454 V 53.579 C 660.811,23.977 636.834,0 607.231,0 H 89.299 C 59.696,0 35.719,23.977 35.719,53.579 l 0.134,56.615 C 15.002,117.517 0,137.341 0,160.738 c 0,2.5 0.179,4.956 0.491,7.322 l 35.228,224.854 v 0 L 17.994,621.385 c -0.089,1.25 -0.134,2.456 -0.134,3.706 0,29.603 23.977,53.579 53.579,53.579 h 553.652 c 29.603,0 53.579,-23.977 53.579,-53.579 0,-1.25 -0.045,-2.456 -0.134,-3.706 L 660.81,392.914 696.038,168.06 c 0.314,-2.366 0.492,-4.822 0.492,-7.322 z"
       id="SVGID_29_"
       inkscape:connector-curvature="0" />
    <style
       id="style1050">.cls-1{fill:#d86613;}</style>
  </defs>
  <sodipodi:namedview
     id="base"
     pagecolor="#ffffff"
     bordercolor="#666666"
     borderopacity="1.0"
     inkscape:pageopacity="0.0"
     inkscape:pageshadow="2"
     inkscape:zoom="1.6155556"
     inkscape:cx="179.86327"
     inkscape:cy="131.04511"
     inkscape:document-units="px"
     inkscape:current-layer="layer2"
     showgrid="false"
     inkscape:window-width="1366"
     inkscape:window-height="713"
     inkscape:window-x="0"
     inkscape:window-y="27"
     inkscape:window-maximized="1"
     showguides="true"
     inkscape:guide-bbox="true"
     units="px">
    <sodipodi:guide
       position="67.742455,61.812143"
       orientation="0,1"
       id="guide12694"
       inkscape:locked="false" />
    <sodipodi:guide
       position="-20.799088,78.446955"
       orientation="1,0"
       id="guide12696"
       inkscape:locked="false" />
  </sodipodi:namedview>
  <metadata
     id="metadata12115">
    <rdf:RDF>
      <cc:Work
         rdf:about="">
        <dc:format>image/svg+xml</dc:format>
        <dc:type
           rdf:resource="http://purl.org/dc/dcmitype/StillImage" />
        <dc:title></dc:title>
      </cc:Work>
    </rdf:RDF>
  </metadata>
  <g
     inkscape:groupmode="layer"
     id="layer2"
     inkscape:label="backg"
     transform="translate(0,-34.312494)">
    <rect
       style="fill:#ffffff;stroke:#f9f9f9;stroke-width:0.27105361;stroke-miterlimit:10;stroke-dasharray:none;stroke-opacity:1"
       id="rect2940"
       width="50.372463"
       height="37.106884"
       x="1.3448949"
       y="35.548214" />
  </g>
  <g
     inkscape:label="Layer 1"
     inkscape:groupmode="layer"
     id="layer1"
     transform="translate(0,-257.31249)">
    <path
       style="fill:#d86613;stroke-width:1.19778669"
       inkscape:connector-curvature="0"
       class="cls-1"
       d="m 21.087771,285.23296 h -7.11485 a 4.4198328,4.4198328 0 0 1 -2.323706,-0.67077 7.18672,7.18672 0 0 1 -3.4017154,-6.22848 6.4680479,6.4680479 0 0 1 4.2162104,-6.32432 v -0.11985 a 9.4505368,9.4505368 0 0 1 5.390041,-8.32462 9.0193336,9.0193336 0 0 1 10.16921,2.01229 9.8458064,9.8458064 0 0 1 1.77272,2.39557 4.312032,4.312032 0 0 1 2.17997,-0.58692 4.7911466,4.7911466 0 0 1 4.58753,4.37192 6.5878267,6.5878267 0 0 1 5.138501,6.62377 6.4081587,6.4081587 0 0 1 -3.341821,5.91706 l -1.19779,-2.09612 a 4.0125854,4.0125854 0 0 0 2.14404,-3.82094 4.4078549,4.4078549 0 0 0 -4.04852,-4.43182 1.1977867,1.1977867 0 0 1 -0.79054,-0.50307 1.1977867,1.1977867 0 0 1 -0.20362,-0.79054 c -0.17967,-2.09612 -1.34152,-2.83875 -2.28778,-2.83875 a 2.0961267,2.0961267 0 0 0 -1.65294,0.87439 1.1977867,1.1977867 0 0 1 -2.08415,-0.31142 8.3845066,8.3845066 0 0 0 -1.90448,-3.10228 6.6477159,6.6477159 0 0 0 -7.54606,-1.53316 7.1148527,7.1148527 0 0 0 -3.92874,6.10871 6.2524464,6.2524464 0 0 0 0,0.82647 1.1977867,1.1977867 0 0 1 -0.29944,0.94625 1.1977867,1.1977867 0 0 1 -0.64681,0.37131 4.120386,4.120386 0 0 0 -3.317869,4.30006 4.7911466,4.7911466 0 0 0 2.35964,4.21621 2.0841487,2.0841487 0 0 0 1.054049,0.29945 h 7.10288 z"
       id="path1098" />
    <path
       style="fill:#d86613;stroke-width:1.19778669"
       inkscape:connector-curvature="0"
       class="cls-1"
       d="m 29.568101,288.58676 a 7.4023215,7.4023215 0 1 1 7.40232,-7.39035 7.4023215,7.4023215 0 0 1 -7.40232,7.39035 z m 0,-12.3971 a 5.0067482,5.0067482 0 1 0 5.00675,5.00675 5.0067482,5.0067482 0 0 0 -5.00675,-5.00675 z"
       id="path1100" />
    <path
       style="fill:#d86613;stroke-width:1.19778669"
       inkscape:connector-curvature="0"
       class="cls-1"
       d="m 26.885061,284.21484 a 4.0246377,4.0246377 0 0 1 4.79115,-6.46805 l -1.42537,1.91645 a 1.6314246,1.6314246 0 0 0 -1.94041,2.62316 z"
       id="path1102" />
    <path
       style="fill:#d86613;stroke-width:1.19778669"
       inkscape:connector-curvature="0"
       class="cls-1"
       d="m 38.815021,293.00659 a 2.778865,2.778865 0 0 1 -2.00031,-0.82648 l -4.85103,-4.79114 1.68887,-1.68888 4.79115,4.79114 a 0.38329174,0.38329174 0 0 0 0.62285,0 0.44318106,0.44318106 0 0 0 0,-0.62284 l -4.85103,-4.95884 1.68887,-1.68888 4.922911,4.93488 a 2.8507323,2.8507323 0 0 1 0,4.00061 2.778865,2.778865 0 0 1 -2.012281,0.85043 z"
       id="path1104" />
  </g>
  <style
     id="style1140"
     type="text/css">
	.st0{fill:#252F3E;}
	.st1{fill-rule:evenodd;clip-rule:evenodd;fill:#FF9900;}
</style>
</svg>
