<?xml version="1.0" encoding="UTF-8" standalone="no"?>
<svg
   xmlns:dc="http://purl.org/dc/elements/1.1/"
   xmlns:cc="http://creativecommons.org/ns#"
   xmlns:rdf="http://www.w3.org/1999/02/22-rdf-syntax-ns#"
   xmlns:svg="http://www.w3.org/2000/svg"
   xmlns="http://www.w3.org/2000/svg"
   xmlns:sodipodi="http://sodipodi.sourceforge.net/DTD/sodipodi-0.dtd"
   xmlns:inkscape="http://www.inkscape.org/namespaces/inkscape"
   version="1.1"
   id="Layer_1"
   x="0px"
   y="0px"
   viewBox="0 0 132.88001 119.71"
   xml:space="preserve"
   sodipodi:docname="candlestick.svg"
   width="132.88"
   height="119.71"
   inkscape:version="0.92.5 (2060ec1f9f, 2020-04-08)"><metadata
     id="metadata43"><rdf:RDF><cc:Work
         rdf:about=""><dc:format>image/svg+xml</dc:format><dc:type
           rdf:resource="http://purl.org/dc/dcmitype/StillImage" /><dc:title></dc:title></cc:Work></rdf:RDF></metadata><defs
     id="defs41" /><sodipodi:namedview
     pagecolor="#ffffff"
     bordercolor="#666666"
     borderopacity="1"
     objecttolerance="10"
     gridtolerance="10"
     guidetolerance="10"
     inkscape:pageopacity="0"
     inkscape:pageshadow="2"
     inkscape:window-width="1117"
     inkscape:window-height="653"
     id="namedview39"
     showgrid="false"
     inkscape:zoom="2.0395817"
     inkscape:cx="62.420592"
     inkscape:cy="56.38411"
     inkscape:window-x="60"
     inkscape:window-y="27"
     inkscape:window-maximized="0"
     inkscape:current-layer="Layer_1" /><style
     type="text/css"
     id="style2"><![CDATA[
	.st0{fill-rule:evenodd;clip-rule:evenodd;fill:#4AE351;}
	.st1{fill-rule:evenodd;clip-rule:evenodd;fill:#FB4049;}
	.st2{fill:#393939;}
]]></style><path
     style="fill:#393939"
     inkscape:connector-curvature="0"
     id="path4"
     d="m 84.33,56.450001 c 0,1.29 -1.05,2.34 -2.34,2.34 -1.29,0 -2.34,-1.05 -2.34,-2.34 v -14.47 c 0,-1.29 1.05,-2.34 2.34,-2.34 1.29,0 2.34,1.05 2.34,2.34 z"
     class="st2" /><path
     style="fill:#393939"
     inkscape:connector-curvature="0"
     id="path6"
     d="m 84.33,117.36 c 0,1.29 -1.05,2.34 -2.34,2.34 -1.29,0 -2.34,-1.05 -2.34,-2.34 v -14.47 c 0,-1.29 1.05,-2.34 2.34,-2.34 1.29,0 2.34,1.05 2.34,2.34 z"
     class="st2" /><path
     style="fill:#393939"
     inkscape:connector-curvature="0"
     id="path8"
     d="m 74,53.230001 h 15.77 c 1.13,0 2.16,0.47 2.92,1.23 0.79,0.79 1.28,1.89 1.28,3.1 V 100.82 c 0,1.21 -0.49,2.31 -1.28,3.1 -0.76,0.76 -1.79,1.23 -2.92,1.23 H 74 c -1.13,0 -2.16,-0.47 -2.92,-1.23 -0.79,-0.79 -1.28,-1.89 -1.28,-3.1 V 57.560001 c 0,-1.21 0.49,-2.31 1.28,-3.1 0.77,-0.76 1.8,-1.23 2.92,-1.23 z m 13.75,6.48 H 76.03 v 38.95 h 11.72 z"
     class="st2" /><path
     style="clip-rule:evenodd;fill:#008000;fill-rule:evenodd"
     inkscape:connector-curvature="0"
     id="path10"
     d="m 74,56.470001 h 15.77 c 0.6,0 1.09,0.49 1.09,1.09 V 100.82 c 0,0.6 -0.49,1.09 -1.09,1.09 H 74 c -0.6,0 -1.09,-0.49 -1.09,-1.09 V 57.560001 c 0.01,-0.6 0.5,-1.09 1.09,-1.09 z"
     class="st0" /><path
     style="fill:#393939"
     inkscape:connector-curvature="0"
     id="path12"
     d="m 117.02,47.350001 c 0,1.29 -1.05,2.34 -2.34,2.34 -1.29,0 -2.34,-1.05 -2.34,-2.34 v -19.5 c 0,-1.29 1.05,-2.34 2.34,-2.34 1.29,0 2.34,1.05 2.34,2.34 z"
     class="st2" /><path
     style="fill:#393939"
     inkscape:connector-curvature="0"
     id="path14"
     d="m 117.02,107.03 c 0,1.29 -1.05,2.34 -2.34,2.34 -1.29,0 -2.34,-1.05 -2.34,-2.34 V 87.540001 c 0,-1.29 1.05,-2.34 2.34,-2.34 1.29,0 2.34,1.05 2.34,2.34 z"
     class="st2" /><path
     style="fill:#393939"
     inkscape:connector-curvature="0"
     id="path16"
     d="m 106.91,44.100001 h 15.77 c 1.13,0 2.16,0.47 2.92,1.23 0.79,0.79 1.28,1.89 1.28,3.1 v 36.38 c 0,1.21 -0.49,2.31 -1.28,3.1 -0.76,0.76 -1.79,1.23 -2.92,1.23 h -15.77 c -1.13,0 -2.16,-0.47 -2.92,-1.23 -0.79,-0.79 -1.28,-1.88 -1.28,-3.1 v -36.38 c 0,-1.21 0.49,-2.31 1.28,-3.1 0.76,-0.75 1.79,-1.23 2.92,-1.23 z m 13.75,6.49 h -11.72 v 32.08 h 11.72 z"
     class="st2" /><path
     style="clip-rule:evenodd;fill:#008000;fill-rule:evenodd"
     inkscape:connector-curvature="0"
     id="path18"
     d="m 106.91,47.350001 h 15.77 c 0.6,0 1.09,0.49 1.09,1.09 v 36.38 c 0,0.6 -0.49,1.09 -1.09,1.09 h -15.77 c -0.6,0 -1.09,-0.49 -1.09,-1.09 v -36.39 c 0,-0.6 0.49,-1.08 1.09,-1.08 z"
     class="st1" /><path
     style="fill:#393939"
     inkscape:connector-curvature="0"
     id="path20"
     d="m 51.33,23.690001 c 0,1.29 -1.05,2.34 -2.34,2.34 -1.29,0 -2.34,-1.05 -2.34,-2.34 V 6.3400009 c 0,-1.29 1.05,-2.34 2.34,-2.34 1.29,0 2.34,1.05 2.34,2.34 z"
     class="st2" /><path
     style="fill:#393939"
     inkscape:connector-curvature="0"
     id="path22"
     d="m 51.33,94.410001 c 0,1.29 -1.05,2.34 -2.34,2.34 -1.29,0 -2.34,-1.05 -2.34,-2.34 v -17.34 c 0,-1.29 1.05,-2.34 2.34,-2.34 1.29,0 2.34,1.05 2.34,2.34 z"
     class="st2" /><path
     style="fill:#393939"
     inkscape:connector-curvature="0"
     id="path24"
     d="m 41.1,20.450001 h 15.77 c 1.13,0 2.16,0.47 2.92,1.23 0.79,0.79 1.28,1.89 1.28,3.1 v 50.17 c 0,1.21 -0.49,2.31 -1.28,3.1 -0.76,0.76 -1.79,1.23 -2.92,1.23 H 41.1 c -1.12,0 -2.16,-0.47 -2.92,-1.23 -0.79,-0.79 -1.28,-1.88 -1.28,-3.1 v -50.17 c 0,-1.21 0.49,-2.31 1.28,-3.1 0.76,-0.76 1.8,-1.23 2.92,-1.23 z m 13.75,6.48 H 43.13 v 45.86 h 11.72 z"
     class="st2" /><path
     style="clip-rule:evenodd;fill:#fb4049;fill-rule:evenodd"
     inkscape:connector-curvature="0"
     id="path26"
     d="m 41.1,23.690001 h 15.77 c 0.6,0 1.09,0.49 1.09,1.09 v 50.17 c 0,0.6 -0.49,1.09 -1.09,1.09 H 41.1 c -0.6,0 -1.09,-0.49 -1.09,-1.09 v -50.17 c 0,-0.6 0.49,-1.09 1.09,-1.09 z"
     class="st1" /><path
     style="fill:#393939;stroke-width:1.32871187"
     inkscape:connector-curvature="0"
     id="path28"
     d="m 18.43,99.408789 c 0,2.277461 -1.05,4.131211 -2.34,4.131211 -1.29,0 -2.34,-1.85375 -2.34,-4.131211 V 63.569645 c 0,-2.277463 1.05,-4.131212 2.34,-4.131212 1.29,0 2.34,1.853749 2.34,4.131212 z"
     class="st2" /><path
     style="fill:#393939"
     inkscape:connector-curvature="0"
     id="path30"
     d="m 18.43,28.220001 c 0,1.29 -1.05,2.34 -2.34,2.34 -1.29,0 -2.34,-1.05 -2.34,-2.34 v -20.29 c 0,-1.29 1.05,-2.3400001 2.34,-2.3400001 1.29,0 2.34,1.0500001 2.34,2.3400001 z"
     class="st2" /><path
     style="fill:#393939"
     inkscape:connector-curvature="0"
     id="path32"
     d="m 8.2,9.5700009 h 15.77 c 1.13,0 2.16,0.4700001 2.92,1.2300001 0.79,0.79 1.28,1.89 1.28,3.1 v 45.92 c 0,1.21 -0.49,2.31 -1.28,3.1 -0.76,0.76 -1.79,1.23 -2.92,1.23 H 8.2 c -1.13,0 -2.16,-0.47 -2.92,-1.23 -0.79,-0.79 -1.28,-1.89 -1.28,-3.1 v -45.92 c 0,-1.21 0.49,-2.31 1.28,-3.1 0.76,-0.76 1.79,-1.2300001 2.92,-1.2300001 z M 21.95,16.050001 H 10.22 v 41.61 h 11.72 v -41.61 z"
     class="st2" /><path
     style="clip-rule:evenodd;fill:#008000;fill-rule:evenodd"
     inkscape:connector-curvature="0"
     id="path34"
     d="m 8.2,12.810001 h 15.77 c 0.6,0 1.09,0.49 1.09,1.09 v 45.92 c 0,0.6 -0.49,1.09 -1.09,1.09 H 8.2 c -0.6,0 -1.09,-0.49 -1.09,-1.09 v -45.92 c 0,-0.6 0.49,-1.09 1.09,-1.09 z"
     class="st0" /></svg>