<?xml version="1.0" encoding="UTF-8" standalone="no"?>
<!-- Generator: Adobe Illustrator 19.0.0, SVG Export Plug-In . SVG Version: 6.00 Build 0)  -->

<svg
   xmlns:dc="http://purl.org/dc/elements/1.1/"
   xmlns:cc="http://creativecommons.org/ns#"
   xmlns:rdf="http://www.w3.org/1999/02/22-rdf-syntax-ns#"
   xmlns:svg="http://www.w3.org/2000/svg"
   xmlns="http://www.w3.org/2000/svg"
   xmlns:sodipodi="http://sodipodi.sourceforge.net/DTD/sodipodi-0.dtd"
   xmlns:inkscape="http://www.inkscape.org/namespaces/inkscape"
   version="1.1"
   id="Capa_1"
   x="0px"
   y="0px"
   viewBox="0 0 299.99999 68"
   xml:space="preserve"
   sodipodi:docname="shipping.svg"
   width="300"
   height="68"
   inkscape:version="0.92.3 (2405546, 2018-03-11)"><metadata
   id="metadata43"><rdf:RDF><cc:Work
       rdf:about=""><dc:format>image/svg+xml</dc:format><dc:type
         rdf:resource="http://purl.org/dc/dcmitype/StillImage" /><dc:title></dc:title></cc:Work></rdf:RDF></metadata><defs
   id="defs41" /><sodipodi:namedview
   pagecolor="#ffffff"
   bordercolor="#666666"
   borderopacity="1"
   objecttolerance="10"
   gridtolerance="10"
   guidetolerance="10"
   inkscape:pageopacity="0"
   inkscape:pageshadow="2"
   inkscape:window-width="1241"
   inkscape:window-height="632"
   id="namedview39"
   showgrid="false"
   inkscape:zoom="1.1245814"
   inkscape:cx="241.11726"
   inkscape:cy="126.29089"
   inkscape:window-x="0"
   inkscape:window-y="27"
   inkscape:window-maximized="0"
   inkscape:current-layer="Capa_1" />
<g
   id="g6"
   transform="matrix(0.2075737,0.04763689,-0.05554347,0.24202594,14.08114,-23.503928)"
   style="fill:#b3b3b3">
	<path
   d="M 46.881,157.053 11.387,140.467 c -3.012,-1.407 -6.582,-0.805 -8.966,1.514 -2.383,2.319 -3.083,5.871 -1.759,8.921 l 7.613,17.53 z"
   id="path2"
   inkscape:connector-curvature="0"
   style="fill:#b3b3b3" />
	<path
   d="m 110.863,147.703 -90.246,26.598 c -3.462,1.021 -5.813,4.233 -5.736,7.842 0.075,3.608 2.558,6.72 6.061,7.594 l 97.355,24.304 c 0.637,0.159 1.287,0.238 1.938,0.238 0.758,0 1.516,-0.107 2.25,-0.323 l 150.332,-44.052 c 17.724,-5.281 27.846,-23.998 22.564,-41.725 -4.207,-14.109 -17.42,-23.965 -32.132,-23.965 -3.238,0 -6.465,0.473 -9.567,1.397 l -71.005,20.927 -12.478,-5.83 L 90.051,83.256 C 86.215,81.463 81.647,82.971 79.63,86.694 l -5.553,10.252 c -1.58,2.916 -1.196,6.505 0.964,9.021 l 29.31,34.149 z"
   id="path4"
   inkscape:connector-curvature="0"
   style="fill:#b3b3b3" />
</g>
<g
   id="g8"
   transform="translate(0,-228.781)">
</g>
<g
   id="g10"
   transform="translate(0,-228.781)">
</g>
<g
   id="g12"
   transform="translate(0,-228.781)">
</g>
<g
   id="g14"
   transform="translate(0,-228.781)">
</g>
<g
   id="g16"
   transform="translate(0,-228.781)">
</g>
<g
   id="g18"
   transform="translate(0,-228.781)">
</g>
<g
   id="g20"
   transform="translate(0,-228.781)">
</g>
<g
   id="g22"
   transform="translate(0,-228.781)">
</g>
<g
   id="g24"
   transform="translate(0,-228.781)">
</g>
<g
   id="g26"
   transform="translate(0,-228.781)">
</g>
<g
   id="g28"
   transform="translate(0,-228.781)">
</g>
<g
   id="g30"
   transform="translate(0,-228.781)">
</g>
<g
   id="g32"
   transform="translate(0,-228.781)">
</g>
<g
   id="g34"
   transform="translate(0,-228.781)">
</g>
<g
   id="g36"
   transform="translate(0,-228.781)">
</g>
<g
   id="g994"
   transform="matrix(0.12295148,0,0,0.12295148,209.7697,11.64769)"
   style="fill:#b3b3b3"><g
     id="g936"
     style="fill:#b3b3b3">
	<path
   id="path930"
   d="m 306.079,223.021 c -0.632,-7.999 -7.672,-14.605 -15.694,-14.728 l -53.093,-0.814 c -3.084,-0.047 -6.21,-2.762 -6.689,-5.809 L 218.905,127.3 c -0.424,-2.694 -2.936,-13.678 -16.649,-13.678 l -66.024,2.875 c -8.698,0.378 -15.769,4.607 -15.769,16.476 0,0 -0.278,165.299 -0.616,171.289 l -2.31,40.898 c -0.309,5.462 -2.437,14.303 -4.647,19.306 l -26.724,60.487 c -1.764,3.991 -1.735,8.403 0.08,12.105 1.815,3.702 5.284,6.428 9.52,7.48 l 8.897,2.208 c 1.324,0.329 2.71,0.495 4.118,0.495 7.182,0 14.052,-4.168 17.096,-10.372 l 25.403,-51.78 c 2.806,-5.719 6.298,-15.412 7.786,-21.607 l 14.334,-59.711 34.689,53.049 c 2.86,4.374 5.884,12.767 6.471,17.961 l 6.706,59.392 c 0.954,8.454 8.654,15.332 17.164,15.332 l 10.146,-0.035 c 4.353,-0.015 8.311,-1.752 11.145,-4.893 2.833,-3.14 4.158,-7.254 3.728,-11.585 l -7.004,-70.612 c -0.646,-6.512 -2.985,-16.401 -5.325,-22.513 l -31.083,-81.187 -0.192,-17.115 72.241,-2.674 c 4.033,-0.149 7.718,-1.876 10.376,-4.862 2.658,-2.985 3.947,-6.845 3.629,-10.873 z M 238.43,444.503 v 0 0.002 z"
   inkscape:connector-curvature="0"
   style="fill:#b3b3b3" />
	<path
   id="path932"
   d="m 157.338,97.927 c 5.558,0 11.054,-0.948 16.335,-2.819 12.327,-4.362 22.216,-13.264 27.846,-25.066 3.981,-8.345 5.483,-17.433 4.486,-26.398 l 16.406,-1.851 c 5.717,-0.645 11.52,-5.205 13.498,-10.607 l 5.495,-15.007 c 1.173,-3.206 0.864,-6.45 -0.849,-8.902 -1.67,-2.39 -4.484,-3.761 -7.72,-3.761 -0.375,0 -0.763,0.018 -1.161,0.056 L 184.236,8.084 C 176.416,2.933 167.116,0 157.333,0 151.777,0 146.283,0.947 141,2.816 c -12.326,4.365 -22.215,13.268 -27.846,25.07 -5.631,11.802 -6.328,25.089 -1.963,37.413 6.911,19.516 25.456,32.628 46.147,32.628 z"
   inkscape:connector-curvature="0"
   style="fill:#b3b3b3" />
	<path
   id="path934"
   d="m 364.605,174.546 -4.72,-67.843 c -0.561,-8.057 -7.587,-14.611 -15.691,-14.611 l -90.689,0.158 c -4.06,0.007 -7.792,1.618 -10.509,4.536 -2.716,2.917 -4.058,6.754 -3.775,10.805 l 4.72,67.843 c 0.561,8.057 7.587,14.611 15.664,14.611 l 90.716,-0.158 c 4.06,-0.007 7.792,-1.617 10.509,-4.535 2.716,-2.918 4.057,-6.756 3.775,-10.806 z m -105.001,10.498 z"
   inkscape:connector-curvature="0"
   style="fill:#b3b3b3" />
</g><g
     id="g938"
     style="fill:#b3b3b3">
</g><g
     id="g940"
     style="fill:#b3b3b3">
</g><g
     id="g942"
     style="fill:#b3b3b3">
</g><g
     id="g944"
     style="fill:#b3b3b3">
</g><g
     id="g946"
     style="fill:#b3b3b3">
</g><g
     id="g948"
     style="fill:#b3b3b3">
</g><g
     id="g950"
     style="fill:#b3b3b3">
</g><g
     id="g952"
     style="fill:#b3b3b3">
</g><g
     id="g954"
     style="fill:#b3b3b3">
</g><g
     id="g956"
     style="fill:#b3b3b3">
</g><g
     id="g958"
     style="fill:#b3b3b3">
</g><g
     id="g960"
     style="fill:#b3b3b3">
</g><g
     id="g962"
     style="fill:#b3b3b3">
</g><g
     id="g964"
     style="fill:#b3b3b3">
</g><g
     id="g966"
     style="fill:#b3b3b3">
</g></g><g
   id="g1130"
   transform="matrix(1.3724249,0,0,1.3724249,101.4067,16.568155)"
   style="fill:#b3b3b3"><g
     id="g1074"
     style="fill:#b3b3b3">
	<path
   id="path1072"
   d="M 45.186,27.226 V 26.73 L 41.011,13.017 H 31.772 V 9.737 H 9.563 v 8.487 H 4.834 l -2,2.667 h 6.729 v 1.928 0.072 H 2 l -2,2.667 h 9.562 v 1.668 H 8.5 v 4.5 h 1.062 v 0.668 h 0.722 c 0.404,2.393 2.485,4.223 4.992,4.223 2.507,0 4.587,-1.83 4.991,-4.223 h 11.382 c 0.402,2.393 2.483,4.223 4.99,4.223 2.506,0 4.588,-1.83 4.991,-4.223 h 3.555 v -0.668 h 1.169 v -4.5 z m -29.91,7.007 c -1.479,0 -2.684,-1.205 -2.684,-2.686 0,-1.479 1.204,-2.683 2.684,-2.683 1.479,0 2.683,1.203 2.683,2.683 0,1.481 -1.204,2.686 -2.683,2.686 z m 21.364,0 c -1.479,0 -2.685,-1.205 -2.685,-2.686 0,-1.479 1.205,-2.683 2.685,-2.683 1.48,0 2.683,1.203 2.683,2.683 -10e-4,1.481 -1.204,2.686 -2.683,2.686 z M 34.156,21.475 v -6.074 h 5.088 l 1.85,6.074 z"
   inkscape:connector-curvature="0"
   style="fill:#b3b3b3" />
</g><g
     id="g1076"
     style="fill:#b3b3b3">
</g><g
     id="g1078"
     style="fill:#b3b3b3">
</g><g
     id="g1080"
     style="fill:#b3b3b3">
</g><g
     id="g1082"
     style="fill:#b3b3b3">
</g><g
     id="g1084"
     style="fill:#b3b3b3">
</g><g
     id="g1086"
     style="fill:#b3b3b3">
</g><g
     id="g1088"
     style="fill:#b3b3b3">
</g><g
     id="g1090"
     style="fill:#b3b3b3">
</g><g
     id="g1092"
     style="fill:#b3b3b3">
</g><g
     id="g1094"
     style="fill:#b3b3b3">
</g><g
     id="g1096"
     style="fill:#b3b3b3">
</g><g
     id="g1098"
     style="fill:#b3b3b3">
</g><g
     id="g1100"
     style="fill:#b3b3b3">
</g><g
     id="g1102"
     style="fill:#b3b3b3">
</g><g
     id="g1104"
     style="fill:#b3b3b3">
</g></g></svg>