<?xml version="1.0" encoding="UTF-8" standalone="no"?>
<svg
   xmlns:dc="http://purl.org/dc/elements/1.1/"
   xmlns:cc="http://creativecommons.org/ns#"
   xmlns:rdf="http://www.w3.org/1999/02/22-rdf-syntax-ns#"
   xmlns:svg="http://www.w3.org/2000/svg"
   xmlns="http://www.w3.org/2000/svg"
   id="svg3927"
   version="1.1"
   viewBox="0 0 52.916669 26.458334"
   height="100"
   width="200">
  <defs
     id="defs3921" />
  <metadata
     id="metadata3924">
    <rdf:RDF>
      <cc:Work
         rdf:about="">
        <dc:format>image/svg+xml</dc:format>
        <dc:type
           rdf:resource="http://purl.org/dc/dcmitype/StillImage" />
        <dc:title></dc:title>
      </cc:Work>
    </rdf:RDF>
  </metadata>
  <g
     transform="translate(0,-270.54167)"
     id="layer1">
    <path
       id="path1794-4-16-9-8-4"
       d="m 11.756311,281.06064 c 0.0417,0.74672 -1.389503,0.74653 -1.347806,0 0.0099,-0.7585 1.33309,-0.76445 1.347806,0 z"
       style="fill:#000000;fill-opacity:0.97142855;stroke:none;stroke-width:0.08317956;stroke-miterlimit:4;stroke-dasharray:none;stroke-opacity:1" />
    <path
       id="path1794-0-0-6-1-1"
       d="m 19.50678,281.90806 c 0.0417,0.74671 -1.389501,0.74652 -1.347804,0 0.0099,-0.7585 1.333089,-0.76445 1.347804,0 z"
       style="fill:#000000;fill-opacity:0.97142855;stroke:none;stroke-width:0.08317956;stroke-miterlimit:4;stroke-dasharray:none;stroke-opacity:1" />
    <path
       id="path1794-4-0-91-7-0-6"
       d="m 10.979135,278.13493 c 0.0417,0.74672 -1.389502,0.74652 -1.347805,0 0.00992,-0.7585 1.33309,-0.76445 1.347805,0 z"
       style="fill:#000000;fill-opacity:0.97142855;stroke:none;stroke-width:0.08317956;stroke-miterlimit:4;stroke-dasharray:none;stroke-opacity:1" />
    <path
       id="path1794-4-0-2-2-2-3-4"
       d="m 10.904917,284.61321 c 0.0417,0.74671 -1.3895022,0.74652 -1.3478059,0 0.00992,-0.7585 1.3330899,-0.76445 1.3478059,0 z"
       style="fill:#000000;fill-opacity:0.97142855;stroke:none;stroke-width:0.08317956;stroke-miterlimit:4;stroke-dasharray:none;stroke-opacity:1" />
    <path
       id="path1794-4-8-4-1-0-3"
       d="m 19.371166,279.7455 c 0.0417,0.74672 -1.389502,0.74652 -1.347805,0 0.0099,-0.7585 1.33309,-0.76445 1.347805,0 z"
       style="fill:#000000;fill-opacity:0.97142855;stroke:none;stroke-width:0.08317956;stroke-miterlimit:4;stroke-dasharray:none;stroke-opacity:1" />
    <path
       id="path1794-4-1-14-4-4-5"
       d="m 22.529625,279.71952 c 0.0417,0.74672 -1.389503,0.74653 -1.347806,0 0.0099,-0.7585 1.33309,-0.76445 1.347806,0 z"
       style="fill:#000000;fill-opacity:0.97142855;stroke:none;stroke-width:0.08317956;stroke-miterlimit:4;stroke-dasharray:none;stroke-opacity:1" />
    <path
       id="path1794-4-0-2-1-4-8-4-4"
       d="m 17.857545,281.84155 c 0.0417,0.74671 -1.389502,0.74652 -1.347805,0 0.0099,-0.7585 1.33309,-0.76445 1.347805,0 z"
       style="fill:#000000;fill-opacity:0.97142855;stroke:none;stroke-width:0.08317956;stroke-miterlimit:4;stroke-dasharray:none;stroke-opacity:1" />
    <path
       id="path1794-4-0-9-3-4-4-8"
       d="m 13.479498,277.52185 c 0.0417,0.74672 -1.389503,0.74653 -1.347806,0 0.0099,-0.75849 1.33309,-0.76444 1.347806,0 z"
       style="fill:#000000;fill-opacity:0.97142855;stroke:none;stroke-width:0.08317956;stroke-miterlimit:4;stroke-dasharray:none;stroke-opacity:1" />
    <path
       id="path1794-4-0-9-0-25-9-7-7"
       d="m 13.267828,279.90636 c -5.89e-4,0.64526 -1.217804,0.31844 -0.795193,-0.21113 0.227149,-0.30253 0.806227,-0.14925 0.795193,0.21113 z"
       style="fill:#000000;fill-opacity:0.97142855;stroke:none;stroke-width:0.05377115;stroke-miterlimit:4;stroke-dasharray:none;stroke-opacity:1" />
    <path
       id="path1794-4-0-9-0-0-13-8-6-3"
       d="m 17.349864,280.38478 c -5.89e-4,0.64526 -1.217804,0.31845 -0.795193,-0.21112 0.22715,-0.30253 0.806228,-0.14925 0.795193,0.21112 z"
       style="fill:#000000;fill-opacity:0.97142855;stroke:none;stroke-width:0.05377115;stroke-miterlimit:4;stroke-dasharray:none;stroke-opacity:1" />
    <path
       id="path1794-4-0-9-0-0-0-26-4-3-3"
       d="m 18.12232,278.21281 c -5.88e-4,0.64526 -1.217805,0.31844 -0.795192,-0.21113 0.227149,-0.30253 0.806226,-0.14925 0.795192,0.21113 z"
       style="fill:#000000;fill-opacity:0.97142855;stroke:none;stroke-width:0.05377115;stroke-miterlimit:4;stroke-dasharray:none;stroke-opacity:1" />
    <path
       id="path1794-4-0-9-0-0-0-2-06-4-1-5"
       d="m 11.991261,277.87975 c -5.89e-4,0.64525 -1.217804,0.31843 -0.795193,-0.21114 0.22715,-0.30253 0.806227,-0.14924 0.795193,0.21114 z"
       style="fill:#000000;fill-opacity:0.97142855;stroke:none;stroke-width:0.05377115;stroke-miterlimit:4;stroke-dasharray:none;stroke-opacity:1" />
    <g
       transform="matrix(0.80187835,-0.34662303,0.40384223,0.68826261,-143.25351,224.06373)"
       id="g2119-9-1-7-0"
       style="fill:#000000">
      <path
         id="path1794-4-7-68-9-5-1"
         d="m 114.02867,138.4752 c 0.0464,0.96899 -1.54762,0.96874 -1.50118,0 0.011,-0.98427 1.48479,-0.99198 1.50118,0 z"
         style="fill:#000000;fill-opacity:0.97142855;stroke:none;stroke-width:0.1;stroke-miterlimit:4;stroke-dasharray:none;stroke-opacity:1" />
      <path
         id="path1794-4-1-6-0-6-9-4"
         d="m 114.65658,142.17085 c 0.0464,0.96899 -1.54762,0.96874 -1.50118,0 0.011,-0.98427 1.48479,-0.99199 1.50118,0 z"
         style="fill:#000000;fill-opacity:0.97142855;stroke:none;stroke-width:0.1;stroke-miterlimit:4;stroke-dasharray:none;stroke-opacity:1" />
      <path
         id="path1794-4-0-9-0-5-8-8-6-5"
         d="m 114.82244,136.92972 c -6.5e-4,0.83733 -1.35638,0.41323 -0.88568,-0.27398 0.253,-0.39258 0.89797,-0.19366 0.88568,0.27398 z"
         style="fill:#000000;fill-opacity:0.97142855;stroke:none;stroke-width:0.06464466;stroke-miterlimit:4;stroke-dasharray:none;stroke-opacity:1" />
      <path
         id="path1794-4-0-9-0-0-0-2-1-6-0-2-7"
         d="m 113.86045,134.50818 c -6.5e-4,0.83733 -1.35638,0.41323 -0.88568,-0.27398 0.253,-0.39258 0.89797,-0.19366 0.88568,0.27398 z"
         style="fill:#000000;fill-opacity:0.97142855;stroke:none;stroke-width:0.06464466;stroke-miterlimit:4;stroke-dasharray:none;stroke-opacity:1" />
      <path
         id="path1792-1-7-9-1-0"
         d="m 118.01618,140.72697 c 0.0938,1.61615 -2.36688,2.20765 -3.01649,0.72349 -0.80295,-1.37523 1.06061,-3.01484 2.32209,-2.0399 0.42988,0.28977 0.69793,0.79804 0.6944,1.31641 z"
         style="fill:#000000;fill-opacity:0.97142855;stroke:none;stroke-width:0.1;stroke-miterlimit:4;stroke-dasharray:none;stroke-opacity:1" />
    </g>
    <path
       id="path1794-4-0-9-0-0-0-2-4-5-3-7-7"
       d="m 7.7921733,285.90623 c -5.886e-4,0.64526 -1.2178043,0.31845 -0.7951926,-0.21112 0.2271493,-0.30253 0.8062271,-0.14925 0.7951926,0.21112 z"
       style="fill:#000000;fill-opacity:0.97142855;stroke:none;stroke-width:0.05377115;stroke-miterlimit:4;stroke-dasharray:none;stroke-opacity:1" />
    <path
       id="path1794-4-0-9-0-0-0-2-8-4-6-8-8"
       d="m 16.130145,279.95053 c -5.89e-4,0.64526 -1.217805,0.31844 -0.795193,-0.21113 0.227149,-0.30252 0.806228,-0.14924 0.795193,0.21113 z"
       style="fill:#000000;fill-opacity:0.97142855;stroke:none;stroke-width:0.05377115;stroke-miterlimit:4;stroke-dasharray:none;stroke-opacity:1" />
    <path
       id="path1794-4-7-7-4-3-5-9"
       d="m 12.245598,285.75171 c 0.428564,0.65081 -0.84979,1.20319 -1.203765,0.52034 -0.388632,-0.68126 0.790016,-1.19741 1.203765,-0.52034 z"
       style="fill:#000000;fill-opacity:0.97142855;stroke:none;stroke-width:0.08317956;stroke-miterlimit:4;stroke-dasharray:none;stroke-opacity:1" />
    <path
       id="path1794-4-1-6-6-6-8-7-9"
       d="m 14.692836,287.93956 c 0.428564,0.65082 -0.849789,1.20318 -1.203765,0.52034 -0.388633,-0.68126 0.790015,-1.19741 1.203765,-0.52034 z"
       style="fill:#000000;fill-opacity:0.97142855;stroke:none;stroke-width:0.08317956;stroke-miterlimit:4;stroke-dasharray:none;stroke-opacity:1" />
    <path
       id="path1794-4-0-9-0-5-6-05-9-4-3"
       d="m 12.236919,284.75614 c 0.337622,0.57653 -0.920778,0.75457 -0.820853,0.11844 0.04434,-0.3579 0.641854,-0.44456 0.820853,-0.11844 z"
       style="fill:#000000;fill-opacity:0.97142855;stroke:none;stroke-width:0.05377115;stroke-miterlimit:4;stroke-dasharray:none;stroke-opacity:1" />
    <path
       id="path1794-4-0-9-0-4-5-5-1-9"
       d="m 19.035336,289.80672 c -5.89e-4,0.64526 -1.217805,0.31844 -0.795193,-0.21114 0.227149,-0.30253 0.806227,-0.14924 0.795193,0.21114 z"
       style="fill:#000000;fill-opacity:0.97142855;stroke:none;stroke-width:0.05377115;stroke-miterlimit:4;stroke-dasharray:none;stroke-opacity:1" />
    <path
       id="path1794-4-0-9-0-4-3-3-0-8-4"
       d="m 10.626091,290.13758 c -5.89e-4,0.64526 -1.2178042,0.31845 -0.7951934,-0.21112 0.2271494,-0.30254 0.8062274,-0.14925 0.7951934,0.21112 z"
       style="fill:#000000;fill-opacity:0.97142855;stroke:none;stroke-width:0.05377115;stroke-miterlimit:4;stroke-dasharray:none;stroke-opacity:1" />
    <path
       id="path1794-4-0-9-0-0-0-2-4-9-9-1-5-6"
       d="m 16.487162,277.7531 c -5.89e-4,0.64527 -1.217805,0.31845 -0.795194,-0.21113 0.22715,-0.30253 0.806228,-0.14924 0.795194,0.21113 z"
       style="fill:#000000;fill-opacity:0.97142855;stroke:none;stroke-width:0.05377115;stroke-miterlimit:4;stroke-dasharray:none;stroke-opacity:1" />
    <path
       id="path1794-4-0-9-0-0-0-2-0-1-7-9-4"
       d="m 4.5149587,283.14524 c -5.89e-4,0.64527 -1.2178048,0.31845 -0.795193,-0.21112 0.227149,-0.30253 0.8062273,-0.14925 0.795193,0.21112 z"
       style="fill:#000000;fill-opacity:0.97142855;stroke:none;stroke-width:0.05377115;stroke-miterlimit:4;stroke-dasharray:none;stroke-opacity:1" />
    <g
       transform="matrix(0.80187835,-0.34662303,0.40384223,0.68826261,-143.91945,227.98664)"
       id="g2119-6-5-1-7-5"
       style="fill:#000000">
      <path
         id="path1794-4-7-6-0-9-5-5"
         d="m 114.02867,138.4752 c 0.0464,0.96899 -1.54762,0.96874 -1.50118,0 0.011,-0.98427 1.48479,-0.99198 1.50118,0 z"
         style="fill:#000000;fill-opacity:0.97142855;stroke:none;stroke-width:0.1;stroke-miterlimit:4;stroke-dasharray:none;stroke-opacity:1" />
      <path
         id="path1794-4-1-6-8-4-8-3-5"
         d="m 114.65658,142.17085 c 0.0464,0.96899 -1.54762,0.96874 -1.50118,0 0.011,-0.98427 1.48479,-0.99199 1.50118,0 z"
         style="fill:#000000;fill-opacity:0.97142855;stroke:none;stroke-width:0.1;stroke-miterlimit:4;stroke-dasharray:none;stroke-opacity:1" />
      <path
         id="path1794-4-0-9-0-5-7-9-2-8-6"
         d="m 114.82244,136.92972 c -6.5e-4,0.83733 -1.35638,0.41323 -0.88568,-0.27398 0.253,-0.39258 0.89797,-0.19366 0.88568,0.27398 z"
         style="fill:#000000;fill-opacity:0.97142855;stroke:none;stroke-width:0.06464466;stroke-miterlimit:4;stroke-dasharray:none;stroke-opacity:1" />
      <path
         id="path1794-4-0-9-0-0-0-2-1-7-6-6-8-0"
         d="m 113.86045,134.50818 c -6.5e-4,0.83733 -1.35638,0.41323 -0.88568,-0.27398 0.253,-0.39258 0.89797,-0.19366 0.88568,0.27398 z"
         style="fill:#000000;fill-opacity:0.97142855;stroke:none;stroke-width:0.06464466;stroke-miterlimit:4;stroke-dasharray:none;stroke-opacity:1" />
      <path
         id="path1792-1-6-7-7-3-6"
         d="m 118.01618,140.72697 c 0.0938,1.61615 -2.36688,2.20765 -3.01649,0.72349 -0.80295,-1.37523 1.06061,-3.01484 2.32209,-2.0399 0.42988,0.28977 0.69793,0.79804 0.6944,1.31641 z"
         style="fill:#000000;fill-opacity:0.97142855;stroke:none;stroke-width:0.1;stroke-miterlimit:4;stroke-dasharray:none;stroke-opacity:1" />
    </g>
    <path
       id="path1794-4-0-9-0-6-4-5-1-2"
       d="m 10.752657,286.55491 c -5.89e-4,0.64526 -1.2178046,0.31844 -0.7951932,-0.21113 0.2271492,-0.30253 0.8062262,-0.14925 0.7951932,0.21113 z"
       style="fill:#000000;fill-opacity:0.97142855;stroke:none;stroke-width:0.05377115;stroke-miterlimit:4;stroke-dasharray:none;stroke-opacity:1" />
    <path
       id="path1794-4-0-9-0-6-5-3-9-8-6"
       d="m 4.7830156,281.63702 c -5.89e-4,0.64526 -1.2178049,0.31845 -0.7951931,-0.21112 0.227149,-0.30253 0.8062274,-0.14925 0.7951931,0.21112 z"
       style="fill:#000000;fill-opacity:0.97142855;stroke:none;stroke-width:0.05377115;stroke-miterlimit:4;stroke-dasharray:none;stroke-opacity:1" />
    <path
       id="path1794-4-0-2-1-3-0-3-9-9"
       d="m 12.161475,283.92101 c 0.0417,0.74671 -1.389502,0.74652 -1.347805,0 0.0099,-0.7585 1.33309,-0.76445 1.347805,0 z"
       style="fill:#000000;fill-opacity:0.97142855;stroke:none;stroke-width:0.08317956;stroke-miterlimit:4;stroke-dasharray:none;stroke-opacity:1" />
    <path
       id="path1794-4-0-2-1-3-7-9-9-6-9"
       d="m 16.33863,281.20246 c 0.0417,0.74671 -1.389503,0.74653 -1.347806,0 0.0099,-0.7585 1.33309,-0.76444 1.347806,0 z"
       style="fill:#000000;fill-opacity:0.97142855;stroke:none;stroke-width:0.08317956;stroke-miterlimit:4;stroke-dasharray:none;stroke-opacity:1" />
    <path
       id="path1794-0-4-9-6-9-4-2"
       d="m 18.005832,290.65994 c 0.0417,0.74671 -1.389502,0.74651 -1.347805,0 0.0099,-0.75851 1.333089,-0.76446 1.347805,0 z"
       style="fill:#000000;fill-opacity:0.97142855;stroke:none;stroke-width:0.08317956;stroke-miterlimit:4;stroke-dasharray:none;stroke-opacity:1" />
    <path
       id="path1794-4-0-9-0-4-3-7-6-7-3-9"
       d="m 13.147202,288.61528 c -5.89e-4,0.64526 -1.217805,0.31844 -0.795193,-0.21113 0.227149,-0.30253 0.806226,-0.14925 0.795193,0.21113 z"
       style="fill:#000000;fill-opacity:0.97142855;stroke:none;stroke-width:0.05377115;stroke-miterlimit:4;stroke-dasharray:none;stroke-opacity:1" />
    <g
       transform="matrix(0.30812443,-0.7238163,0.84330108,0.26446721,-146.26377,336.95086)"
       id="g2119-5-2-0-9-3-6"
       style="fill:#000000">
      <path
         id="path1794-4-7-7-6-4-7-3-5"
         d="m 114.02867,138.4752 c 0.0464,0.96899 -1.54762,0.96874 -1.50118,0 0.011,-0.98427 1.48479,-0.99198 1.50118,0 z"
         style="fill:#000000;fill-opacity:0.97142855;stroke:none;stroke-width:0.1;stroke-miterlimit:4;stroke-dasharray:none;stroke-opacity:1" />
      <path
         id="path1794-4-1-6-6-4-5-3-8-5"
         d="m 114.65658,142.17085 c 0.0464,0.96899 -1.54762,0.96874 -1.50118,0 0.011,-0.98427 1.48479,-0.99199 1.50118,0 z"
         style="fill:#000000;fill-opacity:0.97142855;stroke:none;stroke-width:0.1;stroke-miterlimit:4;stroke-dasharray:none;stroke-opacity:1" />
      <path
         id="path1794-4-0-9-0-5-6-0-8-5-6-3"
         d="m 114.82244,136.92972 c -6.5e-4,0.83733 -1.35638,0.41323 -0.88568,-0.27398 0.253,-0.39258 0.89797,-0.19366 0.88568,0.27398 z"
         style="fill:#000000;fill-opacity:0.97142855;stroke:none;stroke-width:0.06464466;stroke-miterlimit:4;stroke-dasharray:none;stroke-opacity:1" />
      <path
         id="path1794-4-0-9-0-0-0-2-1-9-7-2-0-0-8"
         d="m 113.86045,134.50818 c -6.5e-4,0.83733 -1.35638,0.41323 -0.88568,-0.27398 0.253,-0.39258 0.89797,-0.19366 0.88568,0.27398 z"
         style="fill:#000000;fill-opacity:0.97142855;stroke:none;stroke-width:0.06464466;stroke-miterlimit:4;stroke-dasharray:none;stroke-opacity:1" />
      <path
         id="path1792-1-1-5-8-4-4-6"
         d="m 118.01618,140.72697 c 0.0938,1.61615 -2.36688,2.20765 -3.01649,0.72349 -0.80295,-1.37523 1.06061,-3.01484 2.32209,-2.0399 0.42988,0.28977 0.69793,0.79804 0.6944,1.31641 z"
         style="fill:#000000;fill-opacity:0.97142855;stroke:none;stroke-width:0.1;stroke-miterlimit:4;stroke-dasharray:none;stroke-opacity:1" />
    </g>
    <path
       id="path1794-4-4-6-1-8-7"
       d="m 7.7924203,282.42989 c 0.041704,0.74672 -1.3895008,0.74653 -1.3478047,0 0.00992,-0.7585 1.3330904,-0.76444 1.3478047,0 z"
       style="fill:#000000;fill-opacity:0.97142855;stroke:none;stroke-width:0.08317956;stroke-miterlimit:4;stroke-dasharray:none;stroke-opacity:1" />
    <path
       id="path1794-4-0-9-0-0-1-8-9-8-3"
       d="m 12.306699,280.23108 c -5.89e-4,0.64526 -1.217805,0.31845 -0.795193,-0.21112 0.227149,-0.30253 0.806227,-0.14925 0.795193,0.21112 z"
       style="fill:#000000;fill-opacity:0.97142855;stroke:none;stroke-width:0.05377115;stroke-miterlimit:4;stroke-dasharray:none;stroke-opacity:1" />
    <path
       id="path1794-4-0-9-0-2-5-4-8-6"
       d="m 10.618152,285.67119 c -5.89e-4,0.64526 -1.2178043,0.31844 -0.7951928,-0.21113 0.2271488,-0.30253 0.8062268,-0.14924 0.7951928,0.21113 z"
       style="fill:#000000;fill-opacity:0.97142855;stroke:none;stroke-width:0.05377115;stroke-miterlimit:4;stroke-dasharray:none;stroke-opacity:1" />
    <path
       id="path1794-0-4-8-3-1-9-0"
       d="m 11.712423,287.41218 c 0.0417,0.74673 -1.389502,0.74653 -1.347805,0 0.0099,-0.75849 1.333089,-0.76444 1.347805,0 z"
       style="fill:#000000;fill-opacity:0.97142855;stroke:none;stroke-width:0.08317956;stroke-miterlimit:4;stroke-dasharray:none;stroke-opacity:1" />
    <g
       transform="matrix(-0.305823,-0.72453504,0.84413845,-0.26249186,-71.722483,412.70696)"
       id="g2119-5-2-5-4-4-7-2"
       style="fill:#000000">
      <path
         id="path1794-4-7-7-6-2-0-3-7-6"
         d="m 114.02867,138.4752 c 0.0464,0.96899 -1.54762,0.96874 -1.50118,0 0.011,-0.98427 1.48479,-0.99198 1.50118,0 z"
         style="fill:#000000;fill-opacity:0.97142855;stroke:none;stroke-width:0.1;stroke-miterlimit:4;stroke-dasharray:none;stroke-opacity:1" />
      <path
         id="path1794-4-1-6-6-4-0-1-6-6-9"
         d="m 114.65658,142.17085 c 0.0464,0.96899 -1.54762,0.96874 -1.50118,0 0.011,-0.98427 1.48479,-0.99199 1.50118,0 z"
         style="fill:#000000;fill-opacity:0.97142855;stroke:none;stroke-width:0.1;stroke-miterlimit:4;stroke-dasharray:none;stroke-opacity:1" />
      <path
         id="path1794-4-0-9-0-5-6-0-7-7-4-4-3"
         d="m 114.82244,136.92972 c -6.5e-4,0.83733 -1.35638,0.41323 -0.88568,-0.27398 0.253,-0.39258 0.89797,-0.19366 0.88568,0.27398 z"
         style="fill:#000000;fill-opacity:0.97142855;stroke:none;stroke-width:0.06464466;stroke-miterlimit:4;stroke-dasharray:none;stroke-opacity:1" />
      <path
         id="path1794-4-0-9-0-0-0-2-1-9-7-1-7-2-3-0"
         d="m 113.86045,134.50818 c -6.5e-4,0.83733 -1.35638,0.41323 -0.88568,-0.27398 0.253,-0.39258 0.89797,-0.19366 0.88568,0.27398 z"
         style="fill:#000000;fill-opacity:0.97142855;stroke:none;stroke-width:0.06464466;stroke-miterlimit:4;stroke-dasharray:none;stroke-opacity:1" />
      <path
         id="path1792-1-1-5-6-8-2-0-8"
         d="m 118.01618,140.72697 c 0.0938,1.61615 -2.36688,2.20765 -3.01649,0.72349 -0.80295,-1.37523 1.06061,-3.01484 2.32209,-2.0399 0.42988,0.28977 0.69793,0.79804 0.6944,1.31641 z"
         style="fill:#000000;fill-opacity:0.97142855;stroke:none;stroke-width:0.1;stroke-miterlimit:4;stroke-dasharray:none;stroke-opacity:1" />
    </g>
    <path
       id="path1794-4-0-9-0-4-3-4-0-7-3-7"
       d="m 18.812988,280.81016 c -5.89e-4,0.64526 -1.217804,0.31843 -0.795193,-0.21114 0.227149,-0.30253 0.806228,-0.14924 0.795193,0.21114 z"
       style="fill:#000000;fill-opacity:0.97142855;stroke:none;stroke-width:0.05377115;stroke-miterlimit:4;stroke-dasharray:none;stroke-opacity:1" />
    <path
       id="path1794-4-0-9-0-4-3-9-8-6-0-6"
       d="m 16.663094,288.42943 c -5.89e-4,0.64526 -1.217804,0.31844 -0.795193,-0.21113 0.227149,-0.30253 0.806227,-0.14924 0.795193,0.21113 z"
       style="fill:#000000;fill-opacity:0.97142855;stroke:none;stroke-width:0.05377115;stroke-miterlimit:4;stroke-dasharray:none;stroke-opacity:1" />
    <path
       id="path1794-4-0-9-0-4-3-9-5-9-1-9-5"
       d="m 8.5258592,288.14384 c -5.893e-4,0.64525 -1.2178047,0.31844 -0.7951929,-0.21113 0.2271486,-0.30253 0.8062274,-0.14925 0.7951929,0.21113 z"
       style="fill:#000000;fill-opacity:0.97142855;stroke:none;stroke-width:0.05377115;stroke-miterlimit:4;stroke-dasharray:none;stroke-opacity:1" />
    <path
       id="path1794-4-0-2-1-3-7-3-7-8-2-2"
       d="m 17.443387,284.45215 c 0.0417,0.74672 -1.389502,0.74653 -1.347805,0 0.0099,-0.7585 1.333089,-0.76445 1.347805,0 z"
       style="fill:#000000;fill-opacity:0.97142855;stroke:none;stroke-width:0.08317956;stroke-miterlimit:4;stroke-dasharray:none;stroke-opacity:1" />
    <path
       id="path1794-4-0-2-1-3-7-5-8-5-5-4"
       d="m 14.936428,281.95582 c 0.0417,0.74673 -1.389502,0.74653 -1.347805,0 0.0099,-0.75849 1.33309,-0.76444 1.347805,0 z"
       style="fill:#000000;fill-opacity:0.97142855;stroke:none;stroke-width:0.08317956;stroke-miterlimit:4;stroke-dasharray:none;stroke-opacity:1" />
    <path
       id="path1794-4-0-2-1-1-3-1-4-0"
       d="m 15.262511,291.06925 c 0.0417,0.74672 -1.389502,0.74653 -1.347805,0 0.0099,-0.7585 1.333089,-0.76444 1.347805,0 z"
       style="fill:#000000;fill-opacity:0.97142855;stroke:none;stroke-width:0.08317956;stroke-miterlimit:4;stroke-dasharray:none;stroke-opacity:1" />
    <path
       id="path1794-4-0-9-0-4-3-1-9-1-0-0"
       d="m 16.385989,290.77501 c -5.89e-4,0.64526 -1.217805,0.31844 -0.795193,-0.21113 0.227149,-0.30253 0.806227,-0.14924 0.795193,0.21113 z"
       style="fill:#000000;fill-opacity:0.97142855;stroke:none;stroke-width:0.05377115;stroke-miterlimit:4;stroke-dasharray:none;stroke-opacity:1" />
    <path
       id="path1794-4-0-9-0-4-3-0-7-3-5-6"
       d="m 15.630486,288.67807 c -5.89e-4,0.64527 -1.217804,0.31844 -0.795193,-0.21113 0.22715,-0.30253 0.806227,-0.14924 0.795193,0.21113 z"
       style="fill:#000000;fill-opacity:0.97142855;stroke:none;stroke-width:0.05377115;stroke-miterlimit:4;stroke-dasharray:none;stroke-opacity:1" />
    <path
       id="path1794-4-0-9-0-4-3-07-25-0-9-8"
       d="m 12.192902,288.23614 c -5.89e-4,0.64526 -1.217805,0.31845 -0.795193,-0.21113 0.227149,-0.30253 0.806227,-0.14925 0.795193,0.21113 z"
       style="fill:#000000;fill-opacity:0.97142855;stroke:none;stroke-width:0.05377115;stroke-miterlimit:4;stroke-dasharray:none;stroke-opacity:1" />
    <path
       id="path1794-4-0-9-0-0-6-0-6-4-5"
       d="m 13.516685,286.00224 c -5.9e-4,0.64525 -1.217805,0.31843 -0.795194,-0.21114 0.227149,-0.30253 0.806228,-0.14924 0.795194,0.21114 z"
       style="fill:#000000;fill-opacity:0.97142855;stroke:none;stroke-width:0.05377115;stroke-miterlimit:4;stroke-dasharray:none;stroke-opacity:1" />
    <path
       id="path1794-4-0-9-0-0-4-2-4-6-4"
       d="m 16.083977,284.90047 c -5.89e-4,0.64525 -1.217805,0.31844 -0.795193,-0.21113 0.227149,-0.30254 0.806227,-0.14925 0.795193,0.21113 z"
       style="fill:#000000;fill-opacity:0.97142855;stroke:none;stroke-width:0.05377115;stroke-miterlimit:4;stroke-dasharray:none;stroke-opacity:1" />
    <path
       id="path1794-4-1-6-6-4-0-2-0-5-9-9"
       d="m 18.78157,285.48947 c -0.366466,-0.67818 0.95932,-1.14091 1.248448,-0.43592 0.32382,0.70578 -0.8992,1.13926 -1.248448,0.43592 z"
       style="fill:#000000;fill-opacity:0.97142855;stroke:none;stroke-width:0.08317956;stroke-miterlimit:4;stroke-dasharray:none;stroke-opacity:1" />
    <path
       id="path1794-4-0-9-0-0-0-2-1-9-7-1-2-2-8-2-4"
       d="m 21.845279,291.21949 c -0.282746,-0.59788 0.988225,-0.68885 0.829267,-0.0616 -0.07758,0.35369 -0.681269,0.399 -0.829267,0.0616 z"
       style="fill:#000000;fill-opacity:0.97142855;stroke:none;stroke-width:0.05377115;stroke-miterlimit:4;stroke-dasharray:none;stroke-opacity:1" />
    <path
       id="path1792-1-1-5-6-7-6-2-2-6"
       d="m 16.416774,287.49574 c -0.624835,-1.12638 1.221492,-2.26317 2.263866,-1.39239 1.133049,0.74848 0.137962,2.46001 -1.240993,2.13041 -0.455547,-0.082 -0.850431,-0.36697 -1.022873,-0.73802 z"
       style="fill:#000000;fill-opacity:0.97142855;stroke:none;stroke-width:0.08317956;stroke-miterlimit:4;stroke-dasharray:none;stroke-opacity:1" />
    <g
       transform="matrix(0.40109702,0.68944422,-0.80325503,0.34426679,83.475516,158.61386)"
       id="g2803-5-7-4-8"
       style="fill:#000000">
      <path
         id="path1794-4-0-2-1-3-7-3-0-6-3-7-3"
         d="m 116.64084,142.59578 c 0.0465,0.96899 -1.54762,0.96873 -1.50118,0 0.011,-0.98427 1.48479,-0.99199 1.50118,0 z"
         style="fill:#000000;fill-opacity:0.97142855;stroke:none;stroke-width:0.1;stroke-miterlimit:4;stroke-dasharray:none;stroke-opacity:1" />
      <path
         id="path1794-4-0-9-0-0-4-4-6-5-7-2"
         d="m 115.12675,143.17754 c -6.6e-4,0.83732 -1.35639,0.41323 -0.88568,-0.27398 0.25299,-0.39258 0.89797,-0.19367 0.88568,0.27398 z"
         style="fill:#000000;fill-opacity:0.97142855;stroke:none;stroke-width:0.06464466;stroke-miterlimit:4;stroke-dasharray:none;stroke-opacity:1" />
    </g>
    <g
       transform="matrix(0.61633947,-0.56035619,0.65285762,0.52901219,-148.6831,275.03748)"
       id="g2838-3-3-5-3"
       style="fill:#000000">
      <path
         id="path1794-4-0-2-5-4-7-4-6"
         d="m 115.72456,142.98923 c 0.0465,0.96898 -1.54762,0.96873 -1.50118,0 0.011,-0.98427 1.48479,-0.99199 1.50118,0 z"
         style="fill:#000000;fill-opacity:0.97142855;stroke:none;stroke-width:0.1;stroke-miterlimit:4;stroke-dasharray:none;stroke-opacity:1" />
      <path
         id="path1794-4-0-9-0-5-6-5-1-4-8-2"
         d="m 117.09382,143.15565 c 0.37604,0.74814 -1.02556,0.97917 -0.91427,0.15368 0.0494,-0.46442 0.7149,-0.57687 0.91427,-0.15368 z"
         style="fill:#000000;fill-opacity:0.97142855;stroke:none;stroke-width:0.06464466;stroke-miterlimit:4;stroke-dasharray:none;stroke-opacity:1" />
      <path
         id="path1794-4-0-9-0-0-0-2-1-9-0-7-8-1-2"
         d="m 115.14543,141.42561 c 0.37604,0.74813 -1.02556,0.97916 -0.91427,0.15367 0.0494,-0.46442 0.7149,-0.57687 0.91427,-0.15367 z"
         style="fill:#000000;fill-opacity:0.97142855;stroke:none;stroke-width:0.06464466;stroke-miterlimit:4;stroke-dasharray:none;stroke-opacity:1" />
    </g>
    <path
       id="path1794-4-0-9-0-2-1-1-0-2-4"
       d="m 10.793475,281.93075 c -5.89e-4,0.64525 -1.2178039,0.31844 -0.7951932,-0.21113 0.2271492,-0.30253 0.8062272,-0.14925 0.7951932,0.21113 z"
       style="fill:#000000;fill-opacity:0.97142855;stroke:none;stroke-width:0.05377115;stroke-miterlimit:4;stroke-dasharray:none;stroke-opacity:1" />
    <path
       id="path1794-4-0-2-1-3-6-3-0-8-7"
       d="m 10.956181,283.2415 c 0.0417,0.74673 -1.3895016,0.74652 -1.3478046,0 0.00992,-0.75849 1.3330896,-0.76444 1.3478046,0 z"
       style="fill:#000000;fill-opacity:0.97142855;stroke:none;stroke-width:0.08317956;stroke-miterlimit:4;stroke-dasharray:none;stroke-opacity:1" />
    <path
       id="path1794-4-0-9-0-2-1-0-0-1-9-0"
       d="m 12.216507,282.61734 c -5.9e-4,0.64526 -1.217805,0.31845 -0.795194,-0.21114 0.227149,-0.30252 0.806228,-0.14924 0.795194,0.21114 z"
       style="fill:#000000;fill-opacity:0.97142855;stroke:none;stroke-width:0.05377115;stroke-miterlimit:4;stroke-dasharray:none;stroke-opacity:1" />
    <path
       id="path1794-4-0-9-0-4-3-07-2-8-6-3-4"
       d="m 13.800332,290.86534 c -5.89e-4,0.64526 -1.217805,0.31845 -0.795193,-0.21112 0.227149,-0.30253 0.806228,-0.14925 0.795193,0.21112 z"
       style="fill:#000000;fill-opacity:0.97142855;stroke:none;stroke-width:0.05377115;stroke-miterlimit:4;stroke-dasharray:none;stroke-opacity:1" />
    <path
       id="path1794-4-1-1-2-4-6-9"
       d="m 9.6535089,278.95973 c 0.041704,0.74672 -1.389501,0.74653 -1.3478047,0 0.00992,-0.7585 1.3330904,-0.76445 1.3478047,0 z"
       style="fill:#000000;fill-opacity:0.97142855;stroke:none;stroke-width:0.08317956;stroke-miterlimit:4;stroke-dasharray:none;stroke-opacity:1" />
    <path
       id="path1794-4-0-9-0-4-3-4-1-0-8-8-6"
       d="m 18.967618,284.29836 c -5.89e-4,0.64527 -1.217805,0.31844 -0.795193,-0.21113 0.227149,-0.30253 0.806227,-0.14924 0.795193,0.21113 z"
       style="fill:#000000;fill-opacity:0.97142855;stroke:none;stroke-width:0.05377115;stroke-miterlimit:4;stroke-dasharray:none;stroke-opacity:1" />
    <path
       id="path1794-4-0-9-0-4-3-4-8-1-3-0-5"
       d="m 13.401291,282.49732 c -5.89e-4,0.64526 -1.217804,0.31844 -0.795193,-0.21113 0.22715,-0.30253 0.806227,-0.14925 0.795193,0.21113 z"
       style="fill:#000000;fill-opacity:0.97142855;stroke:none;stroke-width:0.05377115;stroke-miterlimit:4;stroke-dasharray:none;stroke-opacity:1" />
    <path
       id="path1792-0-1-2-4"
       d="m 15.100108,284.15394 c 0.08426,1.24543 -2.125055,1.70125 -2.70829,0.55753 -0.720913,-1.05977 0.952242,-2.32329 2.084839,-1.57198 0.385959,0.2233 0.626624,0.61498 0.623451,1.01445 z"
       style="fill:#000000;fill-opacity:0.97142855;stroke:none;stroke-width:0.08317956;stroke-miterlimit:4;stroke-dasharray:none;stroke-opacity:1" />
    <path
       id="path1794-81-2-1-6"
       d="m 9.1909564,277.06198 c 0.041704,0.74673 -1.3895017,0.74653 -1.3478047,0 0.00992,-0.75849 1.3330897,-0.76444 1.3478047,0 z"
       style="fill:#000000;fill-opacity:0.97142855;stroke:none;stroke-width:0.08317956;stroke-miterlimit:4;stroke-dasharray:none;stroke-opacity:1" />
    <path
       id="path1790-6-67-2-0-4"
       d="m 15.082394,280.12883 c 0.05627,0.89057 -1.619136,1.01389 -1.740035,0.12785 -0.22879,-0.85557 1.362264,-1.23642 1.680475,-0.40042 0.03931,0.0866 0.05961,0.17961 0.05956,0.27257 z"
       style="fill:#000000;fill-opacity:0.97142855;stroke:none;stroke-width:0.05769227;stroke-miterlimit:4;stroke-dasharray:none;stroke-opacity:1" />
    <path
       id="path1790-6-2-8-9-5-2"
       d="m 5.9652,279.16604 c 0.056267,0.89057 -1.6191373,1.0139 -1.7400363,0.12785 -0.2287894,-0.85557 1.3622656,-1.23643 1.680476,-0.40042 0.039307,0.0866 0.059607,0.17961 0.059562,0.27257 z"
       style="fill:#000000;fill-opacity:0.97142855;stroke:none;stroke-width:0.05769227;stroke-miterlimit:4;stroke-dasharray:none;stroke-opacity:1" />
    <path
       id="path1790-6-2-3-8-5-1-5"
       d="m 19.265755,276.16621 c 0.04695,0.92369 -1.721069,0.97555 -1.750593,0.0523 -0.122712,-0.90614 1.603976,-1.08008 1.737841,-0.17799 l 0.01056,0.0734 z"
       style="fill:#000000;fill-opacity:0.97142855;stroke:none;stroke-width:0.05720003;stroke-miterlimit:4;stroke-dasharray:none;stroke-opacity:1" />
    <path
       id="path1790-6-1-2-5-1-1"
       d="m 18.475154,283.29717 c 0.05627,0.89057 -1.619137,1.0139 -1.740036,0.12785 -0.228791,-0.85558 1.362265,-1.23643 1.680475,-0.40042 0.03931,0.0866 0.05961,0.17961 0.05956,0.27257 z"
       style="fill:#000000;fill-opacity:0.97142855;stroke:none;stroke-width:0.05769227;stroke-miterlimit:4;stroke-dasharray:none;stroke-opacity:1" />
    <path
       id="path1790-6-2-3-7-1-4-0-6"
       d="m 15.438918,277.26677 c 0.04696,0.9237 -1.721069,0.97555 -1.750593,0.0523 -0.122712,-0.90615 1.603975,-1.08008 1.737841,-0.17799 l 0.01056,0.0734 z"
       style="fill:#000000;fill-opacity:0.97142855;stroke:none;stroke-width:0.05720003;stroke-miterlimit:4;stroke-dasharray:none;stroke-opacity:1" />
    <path
       id="path1790-6-6-3-6-8-1"
       d="m 13.55245,281.32737 c 0.05627,0.89056 -1.619137,1.01389 -1.740036,0.12784 -0.228789,-0.85557 1.362265,-1.23643 1.680475,-0.40042 0.03931,0.0866 0.05961,0.17962 0.05956,0.27258 z"
       style="fill:#000000;fill-opacity:0.97142855;stroke:none;stroke-width:0.05769227;stroke-miterlimit:4;stroke-dasharray:none;stroke-opacity:1" />
    <path
       id="path1790-6-1-0-8-3-5-3"
       d="m 8.0848788,287.20897 c 0.056268,0.89056 -1.6191372,1.01389 -1.7400362,0.12784 -0.2287894,-0.85557 1.3622654,-1.23643 1.6804755,-0.40042 0.039311,0.0866 0.059606,0.17962 0.059564,0.27258 z"
       style="fill:#000000;fill-opacity:0.97142855;stroke:none;stroke-width:0.05769227;stroke-miterlimit:4;stroke-dasharray:none;stroke-opacity:1" />
    <path
       id="path1790-6-1-01-9-1-0-7"
       d="m 16.643053,283.06877 c 0.05627,0.89057 -1.619137,1.01389 -1.740035,0.12785 -0.22879,-0.85558 1.362265,-1.23643 1.680475,-0.40043 0.03931,0.0867 0.05961,0.17962 0.05956,0.27258 z"
       style="fill:#000000;fill-opacity:0.97142855;stroke:none;stroke-width:0.05769227;stroke-miterlimit:4;stroke-dasharray:none;stroke-opacity:1" />
    <path
       id="path1790-6-1-1-3-2-6-7"
       d="m 13.712861,287.24633 c 0.05627,0.89057 -1.619137,1.01389 -1.740036,0.12786 -0.22879,-0.85558 1.362264,-1.23644 1.680476,-0.40044 0.03931,0.0867 0.05961,0.17962 0.05956,0.27258 z"
       style="fill:#000000;fill-opacity:0.97142855;stroke:none;stroke-width:0.05769227;stroke-miterlimit:4;stroke-dasharray:none;stroke-opacity:1" />
    <path
       id="path1794-8-54-0-4-1"
       d="m 8.2542065,278.49169 c 0.041704,0.74672 -1.3895021,0.74653 -1.3478051,0 0.00992,-0.7585 1.3330894,-0.76444 1.3478051,0 z"
       style="fill:#000000;fill-opacity:0.97142855;stroke:none;stroke-width:0.08317956;stroke-miterlimit:4;stroke-dasharray:none;stroke-opacity:1" />
    <path
       id="path1794-8-8-1-6-6-2"
       d="m 11.656302,276.64743 c 0.0417,0.74672 -1.389502,0.74653 -1.347805,0 0.0099,-0.7585 1.33309,-0.76444 1.347805,0 z"
       style="fill:#000000;fill-opacity:0.97142855;stroke:none;stroke-width:0.08317956;stroke-miterlimit:4;stroke-dasharray:none;stroke-opacity:1" />
    <path
       id="path1794-4-7-9-2-5-2-1"
       d="m 13.641011,273.01194 c -0.44946,0.64035 -1.638489,-0.0434 -1.119859,-0.64373 0.499984,-0.62548 1.603232,0.001 1.119859,0.64373 z"
       style="fill:#000000;fill-opacity:0.97142855;stroke:none;stroke-width:0.08317956;stroke-miterlimit:4;stroke-dasharray:none;stroke-opacity:1" />
    <path
       id="path1794-4-1-6-83-2-1-5-0"
       d="m 12.051728,275.61658 c -0.44946,0.64035 -1.638488,-0.0434 -1.119859,-0.64373 0.499985,-0.62548 1.603234,0.001 1.119859,0.64373 z"
       style="fill:#000000;fill-opacity:0.97142855;stroke:none;stroke-width:0.08317956;stroke-miterlimit:4;stroke-dasharray:none;stroke-opacity:1" />
    <path
       id="path1794-4-0-9-0-5-4-7-9-8-8"
       d="m 17.391615,274.02245 c -0.418821,0.53584 -1.218296,-0.31706 -0.523828,-0.55523 0.384868,-0.14287 0.766631,0.26107 0.523828,0.55523 z"
       style="fill:#000000;fill-opacity:0.97142855;stroke:none;stroke-width:0.05377115;stroke-miterlimit:4;stroke-dasharray:none;stroke-opacity:1" />
    <path
       id="path1794-4-0-9-0-0-0-2-1-4-7-4-6-9"
       d="m 12.512036,276.41392 c -0.418821,0.53586 -1.218296,-0.31705 -0.523828,-0.55522 0.384866,-0.14287 0.766632,0.26106 0.523828,0.55522 z"
       style="fill:#000000;fill-opacity:0.97142855;stroke:none;stroke-width:0.05377115;stroke-miterlimit:4;stroke-dasharray:none;stroke-opacity:1" />
    <path
       id="path1792-1-9-9-4-2-0"
       d="m 15.042059,275.90364 c -0.737424,1.07505 -2.868604,0.39857 -2.611711,-0.83028 0.08809,-1.22487 2.297422,-1.47556 2.751387,-0.31037 0.175911,0.36988 0.121945,0.81026 -0.139676,1.14065 z"
       style="fill:#000000;fill-opacity:0.97142855;stroke:none;stroke-width:0.08317956;stroke-miterlimit:4;stroke-dasharray:none;stroke-opacity:1" />
    <path
       id="path1794-1-1-6-8-1"
       d="m 18.390783,275.17454 c -0.737001,0.39839 -1.440651,-0.67131 -0.662832,-1.00728 0.774334,-0.36561 1.431086,0.62033 0.662832,1.00728 z"
       style="fill:#000000;fill-opacity:0.97142855;stroke:none;stroke-width:0.08317956;stroke-miterlimit:4;stroke-dasharray:none;stroke-opacity:1" />
    <path
       id="path1790-6-2-7-4-8-4-3"
       d="m 16.95738,276.68539 c -0.875764,0.48002 -1.824818,-0.71143 -0.985427,-1.23753 0.75542,-0.59174 1.924241,0.41003 1.232648,1.05897 -0.06856,0.072 -0.152896,0.13289 -0.247221,0.17856 z"
       style="fill:#000000;fill-opacity:0.97142855;stroke:none;stroke-width:0.05769227;stroke-miterlimit:4;stroke-dasharray:none;stroke-opacity:1" />
    <path
       id="path1794-8-5-0-1-7-4"
       d="m 16.47973,275.17756 c -0.737001,0.39839 -1.440652,-0.67131 -0.662834,-1.00728 0.774337,-0.3656 1.431088,0.62034 0.662834,1.00728 z"
       style="fill:#000000;fill-opacity:0.97142855;stroke:none;stroke-width:0.08317956;stroke-miterlimit:4;stroke-dasharray:none;stroke-opacity:1" />
    <path
       id="path1794-4-0-9-0-5-4-1-8-1-2-8"
       d="m 19.598867,282.83261 c 0.41726,0.53675 -0.806312,0.84558 -0.797807,0.20373 -0.007,-0.35986 0.573669,-0.50861 0.797807,-0.20373 z"
       style="fill:#000000;fill-opacity:0.97142855;stroke:none;stroke-width:0.05377115;stroke-miterlimit:4;stroke-dasharray:none;stroke-opacity:1" />
    <path
       id="path1794-1-3-7-2-4-5"
       d="m 21.220855,282.47949 c 0.147822,0.73673 -1.27266,0.88682 -1.337681,0.14153 -0.09827,-0.75385 1.214118,-0.89869 1.337681,-0.14153 z"
       style="fill:#000000;fill-opacity:0.97142855;stroke:none;stroke-width:0.08317956;stroke-miterlimit:4;stroke-dasharray:none;stroke-opacity:1" />
    <path
       id="path1794-8-5-8-8-8-0-8"
       d="m 20.494888,283.99683 c 0.147823,0.73674 -1.27266,0.88683 -1.337681,0.14153 -0.09827,-0.75384 1.214119,-0.89868 1.337681,-0.14153 z"
       style="fill:#000000;fill-opacity:0.97142855;stroke:none;stroke-width:0.08317956;stroke-miterlimit:4;stroke-dasharray:none;stroke-opacity:1" />
    <g
       id="g3365-9-08-8-6-2"
       transform="matrix(-0.84214878,0.26715851,-0.31126,-0.72282727,134.52886,350.02295)"
       style="fill:#000000">
      <path
         id="path1790-6-2-3-5-1-6-6-2-2"
         d="m 100.17507,141.47493 c 0.0523,1.19864 -1.916922,1.26593 -1.949806,0.0679 -0.136676,-1.17586 1.786506,-1.40157 1.935606,-0.23096 l 0.0117,0.0952 z"
         style="fill:#000000;fill-opacity:0.97142855;stroke:none;stroke-width:0.06876693;stroke-miterlimit:4;stroke-dasharray:none;stroke-opacity:1" />
      <path
         id="path1794-4-0-9-0-5-4-1-5-1-8-9-0"
         d="m 97.805172,138.41057 c -0.466485,0.69535 -1.356937,-0.41143 -0.583444,-0.72049 0.428666,-0.1854 0.853879,0.33877 0.583444,0.72049 z"
         style="fill:#000000;fill-opacity:0.97142855;stroke:none;stroke-width:0.06464466;stroke-miterlimit:4;stroke-dasharray:none;stroke-opacity:1" />
      <path
         id="path1794-1-3-0-4-2-9-6"
         d="m 98.918036,139.9056 c -0.820869,0.51698 -1.604592,-0.87113 -0.738261,-1.3071 0.862451,-0.47444 1.593941,0.80498 0.738261,1.3071 z"
         style="fill:#000000;fill-opacity:0.97142855;stroke:none;stroke-width:0.1;stroke-miterlimit:4;stroke-dasharray:none;stroke-opacity:1" />
      <path
         id="path1790-6-2-7-7-9-5-0-0-3"
         d="m 97.321533,141.86619 c -0.975424,0.6229 -2.032477,-0.9232 -1.097567,-1.6059 0.841383,-0.76788 2.143217,0.53207 1.37292,1.37419 -0.07637,0.0934 -0.170294,0.17243 -0.275353,0.23171 z"
         style="fill:#000000;fill-opacity:0.97142855;stroke:none;stroke-width:0.06935871;stroke-miterlimit:4;stroke-dasharray:none;stroke-opacity:1" />
      <path
         id="path1794-8-5-8-4-2-2-8-6"
         d="m 96.789502,139.90951 c -0.820869,0.51698 -1.604592,-0.87113 -0.738261,-1.3071 0.86245,-0.47444 1.593941,0.80498 0.738261,1.3071 z"
         style="fill:#000000;fill-opacity:0.97142855;stroke:none;stroke-width:0.1;stroke-miterlimit:4;stroke-dasharray:none;stroke-opacity:1" />
    </g>
    <g
       id="g3365-9-0-5-4-1-1"
       transform="matrix(-0.84214878,0.26715851,-0.31126,-0.72282727,131.41333,352.03694)"
       style="fill:#000000">
      <path
         id="path1790-6-2-3-5-1-0-9-9-3-0"
         d="m 100.17507,141.47493 c 0.0523,1.19864 -1.916922,1.26593 -1.949806,0.0679 -0.136676,-1.17586 1.786506,-1.40157 1.935606,-0.23096 l 0.0117,0.0952 z"
         style="fill:#000000;fill-opacity:0.97142855;stroke:none;stroke-width:0.06876693;stroke-miterlimit:4;stroke-dasharray:none;stroke-opacity:1" />
      <path
         id="path1794-4-0-9-0-5-4-1-5-2-3-8-1-5"
         d="m 97.805172,138.41057 c -0.466485,0.69535 -1.356937,-0.41143 -0.583444,-0.72049 0.428666,-0.1854 0.853879,0.33877 0.583444,0.72049 z"
         style="fill:#000000;fill-opacity:0.97142855;stroke:none;stroke-width:0.06464466;stroke-miterlimit:4;stroke-dasharray:none;stroke-opacity:1" />
      <path
         id="path1794-1-3-0-5-8-1-1-7"
         d="m 98.918036,139.9056 c -0.820869,0.51698 -1.604592,-0.87113 -0.738261,-1.3071 0.862451,-0.47444 1.593941,0.80498 0.738261,1.3071 z"
         style="fill:#000000;fill-opacity:0.97142855;stroke:none;stroke-width:0.1;stroke-miterlimit:4;stroke-dasharray:none;stroke-opacity:1" />
      <path
         id="path1790-6-2-7-7-9-3-8-5-0-4"
         d="m 97.321533,141.86619 c -0.975424,0.6229 -2.032477,-0.9232 -1.097567,-1.6059 0.841383,-0.76788 2.143217,0.53207 1.37292,1.37419 -0.07637,0.0934 -0.170294,0.17243 -0.275353,0.23171 z"
         style="fill:#000000;fill-opacity:0.97142855;stroke:none;stroke-width:0.06935871;stroke-miterlimit:4;stroke-dasharray:none;stroke-opacity:1" />
      <path
         id="path1794-8-5-8-4-8-4-6-3-2"
         d="m 96.789502,139.90951 c -0.820869,0.51698 -1.604592,-0.87113 -0.738261,-1.3071 0.86245,-0.47444 1.593941,0.80498 0.738261,1.3071 z"
         style="fill:#000000;fill-opacity:0.97142855;stroke:none;stroke-width:0.1;stroke-miterlimit:4;stroke-dasharray:none;stroke-opacity:1" />
    </g>
    <path
       id="path1794-4-0-9-0-5-4-5-3-4-4-0"
       d="m 12.450237,274.37202 c -0.41882,0.53584 -1.218294,-0.31706 -0.523827,-0.55522 0.384868,-0.14288 0.766631,0.26106 0.523827,0.55522 z"
       style="fill:#000000;fill-opacity:0.97142855;stroke:none;stroke-width:0.05377115;stroke-miterlimit:4;stroke-dasharray:none;stroke-opacity:1" />
    <path
       id="path1794-4-7-9-5-5-6-0-0"
       d="m 6.0702675,288.13599 c -0.4494587,0.64034 -1.6384873,-0.0434 -1.1198588,-0.64374 0.4999858,-0.62548 1.603234,10e-4 1.1198588,0.64374 z"
       style="fill:#000000;fill-opacity:0.97142855;stroke:none;stroke-width:0.08317956;stroke-miterlimit:4;stroke-dasharray:none;stroke-opacity:1" />
    <path
       id="path1794-4-7-9-5-6-0-8-3-3"
       d="m 3.5767972,287.80995 c -0.4494605,0.64035 -1.6384882,-0.0434 -1.1198589,-0.64373 0.499985,-0.62548 1.603234,10e-4 1.1198589,0.64373 z"
       style="fill:#000000;fill-opacity:0.97142855;stroke:none;stroke-width:0.08317956;stroke-miterlimit:4;stroke-dasharray:none;stroke-opacity:1" />
    <path
       id="path1794-4-7-9-5-6-6-5-6-9-3"
       d="m 6.3200768,289.80231 c -0.4494596,0.64034 -1.6384881,-0.0434 -1.1198588,-0.64373 0.4999849,-0.62549 1.6032328,0.001 1.1198588,0.64373 z"
       style="fill:#000000;fill-opacity:0.97142855;stroke:none;stroke-width:0.08317956;stroke-miterlimit:4;stroke-dasharray:none;stroke-opacity:1" />
    <path
       id="path1794-4-7-9-5-6-6-3-9-3-1-9"
       d="m 19.539207,291.56361 c -0.44946,0.64035 -1.638487,-0.0434 -1.119859,-0.64373 0.499986,-0.62548 1.603234,0.001 1.119859,0.64373 z"
       style="fill:#000000;fill-opacity:0.97142855;stroke:none;stroke-width:0.08317956;stroke-miterlimit:4;stroke-dasharray:none;stroke-opacity:1" />
    <g
       transform="matrix(0.89782925,0,0,0.77061855,-89.917323,179.84057)"
       id="g3682-3-5-9-0"
       style="fill:#000000">
      <path
         id="path1794-0-4-4-4-7-6-4"
         d="m 120.01998,145.75381 c 0.0464,0.96899 -1.54763,0.96874 -1.50118,0 0.011,-0.98427 1.48479,-0.99198 1.50118,0 z"
         style="fill:#000000;fill-opacity:0.97142855;stroke:none;stroke-width:0.1;stroke-miterlimit:4;stroke-dasharray:none;stroke-opacity:1" />
      <path
         id="path1794-4-0-9-0-4-0-6-4-9-3"
         d="m 118.08313,145.10789 c -6.6e-4,0.83733 -1.35639,0.41323 -0.88569,-0.27397 0.253,-0.39258 0.89797,-0.19367 0.88569,0.27397 z"
         style="fill:#000000;fill-opacity:0.97142855;stroke:none;stroke-width:0.06464466;stroke-miterlimit:4;stroke-dasharray:none;stroke-opacity:1" />
      <path
         id="path1794-0-4-9-8-2-2-3-3"
         d="m 117.92742,146.77663 c 0.0465,0.96898 -1.54763,0.96873 -1.50118,0 0.011,-0.98427 1.48479,-0.99199 1.50118,0 z"
         style="fill:#000000;fill-opacity:0.97142855;stroke:none;stroke-width:0.1;stroke-miterlimit:4;stroke-dasharray:none;stroke-opacity:1" />
      <path
         id="path1794-4-7-9-5-6-6-3-0-5-4-3-4"
         d="m 119.60225,147.91625 c -0.50061,0.83096 -1.82494,-0.0563 -1.24729,-0.83534 0.55688,-0.81166 1.78567,0.002 1.24729,0.83534 z"
         style="fill:#000000;fill-opacity:0.97142855;stroke:none;stroke-width:0.1;stroke-miterlimit:4;stroke-dasharray:none;stroke-opacity:1" />
    </g>
    <path
       id="path1792-1-9-8-3-0-8-2"
       d="m 21.278304,278.75145 c -0.737427,1.07505 -2.868606,0.39857 -2.611712,-0.83028 0.08809,-1.22486 2.297421,-1.47556 2.751387,-0.31037 0.175911,0.36987 0.121945,0.81026 -0.139675,1.14065 z"
       style="fill:#000000;fill-opacity:0.97142855;stroke:none;stroke-width:0.08317956;stroke-miterlimit:4;stroke-dasharray:none;stroke-opacity:1" />
    <path
       id="path1794-4-0-9-0-5-4-15-2-2-0-4"
       d="m 17.250604,277.37221 c -0.418821,0.53585 -1.218296,-0.31706 -0.523828,-0.55522 0.384867,-0.14287 0.766632,0.26107 0.523828,0.55522 z"
       style="fill:#000000;fill-opacity:0.97142855;stroke:none;stroke-width:0.05377115;stroke-miterlimit:4;stroke-dasharray:none;stroke-opacity:1" />
    <path
       id="path1794-4-0-9-0-5-4-15-3-0-7-5-5"
       d="m 10.17374,277.48082 c -0.4188208,0.53585 -1.2182954,-0.31705 -0.5238283,-0.55522 0.3848673,-0.14287 0.7666323,0.26106 0.5238283,0.55522 z"
       style="fill:#000000;fill-opacity:0.97142855;stroke:none;stroke-width:0.05377115;stroke-miterlimit:4;stroke-dasharray:none;stroke-opacity:1" />
    <path
       id="path1794-4-0-9-0-5-4-15-3-5-0-2-6-3"
       d="m 6.4460737,286.41362 c -0.4188212,0.53584 -1.218295,-0.31706 -0.5238286,-0.55523 0.384868,-0.14287 0.7666327,0.26107 0.5238286,0.55523 z"
       style="fill:#000000;fill-opacity:0.97142855;stroke:none;stroke-width:0.05377115;stroke-miterlimit:4;stroke-dasharray:none;stroke-opacity:1" />
    <path
       id="path1794-4-0-9-0-5-4-15-3-5-1-0-0-6-8"
       d="m 7.2650676,288.71044 c -0.4188218,0.53586 -1.2182963,-0.31705 -0.5238292,-0.55521 0.3848679,-0.14288 0.7666331,0.26106 0.5238292,0.55521 z"
       style="fill:#000000;fill-opacity:0.97142855;stroke:none;stroke-width:0.05377115;stroke-miterlimit:4;stroke-dasharray:none;stroke-opacity:1" />
    <path
       id="path1794-4-0-9-0-5-4-15-3-5-4-9-1-4-1"
       d="m 19.161206,288.73561 c -0.418821,0.53585 -1.218295,-0.31705 -0.523828,-0.55521 0.384868,-0.14288 0.766632,0.26105 0.523828,0.55521 z"
       style="fill:#000000;fill-opacity:0.97142855;stroke:none;stroke-width:0.05377115;stroke-miterlimit:4;stroke-dasharray:none;stroke-opacity:1" />
    <path
       id="path1794-4-0-9-0-5-4-15-3-5-4-0-8-6-0-1"
       d="m 18.410112,285.36932 c -0.418821,0.53585 -1.218295,-0.31706 -0.523828,-0.55522 0.384867,-0.14288 0.766633,0.26107 0.523828,0.55522 z"
       style="fill:#000000;fill-opacity:0.97142855;stroke:none;stroke-width:0.05377115;stroke-miterlimit:4;stroke-dasharray:none;stroke-opacity:1" />
    <path
       id="text1086-7-0-5-1"
       d="m 14.112316,290.50966 c -2.511859,0.12007 -5.3641148,-0.91089 -6.0650226,-3.16032 -0.7883271,-2.52538 -0.8910558,-5.62256 1.1488748,-7.7476 2.1203248,-1.87447 5.7110298,-1.92615 8.3635708,-0.92796 1.312801,0.84396 -0.580709,2.0204 -1.533747,0.9586 -2.302881,-0.70504 -5.599959,-0.0846 -6.2579353,2.20938 -0.5556303,2.00951 -0.6805079,4.40431 0.7744433,6.16415 1.81345,1.66334 4.976609,1.39567 7.078436,0.29765 2.066907,1.49271 -1.61559,2.18782 -2.976972,2.19406 l -0.263593,0.009 z m 6.02056,-0.0701 c -1.53023,0.12905 -0.451021,-1.19433 -0.271427,-1.8384 1.475187,-3.43775 2.847793,-6.92035 4.386914,-10.33013 0.817383,-0.28112 2.280413,-0.34666 2.359648,0.67794 1.543944,3.73357 3.170446,7.44631 4.662692,11.19295 -0.783499,0.73526 -2.175826,0.17431 -2.205526,-0.81567 -0.284771,-0.67941 -0.569543,-1.35883 -0.854317,-2.03825 -1.999098,0 -3.998195,0 -5.997292,0 -0.428143,0.99355 -0.767403,2.02362 -1.251985,2.99398 -0.2286,0.16568 -0.548776,0.15377 -0.828707,0.15758 z m 7.527212,-4.48222 c -0.751337,-1.96975 -1.717028,-3.8876 -2.31783,-5.89386 -0.187025,-0.64305 -0.558815,1.38316 -0.910828,1.88257 -0.548897,1.33709 -1.097794,2.67419 -1.646691,4.01129 1.625117,0 3.250233,0 4.875349,0 z m 6.451805,4.44721 c -1.044256,-0.14847 -0.457982,-1.34458 -0.611969,-2.00102 0,-3.30162 0,-6.60325 0,-9.9049 0.694983,-0.93681 2.285191,-0.16991 1.795111,0.88545 0,3.22994 0,6.45987 0,9.6898 1.931724,0.0201 3.872239,-0.0404 5.798396,0.0307 0.730017,0.82906 -0.170021,1.59046 -1.220302,1.30002 -1.920412,0 -3.840824,0 -5.761236,0 z m 9.502724,0 c -1.044256,-0.14847 -0.457983,-1.34458 -0.611969,-2.00102 0.02352,-3.32288 -0.04723,-6.65089 0.03573,-9.97055 0.569682,-0.53605 1.621498,-0.18153 2.410259,-0.28451 1.823482,0.0208 3.656042,-0.0414 5.473939,0.0306 0.730007,0.82905 -0.170031,1.59045 -1.220303,1.30002 -1.63483,0 -3.26966,0 -4.904482,0 0,1.33065 0,2.66131 0,3.99198 1.836474,0.0205 3.681918,-0.041 5.512815,0.0307 0.730008,0.82906 -0.170021,1.59046 -1.220302,1.30002 -1.430844,0 -2.861678,0 -4.292513,0 0,1.42404 0,2.84808 0,4.27212 2.047311,0.0201 4.10343,-0.0404 6.145183,0.0307 0.730008,0.82906 -0.17003,1.59046 -1.220302,1.30002 -2.036007,0 -4.072015,0 -6.108022,0 z"
       style="font-style:normal;font-weight:normal;font-size:17.04019928px;line-height:1.25;font-family:sans-serif;letter-spacing:0px;word-spacing:0px;fill:#ffffff;fill-opacity:1;stroke:#ffffff;stroke-width:0.09981547;stroke-miterlimit:4;stroke-dasharray:none;stroke-opacity:1" />
  </g>
</svg>
