<?xml version="1.0" encoding="UTF-8" standalone="no"?>
<svg
   xmlns:dc="http://purl.org/dc/elements/1.1/"
   xmlns:cc="http://creativecommons.org/ns#"
   xmlns:rdf="http://www.w3.org/1999/02/22-rdf-syntax-ns#"
   xmlns:svg="http://www.w3.org/2000/svg"
   xmlns="http://www.w3.org/2000/svg"
   width="200"
   height="100"
   viewBox="0 0 52.916669 26.458334"
   version="1.1"
   id="svg3927">
  <defs
     id="defs3921" />
  <metadata
     id="metadata3924">
    <rdf:RDF>
      <cc:Work
         rdf:about="">
        <dc:format>image/svg+xml</dc:format>
        <dc:type
           rdf:resource="http://purl.org/dc/dcmitype/StillImage" />
        <dc:title></dc:title>
      </cc:Work>
    </rdf:RDF>
  </metadata>
  <path
     id="path1794-4-16-9-8-4"
     d="m 11.756311,10.51897 c 0.0417,0.74672 -1.389503,0.74653 -1.347806,0 0.0099,-0.7585 1.33309,-0.76445 1.347806,0 z"
     style="fill:#d40000;fill-opacity:0.97142855;stroke:none;stroke-width:0.08317956;stroke-miterlimit:4;stroke-dasharray:none;stroke-opacity:1" />
  <path
     id="path1794-0-0-6-1-1"
     d="m 19.50678,11.36639 c 0.0417,0.74671 -1.389501,0.74652 -1.347804,0 0.0099,-0.7585 1.333089,-0.76445 1.347804,0 z"
     style="fill:#d40000;fill-opacity:0.97142855;stroke:none;stroke-width:0.08317956;stroke-miterlimit:4;stroke-dasharray:none;stroke-opacity:1" />
  <path
     id="path1794-4-0-91-7-0-6"
     d="m 10.979135,7.59326 c 0.0417,0.74672 -1.389502,0.74652 -1.347805,0 0.00992,-0.7585 1.33309,-0.76445 1.347805,0 z"
     style="fill:#d40000;fill-opacity:0.97142855;stroke:none;stroke-width:0.08317956;stroke-miterlimit:4;stroke-dasharray:none;stroke-opacity:1" />
  <path
     id="path1794-4-0-2-2-2-3-4"
     d="m 10.904917,14.07154 c 0.0417,0.74671 -1.3895022,0.74652 -1.3478059,0 0.00992,-0.7585 1.3330899,-0.76445 1.3478059,0 z"
     style="fill:#d40000;fill-opacity:0.97142855;stroke:none;stroke-width:0.08317956;stroke-miterlimit:4;stroke-dasharray:none;stroke-opacity:1" />
  <path
     id="path1794-4-8-4-1-0-3"
     d="m 19.371166,9.20383 c 0.0417,0.74672 -1.389502,0.74652 -1.347805,0 0.0099,-0.7585 1.33309,-0.76445 1.347805,0 z"
     style="fill:#d40000;fill-opacity:0.97142855;stroke:none;stroke-width:0.08317956;stroke-miterlimit:4;stroke-dasharray:none;stroke-opacity:1" />
  <path
     id="path1794-4-1-14-4-4-5"
     d="m 22.529625,9.17785 c 0.0417,0.74672 -1.389503,0.74653 -1.347806,0 0.0099,-0.7585 1.33309,-0.76445 1.347806,0 z"
     style="fill:#d40000;fill-opacity:0.97142855;stroke:none;stroke-width:0.08317956;stroke-miterlimit:4;stroke-dasharray:none;stroke-opacity:1" />
  <path
     id="path1794-4-0-2-1-4-8-4-4"
     d="m 17.857545,11.29988 c 0.0417,0.74671 -1.389502,0.74652 -1.347805,0 0.0099,-0.7585 1.33309,-0.76445 1.347805,0 z"
     style="fill:#d40000;fill-opacity:0.97142855;stroke:none;stroke-width:0.08317956;stroke-miterlimit:4;stroke-dasharray:none;stroke-opacity:1" />
  <path
     id="path1794-4-0-9-3-4-4-8"
     d="m 13.479498,6.98018 c 0.0417,0.74672 -1.389503,0.74653 -1.347806,0 0.0099,-0.75849 1.33309,-0.76444 1.347806,0 z"
     style="fill:#d40000;fill-opacity:0.97142855;stroke:none;stroke-width:0.08317956;stroke-miterlimit:4;stroke-dasharray:none;stroke-opacity:1" />
  <path
     id="path1794-4-0-9-0-25-9-7-7"
     d="m 13.267828,9.36469 c -5.89e-4,0.64526 -1.217804,0.31844 -0.795193,-0.21113 0.227149,-0.30253 0.806227,-0.14925 0.795193,0.21113 z"
     style="fill:#d40000;fill-opacity:0.97142855;stroke:none;stroke-width:0.05377115;stroke-miterlimit:4;stroke-dasharray:none;stroke-opacity:1" />
  <path
     id="path1794-4-0-9-0-0-13-8-6-3"
     d="m 17.349864,9.84311 c -5.89e-4,0.64526 -1.217804,0.31845 -0.795193,-0.21112 0.22715,-0.30253 0.806228,-0.14925 0.795193,0.21112 z"
     style="fill:#d40000;fill-opacity:0.97142855;stroke:none;stroke-width:0.05377115;stroke-miterlimit:4;stroke-dasharray:none;stroke-opacity:1" />
  <path
     id="path1794-4-0-9-0-0-0-26-4-3-3"
     d="M 18.12232,7.67114 C 18.121732,8.3164 16.904515,7.98958 17.327128,7.46001 17.554277,7.15748 18.133354,7.31076 18.12232,7.67114 Z"
     style="fill:#d40000;fill-opacity:0.97142855;stroke:none;stroke-width:0.05377115;stroke-miterlimit:4;stroke-dasharray:none;stroke-opacity:1" />
  <path
     id="path1794-4-0-9-0-0-0-2-06-4-1-5"
     d="m 11.991261,7.33808 c -5.89e-4,0.64525 -1.217804,0.31843 -0.795193,-0.21114 0.22715,-0.30253 0.806227,-0.14924 0.795193,0.21114 z"
     style="fill:#d40000;fill-opacity:0.97142855;stroke:none;stroke-width:0.05377115;stroke-miterlimit:4;stroke-dasharray:none;stroke-opacity:1" />
  <g
     transform="matrix(0.80187835,-0.34662303,0.40384223,0.68826261,-143.25351,-46.47794)"
     id="g2119-9-1-7-0"
     style="fill:#d40000">
    <path
       id="path1794-4-7-68-9-5-1"
       d="m 114.02867,138.4752 c 0.0464,0.96899 -1.54762,0.96874 -1.50118,0 0.011,-0.98427 1.48479,-0.99198 1.50118,0 z"
       style="fill:#d40000;fill-opacity:0.97142855;stroke:none;stroke-width:0.1;stroke-miterlimit:4;stroke-dasharray:none;stroke-opacity:1" />
    <path
       id="path1794-4-1-6-0-6-9-4"
       d="m 114.65658,142.17085 c 0.0464,0.96899 -1.54762,0.96874 -1.50118,0 0.011,-0.98427 1.48479,-0.99199 1.50118,0 z"
       style="fill:#d40000;fill-opacity:0.97142855;stroke:none;stroke-width:0.1;stroke-miterlimit:4;stroke-dasharray:none;stroke-opacity:1" />
    <path
       id="path1794-4-0-9-0-5-8-8-6-5"
       d="m 114.82244,136.92972 c -6.5e-4,0.83733 -1.35638,0.41323 -0.88568,-0.27398 0.253,-0.39258 0.89797,-0.19366 0.88568,0.27398 z"
       style="fill:#d40000;fill-opacity:0.97142855;stroke:none;stroke-width:0.06464466;stroke-miterlimit:4;stroke-dasharray:none;stroke-opacity:1" />
    <path
       id="path1794-4-0-9-0-0-0-2-1-6-0-2-7"
       d="m 113.86045,134.50818 c -6.5e-4,0.83733 -1.35638,0.41323 -0.88568,-0.27398 0.253,-0.39258 0.89797,-0.19366 0.88568,0.27398 z"
       style="fill:#d40000;fill-opacity:0.97142855;stroke:none;stroke-width:0.06464466;stroke-miterlimit:4;stroke-dasharray:none;stroke-opacity:1" />
    <path
       id="path1792-1-7-9-1-0"
       d="m 118.01618,140.72697 c 0.0938,1.61615 -2.36688,2.20765 -3.01649,0.72349 -0.80295,-1.37523 1.06061,-3.01484 2.32209,-2.0399 0.42988,0.28977 0.69793,0.79804 0.6944,1.31641 z"
       style="fill:#d40000;fill-opacity:0.97142855;stroke:none;stroke-width:0.1;stroke-miterlimit:4;stroke-dasharray:none;stroke-opacity:1" />
  </g>
  <path
     id="path1794-4-0-9-0-0-0-2-4-5-3-7-7"
     d="M 7.7921733,15.36456 C 7.7915847,16.00982 6.574369,15.68301 6.9969807,15.15344 7.22413,14.85091 7.8032078,15.00419 7.7921733,15.36456 Z"
     style="fill:#d40000;fill-opacity:0.97142855;stroke:none;stroke-width:0.05377115;stroke-miterlimit:4;stroke-dasharray:none;stroke-opacity:1" />
  <path
     id="path1794-4-0-9-0-0-0-2-8-4-6-8-8"
     d="M 16.130145,9.40886 C 16.129556,10.05412 14.91234,9.7273 15.334952,9.19773 15.562101,8.89521 16.14118,9.04849 16.130145,9.40886 Z"
     style="fill:#d40000;fill-opacity:0.97142855;stroke:none;stroke-width:0.05377115;stroke-miterlimit:4;stroke-dasharray:none;stroke-opacity:1" />
  <path
     id="path1794-4-7-7-4-3-5-9"
     d="m 12.245598,15.21004 c 0.428564,0.65081 -0.84979,1.20319 -1.203765,0.52034 -0.388632,-0.68126 0.790016,-1.19741 1.203765,-0.52034 z"
     style="fill:#d40000;fill-opacity:0.97142855;stroke:none;stroke-width:0.08317956;stroke-miterlimit:4;stroke-dasharray:none;stroke-opacity:1" />
  <path
     id="path1794-4-1-6-6-6-8-7-9"
     d="m 14.692836,17.39789 c 0.428564,0.65082 -0.849789,1.20318 -1.203765,0.52034 -0.388633,-0.68126 0.790015,-1.19741 1.203765,-0.52034 z"
     style="fill:#d40000;fill-opacity:0.97142855;stroke:none;stroke-width:0.08317956;stroke-miterlimit:4;stroke-dasharray:none;stroke-opacity:1" />
  <path
     id="path1794-4-0-9-0-5-6-05-9-4-3"
     d="m 12.236919,14.21447 c 0.337622,0.57653 -0.920778,0.75457 -0.820853,0.11844 0.04434,-0.3579 0.641854,-0.44456 0.820853,-0.11844 z"
     style="fill:#d40000;fill-opacity:0.97142855;stroke:none;stroke-width:0.05377115;stroke-miterlimit:4;stroke-dasharray:none;stroke-opacity:1" />
  <path
     id="path1794-4-0-9-0-4-5-5-1-9"
     d="m 19.035336,19.26505 c -5.89e-4,0.64526 -1.217805,0.31844 -0.795193,-0.21114 0.227149,-0.30253 0.806227,-0.14924 0.795193,0.21114 z"
     style="fill:#d40000;fill-opacity:0.97142855;stroke:none;stroke-width:0.05377115;stroke-miterlimit:4;stroke-dasharray:none;stroke-opacity:1" />
  <path
     id="path1794-4-0-9-0-4-3-3-0-8-4"
     d="m 10.626091,19.59591 c -5.89e-4,0.64526 -1.2178042,0.31845 -0.7951934,-0.21112 0.2271494,-0.30254 0.8062274,-0.14925 0.7951934,0.21112 z"
     style="fill:#d40000;fill-opacity:0.97142855;stroke:none;stroke-width:0.05377115;stroke-miterlimit:4;stroke-dasharray:none;stroke-opacity:1" />
  <path
     id="path1794-4-0-9-0-0-0-2-4-9-9-1-5-6"
     d="M 16.487162,7.21143 C 16.486573,7.8567 15.269357,7.52988 15.691968,7.0003 15.919118,6.69777 16.498196,6.85106 16.487162,7.21143 Z"
     style="fill:#d40000;fill-opacity:0.97142855;stroke:none;stroke-width:0.05377115;stroke-miterlimit:4;stroke-dasharray:none;stroke-opacity:1" />
  <path
     id="path1794-4-0-9-0-0-0-2-0-1-7-9-4"
     d="m 4.5149587,12.60357 c -5.89e-4,0.64527 -1.2178048,0.31845 -0.795193,-0.21112 0.227149,-0.30253 0.8062273,-0.14925 0.795193,0.21112 z"
     style="fill:#d40000;fill-opacity:0.97142855;stroke:none;stroke-width:0.05377115;stroke-miterlimit:4;stroke-dasharray:none;stroke-opacity:1" />
  <g
     transform="matrix(0.80187835,-0.34662303,0.40384223,0.68826261,-143.91945,-42.55503)"
     id="g2119-6-5-1-7-5"
     style="fill:#d40000">
    <path
       id="path1794-4-7-6-0-9-5-5"
       d="m 114.02867,138.4752 c 0.0464,0.96899 -1.54762,0.96874 -1.50118,0 0.011,-0.98427 1.48479,-0.99198 1.50118,0 z"
       style="fill:#d40000;fill-opacity:0.97142855;stroke:none;stroke-width:0.1;stroke-miterlimit:4;stroke-dasharray:none;stroke-opacity:1" />
    <path
       id="path1794-4-1-6-8-4-8-3-5"
       d="m 114.65658,142.17085 c 0.0464,0.96899 -1.54762,0.96874 -1.50118,0 0.011,-0.98427 1.48479,-0.99199 1.50118,0 z"
       style="fill:#d40000;fill-opacity:0.97142855;stroke:none;stroke-width:0.1;stroke-miterlimit:4;stroke-dasharray:none;stroke-opacity:1" />
    <path
       id="path1794-4-0-9-0-5-7-9-2-8-6"
       d="m 114.82244,136.92972 c -6.5e-4,0.83733 -1.35638,0.41323 -0.88568,-0.27398 0.253,-0.39258 0.89797,-0.19366 0.88568,0.27398 z"
       style="fill:#d40000;fill-opacity:0.97142855;stroke:none;stroke-width:0.06464466;stroke-miterlimit:4;stroke-dasharray:none;stroke-opacity:1" />
    <path
       id="path1794-4-0-9-0-0-0-2-1-7-6-6-8-0"
       d="m 113.86045,134.50818 c -6.5e-4,0.83733 -1.35638,0.41323 -0.88568,-0.27398 0.253,-0.39258 0.89797,-0.19366 0.88568,0.27398 z"
       style="fill:#d40000;fill-opacity:0.97142855;stroke:none;stroke-width:0.06464466;stroke-miterlimit:4;stroke-dasharray:none;stroke-opacity:1" />
    <path
       id="path1792-1-6-7-7-3-6"
       d="m 118.01618,140.72697 c 0.0938,1.61615 -2.36688,2.20765 -3.01649,0.72349 -0.80295,-1.37523 1.06061,-3.01484 2.32209,-2.0399 0.42988,0.28977 0.69793,0.79804 0.6944,1.31641 z"
       style="fill:#d40000;fill-opacity:0.97142855;stroke:none;stroke-width:0.1;stroke-miterlimit:4;stroke-dasharray:none;stroke-opacity:1" />
  </g>
  <path
     id="path1794-4-0-9-0-6-4-5-1-2"
     d="M 10.752657,16.01324 C 10.752068,16.6585 9.5348524,16.33168 9.9574638,15.80211 10.184613,15.49958 10.76369,15.65286 10.752657,16.01324 Z"
     style="fill:#d40000;fill-opacity:0.97142855;stroke:none;stroke-width:0.05377115;stroke-miterlimit:4;stroke-dasharray:none;stroke-opacity:1" />
  <path
     id="path1794-4-0-9-0-6-5-3-9-8-6"
     d="m 4.7830156,11.09535 c -5.89e-4,0.64526 -1.2178049,0.31845 -0.7951931,-0.21112 0.227149,-0.30253 0.8062274,-0.14925 0.7951931,0.21112 z"
     style="fill:#d40000;fill-opacity:0.97142855;stroke:none;stroke-width:0.05377115;stroke-miterlimit:4;stroke-dasharray:none;stroke-opacity:1" />
  <path
     id="path1794-4-0-2-1-3-0-3-9-9"
     d="m 12.161475,13.37934 c 0.0417,0.74671 -1.389502,0.74652 -1.347805,0 0.0099,-0.7585 1.33309,-0.76445 1.347805,0 z"
     style="fill:#d40000;fill-opacity:0.97142855;stroke:none;stroke-width:0.08317956;stroke-miterlimit:4;stroke-dasharray:none;stroke-opacity:1" />
  <path
     id="path1794-4-0-2-1-3-7-9-9-6-9"
     d="m 16.33863,10.66079 c 0.0417,0.74671 -1.389503,0.74653 -1.347806,0 0.0099,-0.7585 1.33309,-0.76444 1.347806,0 z"
     style="fill:#d40000;fill-opacity:0.97142855;stroke:none;stroke-width:0.08317956;stroke-miterlimit:4;stroke-dasharray:none;stroke-opacity:1" />
  <path
     id="path1794-0-4-9-6-9-4-2"
     d="m 18.005832,20.11827 c 0.0417,0.74671 -1.389502,0.74651 -1.347805,0 0.0099,-0.75851 1.333089,-0.76446 1.347805,0 z"
     style="fill:#d40000;fill-opacity:0.97142855;stroke:none;stroke-width:0.08317956;stroke-miterlimit:4;stroke-dasharray:none;stroke-opacity:1" />
  <path
     id="path1794-4-0-9-0-4-3-7-6-7-3-9"
     d="m 13.147202,18.07361 c -5.89e-4,0.64526 -1.217805,0.31844 -0.795193,-0.21113 0.227149,-0.30253 0.806226,-0.14925 0.795193,0.21113 z"
     style="fill:#d40000;fill-opacity:0.97142855;stroke:none;stroke-width:0.05377115;stroke-miterlimit:4;stroke-dasharray:none;stroke-opacity:1" />
  <g
     transform="matrix(0.30812443,-0.7238163,0.84330108,0.26446721,-146.26377,66.40919)"
     id="g2119-5-2-0-9-3-6"
     style="fill:#d40000">
    <path
       id="path1794-4-7-7-6-4-7-3-5"
       d="m 114.02867,138.4752 c 0.0464,0.96899 -1.54762,0.96874 -1.50118,0 0.011,-0.98427 1.48479,-0.99198 1.50118,0 z"
       style="fill:#d40000;fill-opacity:0.97142855;stroke:none;stroke-width:0.1;stroke-miterlimit:4;stroke-dasharray:none;stroke-opacity:1" />
    <path
       id="path1794-4-1-6-6-4-5-3-8-5"
       d="m 114.65658,142.17085 c 0.0464,0.96899 -1.54762,0.96874 -1.50118,0 0.011,-0.98427 1.48479,-0.99199 1.50118,0 z"
       style="fill:#d40000;fill-opacity:0.97142855;stroke:none;stroke-width:0.1;stroke-miterlimit:4;stroke-dasharray:none;stroke-opacity:1" />
    <path
       id="path1794-4-0-9-0-5-6-0-8-5-6-3"
       d="m 114.82244,136.92972 c -6.5e-4,0.83733 -1.35638,0.41323 -0.88568,-0.27398 0.253,-0.39258 0.89797,-0.19366 0.88568,0.27398 z"
       style="fill:#d40000;fill-opacity:0.97142855;stroke:none;stroke-width:0.06464466;stroke-miterlimit:4;stroke-dasharray:none;stroke-opacity:1" />
    <path
       id="path1794-4-0-9-0-0-0-2-1-9-7-2-0-0-8"
       d="m 113.86045,134.50818 c -6.5e-4,0.83733 -1.35638,0.41323 -0.88568,-0.27398 0.253,-0.39258 0.89797,-0.19366 0.88568,0.27398 z"
       style="fill:#d40000;fill-opacity:0.97142855;stroke:none;stroke-width:0.06464466;stroke-miterlimit:4;stroke-dasharray:none;stroke-opacity:1" />
    <path
       id="path1792-1-1-5-8-4-4-6"
       d="m 118.01618,140.72697 c 0.0938,1.61615 -2.36688,2.20765 -3.01649,0.72349 -0.80295,-1.37523 1.06061,-3.01484 2.32209,-2.0399 0.42988,0.28977 0.69793,0.79804 0.6944,1.31641 z"
       style="fill:#d40000;fill-opacity:0.97142855;stroke:none;stroke-width:0.1;stroke-miterlimit:4;stroke-dasharray:none;stroke-opacity:1" />
  </g>
  <path
     id="path1794-4-4-6-1-8-7"
     d="m 7.7924203,11.88822 c 0.041704,0.74672 -1.3895008,0.74653 -1.3478047,0 0.00992,-0.7585 1.3330904,-0.76444 1.3478047,0 z"
     style="fill:#d40000;fill-opacity:0.97142855;stroke:none;stroke-width:0.08317956;stroke-miterlimit:4;stroke-dasharray:none;stroke-opacity:1" />
  <path
     id="path1794-4-0-9-0-0-1-8-9-8-3"
     d="m 12.306699,9.68941 c -5.89e-4,0.64526 -1.217805,0.31845 -0.795193,-0.21112 0.227149,-0.30253 0.806227,-0.14925 0.795193,0.21112 z"
     style="fill:#d40000;fill-opacity:0.97142855;stroke:none;stroke-width:0.05377115;stroke-miterlimit:4;stroke-dasharray:none;stroke-opacity:1" />
  <path
     id="path1794-4-0-9-0-2-5-4-8-6"
     d="m 10.618152,15.12952 c -5.89e-4,0.64526 -1.2178043,0.31844 -0.7951928,-0.21113 0.2271488,-0.30253 0.8062268,-0.14924 0.7951928,0.21113 z"
     style="fill:#d40000;fill-opacity:0.97142855;stroke:none;stroke-width:0.05377115;stroke-miterlimit:4;stroke-dasharray:none;stroke-opacity:1" />
  <path
     id="path1794-0-4-8-3-1-9-0"
     d="m 11.712423,16.87051 c 0.0417,0.74673 -1.389502,0.74653 -1.347805,0 0.0099,-0.75849 1.333089,-0.76444 1.347805,0 z"
     style="fill:#d40000;fill-opacity:0.97142855;stroke:none;stroke-width:0.08317956;stroke-miterlimit:4;stroke-dasharray:none;stroke-opacity:1" />
  <g
     transform="matrix(-0.305823,-0.72453504,0.84413845,-0.26249186,-71.722483,142.16529)"
     id="g2119-5-2-5-4-4-7-2"
     style="fill:#d40000">
    <path
       id="path1794-4-7-7-6-2-0-3-7-6"
       d="m 114.02867,138.4752 c 0.0464,0.96899 -1.54762,0.96874 -1.50118,0 0.011,-0.98427 1.48479,-0.99198 1.50118,0 z"
       style="fill:#d40000;fill-opacity:0.97142855;stroke:none;stroke-width:0.1;stroke-miterlimit:4;stroke-dasharray:none;stroke-opacity:1" />
    <path
       id="path1794-4-1-6-6-4-0-1-6-6-9"
       d="m 114.65658,142.17085 c 0.0464,0.96899 -1.54762,0.96874 -1.50118,0 0.011,-0.98427 1.48479,-0.99199 1.50118,0 z"
       style="fill:#d40000;fill-opacity:0.97142855;stroke:none;stroke-width:0.1;stroke-miterlimit:4;stroke-dasharray:none;stroke-opacity:1" />
    <path
       id="path1794-4-0-9-0-5-6-0-7-7-4-4-3"
       d="m 114.82244,136.92972 c -6.5e-4,0.83733 -1.35638,0.41323 -0.88568,-0.27398 0.253,-0.39258 0.89797,-0.19366 0.88568,0.27398 z"
       style="fill:#d40000;fill-opacity:0.97142855;stroke:none;stroke-width:0.06464466;stroke-miterlimit:4;stroke-dasharray:none;stroke-opacity:1" />
    <path
       id="path1794-4-0-9-0-0-0-2-1-9-7-1-7-2-3-0"
       d="m 113.86045,134.50818 c -6.5e-4,0.83733 -1.35638,0.41323 -0.88568,-0.27398 0.253,-0.39258 0.89797,-0.19366 0.88568,0.27398 z"
       style="fill:#d40000;fill-opacity:0.97142855;stroke:none;stroke-width:0.06464466;stroke-miterlimit:4;stroke-dasharray:none;stroke-opacity:1" />
    <path
       id="path1792-1-1-5-6-8-2-0-8"
       d="m 118.01618,140.72697 c 0.0938,1.61615 -2.36688,2.20765 -3.01649,0.72349 -0.80295,-1.37523 1.06061,-3.01484 2.32209,-2.0399 0.42988,0.28977 0.69793,0.79804 0.6944,1.31641 z"
       style="fill:#d40000;fill-opacity:0.97142855;stroke:none;stroke-width:0.1;stroke-miterlimit:4;stroke-dasharray:none;stroke-opacity:1" />
  </g>
  <path
     id="path1794-4-0-9-0-4-3-4-0-7-3-7"
     d="m 18.812988,10.26849 c -5.89e-4,0.64526 -1.217804,0.31843 -0.795193,-0.21114 0.227149,-0.30253 0.806228,-0.14924 0.795193,0.21114 z"
     style="fill:#d40000;fill-opacity:0.97142855;stroke:none;stroke-width:0.05377115;stroke-miterlimit:4;stroke-dasharray:none;stroke-opacity:1" />
  <path
     id="path1794-4-0-9-0-4-3-9-8-6-0-6"
     d="m 16.663094,17.88776 c -5.89e-4,0.64526 -1.217804,0.31844 -0.795193,-0.21113 0.227149,-0.30253 0.806227,-0.14924 0.795193,0.21113 z"
     style="fill:#d40000;fill-opacity:0.97142855;stroke:none;stroke-width:0.05377115;stroke-miterlimit:4;stroke-dasharray:none;stroke-opacity:1" />
  <path
     id="path1794-4-0-9-0-4-3-9-5-9-1-9-5"
     d="m 8.5258592,17.60217 c -5.893e-4,0.64525 -1.2178047,0.31844 -0.7951929,-0.21113 0.2271486,-0.30253 0.8062274,-0.14925 0.7951929,0.21113 z"
     style="fill:#d40000;fill-opacity:0.97142855;stroke:none;stroke-width:0.05377115;stroke-miterlimit:4;stroke-dasharray:none;stroke-opacity:1" />
  <path
     id="path1794-4-0-2-1-3-7-3-7-8-2-2"
     d="m 17.443387,13.91048 c 0.0417,0.74672 -1.389502,0.74653 -1.347805,0 0.0099,-0.7585 1.333089,-0.76445 1.347805,0 z"
     style="fill:#d40000;fill-opacity:0.97142855;stroke:none;stroke-width:0.08317956;stroke-miterlimit:4;stroke-dasharray:none;stroke-opacity:1" />
  <path
     id="path1794-4-0-2-1-3-7-5-8-5-5-4"
     d="m 14.936428,11.41415 c 0.0417,0.74673 -1.389502,0.74653 -1.347805,0 0.0099,-0.75849 1.33309,-0.76444 1.347805,0 z"
     style="fill:#d40000;fill-opacity:0.97142855;stroke:none;stroke-width:0.08317956;stroke-miterlimit:4;stroke-dasharray:none;stroke-opacity:1" />
  <path
     id="path1794-4-0-2-1-1-3-1-4-0"
     d="m 15.262511,20.52758 c 0.0417,0.74672 -1.389502,0.74653 -1.347805,0 0.0099,-0.7585 1.333089,-0.76444 1.347805,0 z"
     style="fill:#d40000;fill-opacity:0.97142855;stroke:none;stroke-width:0.08317956;stroke-miterlimit:4;stroke-dasharray:none;stroke-opacity:1" />
  <path
     id="path1794-4-0-9-0-4-3-1-9-1-0-0"
     d="m 16.385989,20.23334 c -5.89e-4,0.64526 -1.217805,0.31844 -0.795193,-0.21113 0.227149,-0.30253 0.806227,-0.14924 0.795193,0.21113 z"
     style="fill:#d40000;fill-opacity:0.97142855;stroke:none;stroke-width:0.05377115;stroke-miterlimit:4;stroke-dasharray:none;stroke-opacity:1" />
  <path
     id="path1794-4-0-9-0-4-3-0-7-3-5-6"
     d="m 15.630486,18.1364 c -5.89e-4,0.64527 -1.217804,0.31844 -0.795193,-0.21113 0.22715,-0.30253 0.806227,-0.14924 0.795193,0.21113 z"
     style="fill:#d40000;fill-opacity:0.97142855;stroke:none;stroke-width:0.05377115;stroke-miterlimit:4;stroke-dasharray:none;stroke-opacity:1" />
  <path
     id="path1794-4-0-9-0-4-3-07-25-0-9-8"
     d="m 12.192902,17.69447 c -5.89e-4,0.64526 -1.217805,0.31845 -0.795193,-0.21113 0.227149,-0.30253 0.806227,-0.14925 0.795193,0.21113 z"
     style="fill:#d40000;fill-opacity:0.97142855;stroke:none;stroke-width:0.05377115;stroke-miterlimit:4;stroke-dasharray:none;stroke-opacity:1" />
  <path
     id="path1794-4-0-9-0-0-6-0-6-4-5"
     d="m 13.516685,15.46057 c -5.9e-4,0.64525 -1.217805,0.31843 -0.795194,-0.21114 0.227149,-0.30253 0.806228,-0.14924 0.795194,0.21114 z"
     style="fill:#d40000;fill-opacity:0.97142855;stroke:none;stroke-width:0.05377115;stroke-miterlimit:4;stroke-dasharray:none;stroke-opacity:1" />
  <path
     id="path1794-4-0-9-0-0-4-2-4-6-4"
     d="m 16.083977,14.3588 c -5.89e-4,0.64525 -1.217805,0.31844 -0.795193,-0.21113 0.227149,-0.30254 0.806227,-0.14925 0.795193,0.21113 z"
     style="fill:#d40000;fill-opacity:0.97142855;stroke:none;stroke-width:0.05377115;stroke-miterlimit:4;stroke-dasharray:none;stroke-opacity:1" />
  <path
     id="path1794-4-1-6-6-4-0-2-0-5-9-9"
     d="m 18.78157,14.9478 c -0.366466,-0.67818 0.95932,-1.14091 1.248448,-0.43592 0.32382,0.70578 -0.8992,1.13926 -1.248448,0.43592 z"
     style="fill:#d40000;fill-opacity:0.97142855;stroke:none;stroke-width:0.08317956;stroke-miterlimit:4;stroke-dasharray:none;stroke-opacity:1" />
  <path
     id="path1794-4-0-9-0-0-0-2-1-9-7-1-2-2-8-2-4"
     d="m 21.845279,20.67782 c -0.282746,-0.59788 0.988225,-0.68885 0.829267,-0.0616 -0.07758,0.35369 -0.681269,0.399 -0.829267,0.0616 z"
     style="fill:#d40000;fill-opacity:0.97142855;stroke:none;stroke-width:0.05377115;stroke-miterlimit:4;stroke-dasharray:none;stroke-opacity:1" />
  <path
     id="path1792-1-1-5-6-7-6-2-2-6"
     d="m 16.416774,16.95407 c -0.624835,-1.12638 1.221492,-2.26317 2.263866,-1.39239 1.133049,0.74848 0.137962,2.46001 -1.240993,2.13041 -0.455547,-0.082 -0.850431,-0.36697 -1.022873,-0.73802 z"
     style="fill:#d40000;fill-opacity:0.97142855;stroke:none;stroke-width:0.08317956;stroke-miterlimit:4;stroke-dasharray:none;stroke-opacity:1" />
  <g
     transform="matrix(0.40109702,0.68944422,-0.80325503,0.34426679,83.475516,-111.92781)"
     id="g2803-5-7-4-8"
     style="fill:#d40000">
    <path
       id="path1794-4-0-2-1-3-7-3-0-6-3-7-3"
       d="m 116.64084,142.59578 c 0.0465,0.96899 -1.54762,0.96873 -1.50118,0 0.011,-0.98427 1.48479,-0.99199 1.50118,0 z"
       style="fill:#d40000;fill-opacity:0.97142855;stroke:none;stroke-width:0.1;stroke-miterlimit:4;stroke-dasharray:none;stroke-opacity:1" />
    <path
       id="path1794-4-0-9-0-0-4-4-6-5-7-2"
       d="m 115.12675,143.17754 c -6.6e-4,0.83732 -1.35639,0.41323 -0.88568,-0.27398 0.25299,-0.39258 0.89797,-0.19367 0.88568,0.27398 z"
       style="fill:#d40000;fill-opacity:0.97142855;stroke:none;stroke-width:0.06464466;stroke-miterlimit:4;stroke-dasharray:none;stroke-opacity:1" />
  </g>
  <g
     transform="matrix(0.61633947,-0.56035619,0.65285762,0.52901219,-148.6831,4.49581)"
     id="g2838-3-3-5-3"
     style="fill:#d40000">
    <path
       id="path1794-4-0-2-5-4-7-4-6"
       d="m 115.72456,142.98923 c 0.0465,0.96898 -1.54762,0.96873 -1.50118,0 0.011,-0.98427 1.48479,-0.99199 1.50118,0 z"
       style="fill:#d40000;fill-opacity:0.97142855;stroke:none;stroke-width:0.1;stroke-miterlimit:4;stroke-dasharray:none;stroke-opacity:1" />
    <path
       id="path1794-4-0-9-0-5-6-5-1-4-8-2"
       d="m 117.09382,143.15565 c 0.37604,0.74814 -1.02556,0.97917 -0.91427,0.15368 0.0494,-0.46442 0.7149,-0.57687 0.91427,-0.15368 z"
       style="fill:#d40000;fill-opacity:0.97142855;stroke:none;stroke-width:0.06464466;stroke-miterlimit:4;stroke-dasharray:none;stroke-opacity:1" />
    <path
       id="path1794-4-0-9-0-0-0-2-1-9-0-7-8-1-2"
       d="m 115.14543,141.42561 c 0.37604,0.74813 -1.02556,0.97916 -0.91427,0.15367 0.0494,-0.46442 0.7149,-0.57687 0.91427,-0.15367 z"
       style="fill:#d40000;fill-opacity:0.97142855;stroke:none;stroke-width:0.06464466;stroke-miterlimit:4;stroke-dasharray:none;stroke-opacity:1" />
  </g>
  <path
     id="path1794-4-0-9-0-2-1-1-0-2-4"
     d="m 10.793475,11.38908 c -5.89e-4,0.64525 -1.2178039,0.31844 -0.7951932,-0.21113 0.2271492,-0.30253 0.8062272,-0.14925 0.7951932,0.21113 z"
     style="fill:#d40000;fill-opacity:0.97142855;stroke:none;stroke-width:0.05377115;stroke-miterlimit:4;stroke-dasharray:none;stroke-opacity:1" />
  <path
     id="path1794-4-0-2-1-3-6-3-0-8-7"
     d="m 10.956181,12.69983 c 0.0417,0.74673 -1.3895016,0.74652 -1.3478046,0 0.00992,-0.75849 1.3330896,-0.76444 1.3478046,0 z"
     style="fill:#d40000;fill-opacity:0.97142855;stroke:none;stroke-width:0.08317956;stroke-miterlimit:4;stroke-dasharray:none;stroke-opacity:1" />
  <path
     id="path1794-4-0-9-0-2-1-0-0-1-9-0"
     d="m 12.216507,12.07567 c -5.9e-4,0.64526 -1.217805,0.31845 -0.795194,-0.21114 0.227149,-0.30252 0.806228,-0.14924 0.795194,0.21114 z"
     style="fill:#d40000;fill-opacity:0.97142855;stroke:none;stroke-width:0.05377115;stroke-miterlimit:4;stroke-dasharray:none;stroke-opacity:1" />
  <path
     id="path1794-4-0-9-0-4-3-07-2-8-6-3-4"
     d="m 13.800332,20.32367 c -5.89e-4,0.64526 -1.217805,0.31845 -0.795193,-0.21112 0.227149,-0.30253 0.806228,-0.14925 0.795193,0.21112 z"
     style="fill:#d40000;fill-opacity:0.97142855;stroke:none;stroke-width:0.05377115;stroke-miterlimit:4;stroke-dasharray:none;stroke-opacity:1" />
  <path
     id="path1794-4-1-1-2-4-6-9"
     d="m 9.6535089,8.41806 c 0.041704,0.74672 -1.389501,0.74653 -1.3478047,0 0.00992,-0.7585 1.3330904,-0.76445 1.3478047,0 z"
     style="fill:#d40000;fill-opacity:0.97142855;stroke:none;stroke-width:0.08317956;stroke-miterlimit:4;stroke-dasharray:none;stroke-opacity:1" />
  <path
     id="path1794-4-0-9-0-4-3-4-1-0-8-8-6"
     d="m 18.967618,13.75669 c -5.89e-4,0.64527 -1.217805,0.31844 -0.795193,-0.21113 0.227149,-0.30253 0.806227,-0.14924 0.795193,0.21113 z"
     style="fill:#d40000;fill-opacity:0.97142855;stroke:none;stroke-width:0.05377115;stroke-miterlimit:4;stroke-dasharray:none;stroke-opacity:1" />
  <path
     id="path1794-4-0-9-0-4-3-4-8-1-3-0-5"
     d="m 13.401291,11.95565 c -5.89e-4,0.64526 -1.217804,0.31844 -0.795193,-0.21113 0.22715,-0.30253 0.806227,-0.14925 0.795193,0.21113 z"
     style="fill:#d40000;fill-opacity:0.97142855;stroke:none;stroke-width:0.05377115;stroke-miterlimit:4;stroke-dasharray:none;stroke-opacity:1" />
  <path
     id="path1792-0-1-2-4"
     d="m 15.100108,13.61227 c 0.08426,1.24543 -2.125055,1.70125 -2.70829,0.55753 -0.720913,-1.05977 0.952242,-2.32329 2.084839,-1.57198 0.385959,0.2233 0.626624,0.61498 0.623451,1.01445 z"
     style="fill:#d40000;fill-opacity:0.97142855;stroke:none;stroke-width:0.08317956;stroke-miterlimit:4;stroke-dasharray:none;stroke-opacity:1" />
  <path
     id="path1794-81-2-1-6"
     d="m 9.1909564,6.52031 c 0.041704,0.74673 -1.3895017,0.74653 -1.3478047,0 0.00992,-0.75849 1.3330897,-0.76444 1.3478047,0 z"
     style="fill:#d40000;fill-opacity:0.97142855;stroke:none;stroke-width:0.08317956;stroke-miterlimit:4;stroke-dasharray:none;stroke-opacity:1" />
  <path
     id="path1790-6-67-2-0-4"
     d="m 15.082394,9.58716 c 0.05627,0.89057 -1.619136,1.01389 -1.740035,0.12785 -0.22879,-0.85557 1.362264,-1.23642 1.680475,-0.40042 0.03931,0.0866 0.05961,0.17961 0.05956,0.27257 z"
     style="fill:#d40000;fill-opacity:0.97142855;stroke:none;stroke-width:0.05769227;stroke-miterlimit:4;stroke-dasharray:none;stroke-opacity:1" />
  <path
     id="path1790-6-2-8-9-5-2"
     d="M 5.9652,8.62437 C 6.021467,9.51494 4.3460627,9.63827 4.2251637,8.75222 3.9963743,7.89665 5.5874293,7.51579 5.9056397,8.3518 c 0.039307,0.0866 0.059607,0.17961 0.059562,0.27257 z"
     style="fill:#d40000;fill-opacity:0.97142855;stroke:none;stroke-width:0.05769227;stroke-miterlimit:4;stroke-dasharray:none;stroke-opacity:1" />
  <path
     id="path1790-6-2-3-8-5-1-5"
     d="m 19.265755,5.62454 c 0.04695,0.92369 -1.721069,0.97555 -1.750593,0.0523 C 17.39245,4.7707 19.119138,4.59676 19.253003,5.49885 l 0.01056,0.0734 z"
     style="fill:#d40000;fill-opacity:0.97142855;stroke:none;stroke-width:0.05720003;stroke-miterlimit:4;stroke-dasharray:none;stroke-opacity:1" />
  <path
     id="path1790-6-1-2-5-1-1"
     d="m 18.475154,12.7555 c 0.05627,0.89057 -1.619137,1.0139 -1.740036,0.12785 -0.228791,-0.85558 1.362265,-1.23643 1.680475,-0.40042 0.03931,0.0866 0.05961,0.17961 0.05956,0.27257 z"
     style="fill:#d40000;fill-opacity:0.97142855;stroke:none;stroke-width:0.05769227;stroke-miterlimit:4;stroke-dasharray:none;stroke-opacity:1" />
  <path
     id="path1790-6-2-3-7-1-4-0-6"
     d="M 15.438918,6.7251 C 15.485878,7.6488 13.717849,7.70065 13.688325,6.7774 13.565613,5.87125 15.2923,5.69732 15.426166,6.59941 l 0.01056,0.0734 z"
     style="fill:#d40000;fill-opacity:0.97142855;stroke:none;stroke-width:0.05720003;stroke-miterlimit:4;stroke-dasharray:none;stroke-opacity:1" />
  <path
     id="path1790-6-6-3-6-8-1"
     d="m 13.55245,10.7857 c 0.05627,0.89056 -1.619137,1.01389 -1.740036,0.12784 -0.228789,-0.85557 1.362265,-1.23643 1.680475,-0.40042 0.03931,0.0866 0.05961,0.17962 0.05956,0.27258 z"
     style="fill:#d40000;fill-opacity:0.97142855;stroke:none;stroke-width:0.05769227;stroke-miterlimit:4;stroke-dasharray:none;stroke-opacity:1" />
  <path
     id="path1790-6-1-0-8-3-5-3"
     d="m 8.0848788,16.6673 c 0.056268,0.89056 -1.6191372,1.01389 -1.7400362,0.12784 -0.2287894,-0.85557 1.3622654,-1.23643 1.6804755,-0.40042 0.039311,0.0866 0.059606,0.17962 0.059564,0.27258 z"
     style="fill:#d40000;fill-opacity:0.97142855;stroke:none;stroke-width:0.05769227;stroke-miterlimit:4;stroke-dasharray:none;stroke-opacity:1" />
  <path
     id="path1790-6-1-01-9-1-0-7"
     d="m 16.643053,12.5271 c 0.05627,0.89057 -1.619137,1.01389 -1.740035,0.12785 -0.22879,-0.85558 1.362265,-1.23643 1.680475,-0.40043 0.03931,0.0867 0.05961,0.17962 0.05956,0.27258 z"
     style="fill:#d40000;fill-opacity:0.97142855;stroke:none;stroke-width:0.05769227;stroke-miterlimit:4;stroke-dasharray:none;stroke-opacity:1" />
  <path
     id="path1790-6-1-1-3-2-6-7"
     d="m 13.712861,16.70466 c 0.05627,0.89057 -1.619137,1.01389 -1.740036,0.12786 -0.22879,-0.85558 1.362264,-1.23644 1.680476,-0.40044 0.03931,0.0867 0.05961,0.17962 0.05956,0.27258 z"
     style="fill:#d40000;fill-opacity:0.97142855;stroke:none;stroke-width:0.05769227;stroke-miterlimit:4;stroke-dasharray:none;stroke-opacity:1" />
  <path
     id="path1794-8-54-0-4-1"
     d="m 8.2542065,7.95002 c 0.041704,0.74672 -1.3895021,0.74653 -1.3478051,0 0.00992,-0.7585 1.3330894,-0.76444 1.3478051,0 z"
     style="fill:#d40000;fill-opacity:0.97142855;stroke:none;stroke-width:0.08317956;stroke-miterlimit:4;stroke-dasharray:none;stroke-opacity:1" />
  <path
     id="path1794-8-8-1-6-6-2"
     d="m 11.656302,6.10576 c 0.0417,0.74672 -1.389502,0.74653 -1.347805,0 0.0099,-0.7585 1.33309,-0.76444 1.347805,0 z"
     style="fill:#d40000;fill-opacity:0.97142855;stroke:none;stroke-width:0.08317956;stroke-miterlimit:4;stroke-dasharray:none;stroke-opacity:1" />
  <path
     id="path1794-4-7-9-2-5-2-1"
     d="m 13.641011,2.47027 c -0.44946,0.64035 -1.638489,-0.0434 -1.119859,-0.64373 0.499984,-0.62548 1.603232,10e-4 1.119859,0.64373 z"
     style="fill:#d40000;fill-opacity:0.97142855;stroke:none;stroke-width:0.08317956;stroke-miterlimit:4;stroke-dasharray:none;stroke-opacity:1" />
  <path
     id="path1794-4-1-6-83-2-1-5-0"
     d="m 12.051728,5.07491 c -0.44946,0.64035 -1.638488,-0.0434 -1.119859,-0.64373 0.499985,-0.62548 1.603234,10e-4 1.119859,0.64373 z"
     style="fill:#d40000;fill-opacity:0.97142855;stroke:none;stroke-width:0.08317956;stroke-miterlimit:4;stroke-dasharray:none;stroke-opacity:1" />
  <path
     id="path1794-4-0-9-0-5-4-7-9-8-8"
     d="M 17.391615,3.48078 C 16.972794,4.01662 16.173319,3.16372 16.867787,2.92555 17.252655,2.78268 17.634418,3.18662 17.391615,3.48078 Z"
     style="fill:#d40000;fill-opacity:0.97142855;stroke:none;stroke-width:0.05377115;stroke-miterlimit:4;stroke-dasharray:none;stroke-opacity:1" />
  <path
     id="path1794-4-0-9-0-0-0-2-1-4-7-4-6-9"
     d="M 12.512036,5.87225 C 12.093215,6.40811 11.29374,5.5552 11.988208,5.31703 12.373074,5.17416 12.75484,5.57809 12.512036,5.87225 Z"
     style="fill:#d40000;fill-opacity:0.97142855;stroke:none;stroke-width:0.05377115;stroke-miterlimit:4;stroke-dasharray:none;stroke-opacity:1" />
  <path
     id="path1792-1-9-9-4-2-0"
     d="M 15.042059,5.36197 C 14.304635,6.43702 12.173455,5.76054 12.430348,4.53169 12.518438,3.30682 14.72777,3.05613 15.181735,4.22132 15.357646,4.5912 15.30368,5.03158 15.042059,5.36197 Z"
     style="fill:#d40000;fill-opacity:0.97142855;stroke:none;stroke-width:0.08317956;stroke-miterlimit:4;stroke-dasharray:none;stroke-opacity:1" />
  <path
     id="path1794-1-1-6-8-1"
     d="M 18.390783,4.63287 C 17.653782,5.03126 16.950132,3.96156 17.727951,3.62559 18.502285,3.25998 19.159037,4.24592 18.390783,4.63287 Z"
     style="fill:#d40000;fill-opacity:0.97142855;stroke:none;stroke-width:0.08317956;stroke-miterlimit:4;stroke-dasharray:none;stroke-opacity:1" />
  <path
     id="path1790-6-2-7-4-8-4-3"
     d="m 16.95738,6.14372 c -0.875764,0.48002 -1.824818,-0.71143 -0.985427,-1.23753 0.75542,-0.59174 1.924241,0.41003 1.232648,1.05897 -0.06856,0.072 -0.152896,0.13289 -0.247221,0.17856 z"
     style="fill:#d40000;fill-opacity:0.97142855;stroke:none;stroke-width:0.05769227;stroke-miterlimit:4;stroke-dasharray:none;stroke-opacity:1" />
  <path
     id="path1794-8-5-0-1-7-4"
     d="M 16.47973,4.63589 C 15.742729,5.03428 15.039078,3.96458 15.816896,3.62861 16.591233,3.26301 17.247984,4.24895 16.47973,4.63589 Z"
     style="fill:#d40000;fill-opacity:0.97142855;stroke:none;stroke-width:0.08317956;stroke-miterlimit:4;stroke-dasharray:none;stroke-opacity:1" />
  <path
     id="path1794-4-0-9-0-5-4-1-8-1-2-8"
     d="m 19.598867,12.29094 c 0.41726,0.53675 -0.806312,0.84558 -0.797807,0.20373 -0.007,-0.35986 0.573669,-0.50861 0.797807,-0.20373 z"
     style="fill:#d40000;fill-opacity:0.97142855;stroke:none;stroke-width:0.05377115;stroke-miterlimit:4;stroke-dasharray:none;stroke-opacity:1" />
  <path
     id="path1794-1-3-7-2-4-5"
     d="m 21.220855,11.93782 c 0.147822,0.73673 -1.27266,0.88682 -1.337681,0.14153 -0.09827,-0.75385 1.214118,-0.89869 1.337681,-0.14153 z"
     style="fill:#d40000;fill-opacity:0.97142855;stroke:none;stroke-width:0.08317956;stroke-miterlimit:4;stroke-dasharray:none;stroke-opacity:1" />
  <path
     id="path1794-8-5-8-8-8-0-8"
     d="m 20.494888,13.45516 c 0.147823,0.73674 -1.27266,0.88683 -1.337681,0.14153 -0.09827,-0.75384 1.214119,-0.89868 1.337681,-0.14153 z"
     style="fill:#d40000;fill-opacity:0.97142855;stroke:none;stroke-width:0.08317956;stroke-miterlimit:4;stroke-dasharray:none;stroke-opacity:1" />
  <g
     id="g3365-9-08-8-6-2"
     transform="matrix(-0.84214878,0.26715851,-0.31126,-0.72282727,134.52886,79.48128)"
     style="fill:#d40000">
    <path
       id="path1790-6-2-3-5-1-6-6-2-2"
       d="m 100.17507,141.47493 c 0.0523,1.19864 -1.916922,1.26593 -1.949806,0.0679 -0.136676,-1.17586 1.786506,-1.40157 1.935606,-0.23096 l 0.0117,0.0952 z"
       style="fill:#d40000;fill-opacity:0.97142855;stroke:none;stroke-width:0.06876693;stroke-miterlimit:4;stroke-dasharray:none;stroke-opacity:1" />
    <path
       id="path1794-4-0-9-0-5-4-1-5-1-8-9-0"
       d="m 97.805172,138.41057 c -0.466485,0.69535 -1.356937,-0.41143 -0.583444,-0.72049 0.428666,-0.1854 0.853879,0.33877 0.583444,0.72049 z"
       style="fill:#d40000;fill-opacity:0.97142855;stroke:none;stroke-width:0.06464466;stroke-miterlimit:4;stroke-dasharray:none;stroke-opacity:1" />
    <path
       id="path1794-1-3-0-4-2-9-6"
       d="m 98.918036,139.9056 c -0.820869,0.51698 -1.604592,-0.87113 -0.738261,-1.3071 0.862451,-0.47444 1.593941,0.80498 0.738261,1.3071 z"
       style="fill:#d40000;fill-opacity:0.97142855;stroke:none;stroke-width:0.1;stroke-miterlimit:4;stroke-dasharray:none;stroke-opacity:1" />
    <path
       id="path1790-6-2-7-7-9-5-0-0-3"
       d="m 97.321533,141.86619 c -0.975424,0.6229 -2.032477,-0.9232 -1.097567,-1.6059 0.841383,-0.76788 2.143217,0.53207 1.37292,1.37419 -0.07637,0.0934 -0.170294,0.17243 -0.275353,0.23171 z"
       style="fill:#d40000;fill-opacity:0.97142855;stroke:none;stroke-width:0.06935871;stroke-miterlimit:4;stroke-dasharray:none;stroke-opacity:1" />
    <path
       id="path1794-8-5-8-4-2-2-8-6"
       d="m 96.789502,139.90951 c -0.820869,0.51698 -1.604592,-0.87113 -0.738261,-1.3071 0.86245,-0.47444 1.593941,0.80498 0.738261,1.3071 z"
       style="fill:#d40000;fill-opacity:0.97142855;stroke:none;stroke-width:0.1;stroke-miterlimit:4;stroke-dasharray:none;stroke-opacity:1" />
  </g>
  <g
     id="g3365-9-0-5-4-1-1"
     transform="matrix(-0.84214878,0.26715851,-0.31126,-0.72282727,131.41333,81.49527)"
     style="fill:#d40000">
    <path
       id="path1790-6-2-3-5-1-0-9-9-3-0"
       d="m 100.17507,141.47493 c 0.0523,1.19864 -1.916922,1.26593 -1.949806,0.0679 -0.136676,-1.17586 1.786506,-1.40157 1.935606,-0.23096 l 0.0117,0.0952 z"
       style="fill:#d40000;fill-opacity:0.97142855;stroke:none;stroke-width:0.06876693;stroke-miterlimit:4;stroke-dasharray:none;stroke-opacity:1" />
    <path
       id="path1794-4-0-9-0-5-4-1-5-2-3-8-1-5"
       d="m 97.805172,138.41057 c -0.466485,0.69535 -1.356937,-0.41143 -0.583444,-0.72049 0.428666,-0.1854 0.853879,0.33877 0.583444,0.72049 z"
       style="fill:#d40000;fill-opacity:0.97142855;stroke:none;stroke-width:0.06464466;stroke-miterlimit:4;stroke-dasharray:none;stroke-opacity:1" />
    <path
       id="path1794-1-3-0-5-8-1-1-7"
       d="m 98.918036,139.9056 c -0.820869,0.51698 -1.604592,-0.87113 -0.738261,-1.3071 0.862451,-0.47444 1.593941,0.80498 0.738261,1.3071 z"
       style="fill:#d40000;fill-opacity:0.97142855;stroke:none;stroke-width:0.1;stroke-miterlimit:4;stroke-dasharray:none;stroke-opacity:1" />
    <path
       id="path1790-6-2-7-7-9-3-8-5-0-4"
       d="m 97.321533,141.86619 c -0.975424,0.6229 -2.032477,-0.9232 -1.097567,-1.6059 0.841383,-0.76788 2.143217,0.53207 1.37292,1.37419 -0.07637,0.0934 -0.170294,0.17243 -0.275353,0.23171 z"
       style="fill:#d40000;fill-opacity:0.97142855;stroke:none;stroke-width:0.06935871;stroke-miterlimit:4;stroke-dasharray:none;stroke-opacity:1" />
    <path
       id="path1794-8-5-8-4-8-4-6-3-2"
       d="m 96.789502,139.90951 c -0.820869,0.51698 -1.604592,-0.87113 -0.738261,-1.3071 0.86245,-0.47444 1.593941,0.80498 0.738261,1.3071 z"
       style="fill:#d40000;fill-opacity:0.97142855;stroke:none;stroke-width:0.1;stroke-miterlimit:4;stroke-dasharray:none;stroke-opacity:1" />
  </g>
  <path
     id="path1794-4-0-9-0-5-4-5-3-4-4-0"
     d="M 12.450237,3.83035 C 12.031417,4.36619 11.231943,3.51329 11.92641,3.27513 12.311278,3.13225 12.693041,3.53619 12.450237,3.83035 Z"
     style="fill:#d40000;fill-opacity:0.97142855;stroke:none;stroke-width:0.05377115;stroke-miterlimit:4;stroke-dasharray:none;stroke-opacity:1" />
  <path
     id="path1794-4-7-9-5-5-6-0-0"
     d="m 6.0702675,17.59432 c -0.4494587,0.64034 -1.6384873,-0.0434 -1.1198588,-0.64374 0.4999858,-0.62548 1.603234,0.001 1.1198588,0.64374 z"
     style="fill:#d40000;fill-opacity:0.97142855;stroke:none;stroke-width:0.08317956;stroke-miterlimit:4;stroke-dasharray:none;stroke-opacity:1" />
  <path
     id="path1794-4-7-9-5-6-0-8-3-3"
     d="m 3.5767972,17.26828 c -0.4494605,0.64035 -1.6384882,-0.0434 -1.1198589,-0.64373 0.499985,-0.62548 1.603234,0.001 1.1198589,0.64373 z"
     style="fill:#d40000;fill-opacity:0.97142855;stroke:none;stroke-width:0.08317956;stroke-miterlimit:4;stroke-dasharray:none;stroke-opacity:1" />
  <path
     id="path1794-4-7-9-5-6-6-5-6-9-3"
     d="m 6.3200768,19.26064 c -0.4494596,0.64034 -1.6384881,-0.0434 -1.1198588,-0.64373 0.4999849,-0.62549 1.6032328,10e-4 1.1198588,0.64373 z"
     style="fill:#d40000;fill-opacity:0.97142855;stroke:none;stroke-width:0.08317956;stroke-miterlimit:4;stroke-dasharray:none;stroke-opacity:1" />
  <path
     id="path1794-4-7-9-5-6-6-3-9-3-1-9"
     d="m 19.539207,21.02194 c -0.44946,0.64035 -1.638487,-0.0434 -1.119859,-0.64373 0.499986,-0.62548 1.603234,0.001 1.119859,0.64373 z"
     style="fill:#d40000;fill-opacity:0.97142855;stroke:none;stroke-width:0.08317956;stroke-miterlimit:4;stroke-dasharray:none;stroke-opacity:1" />
  <g
     transform="matrix(0.89782925,0,0,0.77061855,-89.917323,-90.7011)"
     id="g3682-3-5-9-0"
     style="fill:#d40000">
    <path
       id="path1794-0-4-4-4-7-6-4"
       d="m 120.01998,145.75381 c 0.0464,0.96899 -1.54763,0.96874 -1.50118,0 0.011,-0.98427 1.48479,-0.99198 1.50118,0 z"
       style="fill:#d40000;fill-opacity:0.97142855;stroke:none;stroke-width:0.1;stroke-miterlimit:4;stroke-dasharray:none;stroke-opacity:1" />
    <path
       id="path1794-4-0-9-0-4-0-6-4-9-3"
       d="m 118.08313,145.10789 c -6.6e-4,0.83733 -1.35639,0.41323 -0.88569,-0.27397 0.253,-0.39258 0.89797,-0.19367 0.88569,0.27397 z"
       style="fill:#d40000;fill-opacity:0.97142855;stroke:none;stroke-width:0.06464466;stroke-miterlimit:4;stroke-dasharray:none;stroke-opacity:1" />
    <path
       id="path1794-0-4-9-8-2-2-3-3"
       d="m 117.92742,146.77663 c 0.0465,0.96898 -1.54763,0.96873 -1.50118,0 0.011,-0.98427 1.48479,-0.99199 1.50118,0 z"
       style="fill:#d40000;fill-opacity:0.97142855;stroke:none;stroke-width:0.1;stroke-miterlimit:4;stroke-dasharray:none;stroke-opacity:1" />
    <path
       id="path1794-4-7-9-5-6-6-3-0-5-4-3-4"
       d="m 119.60225,147.91625 c -0.50061,0.83096 -1.82494,-0.0563 -1.24729,-0.83534 0.55688,-0.81166 1.78567,0.002 1.24729,0.83534 z"
       style="fill:#d40000;fill-opacity:0.97142855;stroke:none;stroke-width:0.1;stroke-miterlimit:4;stroke-dasharray:none;stroke-opacity:1" />
  </g>
  <path
     id="path1792-1-9-8-3-0-8-2"
     d="M 21.278304,8.20978 C 20.540877,9.28483 18.409698,8.60835 18.666592,7.3795 18.754682,6.15464 20.964013,5.90394 21.417979,7.06913 21.59389,7.439 21.539924,7.87939 21.278304,8.20978 Z"
     style="fill:#d40000;fill-opacity:0.97142855;stroke:none;stroke-width:0.08317956;stroke-miterlimit:4;stroke-dasharray:none;stroke-opacity:1" />
  <path
     id="path1794-4-0-9-0-5-4-15-2-2-0-4"
     d="M 17.250604,6.83054 C 16.831783,7.36639 16.032308,6.51348 16.726776,6.27532 17.111643,6.13245 17.493408,6.53639 17.250604,6.83054 Z"
     style="fill:#d40000;fill-opacity:0.97142855;stroke:none;stroke-width:0.05377115;stroke-miterlimit:4;stroke-dasharray:none;stroke-opacity:1" />
  <path
     id="path1794-4-0-9-0-5-4-15-3-0-7-5-5"
     d="M 10.17374,6.93915 C 9.7549192,7.475 8.9554446,6.6221 9.6499117,6.38393 10.034779,6.24106 10.416544,6.64499 10.17374,6.93915 Z"
     style="fill:#d40000;fill-opacity:0.97142855;stroke:none;stroke-width:0.05377115;stroke-miterlimit:4;stroke-dasharray:none;stroke-opacity:1" />
  <path
     id="path1794-4-0-9-0-5-4-15-3-5-0-2-6-3"
     d="m 6.4460737,15.87195 c -0.4188212,0.53584 -1.218295,-0.31706 -0.5238286,-0.55523 0.384868,-0.14287 0.7666327,0.26107 0.5238286,0.55523 z"
     style="fill:#d40000;fill-opacity:0.97142855;stroke:none;stroke-width:0.05377115;stroke-miterlimit:4;stroke-dasharray:none;stroke-opacity:1" />
  <path
     id="path1794-4-0-9-0-5-4-15-3-5-1-0-0-6-8"
     d="M 7.2650676,18.16877 C 6.8462458,18.70463 6.0467713,17.85172 6.7412384,17.61356 7.1261063,17.47068 7.5078715,17.87462 7.2650676,18.16877 Z"
     style="fill:#d40000;fill-opacity:0.97142855;stroke:none;stroke-width:0.05377115;stroke-miterlimit:4;stroke-dasharray:none;stroke-opacity:1" />
  <path
     id="path1794-4-0-9-0-5-4-15-3-5-4-9-1-4-1"
     d="m 19.161206,18.19394 c -0.418821,0.53585 -1.218295,-0.31705 -0.523828,-0.55521 0.384868,-0.14288 0.766632,0.26105 0.523828,0.55521 z"
     style="fill:#d40000;fill-opacity:0.97142855;stroke:none;stroke-width:0.05377115;stroke-miterlimit:4;stroke-dasharray:none;stroke-opacity:1" />
  <path
     id="path1794-4-0-9-0-5-4-15-3-5-4-0-8-6-0-1"
     d="m 18.410112,14.82765 c -0.418821,0.53585 -1.218295,-0.31706 -0.523828,-0.55522 0.384867,-0.14288 0.766633,0.26107 0.523828,0.55522 z"
     style="fill:#d40000;fill-opacity:0.97142855;stroke:none;stroke-width:0.05377115;stroke-miterlimit:4;stroke-dasharray:none;stroke-opacity:1" />
  <path
     id="text1086-7-0-5-1"
     d="M 14.112316,19.96799 C 11.600457,20.08806 8.7482012,19.0571 8.0472934,16.80767 7.2589663,14.28229 7.1562376,11.18511 9.1961682,9.06007 11.316493,7.1856 14.907198,7.13392 17.559739,8.13211 18.87254,8.97607 16.97903,10.15251 16.025992,9.09071 13.723111,8.38567 10.426033,9.00611 9.7680567,11.30009 9.2124264,13.3096 9.0875488,15.7044 10.5425,17.46424 c 1.81345,1.66334 4.976609,1.39567 7.078436,0.29765 2.066907,1.49271 -1.61559,2.18782 -2.976972,2.19406 l -0.263593,0.009 z m 6.02056,-0.0701 c -1.53023,0.12905 -0.451021,-1.19433 -0.271427,-1.8384 1.475187,-3.43775 2.847793,-6.92035 4.386914,-10.33013 0.817383,-0.28112 2.280413,-0.34666 2.359648,0.67794 1.543944,3.73357 3.170446,7.44631 4.662692,11.19295 -0.783499,0.73526 -2.175826,0.17431 -2.205526,-0.81567 -0.284771,-0.67941 -0.569543,-1.35883 -0.854317,-2.03825 -1.999098,0 -3.998195,0 -5.997292,0 -0.428143,0.99355 -0.767403,2.02362 -1.251985,2.99398 -0.2286,0.16568 -0.548776,0.15377 -0.828707,0.15758 z m 7.527212,-4.48222 c -0.751337,-1.96975 -1.717028,-3.8876 -2.31783,-5.89386 -0.187025,-0.64305 -0.558815,1.38316 -0.910828,1.88257 -0.548897,1.33709 -1.097794,2.67419 -1.646691,4.01129 1.625117,0 3.250233,0 4.875349,0 z m 6.451805,4.44721 c -1.044256,-0.14847 -0.457982,-1.34458 -0.611969,-2.00102 0,-3.30162 0,-6.60325 0,-9.9049 0.694983,-0.93681 2.285191,-0.16991 1.795111,0.88545 0,3.22994 0,6.45987 0,9.6898 1.931724,0.0201 3.872239,-0.0404 5.798396,0.0307 0.730017,0.82906 -0.170021,1.59046 -1.220302,1.30002 -1.920412,0 -3.840824,0 -5.761236,0 z m 9.502724,0 c -1.044256,-0.14847 -0.457983,-1.34458 -0.611969,-2.00102 0.02352,-3.32288 -0.04723,-6.65089 0.03573,-9.97055 0.569682,-0.53605 1.621498,-0.18153 2.410259,-0.28451 1.823482,0.0208 3.656042,-0.0414 5.473939,0.0306 0.730007,0.82905 -0.170031,1.59045 -1.220303,1.30002 -1.63483,0 -3.26966,0 -4.904482,0 0,1.33065 0,2.66131 0,3.99198 1.836474,0.0205 3.681918,-0.041 5.512815,0.0307 0.730008,0.82906 -0.170021,1.59046 -1.220302,1.30002 -1.430844,0 -2.861678,0 -4.292513,0 0,1.42404 0,2.84808 0,4.27212 2.047311,0.0201 4.10343,-0.0404 6.145183,0.0307 0.730008,0.82906 -0.17003,1.59046 -1.220302,1.30002 -2.036007,0 -4.072015,0 -6.108022,0 z"
     style="font-style:normal;font-weight:normal;font-size:17.04019928px;line-height:1.25;font-family:sans-serif;letter-spacing:0px;word-spacing:0px;fill:#000000;fill-opacity:1;stroke:#ffffff;stroke-width:0.09981547;stroke-miterlimit:4;stroke-dasharray:none;stroke-opacity:1" />
</svg>
