<?xml version="1.0" encoding="UTF-8" standalone="no"?>
<!-- Generator: Gravit.io -->

<svg
   style="isolation:isolate"
   viewBox="0 0 514.451 512"
   width="514.451"
   height="512"
   version="1.1"
   id="svg4"
   sodipodi:docname="01n.svg"
   inkscape:version="1.1.2 (0a00cf5339, 2022-02-04)"
   xmlns:inkscape="http://www.inkscape.org/namespaces/inkscape"
   xmlns:sodipodi="http://sodipodi.sourceforge.net/DTD/sodipodi-0.dtd"
   xmlns="http://www.w3.org/2000/svg"
   xmlns:svg="http://www.w3.org/2000/svg">
  <defs
     id="defs8" />
  <sodipodi:namedview
     id="namedview6"
     pagecolor="#ffffff"
     bordercolor="#666666"
     borderopacity="1.0"
     inkscape:pageshadow="2"
     inkscape:pageopacity="0.0"
     inkscape:pagecheckerboard="0"
     showgrid="false"
     inkscape:zoom="0.63446243"
     inkscape:cx="169.43478"
     inkscape:cy="410.58381"
     inkscape:window-width="1858"
     inkscape:window-height="1016"
     inkscape:window-x="62"
     inkscape:window-y="27"
     inkscape:window-maximized="1"
     inkscape:current-layer="svg4" />
  <path
     sodipodi:type="star"
     style="fill:#ffffff;stroke:#ffffff;stroke-width:12"
     id="path1770"
     inkscape:flatsided="false"
     sodipodi:sides="5"
     sodipodi:cx="347.19623"
     sodipodi:cy="137.68292"
     sodipodi:r1="41.111534"
     sodipodi:r2="20.555771"
     sodipodi:arg1="-0.2364025"
     sodipodi:arg2="0.39191603"
     inkscape:rounded="0"
     inkscape:randomized="0"
     d="m 387.16432,128.05433 -20.97088,17.48007 2.51095,27.18504 -23.1049,-14.54286 -25.07858,10.7887 6.69127,-26.46806 -18.01036,-20.51725 27.24033,-1.81531 13.94756,-23.469052 10.14418,25.346132 z"
     inkscape:transform-center-x="-6.8123071"
     inkscape:transform-center-y="0.076797425"
     transform="matrix(1.7035373,0.41995498,-0.41656191,1.7174133,-126.21378,-272.17827)" />
  <circle
     style="fill:#ffffff;stroke-width:12"
     id="path1794"
     cx="443.76938"
     cy="325.55231"
     r="18.952299" />
  <path
     style="fill:#ffffff;stroke-width:11;stroke-miterlimit:4;stroke-dasharray:none;stroke:#ffffff;stroke-opacity:1"
     d="M 193.26834,471.20929 C 70.877839,418.29449 18.164728,283.78244 75.771274,171.35999 115.66913,93.497057 198.70435,43.939043 292.476,42.03572 c 4.21701,-0.07985 8.01908,2.301265 9.44326,5.935973 1.42419,3.634709 0.18168,7.710669 -3.10154,10.117207 -27.11888,19.879853 -48.39503,44.65712 -63.23656,73.62121 -53.0007,103.43388 -4.51262,227.1819 108.09232,275.86599 31.87854,13.7825 65.83299,20.40194 100.93721,19.69707 4.22591,-0.076 8.0191,2.30127 9.44328,5.93597 1.43306,3.63855 0.18169,7.71068 -3.10154,10.11721 -73.68638,54.0483 -172.43786,64.73864 -257.68409,27.88294 z M 264.54012,62.239875 C 190.12909,72.274523 126.15637,115.36781 93.530901,179.03826 40.534387,282.46398 89.022468,406.21201 201.62741,454.89608 c 69.74207,30.15257 149.32035,25.71967 213.78355,-10.62545 -27.6619,-2.49405 -54.49605,-9.3131 -80.08767,-20.37748 C 212.93279,370.97834 160.22386,236.45813 217.83041,124.03568 229.70028,100.87092 245.35708,80.180365 264.54012,62.239875 Z"
     id="path2" />
</svg>
