<?xml version="1.0" encoding="UTF-8" standalone="no"?>
<!-- Generator: Gravit.io -->

<svg
   style="isolation:isolate"
   viewBox="0 0 512 512"
   width="512"
   height="512"
   version="1.1"
   id="svg21"
   sodipodi:docname="02d.svg"
   inkscape:version="1.1.2 (0a00cf5339, 2022-02-04)"
   xmlns:inkscape="http://www.inkscape.org/namespaces/inkscape"
   xmlns:sodipodi="http://sodipodi.sourceforge.net/DTD/sodipodi-0.dtd"
   xmlns="http://www.w3.org/2000/svg"
   xmlns:svg="http://www.w3.org/2000/svg">
  <defs
     id="defs25" />
  <sodipodi:namedview
     id="namedview23"
     pagecolor="#ffffff"
     bordercolor="#666666"
     borderopacity="1.0"
     inkscape:pageshadow="2"
     inkscape:pageopacity="0.0"
     inkscape:pagecheckerboard="0"
     showgrid="false"
     inkscape:zoom="1.6992188"
     inkscape:cx="255.70574"
     inkscape:cy="252.17471"
     inkscape:window-width="1858"
     inkscape:window-height="1016"
     inkscape:window-x="62"
     inkscape:window-y="27"
     inkscape:window-maximized="1"
     inkscape:current-layer="svg21" />
  <path
     d="m 367.73295,213.54305 c 37.56548,0 67.85991,-30.53712 67.85991,-67.85991 0,-37.32278 -30.53713,-67.85991 -67.85991,-67.85991 -37.32279,0 -67.85991,30.53713 -67.85991,67.85991 0,37.32279 30.29442,67.85991 67.85991,67.85991 z m 0,-116.088734 c 26.65944,0 48.22882,21.569374 48.22882,48.228824 0,26.65945 -21.56938,48.22882 -48.22882,48.22882 -26.65945,0 -48.22883,-21.56937 -48.22883,-48.22882 0,-26.65945 21.56938,-48.228824 48.22883,-48.228824 z"
     fill="#000000"
     id="path2"
     style="stroke-width:0.549091;fill:#ffffff;stroke:#ffffff" />
  <path
     d="m 224.47709,151.93385 c -59.245,0 -107.445,47.246 -107.445,105.317 0,0.205 0,0.407 0.002,0.612 -39.738998,2.989 -71.145998,35.674 -71.145998,75.422 0,41.708 34.581,75.639 77.087998,75.639 h 206.801 c 37.259,0 69.717,-20.509 86.269,-50.615 52.17118,-98.89082 -100.50807,-204.85442 -191.569,-206.375 z m 105.298,231.84 h -206.799 c -28.638998,0 -51.937998,-22.65 -51.937998,-50.489 0,-27.841 23.299,-50.493 51.937998,-50.493 1.767,0 3.733,0.132 6.18,0.419 3.885,0.459 7.753,-0.922 10.478,-3.726 2.723,-2.801 3.989,-6.711 3.425,-10.579 -0.581,-3.989 -0.877,-7.911 -0.877,-11.655 0,-44.204 36.917,-80.167 82.295,-80.167 35.993,0 68.312,23.377 78.736,56.888 0.134,0.471 0.297,0.929 0.483,1.375 2.188,5.421 7.879,8.68 13.734,7.688 4.057,-0.681 8.21,-1.025 12.345,-1.025 40.138,0 72.791,31.798 72.791,70.881 0,39.085 -32.653,70.883 -72.791,70.883 z m 95.434,-49.373 c 1.622,-6.919 2.509,-14.112 2.509,-21.508 -11.0663,-53.27233 -56.70869,-97.54761 -100.235,-95.963 97.453,20.68213 100.235,95.963 97.726,117.471 z"
     fill="#000000"
     id="path2-3"
     sodipodi:nodetypes="cscsssccsssscccsscccssscccc"
     style="isolation:isolate;stroke:#ffffff;stroke-opacity:1;stroke-width:3;stroke-miterlimit:4;stroke-dasharray:none;fill:#ffffff" />
  <path
     d="m 510.79326,141.85337 c 0,-6.90157 -4.39978,-12.30277 -10.02174,-12.30277 h -31.53059 c -5.62196,0 -10.02174,5.4012 -10.02174,12.30277 0,6.90157 4.39978,12.30277 10.02174,12.30277 h 31.53059 c 5.37773,0 10.02174,-5.4012 10.02174,-12.30277 z"
     fill="#000000"
     id="path12-6-3"
     style="isolation:isolate;stroke-width:0.613574;fill:#ffffff;stroke:#ffffff" />
  <path
     d="m 473.74166,244.65764 c 4.87835,-4.88196 5.58389,-11.81255 1.6071,-15.78641 l -22.30374,-22.28725 c -3.9768,-3.97386 -10.90687,-3.26318 -15.78521,1.61877 -4.87835,4.88196 -5.58389,11.81255 -1.6071,15.78641 l 22.30374,22.28725 c 3.80404,3.80122 10.90687,3.26318 15.78521,-1.61877 z"
     fill="#000000"
     id="path12-6-3-6"
     style="isolation:isolate;stroke-width:0.613574;fill:#ffffff;stroke:#ffffff" />
  <path
     d="m 307.50909,77.886847 c 4.87835,-4.88196 5.58389,-11.81255 1.6071,-15.78641 l -22.30374,-22.28725 c -3.9768,-3.97386 -10.90687,-3.26318 -15.78521,1.61877 -4.87835,4.88196 -5.58389,11.81255 -1.6071,15.78641 l 22.30374,22.28725 c 3.80404,3.80122 10.90687,3.26318 15.78521,-1.61877 z"
     fill="#000000"
     id="path12-6-3-6-3"
     style="isolation:isolate;stroke-width:0.613574;fill:#ffffff;stroke:#ffffff" />
  <path
     d="m 366.74193,60.045366 c 6.90143,0.04448 12.33086,-4.320398 12.3671,-9.94224 l 0.20321,-31.529938 c 0.0362,-5.62185 -5.3365,-10.0563387 -12.23792,-10.1008167 -6.90144,-0.04448 -12.33087,4.3203977 -12.36711,9.9422397 L 354.504,49.944549 c -0.0346,5.37762 5.3365,10.056339 12.23793,10.100817 z"
     fill="#000000"
     id="path12-6-3-6-7"
     style="isolation:isolate;stroke-width:0.613574;fill:#ffffff;stroke:#ffffff" />
  <path
     d="m 436.59388,76.554987 c 4.84259,4.917422 11.76729,5.678638 15.77298,1.733914 L 474.83264,56.165 c 4.00567,-3.944759 3.35073,-10.880294 -1.49185,-15.797708 -4.8426,-4.917429 -11.76729,-5.678645 -15.77299,-1.733921 l -22.46578,22.123901 c -3.83163,3.773406 -3.35073,10.880294 1.49186,15.797715 z"
     fill="#000000"
     id="path12-6-3-6-7-5"
     style="isolation:isolate;stroke-width:0.613574;fill:#ffffff;stroke:#ffffff" />
</svg>
