<?xml version="1.0" encoding="UTF-8" standalone="no"?>
<svg
   xmlns:dc="http://purl.org/dc/elements/1.1/"
   xmlns:cc="http://creativecommons.org/ns#"
   xmlns:rdf="http://www.w3.org/1999/02/22-rdf-syntax-ns#"
   xmlns:svg="http://www.w3.org/2000/svg"
   xmlns="http://www.w3.org/2000/svg"
   xmlns:sodipodi="http://sodipodi.sourceforge.net/DTD/sodipodi-0.dtd"
   xmlns:inkscape="http://www.inkscape.org/namespaces/inkscape"
   width="81.581863"
   height="130.08862"
   viewBox="0 0 81.581863 130.08862"
   version="1.1"
   preserveAspectRatio="xMidYMid"
   id="svg16"
   sodipodi:docname="eth_xl_red.svg"
   inkscape:version="0.92.5 (2060ec1f9f, 2020-04-08)">
  <metadata
     id="metadata22">
    <rdf:RDF>
      <cc:Work
         rdf:about="">
        <dc:format>image/svg+xml</dc:format>
        <dc:type
           rdf:resource="http://purl.org/dc/dcmitype/StillImage" />
        <dc:title></dc:title>
      </cc:Work>
    </rdf:RDF>
  </metadata>
  <defs
     id="defs20" />
  <sodipodi:namedview
     pagecolor="#ffffff"
     bordercolor="#666666"
     borderopacity="1"
     objecttolerance="10"
     gridtolerance="10"
     guidetolerance="10"
     inkscape:pageopacity="0"
     inkscape:pageshadow="2"
     inkscape:window-width="1343"
     inkscape:window-height="862"
     id="namedview18"
     showgrid="false"
     fit-margin-top="0"
     fit-margin-left="0"
     fit-margin-right="0"
     fit-margin-bottom="0"
     inkscape:zoom="2.263789"
     inkscape:cx="67.308737"
     inkscape:cy="65.692137"
     inkscape:window-x="60"
     inkscape:window-y="27"
     inkscape:window-maximized="0"
     inkscape:current-layer="svg16" />
  <polygon
     style="fill:#d40000"
     id="polygon2"
     points="127.9611,287.958 255.9231,212.32 127.9611,0 125.1661,9.5 125.1661,285.168 "
     transform="matrix(0.2952427,0,0,0.2952427,3.5338983,4.3495861)" />
  <polygon
     style="fill:#ff0000"
     id="polygon4"
     points="127.962,0 0,212.32 127.962,287.959 127.962,154.158 "
     transform="matrix(0.2952427,0,0,0.2952427,3.5338983,4.3495861)" />
  <polygon
     style="fill:#d40000"
     id="polygon6"
     points="127.9611,416.9066 255.9991,236.5866 127.9611,312.1866 126.3861,314.1066 126.3861,412.3056 "
     transform="matrix(0.2952427,0,0,0.2952427,3.5338983,4.3495861)" />
  <polygon
     style="fill:#ff0000"
     id="polygon8"
     points="127.962,416.9052 127.962,312.1852 0,236.5852 "
     transform="matrix(0.2952427,0,0,0.2952427,3.5338983,4.3495861)" />
  <polygon
     style="fill:#800000"
     id="polygon10"
     points="127.9611,287.9577 255.9211,212.3207 127.9611,154.1587 "
     transform="matrix(0.2952427,0,0,0.2952427,3.5338983,4.3495861)" />
  <polygon
     style="fill:#d40000"
     id="polygon12"
     points="0.0009,212.3208 127.9609,287.9578 127.9609,154.1588 "
     transform="matrix(0.2952427,0,0,0.2952427,3.5338983,4.3495861)" />
</svg>
