<svg xmlns="http://www.w3.org/2000/svg" viewBox="0 0 64 64" width="64px" height="64px"><radialGradient id="CI_iuYqyQyPDfdBrq7m0La" cx="33" cy="32" r="28.609" gradientUnits="userSpaceOnUse" spreadMethod="reflect"><stop offset="0" stop-color="#afeeff"/><stop offset=".193" stop-color="#bbf1ff"/><stop offset=".703" stop-color="#d7f8ff"/><stop offset="1" stop-color="#e1faff"/></radialGradient><path fill="url(#CI_iuYqyQyPDfdBrq7m0La)" d="M53,34h5.241c2.868,0,5.442-2.082,5.731-4.936C64.303,25.789,61.711,23,58.5,23l-19.33,0 c-1.624,0-3.081-1.216-3.165-2.839C35.914,18.431,37.29,17,39,17l5.241,0c2.868,0,5.442-2.082,5.731-4.936 C50.303,8.789,47.711,6,44.5,6H33h-7.5h-15C7.462,6,5,8.462,5,11.5v0c0,3.038,2.462,5.5,5.5,5.5H14c1.105,0,2,0.895,2,2v0 c0,1.105-0.895,2-2,2l-7.288,0c-2.347,0-4.453,1.704-4.689,4.038C1.752,27.718,3.873,30,6.5,30l6.33,0 c1.624,0,3.081,1.216,3.165,2.839C16.086,34.569,14.71,36,13,36H9.712c-2.347,0-4.453,1.704-4.689,4.038 C4.753,42.718,6.873,45,9.5,45h4.393c0.996,0,1.92,0.681,2.08,1.664C16.176,47.917,15.215,49,14,49H9.712 c-2.347,0-4.453,1.704-4.689,4.038C4.752,55.718,6.873,58,9.5,58h22c0.086,0,0.166-0.021,0.25-0.025C31.834,57.982,31.914,58,32,58 l17.386,0c1.67,0,3.195-1.122,3.537-2.757C53.392,52.998,51.668,51,49.5,51h-5.393c-0.996,0-1.92-0.681-2.08-1.664 C41.824,48.083,42.785,47,44,47l12.288,0c2.347,0,4.453-1.704,4.689-4.039C61.247,40.282,59.127,38,56.5,38h-3.393 c-0.996,0-1.92-0.681-2.08-1.664C50.824,35.083,51.785,34,53,34z"/><linearGradient id="CI_iuYqyQyPDfdBrq7m0Lb" x1="32" x2="32" y1="14" y2="49.979" gradientUnits="userSpaceOnUse" spreadMethod="reflect"><stop offset="0" stop-color="#42d778"/><stop offset=".428" stop-color="#3dca76"/><stop offset="1" stop-color="#34b171"/></linearGradient><path fill="url(#CI_iuYqyQyPDfdBrq7m0Lb)" d="M51.964,15.036L25.482,41.518L12.036,28.036c-1.381-1.381-3.619-1.381-5,0l0,0 c-1.381,1.381-1.381,3.619,0,5l15.82,15.855c1.451,1.451,3.803,1.451,5.254,0l28.855-28.855c1.381-1.381,1.381-3.619,0-5l0,0 C55.584,13.655,53.345,13.655,51.964,15.036z"/></svg>