<svg xmlns="http://www.w3.org/2000/svg" viewBox="0 0 64 64" width="64px" height="64px"><path fill="#ed7899" d="M31 3A28 28 0 1 0 31 59A28 28 0 1 0 31 3Z"/><path fill="#f9e3ae" d="M31,3C15.536,3,3,15.536,3,31s12.536,28,28,28s28-12.536,28-28S46.464,3,31,3z M31,53 C18.85,53,9,43.15,9,31S18.85,9,31,9c5.883,0,11.226,2.309,15.174,6.07c0.231,0.22,0.456,0.444,0.677,0.674 c0.258,0.268,0.51,0.543,0.755,0.825C50.966,20.432,53,25.478,53,31C53,43.15,43.15,53,31,53z"/><path fill="#f6d397" d="M31,53C18.85,53,9,43.15,9,31H7.339c-2.491,0-4.361,2.25-3.945,4.706C5.631,48.929,17.14,59,31,59 s25.369-10.071,27.606-23.294C59.022,33.25,57.152,31,54.661,31H53C53,43.15,43.15,53,31,53z"/><path fill="#8d6c9f" d="M31,2C15.01,2,2,15.009,2,31s13.01,29,29,29s29-13.009,29-29S46.99,2,31,2z M31,58 C16.112,58,4,45.888,4,31S16.112,4,31,4s27,12.112,27,27S45.888,58,31,58z"/><path fill="#8d6c9f" d="M31 50c-.553 0-1 .448-1 1v2c0 .552.447 1 1 1s1-.448 1-1v-2C32 50.448 31.553 50 31 50zM37.013 50.077c-.143-.534-.691-.852-1.225-.707-.533.143-.85.691-.707 1.225l.518 1.932c.119.447.523.742.965.742.086 0 .173-.011.26-.035.533-.143.85-.691.707-1.225L37.013 50.077zM21.75 47.521c-.478-.275-1.09-.112-1.366.366l-1 1.732c-.276.478-.112 1.09.366 1.366.157.091.329.134.499.134.346 0 .682-.179.867-.5l1-1.732C22.393 48.41 22.229 47.798 21.75 47.521zM41.616 47.888c-.277-.479-.89-.642-1.366-.366-.479.276-.643.888-.366 1.366l1 1.732c.186.321.521.5.867.5.17 0 .342-.043.499-.134.479-.276.643-.888.366-1.366L41.616 47.888zM26.212 49.37c-.533-.144-1.082.173-1.225.707l-.518 1.932c-.143.534.174 1.082.707 1.225.087.023.174.035.26.035.441 0 .846-.295.965-.742l.518-1.932C27.062 50.061 26.745 49.512 26.212 49.37z"/><path fill="#faefde" d="M40.192,38.778L32.414,31l7.778-7.778c0.391-0.391,0.391-1.023,0-1.414s-1.023-0.391-1.414,0 L31,29.586l-7.778-7.778c-0.391-0.391-1.023-0.391-1.414,0s-0.391,1.023,0,1.414L29.586,31l-7.778,7.778 c-0.391,0.391-0.391,1.023,0,1.414c0.195,0.195,0.451,0.293,0.707,0.293s0.512-0.098,0.707-0.293L31,32.414l7.778,7.778 c0.195,0.195,0.451,0.293,0.707,0.293s0.512-0.098,0.707-0.293C40.583,39.802,40.583,39.169,40.192,38.778z"/><path fill="#8d6c9f" d="M38.351 11.322c.713.267 1.42.576 2.1.919.145.073.298.107.449.107.365 0 .718-.201.894-.549.249-.493.051-1.095-.442-1.343-.744-.376-1.519-.715-2.301-1.007-.518-.194-1.093.07-1.286.586C37.57 10.553 37.833 11.128 38.351 11.322zM16.15 16.151c4.748-4.748 11.548-6.949 18.188-5.886.545.088 1.059-.284 1.146-.829.088-.545-.284-1.059-.829-1.146-7.268-1.167-14.717 1.246-19.918 6.446-8.967 8.967-8.967 23.559 0 32.526.195.195.451.293.707.293s.512-.098.707-.293c.391-.391.391-1.023 0-1.414C7.963 37.661 7.963 24.339 16.15 16.151zM47.264 14.737c-.658-.659-1.363-1.283-2.094-1.856-.437-.341-1.063-.264-1.404.17-.341.435-.265 1.063.17 1.404.668.523 1.312 1.094 1.914 1.696 8.188 8.188 8.188 21.51 0 29.698-.391.391-.391 1.023 0 1.414.195.195.451.293.707.293s.512-.098.707-.293C56.23 38.296 56.23 23.704 47.264 14.737z"/></svg>