<?xml version="1.0" encoding="UTF-8" standalone="no"?>
<svg
   xmlns:dc="http://purl.org/dc/elements/1.1/"
   xmlns:cc="http://creativecommons.org/ns#"
   xmlns:rdf="http://www.w3.org/1999/02/22-rdf-syntax-ns#"
   xmlns:svg="http://www.w3.org/2000/svg"
   xmlns="http://www.w3.org/2000/svg"
   xmlns:sodipodi="http://sodipodi.sourceforge.net/DTD/sodipodi-0.dtd"
   xmlns:inkscape="http://www.inkscape.org/namespaces/inkscape"
   viewBox="105 5 1598 765"
   width="1493px"
   height="760px"
   version="1.1"
   id="svg600"
   sodipodi:docname="db-structure-cale.svg"
   inkscape:version="0.92.3 (2405546, 2018-03-11)">
  <metadata
     id="metadata606">
    <rdf:RDF>
      <cc:Work
         rdf:about="">
        <dc:format>image/svg+xml</dc:format>
        <dc:type
           rdf:resource="http://purl.org/dc/dcmitype/StillImage" />
        <dc:title></dc:title>
      </cc:Work>
    </rdf:RDF>
  </metadata>
  <defs
     id="defs604" />
  <sodipodi:namedview
     pagecolor="#ffffff"
     bordercolor="#666666"
     borderopacity="1"
     objecttolerance="10"
     gridtolerance="10"
     guidetolerance="10"
     inkscape:pageopacity="0"
     inkscape:pageshadow="2"
     inkscape:window-width="1056"
     inkscape:window-height="629"
     id="namedview602"
     showgrid="false"
     inkscape:zoom="0.64790494"
     inkscape:cx="288.22147"
     inkscape:cy="349.07156"
     inkscape:window-x="0"
     inkscape:window-y="27"
     inkscape:window-maximized="0"
     inkscape:current-layer="svg600" />
  <line
     x1="690"
     y1="520"
     x2="680"
     y2="520"
     style="stroke:#0bf;stroke-width:1;"
     id="line2" />
  <line
     x1="599"
     y1="600"
     x2="589"
     y2="600"
     style="stroke:#0bf;stroke-width:1;"
     id="line4" />
  <line
     x1="680"
     y1="520"
     x2="599"
     y2="600"
     style="stroke:#0bf;stroke-width:1;"
     id="line6" />
  <line
     x1="682.5"
     y1="520"
     x2="686.03553390593"
     y2="523.53553390593"
     style="stroke:#0bf;stroke-width:2;"
     id="line8" />
  <line
     x1="682.5"
     y1="520"
     x2="686.03553390593"
     y2="516.46446609407"
     style="stroke:#0bf;stroke-width:2;"
     id="line10" />
  <line
     x1="594"
     y1="600"
     x2="597.53553390593"
     y2="603.53553390593"
     style="stroke:#0bf;stroke-width:2;"
     id="line12" />
  <line
     x1="594"
     y1="600"
     x2="597.53553390593"
     y2="596.46446609407"
     style="stroke:#0bf;stroke-width:2;"
     id="line14" />
  <line
     x1="980"
     y1="300"
     x2="970"
     y2="300"
     style="stroke:#c00;stroke-width:1;"
     id="line16" />
  <line
     x1="844"
     y1="220"
     x2="834"
     y2="220"
     style="stroke:#c00;stroke-width:1;"
     id="line18" />
  <line
     x1="970"
     y1="300"
     x2="844"
     y2="220"
     style="stroke:#c00;stroke-width:1;"
     id="line20" />
  <line
     x1="972.5"
     y1="300"
     x2="976.03553390593"
     y2="303.53553390593"
     style="stroke:#c00;stroke-width:2;"
     id="line22" />
  <line
     x1="972.5"
     y1="300"
     x2="976.03553390593"
     y2="296.46446609407"
     style="stroke:#c00;stroke-width:2;"
     id="line24" />
  <line
     x1="839"
     y1="220"
     x2="842.53553390593"
     y2="223.53553390593"
     style="stroke:#c00;stroke-width:2;"
     id="line26" />
  <line
     x1="839"
     y1="220"
     x2="842.53553390593"
     y2="216.46446609407"
     style="stroke:#c00;stroke-width:2;"
     id="line28" />
  <line
     x1="834"
     y1="260"
     x2="844"
     y2="260"
     style="stroke:#c00;stroke-width:1;"
     id="line30" />
  <line
     x1="853"
     y1="500"
     x2="843"
     y2="500"
     style="stroke:#c00;stroke-width:1;"
     id="line32" />
  <line
     x1="844"
     y1="260"
     x2="853"
     y2="500"
     style="stroke:#c00;stroke-width:1;"
     id="line34" />
  <line
     x1="841.5"
     y1="260"
     x2="837.96446609407"
     y2="263.53553390593"
     style="stroke:#c00;stroke-width:2;"
     id="line36" />
  <line
     x1="841.5"
     y1="260"
     x2="837.96446609407"
     y2="256.46446609407"
     style="stroke:#c00;stroke-width:2;"
     id="line38" />
  <line
     x1="848"
     y1="500"
     x2="851.53553390593"
     y2="503.53553390593"
     style="stroke:#c00;stroke-width:2;"
     id="line40" />
  <line
     x1="848"
     y1="500"
     x2="851.53553390593"
     y2="496.46446609407"
     style="stroke:#c00;stroke-width:2;"
     id="line42" />
  <line
     x1="730"
     y1="240"
     x2="720"
     y2="240"
     style="stroke:#bbb;stroke-width:1;"
     id="line44" />
  <line
     x1="601"
     y1="130"
     x2="591"
     y2="130"
     style="stroke:#bbb;stroke-width:1;"
     id="line46" />
  <line
     x1="720"
     y1="240"
     x2="601"
     y2="130"
     style="stroke:#bbb;stroke-width:1;"
     id="line48" />
  <line
     x1="722.5"
     y1="240"
     x2="726.03553390593"
     y2="243.53553390593"
     style="stroke:#bbb;stroke-width:2;"
     id="line50" />
  <line
     x1="722.5"
     y1="240"
     x2="726.03553390593"
     y2="236.46446609407"
     style="stroke:#bbb;stroke-width:2;"
     id="line52" />
  <line
     x1="596"
     y1="130"
     x2="599.53553390593"
     y2="133.53553390593"
     style="stroke:#bbb;stroke-width:2;"
     id="line54" />
  <line
     x1="596"
     y1="130"
     x2="599.53553390593"
     y2="126.46446609407"
     style="stroke:#bbb;stroke-width:2;"
     id="line56" />
  <line
     x1="1384"
     y1="240"
     x2="1394"
     y2="240"
     style="stroke:#333;stroke-width:1;"
     id="line58" />
  <line
     x1="1460"
     y1="200"
     x2="1470"
     y2="200"
     style="stroke:#333;stroke-width:1;"
     id="line60" />
  <line
     x1="1394"
     y1="240"
     x2="1460"
     y2="200"
     style="stroke:#333;stroke-width:1;"
     id="line62" />
  <line
     x1="1391.5"
     y1="240"
     x2="1387.9644660941"
     y2="243.53553390593"
     style="stroke:#333;stroke-width:2;"
     id="line64" />
  <line
     x1="1391.5"
     y1="240"
     x2="1387.9644660941"
     y2="236.46446609407"
     style="stroke:#333;stroke-width:2;"
     id="line66" />
  <line
     x1="1465"
     y1="200"
     x2="1461.4644660941"
     y2="203.53553390593"
     style="stroke:#333;stroke-width:2;"
     id="line68" />
  <line
     x1="1465"
     y1="200"
     x2="1461.4644660941"
     y2="196.46446609407"
     style="stroke:#333;stroke-width:2;"
     id="line70" />
  <line
     x1="1240"
     y1="220"
     x2="1230"
     y2="220"
     style="stroke:#bbb;stroke-width:1;"
     id="line72" />
  <line
     x1="601"
     y1="130"
     x2="591"
     y2="130"
     style="stroke:#bbb;stroke-width:1;"
     id="line74" />
  <line
     x1="1230"
     y1="220"
     x2="601"
     y2="130"
     style="stroke:#bbb;stroke-width:1;"
     id="line76" />
  <line
     x1="1232.5"
     y1="220"
     x2="1236.0355339059"
     y2="223.53553390593"
     style="stroke:#bbb;stroke-width:2;"
     id="line78" />
  <line
     x1="1232.5"
     y1="220"
     x2="1236.0355339059"
     y2="216.46446609407"
     style="stroke:#bbb;stroke-width:2;"
     id="line80" />
  <line
     x1="596"
     y1="130"
     x2="599.53553390593"
     y2="133.53553390593"
     style="stroke:#bbb;stroke-width:2;"
     id="line82" />
  <line
     x1="596"
     y1="130"
     x2="599.53553390593"
     y2="126.46446609407"
     style="stroke:#bbb;stroke-width:2;"
     id="line84" />
  <line
     x1="980"
     y1="70"
     x2="970"
     y2="70"
     style="stroke:#b0b;stroke-width:1;"
     id="line86" />
  <line
     x1="601"
     y1="130"
     x2="591"
     y2="130"
     style="stroke:#b0b;stroke-width:1;"
     id="line88" />
  <line
     x1="970"
     y1="70"
     x2="601"
     y2="130"
     style="stroke:#b0b;stroke-width:1;"
     id="line90" />
  <line
     x1="972.5"
     y1="70"
     x2="976.03553390593"
     y2="73.535533905933"
     style="stroke:#b0b;stroke-width:2;"
     id="line92" />
  <line
     x1="972.5"
     y1="70"
     x2="976.03553390593"
     y2="66.464466094067"
     style="stroke:#b0b;stroke-width:2;"
     id="line94" />
  <line
     x1="596"
     y1="130"
     x2="599.53553390593"
     y2="133.53553390593"
     style="stroke:#b0b;stroke-width:2;"
     id="line96" />
  <line
     x1="596"
     y1="130"
     x2="599.53553390593"
     y2="126.46446609407"
     style="stroke:#b0b;stroke-width:2;"
     id="line98" />
  <line
     x1="1240"
     y1="580"
     x2="1230"
     y2="580"
     style="stroke:#bbb;stroke-width:1;"
     id="line100" />
  <line
     x1="1230"
     y1="200"
     x2="1240"
     y2="200"
     style="stroke:#bbb;stroke-width:1;"
     id="line102" />
  <line
     x1="1230"
     y1="580"
     x2="1230"
     y2="200"
     style="stroke:#bbb;stroke-width:1;"
     id="line104" />
  <line
     x1="1232.5"
     y1="580"
     x2="1236.0355339059"
     y2="583.53553390593"
     style="stroke:#bbb;stroke-width:2;"
     id="line106" />
  <line
     x1="1232.5"
     y1="580"
     x2="1236.0355339059"
     y2="576.46446609407"
     style="stroke:#bbb;stroke-width:2;"
     id="line108" />
  <line
     x1="1235"
     y1="200"
     x2="1231.4644660941"
     y2="203.53553390593"
     style="stroke:#bbb;stroke-width:2;"
     id="line110" />
  <line
     x1="1235"
     y1="200"
     x2="1231.4644660941"
     y2="196.46446609407"
     style="stroke:#bbb;stroke-width:2;"
     id="line112" />
  <line
     x1="1240"
     y1="560"
     x2="1230"
     y2="560"
     style="stroke:#333;stroke-width:1;"
     id="line114" />
  <line
     x1="1089"
     y1="280"
     x2="1079"
     y2="280"
     style="stroke:#333;stroke-width:1;"
     id="line116" />
  <line
     x1="1230"
     y1="560"
     x2="1089"
     y2="280"
     style="stroke:#333;stroke-width:1;"
     id="line118" />
  <line
     x1="1232.5"
     y1="560"
     x2="1236.0355339059"
     y2="563.53553390593"
     style="stroke:#333;stroke-width:2;"
     id="line120" />
  <line
     x1="1232.5"
     y1="560"
     x2="1236.0355339059"
     y2="556.46446609407"
     style="stroke:#333;stroke-width:2;"
     id="line122" />
  <line
     x1="1084"
     y1="280"
     x2="1087.5355339059"
     y2="283.53553390593"
     style="stroke:#333;stroke-width:2;"
     id="line124" />
  <line
     x1="1084"
     y1="280"
     x2="1087.5355339059"
     y2="276.46446609407"
     style="stroke:#333;stroke-width:2;"
     id="line126" />
  <rect
     width="153"
     height="20"
     x="690"
     y="470"
     style="fill:#007;stroke:black;"
     id="rect128" />
  <text
     width="153"
     height="20"
     x="695"
     y="484"
     style="fill:#fff;"
     font-family="Arial"
     font-size="16px"
     id="text130"> app_api</text>
  <rect
     width="153"
     height="20"
     x="690"
     y="490"
     style="fill:#aea;stroke:black;"
     id="rect132" />
  <text
     width="153"
     height="20"
     x="695"
     y="504"
     style="fill:black;"
     font-family="Arial"
     font-size="16px"
     id="text134">id</text>
  <rect
     width="153"
     height="20"
     x="690"
     y="510"
     style="fill:none;stroke:black;"
     id="rect136" />
  <text
     width="153"
     height="20"
     x="695"
     y="524"
     style="fill:black;"
     font-family="Arial"
     font-size="16px"
     id="text138">api_cat_id</text>
  <rect
     width="153"
     height="20"
     x="690"
     y="530"
     style="fill:none;stroke:black;"
     id="rect140" />
  <text
     width="153"
     height="20"
     x="695"
     y="544"
     style="fill:black;"
     font-family="Arial"
     font-size="16px"
     id="text142">url_name</text>
  <rect
     width="153"
     height="20"
     x="690"
     y="550"
     style="fill:none;stroke:black;"
     id="rect144" />
  <text
     width="153"
     height="20"
     x="695"
     y="564"
     style="fill:black;"
     font-family="Arial"
     font-size="16px"
     id="text146">name</text>
  <rect
     width="153"
     height="20"
     x="690"
     y="570"
     style="fill:none;stroke:black;"
     id="rect148" />
  <text
     width="153"
     height="20"
     x="695"
     y="584"
     style="fill:black;"
     font-family="Arial"
     font-size="16px"
     id="text150">auth_note</text>
  <rect
     width="153"
     height="20"
     x="690"
     y="590"
     style="fill:none;stroke:black;"
     id="rect152" />
  <text
     width="153"
     height="20"
     x="695"
     y="604"
     style="fill:black;"
     font-family="Arial"
     font-size="16px"
     id="text154">url</text>
  <rect
     width="153"
     height="20"
     x="690"
     y="610"
     style="fill:none;stroke:black;"
     id="rect156" />
  <text
     width="153"
     height="20"
     x="695"
     y="624"
     style="fill:black;"
     font-family="Arial"
     font-size="16px"
     id="text158">request_parameters</text>
  <rect
     width="153"
     height="20"
     x="690"
     y="630"
     style="fill:none;stroke:black;"
     id="rect160" />
  <text
     width="153"
     height="20"
     x="695"
     y="644"
     style="fill:black;"
     font-family="Arial"
     font-size="16px"
     id="text162">response_type</text>
  <rect
     width="153"
     height="20"
     x="690"
     y="650"
     style="fill:none;stroke:black;"
     id="rect164" />
  <text
     width="153"
     height="20"
     x="695"
     y="664"
     style="fill:black;"
     font-family="Arial"
     font-size="16px"
     id="text166">is_location_api</text>
  <rect
     width="153"
     height="20"
     x="690"
     y="670"
     style="fill:none;stroke:black;"
     id="rect168" />
  <text
     width="153"
     height="20"
     x="695"
     y="684"
     style="fill:black;"
     font-family="Arial"
     font-size="16px"
     id="text170">documentation_url</text>
  <rect
     width="153"
     height="20"
     x="690"
     y="690"
     style="fill:none;stroke:black;"
     id="rect172" />
  <text
     width="153"
     height="20"
     x="695"
     y="704"
     style="fill:black;"
     font-family="Arial"
     font-size="16px"
     id="text174">default_json_settings</text>
  <rect
     width="153"
     height="20"
     x="690"
     y="710"
     style="fill:none;stroke:black;"
     id="rect176" />
  <text
     width="153"
     height="20"
     x="695"
     y="724"
     style="fill:black;"
     font-family="Arial"
     font-size="16px"
     id="text178">json_route</text>
  <rect
     width="153"
     height="20"
     x="690"
     y="730"
     style="fill:none;stroke:black;"
     id="rect180" />
  <text
     width="153"
     height="20"
     x="695"
     y="744"
     style="fill:black;"
     font-family="Arial"
     font-size="16px"
     id="text182">edit_route</text>
  <rect
     width="129"
     height="20"
     x="460"
     y="570"
     style="fill:#007;stroke:black;"
     id="rect184" />
  <text
     width="129"
     height="20"
     x="465"
     y="584"
     style="fill:#fff;"
     font-family="Arial"
     font-size="16px"
     id="text186"> app_api_category</text>
  <rect
     width="129"
     height="20"
     x="460"
     y="590"
     style="fill:#aea;stroke:black;"
     id="rect188" />
  <text
     width="129"
     height="20"
     x="465"
     y="604"
     style="fill:black;"
     font-family="Arial"
     font-size="16px"
     id="text190">id</text>
  <rect
     width="129"
     height="20"
     x="460"
     y="610"
     style="fill:none;stroke:black;"
     id="rect192" />
  <text
     width="129"
     height="20"
     x="465"
     y="624"
     style="fill:black;"
     font-family="Arial"
     font-size="16px"
     id="text194">parent_id</text>
  <rect
     width="129"
     height="20"
     x="460"
     y="630"
     style="fill:none;stroke:black;"
     id="rect196" />
  <text
     width="129"
     height="20"
     x="465"
     y="644"
     style="fill:black;"
     font-family="Arial"
     font-size="16px"
     id="text198">name</text>
  <rect
     width="129"
     height="20"
     x="460"
     y="650"
     style="fill:none;stroke:black;"
     id="rect200" />
  <text
     width="129"
     height="20"
     x="465"
     y="664"
     style="fill:black;"
     font-family="Arial"
     font-size="16px"
     id="text202">hidden</text>
  <rect
     width="99"
     height="20"
     x="980"
     y="250"
     style="fill:#007;stroke:black;"
     id="rect204" />
  <text
     width="99"
     height="20"
     x="985"
     y="264"
     style="fill:#fff;"
     font-family="Arial"
     font-size="16px"
     id="text206"> app_int_api</text>
  <rect
     width="99"
     height="20"
     x="980"
     y="270"
     style="fill:none;stroke:black;"
     id="rect208" />
  <text
     width="99"
     height="20"
     x="985"
     y="284"
     style="fill:black;"
     font-family="Arial"
     font-size="16px"
     id="text210">uuid</text>
  <rect
     width="99"
     height="20"
     x="980"
     y="290"
     style="fill:none;stroke:black;"
     id="rect212" />
  <text
     width="99"
     height="20"
     x="985"
     y="304"
     style="fill:black;"
     font-family="Arial"
     font-size="16px"
     id="text214">user_api_id</text>
  <rect
     width="99"
     height="20"
     x="980"
     y="310"
     style="fill:none;stroke:black;"
     id="rect216" />
  <text
     width="99"
     height="20"
     x="985"
     y="324"
     style="fill:black;"
     font-family="Arial"
     font-size="16px"
     id="text218">name</text>
  <rect
     width="99"
     height="20"
     x="980"
     y="330"
     style="fill:none;stroke:black;"
     id="rect220" />
  <text
     width="99"
     height="20"
     x="985"
     y="344"
     style="fill:black;"
     font-family="Arial"
     font-size="16px"
     id="text222">cal_id</text>
  <rect
     width="99"
     height="20"
     x="980"
     y="350"
     style="fill:none;stroke:black;"
     id="rect224" />
  <text
     width="99"
     height="20"
     x="985"
     y="364"
     style="fill:black;"
     font-family="Arial"
     font-size="16px"
     id="text226">timezone</text>
  <rect
     width="99"
     height="20"
     x="980"
     y="370"
     style="fill:none;stroke:black;"
     id="rect228" />
  <text
     width="99"
     height="20"
     x="985"
     y="384"
     style="fill:black;"
     font-family="Arial"
     font-size="16px"
     id="text230">latitude</text>
  <rect
     width="99"
     height="20"
     x="980"
     y="390"
     style="fill:none;stroke:black;"
     id="rect232" />
  <text
     width="99"
     height="20"
     x="985"
     y="404"
     style="fill:black;"
     font-family="Arial"
     font-size="16px"
     id="text234">longitude</text>
  <rect
     width="99"
     height="20"
     x="980"
     y="410"
     style="fill:none;stroke:black;"
     id="rect236" />
  <text
     width="99"
     height="20"
     x="985"
     y="424"
     style="fill:black;"
     font-family="Arial"
     font-size="16px"
     id="text238">language</text>
  <rect
     width="99"
     height="20"
     x="980"
     y="430"
     style="fill:none;stroke:black;"
     id="rect240" />
  <text
     width="99"
     height="20"
     x="985"
     y="444"
     style="fill:black;"
     font-family="Arial"
     font-size="16px"
     id="text242">json_settings</text>
  <rect
     width="99"
     height="20"
     x="980"
     y="450"
     style="fill:none;stroke:black;"
     id="rect244" />
  <text
     width="99"
     height="20"
     x="985"
     y="464"
     style="fill:black;"
     font-family="Arial"
     font-size="16px"
     id="text246">created</text>
  <rect
     width="181"
     height="20"
     x="410"
     y="100"
     style="fill:#007;stroke:black;"
     id="rect248" />
  <text
     width="181"
     height="20"
     x="415"
     y="114"
     style="fill:#fff;"
     font-family="Arial"
     font-size="16px"
     id="text250"> app_user</text>
  <rect
     width="181"
     height="20"
     x="410"
     y="120"
     style="fill:#aea;stroke:black;"
     id="rect252" />
  <text
     width="181"
     height="20"
     x="415"
     y="134"
     style="fill:black;"
     font-family="Arial"
     font-size="16px"
     id="text254">id</text>
  <rect
     width="181"
     height="20"
     x="410"
     y="140"
     style="fill:none;stroke:black;"
     id="rect256" />
  <text
     width="181"
     height="20"
     x="415"
     y="154"
     style="fill:black;"
     font-family="Arial"
     font-size="16px"
     id="text258">email</text>
  <rect
     width="181"
     height="20"
     x="410"
     y="160"
     style="fill:none;stroke:black;"
     id="rect260" />
  <text
     width="181"
     height="20"
     x="415"
     y="174"
     style="fill:black;"
     font-family="Arial"
     font-size="16px"
     id="text262">firstname</text>
  <rect
     width="181"
     height="20"
     x="410"
     y="180"
     style="fill:none;stroke:black;"
     id="rect264" />
  <text
     width="181"
     height="20"
     x="415"
     y="194"
     style="fill:black;"
     font-family="Arial"
     font-size="16px"
     id="text266">name</text>
  <rect
     width="181"
     height="20"
     x="410"
     y="200"
     style="fill:none;stroke:black;"
     id="rect268" />
  <text
     width="181"
     height="20"
     x="415"
     y="214"
     style="fill:black;"
     font-family="Arial"
     font-size="16px"
     id="text270">password</text>
  <rect
     width="181"
     height="20"
     x="410"
     y="220"
     style="fill:none;stroke:black;"
     id="rect272" />
  <text
     width="181"
     height="20"
     x="415"
     y="234"
     style="fill:black;"
     font-family="Arial"
     font-size="16px"
     id="text274">password_request_token</text>
  <rect
     width="181"
     height="20"
     x="410"
     y="240"
     style="fill:none;stroke:black;"
     id="rect276" />
  <text
     width="181"
     height="20"
     x="415"
     y="254"
     style="fill:black;"
     font-family="Arial"
     font-size="16px"
     id="text278">language</text>
  <rect
     width="181"
     height="20"
     x="410"
     y="260"
     style="fill:none;stroke:black;"
     id="rect280" />
  <text
     width="181"
     height="20"
     x="415"
     y="274"
     style="fill:black;"
     font-family="Arial"
     font-size="16px"
     id="text282">created</text>
  <rect
     width="181"
     height="20"
     x="410"
     y="280"
     style="fill:none;stroke:black;"
     id="rect284" />
  <text
     width="181"
     height="20"
     x="415"
     y="294"
     style="fill:black;"
     font-family="Arial"
     font-size="16px"
     id="text286">updated</text>
  <rect
     width="181"
     height="20"
     x="410"
     y="300"
     style="fill:none;stroke:black;"
     id="rect288" />
  <text
     width="181"
     height="20"
     x="415"
     y="314"
     style="fill:black;"
     font-family="Arial"
     font-size="16px"
     id="text290">last_login</text>
  <rect
     width="181"
     height="20"
     x="410"
     y="320"
     style="fill:none;stroke:black;"
     id="rect292" />
  <text
     width="181"
     height="20"
     x="415"
     y="334"
     style="fill:black;"
     font-family="Arial"
     font-size="16px"
     id="text294">agreement_accepted</text>
  <rect
     width="181"
     height="20"
     x="410"
     y="340"
     style="fill:none;stroke:black;"
     id="rect296" />
  <text
     width="181"
     height="20"
     x="415"
     y="354"
     style="fill:black;"
     font-family="Arial"
     font-size="16px"
     id="text298">max_screens</text>
  <rect
     width="181"
     height="20"
     x="410"
     y="360"
     style="fill:none;stroke:black;"
     id="rect300" />
  <text
     width="181"
     height="20"
     x="415"
     y="374"
     style="fill:black;"
     font-family="Arial"
     font-size="16px"
     id="text302">roles</text>
  <rect
     width="181"
     height="20"
     x="410"
     y="380"
     style="fill:none;stroke:black;"
     id="rect304" />
  <text
     width="181"
     height="20"
     x="415"
     y="394"
     style="fill:black;"
     font-family="Arial"
     font-size="16px"
     id="text306">timezone</text>
  <rect
     width="181"
     height="20"
     x="410"
     y="400"
     style="fill:none;stroke:black;"
     id="rect308" />
  <text
     width="181"
     height="20"
     x="415"
     y="414"
     style="fill:black;"
     font-family="Arial"
     font-size="16px"
     id="text310">date_format</text>
  <rect
     width="181"
     height="20"
     x="410"
     y="420"
     style="fill:none;stroke:black;"
     id="rect312" />
  <text
     width="181"
     height="20"
     x="415"
     y="434"
     style="fill:black;"
     font-family="Arial"
     font-size="16px"
     id="text314">hour_format</text>
  <rect
     width="181"
     height="20"
     x="410"
     y="440"
     style="fill:none;stroke:black;"
     id="rect316" />
  <text
     width="181"
     height="20"
     x="415"
     y="454"
     style="fill:black;"
     font-family="Arial"
     font-size="16px"
     id="text318">do_not_disturb</text>
  <rect
     width="104"
     height="20"
     x="730"
     y="190"
     style="fill:#007;stroke:black;"
     id="rect320" />
  <text
     width="104"
     height="20"
     x="735"
     y="204"
     style="fill:#fff;"
     font-family="Arial"
     font-size="16px"
     id="text322"> app_user_api</text>
  <rect
     width="104"
     height="20"
     x="730"
     y="210"
     style="fill:none;stroke:black;"
     id="rect324" />
  <text
     width="104"
     height="20"
     x="735"
     y="224"
     style="fill:black;"
     font-family="Arial"
     font-size="16px"
     id="text326">uuid</text>
  <rect
     width="104"
     height="20"
     x="730"
     y="230"
     style="fill:none;stroke:black;"
     id="rect328" />
  <text
     width="104"
     height="20"
     x="735"
     y="244"
     style="fill:black;"
     font-family="Arial"
     font-size="16px"
     id="text330">user_id</text>
  <rect
     width="104"
     height="20"
     x="730"
     y="250"
     style="fill:none;stroke:black;"
     id="rect332" />
  <text
     width="104"
     height="20"
     x="735"
     y="264"
     style="fill:black;"
     font-family="Arial"
     font-size="16px"
     id="text334">api_id</text>
  <rect
     width="104"
     height="20"
     x="730"
     y="270"
     style="fill:none;stroke:black;"
     id="rect336" />
  <text
     width="104"
     height="20"
     x="735"
     y="284"
     style="fill:black;"
     font-family="Arial"
     font-size="16px"
     id="text338">access_token</text>
  <rect
     width="104"
     height="20"
     x="730"
     y="290"
     style="fill:none;stroke:black;"
     id="rect340" />
  <text
     width="104"
     height="20"
     x="735"
     y="304"
     style="fill:black;"
     font-family="Arial"
     font-size="16px"
     id="text342">json_token</text>
  <rect
     width="104"
     height="20"
     x="730"
     y="310"
     style="fill:none;stroke:black;"
     id="rect344" />
  <text
     width="104"
     height="20"
     x="735"
     y="324"
     style="fill:black;"
     font-family="Arial"
     font-size="16px"
     id="text346">is_configured</text>
  <rect
     width="104"
     height="20"
     x="730"
     y="330"
     style="fill:none;stroke:black;"
     id="rect348" />
  <text
     width="104"
     height="20"
     x="735"
     y="344"
     style="fill:black;"
     font-family="Arial"
     font-size="16px"
     id="text350">created</text>
  <rect
     width="104"
     height="20"
     x="730"
     y="350"
     style="fill:none;stroke:black;"
     id="rect352" />
  <text
     width="104"
     height="20"
     x="735"
     y="364"
     style="fill:black;"
     font-family="Arial"
     font-size="16px"
     id="text354">updated</text>
  <rect
     width="104"
     height="20"
     x="730"
     y="370"
     style="fill:none;stroke:black;"
     id="rect356" />
  <text
     width="104"
     height="20"
     x="735"
     y="384"
     style="fill:black;"
     font-family="Arial"
     font-size="16px"
     id="text358">scope</text>
  <rect
     width="104"
     height="20"
     x="730"
     y="390"
     style="fill:none;stroke:black;"
     id="rect360" />
  <text
     width="104"
     height="20"
     x="735"
     y="404"
     style="fill:black;"
     font-family="Arial"
     font-size="16px"
     id="text362">resource_url</text>
  <rect
     width="104"
     height="20"
     x="730"
     y="410"
     style="fill:none;stroke:black;"
     id="rect364" />
  <text
     width="104"
     height="20"
     x="735"
     y="424"
     style="fill:black;"
     font-family="Arial"
     font-size="16px"
     id="text366">username</text>
  <rect
     width="104"
     height="20"
     x="730"
     y="430"
     style="fill:none;stroke:black;"
     id="rect368" />
  <text
     width="104"
     height="20"
     x="735"
     y="444"
     style="fill:black;"
     font-family="Arial"
     font-size="16px"
     id="text370">password</text>
  <rect
     width="113"
     height="20"
     x="1470"
     y="170"
     style="fill:#007;stroke:black;"
     id="rect372" />
  <text
     width="113"
     height="20"
     x="1475"
     y="184"
     style="fill:#fff;"
     font-family="Arial"
     font-size="16px"
     id="text374"> display</text>
  <rect
     width="113"
     height="20"
     x="1470"
     y="190"
     style="fill:#aea;stroke:black;"
     id="rect376" />
  <text
     width="113"
     height="20"
     x="1475"
     y="204"
     style="fill:black;"
     font-family="Arial"
     font-size="16px"
     id="text378">id</text>
  <rect
     width="113"
     height="20"
     x="1470"
     y="210"
     style="fill:none;stroke:black;"
     id="rect380" />
  <text
     width="113"
     height="20"
     x="1475"
     y="224"
     style="fill:black;"
     font-family="Arial"
     font-size="16px"
     id="text382">class_name</text>
  <rect
     width="113"
     height="20"
     x="1470"
     y="230"
     style="fill:none;stroke:black;"
     id="rect384" />
  <text
     width="113"
     height="20"
     x="1475"
     y="244"
     style="fill:black;"
     font-family="Arial"
     font-size="16px"
     id="text386">name</text>
  <rect
     width="113"
     height="20"
     x="1470"
     y="250"
     style="fill:none;stroke:black;"
     id="rect388" />
  <text
     width="113"
     height="20"
     x="1475"
     y="264"
     style="fill:black;"
     font-family="Arial"
     font-size="16px"
     id="text390">brand</text>
  <rect
     width="113"
     height="20"
     x="1470"
     y="270"
     style="fill:none;stroke:black;"
     id="rect392" />
  <text
     width="113"
     height="20"
     x="1475"
     y="284"
     style="fill:black;"
     font-family="Arial"
     font-size="16px"
     id="text394">width</text>
  <rect
     width="113"
     height="20"
     x="1470"
     y="290"
     style="fill:none;stroke:black;"
     id="rect396" />
  <text
     width="113"
     height="20"
     x="1475"
     y="304"
     style="fill:black;"
     font-family="Arial"
     font-size="16px"
     id="text398">height</text>
  <rect
     width="113"
     height="20"
     x="1470"
     y="310"
     style="fill:none;stroke:black;"
     id="rect400" />
  <text
     width="113"
     height="20"
     x="1475"
     y="324"
     style="fill:black;"
     font-family="Arial"
     font-size="16px"
     id="text402">gray_levels</text>
  <rect
     width="113"
     height="20"
     x="1470"
     y="330"
     style="fill:none;stroke:black;"
     id="rect404" />
  <text
     width="113"
     height="20"
     x="1475"
     y="344"
     style="fill:black;"
     font-family="Arial"
     font-size="16px"
     id="text406">active_size</text>
  <rect
     width="113"
     height="20"
     x="1470"
     y="350"
     style="fill:none;stroke:black;"
     id="rect408" />
  <text
     width="113"
     height="20"
     x="1475"
     y="364"
     style="fill:black;"
     font-family="Arial"
     font-size="16px"
     id="text410">time_of_refresh</text>
  <rect
     width="113"
     height="20"
     x="1470"
     y="370"
     style="fill:none;stroke:black;"
     id="rect412" />
  <text
     width="113"
     height="20"
     x="1475"
     y="384"
     style="fill:black;"
     font-family="Arial"
     font-size="16px"
     id="text414">manual_url</text>
  <rect
     width="113"
     height="20"
     x="1470"
     y="390"
     style="fill:none;stroke:black;"
     id="rect416" />
  <text
     width="113"
     height="20"
     x="1475"
     y="404"
     style="fill:black;"
     font-family="Arial"
     font-size="16px"
     id="text418">purchase_url</text>
  <rect
     width="144"
     height="20"
     x="1240"
     y="170"
     style="fill:#007;stroke:black;"
     id="rect420" />
  <text
     width="144"
     height="20"
     x="1245"
     y="184"
     style="fill:#fff;"
     font-family="Arial"
     font-size="16px"
     id="text422"> screen</text>
  <rect
     width="144"
     height="20"
     x="1240"
     y="190"
     style="fill:none;stroke:black;"
     id="rect424" />
  <text
     width="144"
     height="20"
     x="1245"
     y="204"
     style="fill:black;"
     font-family="Arial"
     font-size="16px"
     id="text426">uuid</text>
  <rect
     width="144"
     height="20"
     x="1240"
     y="210"
     style="fill:none;stroke:black;"
     id="rect428" />
  <text
     width="144"
     height="20"
     x="1245"
     y="224"
     style="fill:black;"
     font-family="Arial"
     font-size="16px"
     id="text430">user_id</text>
  <rect
     width="144"
     height="20"
     x="1240"
     y="230"
     style="fill:none;stroke:black;"
     id="rect432" />
  <text
     width="144"
     height="20"
     x="1245"
     y="244"
     style="fill:black;"
     font-family="Arial"
     font-size="16px"
     id="text434">display_id</text>
  <rect
     width="144"
     height="20"
     x="1240"
     y="250"
     style="fill:none;stroke:black;"
     id="rect436" />
  <text
     width="144"
     height="20"
     x="1245"
     y="264"
     style="fill:black;"
     font-family="Arial"
     font-size="16px"
     id="text438">name</text>
  <rect
     width="144"
     height="20"
     x="1240"
     y="270"
     style="fill:none;stroke:black;"
     id="rect440" />
  <text
     width="144"
     height="20"
     x="1245"
     y="284"
     style="fill:black;"
     font-family="Arial"
     font-size="16px"
     id="text442">template_twig</text>
  <rect
     width="144"
     height="20"
     x="1240"
     y="290"
     style="fill:none;stroke:black;"
     id="rect444" />
  <text
     width="144"
     height="20"
     x="1245"
     y="304"
     style="fill:black;"
     font-family="Arial"
     font-size="16px"
     id="text446">created</text>
  <rect
     width="144"
     height="20"
     x="1240"
     y="310"
     style="fill:none;stroke:black;"
     id="rect448" />
  <text
     width="144"
     height="20"
     x="1245"
     y="324"
     style="fill:black;"
     font-family="Arial"
     font-size="16px"
     id="text450">hits</text>
  <rect
     width="144"
     height="20"
     x="1240"
     y="330"
     style="fill:none;stroke:black;"
     id="rect452" />
  <text
     width="144"
     height="20"
     x="1245"
     y="344"
     style="fill:black;"
     font-family="Arial"
     font-size="16px"
     id="text454">out_bearer</text>
  <rect
     width="144"
     height="20"
     x="1240"
     y="350"
     style="fill:none;stroke:black;"
     id="rect456" />
  <text
     width="144"
     height="20"
     x="1245"
     y="364"
     style="fill:black;"
     font-family="Arial"
     font-size="16px"
     id="text458">zoom</text>
  <rect
     width="144"
     height="20"
     x="1240"
     y="370"
     style="fill:none;stroke:black;"
     id="rect460" />
  <text
     width="144"
     height="20"
     x="1245"
     y="384"
     style="fill:black;"
     font-family="Arial"
     font-size="16px"
     id="text462">out_brightness</text>
  <rect
     width="144"
     height="20"
     x="1240"
     y="390"
     style="fill:none;stroke:black;"
     id="rect464" />
  <text
     width="144"
     height="20"
     x="1245"
     y="404"
     style="fill:black;"
     font-family="Arial"
     font-size="16px"
     id="text466">out_bit_depth</text>
  <rect
     width="144"
     height="20"
     x="1240"
     y="410"
     style="fill:none;stroke:black;"
     id="rect468" />
  <text
     width="144"
     height="20"
     x="1245"
     y="424"
     style="fill:black;"
     font-family="Arial"
     font-size="16px"
     id="text470">out_cache_seconds</text>
  <rect
     width="144"
     height="20"
     x="1240"
     y="430"
     style="fill:none;stroke:black;"
     id="rect472" />
  <text
     width="144"
     height="20"
     x="1245"
     y="444"
     style="fill:black;"
     font-family="Arial"
     font-size="16px"
     id="text474">out_compressed</text>
  <rect
     width="144"
     height="20"
     x="1240"
     y="450"
     style="fill:none;stroke:black;"
     id="rect476" />
  <text
     width="144"
     height="20"
     x="1245"
     y="464"
     style="fill:black;"
     font-family="Arial"
     font-size="16px"
     id="text478">public</text>
  <rect
     width="144"
     height="20"
     x="1240"
     y="470"
     style="fill:none;stroke:black;"
     id="rect480" />
  <text
     width="144"
     height="20"
     x="1245"
     y="484"
     style="fill:black;"
     font-family="Arial"
     font-size="16px"
     id="text482">out_ssl</text>
  <rect
     width="93"
     height="20"
     x="980"
     y="20"
     style="fill:#007;stroke:black;"
     id="rect484" />
  <text
     width="93"
     height="20"
     x="985"
     y="34"
     style="fill:#fff;"
     font-family="Arial"
     font-size="16px"
     id="text486"> sys_log</text>
  <rect
     width="93"
     height="20"
     x="980"
     y="40"
     style="fill:#aea;stroke:black;"
     id="rect488" />
  <text
     width="93"
     height="20"
     x="985"
     y="54"
     style="fill:black;"
     font-family="Arial"
     font-size="16px"
     id="text490">id</text>
  <rect
     width="93"
     height="20"
     x="980"
     y="60"
     style="fill:none;stroke:black;"
     id="rect492" />
  <text
     width="93"
     height="20"
     x="985"
     y="74"
     style="fill:black;"
     font-family="Arial"
     font-size="16px"
     id="text494">user</text>
  <rect
     width="93"
     height="20"
     x="980"
     y="80"
     style="fill:none;stroke:black;"
     id="rect496" />
  <text
     width="93"
     height="20"
     x="985"
     y="94"
     style="fill:black;"
     font-family="Arial"
     font-size="16px"
     id="text498">type</text>
  <rect
     width="93"
     height="20"
     x="980"
     y="100"
     style="fill:none;stroke:black;"
     id="rect500" />
  <text
     width="93"
     height="20"
     x="985"
     y="114"
     style="fill:black;"
     font-family="Arial"
     font-size="16px"
     id="text502">entity_name</text>
  <rect
     width="93"
     height="20"
     x="980"
     y="120"
     style="fill:none;stroke:black;"
     id="rect504" />
  <text
     width="93"
     height="20"
     x="985"
     y="134"
     style="fill:black;"
     font-family="Arial"
     font-size="16px"
     id="text506">entity_id</text>
  <rect
     width="93"
     height="20"
     x="980"
     y="140"
     style="fill:none;stroke:black;"
     id="rect508" />
  <text
     width="93"
     height="20"
     x="985"
     y="154"
     style="fill:black;"
     font-family="Arial"
     font-size="16px"
     id="text510">message</text>
  <rect
     width="93"
     height="20"
     x="980"
     y="160"
     style="fill:none;stroke:black;"
     id="rect512" />
  <text
     width="93"
     height="20"
     x="985"
     y="174"
     style="fill:black;"
     font-family="Arial"
     font-size="16px"
     id="text514">created</text>
  <rect
     width="134"
     height="20"
     x="1240"
     y="510"
     style="fill:#007;stroke:black;"
     id="rect516" />
  <text
     width="134"
     height="20"
     x="1245"
     y="524"
     style="fill:#fff;"
     font-family="Arial"
     font-size="16px"
     id="text518"> template_partial</text>
  <rect
     width="134"
     height="20"
     x="1240"
     y="530"
     style="fill:#aea;stroke:black;"
     id="rect520" />
  <text
     width="134"
     height="20"
     x="1245"
     y="544"
     style="fill:black;"
     font-family="Arial"
     font-size="16px"
     id="text522">id</text>
  <rect
     width="134"
     height="20"
     x="1240"
     y="550"
     style="fill:none;stroke:black;"
     id="rect524" />
  <text
     width="134"
     height="20"
     x="1245"
     y="564"
     style="fill:black;"
     font-family="Arial"
     font-size="16px"
     id="text526">template_intapi_id</text>
  <rect
     width="134"
     height="20"
     x="1240"
     y="570"
     style="fill:none;stroke:black;"
     id="rect528" />
  <text
     width="134"
     height="20"
     x="1245"
     y="584"
     style="fill:black;"
     font-family="Arial"
     font-size="16px"
     id="text530">screen_id</text>
  <rect
     width="134"
     height="20"
     x="1240"
     y="590"
     style="fill:none;stroke:black;"
     id="rect532" />
  <text
     width="134"
     height="20"
     x="1245"
     y="604"
     style="fill:black;"
     font-family="Arial"
     font-size="16px"
     id="text534">placeholder</text>
  <rect
     width="134"
     height="20"
     x="1240"
     y="610"
     style="fill:none;stroke:black;"
     id="rect536" />
  <text
     width="134"
     height="20"
     x="1245"
     y="624"
     style="fill:black;"
     font-family="Arial"
     font-size="16px"
     id="text538">inverted_color</text>
  <rect
     width="134"
     height="20"
     x="1240"
     y="630"
     style="fill:none;stroke:black;"
     id="rect540" />
  <text
     width="134"
     height="20"
     x="1245"
     y="644"
     style="fill:black;"
     font-family="Arial"
     font-size="16px"
     id="text542">max_results</text>
  <rect
     width="134"
     height="20"
     x="1240"
     y="650"
     style="fill:none;stroke:black;"
     id="rect544" />
  <text
     width="134"
     height="20"
     x="1245"
     y="664"
     style="fill:black;"
     font-family="Arial"
     font-size="16px"
     id="text546">sort_pos</text>
  <rect
     width="134"
     height="20"
     x="1240"
     y="670"
     style="fill:none;stroke:black;"
     id="rect548" />
  <text
     width="134"
     height="20"
     x="1245"
     y="684"
     style="fill:black;"
     font-family="Arial"
     font-size="16px"
     id="text550">foreground_color</text>
  <rect
     width="134"
     height="20"
     x="1240"
     y="690"
     style="fill:none;stroke:black;"
     id="rect552" />
  <text
     width="134"
     height="20"
     x="1245"
     y="704"
     style="fill:black;"
     font-family="Arial"
     font-size="16px"
     id="text554">background_color</text>
  <rect
     width="133"
     height="20"
     x="160"
     y="40"
     style="fill:#007;stroke:black;"
     id="rect556" />
  <text
     width="133"
     height="20"
     x="165"
     y="54"
     style="fill:#fff;"
     font-family="Arial"
     font-size="16px"
     id="text558"> z_cache</text>
  <rect
     width="133"
     height="20"
     x="160"
     y="60"
     style="fill:#aea;stroke:black;"
     id="rect560" />
  <text
     width="133"
     height="20"
     x="165"
     y="74"
     style="fill:black;"
     font-family="Arial"
     font-size="16px"
     id="text562">id</text>
  <rect
     width="133"
     height="20"
     x="160"
     y="80"
     style="fill:none;stroke:black;"
     id="rect564" />
  <text
     width="133"
     height="20"
     x="165"
     y="94"
     style="fill:black;"
     font-family="Arial"
     font-size="16px"
     id="text566">int_api_id</text>
  <rect
     width="133"
     height="20"
     x="160"
     y="100"
     style="fill:none;stroke:black;"
     id="rect568" />
  <text
     width="133"
     height="20"
     x="165"
     y="114"
     style="fill:black;"
     font-family="Arial"
     font-size="16px"
     id="text570">url</text>
  <rect
     width="133"
     height="20"
     x="160"
     y="120"
     style="fill:none;stroke:black;"
     id="rect572" />
  <text
     width="133"
     height="20"
     x="165"
     y="134"
     style="fill:black;"
     font-family="Arial"
     font-size="16px"
     id="text574">created</text>
  <rect
     width="133"
     height="20"
     x="160"
     y="140"
     style="fill:none;stroke:black;"
     id="rect576" />
  <text
     width="133"
     height="20"
     x="165"
     y="154"
     style="fill:black;"
     font-family="Arial"
     font-size="16px"
     id="text578">response_content</text>
  <rect
     width="133"
     height="20"
     x="160"
     y="160"
     style="fill:none;stroke:black;"
     id="rect580" />
  <text
     width="133"
     height="20"
     x="165"
     y="174"
     style="fill:black;"
     font-family="Arial"
     font-size="16px"
     id="text582">response_status</text>
  <rect
     width="133"
     height="20"
     x="160"
     y="180"
     style="fill:none;stroke:black;"
     id="rect584" />
  <text
     width="133"
     height="20"
     x="165"
     y="194"
     style="fill:black;"
     font-family="Arial"
     font-size="16px"
     id="text586">hits</text>
  <rect
     width="149"
     height="20"
     x="144.77975"
     y="277.73132"
     style="fill:#000077;stroke:#000000"
     id="rect588" />
  <text
     width="149"
     height="20"
     x="149.77975"
     y="291.73132"
     style="font-size:16px;font-family:Arial;fill:#ffffff"
     font-size="16px"
     id="text590">z_migration_versions</text>
  <rect
     width="149"
     height="20"
     x="144.77975"
     y="297.73132"
     style="fill:none;stroke:#000000"
     id="rect592" />
  <text
     width="149"
     height="20"
     x="149.77975"
     y="311.73132"
     style="font-size:16px;font-family:Arial;fill:#000000"
     font-size="16px"
     id="text594">version</text>
  <rect
     width="149"
     height="20"
     x="144.77975"
     y="317.73132"
     style="fill:none;stroke:#000000"
     id="rect596" />
  <text
     width="149"
     height="20"
     x="149.77975"
     y="331.73132"
     style="font-size:16px;font-family:Arial;fill:#000000"
     font-size="16px"
     id="text598">executed_at</text>
</svg>
