<?xml version="1.0" encoding="UTF-8" standalone="no"?>
<!-- Created with Inkscape (http://www.inkscape.org/) -->

<svg
   xmlns:dc="http://purl.org/dc/elements/1.1/"
   xmlns:cc="http://creativecommons.org/ns#"
   xmlns:rdf="http://www.w3.org/1999/02/22-rdf-syntax-ns#"
   xmlns:svg="http://www.w3.org/2000/svg"
   xmlns="http://www.w3.org/2000/svg"
   xmlns:sodipodi="http://sodipodi.sourceforge.net/DTD/sodipodi-0.dtd"
   xmlns:inkscape="http://www.inkscape.org/namespaces/inkscape"
   width="105mm"
   height="74mm"
   viewBox="0 0 105 74"
   version="1.1"
   id="svg12118"
   inkscape:version="0.92.5 (2060ec1f9f, 2020-04-08)"
   sodipodi:docname="10.svg">
  <defs
     id="defs12112">
    <path
       d="M696.53,160.738c0-23.307-14.913-43.087-35.719-50.454V53.579C660.811,23.977,636.834,0,607.231,0H89.299      C59.696,0,35.719,23.977,35.719,53.579l0.134,56.615C15.002,117.517,0,137.341,0,160.738c0,2.5,0.179,4.956,0.491,7.322      l35.228,224.854l0,0L17.994,621.385c-0.089,1.25-0.134,2.456-0.134,3.706c0,29.603,23.977,53.579,53.579,53.579h553.652      c29.603,0,53.579-23.977,53.579-53.579c0-1.25-0.045-2.456-0.134-3.706l-17.726-228.471l35.228-224.854      C696.352,165.694,696.53,163.238,696.53,160.738z"
       id="SVGID_1_" />
    <path
       d="M696.53,160.738c0-23.307-14.913-43.087-35.719-50.454V53.579C660.811,23.977,636.834,0,607.231,0H89.299      C59.696,0,35.719,23.977,35.719,53.579l0.134,56.615C15.002,117.517,0,137.341,0,160.738c0,2.5,0.179,4.956,0.491,7.322      l35.228,224.854l0,0L17.994,621.385c-0.089,1.25-0.134,2.456-0.134,3.706c0,29.603,23.977,53.579,53.579,53.579h553.652      c29.603,0,53.579-23.977,53.579-53.579c0-1.25-0.045-2.456-0.134-3.706l-17.726-228.471l35.228-224.854      C696.352,165.694,696.53,163.238,696.53,160.738z"
       id="SVGID_3_" />
    <path
       d="M696.53,160.738c0-23.307-14.913-43.087-35.719-50.454V53.579C660.811,23.977,636.834,0,607.231,0H89.299      C59.696,0,35.719,23.977,35.719,53.579l0.134,56.615C15.002,117.517,0,137.341,0,160.738c0,2.5,0.179,4.956,0.491,7.322      l35.228,224.854l0,0L17.994,621.385c-0.089,1.25-0.134,2.456-0.134,3.706c0,29.603,23.977,53.579,53.579,53.579h553.652      c29.603,0,53.579-23.977,53.579-53.579c0-1.25-0.045-2.456-0.134-3.706l-17.726-228.471l35.228-224.854      C696.352,165.694,696.53,163.238,696.53,160.738z"
       id="SVGID_5_" />
    <path
       d="M696.53,160.738c0-23.307-14.913-43.087-35.719-50.454V53.579C660.811,23.977,636.834,0,607.231,0H89.299      C59.696,0,35.719,23.977,35.719,53.579l0.134,56.615C15.002,117.517,0,137.341,0,160.738c0,2.5,0.179,4.956,0.491,7.322      l35.228,224.854l0,0L17.994,621.385c-0.089,1.25-0.134,2.456-0.134,3.706c0,29.603,23.977,53.579,53.579,53.579h553.652      c29.603,0,53.579-23.977,53.579-53.579c0-1.25-0.045-2.456-0.134-3.706l-17.726-228.471l35.228-224.854      C696.352,165.694,696.53,163.238,696.53,160.738z"
       id="SVGID_7_" />
    <path
       d="M696.53,160.738c0-23.307-14.913-43.087-35.719-50.454V53.579C660.811,23.977,636.834,0,607.231,0      H89.299C59.696,0,35.719,23.977,35.719,53.579l0.134,56.615C15.002,117.517,0,137.341,0,160.738c0,2.5,0.179,4.956,0.491,7.322      l35.228,224.854l0,0L17.994,621.385c-0.089,1.25-0.134,2.456-0.134,3.706c0,29.603,23.977,53.579,53.579,53.579h553.652      c29.603,0,53.579-23.977,53.579-53.579c0-1.25-0.045-2.456-0.134-3.706l-17.726-228.471l35.228-224.854      C696.352,165.694,696.53,163.238,696.53,160.738z"
       id="SVGID_10_" />
    <path
       d="M696.53,160.738c0-23.307-14.913-43.087-35.719-50.454V53.579C660.811,23.977,636.834,0,607.231,0      H89.299C59.696,0,35.719,23.977,35.719,53.579l0.134,56.615C15.002,117.517,0,137.341,0,160.738c0,2.5,0.179,4.956,0.491,7.322      l35.228,224.854l0,0L17.994,621.385c-0.089,1.25-0.134,2.456-0.134,3.706c0,29.603,23.977,53.579,53.579,53.579h553.652      c29.603,0,53.579-23.977,53.579-53.579c0-1.25-0.045-2.456-0.134-3.706l-17.726-228.471l35.228-224.854      C696.352,165.694,696.53,163.238,696.53,160.738z"
       id="SVGID_12_" />
    <path
       d="M696.53,160.738c0-23.307-14.913-43.087-35.719-50.454V53.579C660.811,23.977,636.834,0,607.231,0      H89.299C59.696,0,35.719,23.977,35.719,53.579l0.134,56.615C15.002,117.517,0,137.341,0,160.738c0,2.5,0.179,4.956,0.491,7.322      l35.228,224.854l0,0L17.994,621.385c-0.089,1.25-0.134,2.456-0.134,3.706c0,29.603,23.977,53.579,53.579,53.579h553.652      c29.603,0,53.579-23.977,53.579-53.579c0-1.25-0.045-2.456-0.134-3.706l-17.726-228.471l35.228-224.854      C696.352,165.694,696.53,163.238,696.53,160.738z"
       id="SVGID_14_" />
    <path
       d="M696.53,160.738c0-23.307-14.913-43.087-35.719-50.454V53.579C660.811,23.977,636.834,0,607.231,0      H89.299C59.696,0,35.719,23.977,35.719,53.579l0.134,56.615C15.002,117.517,0,137.341,0,160.738c0,2.5,0.179,4.956,0.491,7.322      l35.228,224.854l0,0L17.994,621.385c-0.089,1.25-0.134,2.456-0.134,3.706c0,29.603,23.977,53.579,53.579,53.579h553.652      c29.603,0,53.579-23.977,53.579-53.579c0-1.25-0.045-2.456-0.134-3.706l-17.726-228.471l35.228-224.854      C696.352,165.694,696.53,163.238,696.53,160.738z"
       id="SVGID_16_" />
    <path
       d="M642.951,107.158H53.579C23.977,107.158,0,131.135,0,160.738c0,2.5,0.179,4.956,0.491,7.322        l35.228,224.854h625.091l35.228-224.854c0.313-2.411,0.491-4.867,0.491-7.322C696.53,131.135,672.553,107.158,642.951,107.158        z"
       id="SVGID_18_" />
    <path
       d="M696.53,160.738c0-23.307-14.913-43.087-35.719-50.454V53.579C660.811,23.977,636.834,0,607.231,0      H89.299C59.696,0,35.719,23.977,35.719,53.579l0.134,56.615C15.002,117.517,0,137.341,0,160.738c0,2.5,0.179,4.956,0.491,7.322      l35.228,224.854l0,0L17.994,621.385c-0.089,1.25-0.134,2.456-0.134,3.706c0,29.603,23.977,53.579,53.579,53.579h553.652      c29.603,0,53.579-23.977,53.579-53.579c0-1.25-0.045-2.456-0.134-3.706l-17.726-228.471l35.228-224.854      C696.352,165.694,696.53,163.238,696.53,160.738z"
       id="SVGID_20_" />
    <path
       d="M678.536,621.385l-17.726-228.471H35.719L17.994,621.385c-0.089,1.25-0.134,2.456-0.134,3.706        c0,29.603,23.977,53.579,53.579,53.579h553.652c29.603,0,53.579-23.977,53.579-53.579        C678.67,623.841,678.626,622.635,678.536,621.385z"
       id="SVGID_22_" />
    <path
       d="M696.53,160.738c0-23.307-14.913-43.087-35.719-50.454V53.579C660.811,23.977,636.834,0,607.231,0      H89.299C59.696,0,35.719,23.977,35.719,53.579l0.134,56.615C15.002,117.517,0,137.341,0,160.738c0,2.5,0.179,4.956,0.491,7.322      l35.228,224.854l0,0L17.994,621.385c-0.089,1.25-0.134,2.456-0.134,3.706c0,29.603,23.977,53.579,53.579,53.579h553.652      c29.603,0,53.579-23.977,53.579-53.579c0-1.25-0.045-2.456-0.134-3.706l-17.726-228.471l35.228-224.854      C696.352,165.694,696.53,163.238,696.53,160.738z"
       id="SVGID_24_" />
    <path
       d="M696.53,160.738c0-23.307-14.913-43.087-35.719-50.454V53.579C660.811,23.977,636.834,0,607.231,0      H89.299C59.696,0,35.719,23.977,35.719,53.579l0.134,56.615C15.002,117.517,0,137.341,0,160.738c0,2.5,0.179,4.956,0.491,7.322      l35.228,224.854l0,0L17.994,621.385c-0.089,1.25-0.134,2.456-0.134,3.706c0,29.603,23.977,53.579,53.579,53.579h553.652      c29.603,0,53.579-23.977,53.579-53.579c0-1.25-0.045-2.456-0.134-3.706l-17.726-228.471l35.228-224.854      C696.352,165.694,696.53,163.238,696.53,160.738z"
       id="SVGID_27_" />
    <path
       d="M696.53,160.738c0-23.307-14.913-43.087-35.719-50.454V53.579C660.811,23.977,636.834,0,607.231,0      H89.299C59.696,0,35.719,23.977,35.719,53.579l0.134,56.615C15.002,117.517,0,137.341,0,160.738c0,2.5,0.179,4.956,0.491,7.322      l35.228,224.854l0,0L17.994,621.385c-0.089,1.25-0.134,2.456-0.134,3.706c0,29.603,23.977,53.579,53.579,53.579h553.652      c29.603,0,53.579-23.977,53.579-53.579c0-1.25-0.045-2.456-0.134-3.706l-17.726-228.471l35.228-224.854      C696.352,165.694,696.53,163.238,696.53,160.738z"
       id="SVGID_29_" />
    <path
       id="SVGID_1_-7"
       d="M696.53,160.738c0-23.307-14.913-43.087-35.719-50.454V53.579C660.811,23.977,636.834,0,607.231,0H89.299      C59.696,0,35.719,23.977,35.719,53.579l0.134,56.615C15.002,117.517,0,137.341,0,160.738c0,2.5,0.179,4.956,0.491,7.322      l35.228,224.854l0,0L17.994,621.385c-0.089,1.25-0.134,2.456-0.134,3.706c0,29.603,23.977,53.579,53.579,53.579h553.652      c29.603,0,53.579-23.977,53.579-53.579c0-1.25-0.045-2.456-0.134-3.706l-17.726-228.471l35.228-224.854      C696.352,165.694,696.53,163.238,696.53,160.738z" />
    <path
       id="SVGID_3_-5"
       d="M696.53,160.738c0-23.307-14.913-43.087-35.719-50.454V53.579C660.811,23.977,636.834,0,607.231,0H89.299      C59.696,0,35.719,23.977,35.719,53.579l0.134,56.615C15.002,117.517,0,137.341,0,160.738c0,2.5,0.179,4.956,0.491,7.322      l35.228,224.854l0,0L17.994,621.385c-0.089,1.25-0.134,2.456-0.134,3.706c0,29.603,23.977,53.579,53.579,53.579h553.652      c29.603,0,53.579-23.977,53.579-53.579c0-1.25-0.045-2.456-0.134-3.706l-17.726-228.471l35.228-224.854      C696.352,165.694,696.53,163.238,696.53,160.738z" />
    <path
       id="SVGID_5_-3"
       d="M696.53,160.738c0-23.307-14.913-43.087-35.719-50.454V53.579C660.811,23.977,636.834,0,607.231,0H89.299      C59.696,0,35.719,23.977,35.719,53.579l0.134,56.615C15.002,117.517,0,137.341,0,160.738c0,2.5,0.179,4.956,0.491,7.322      l35.228,224.854l0,0L17.994,621.385c-0.089,1.25-0.134,2.456-0.134,3.706c0,29.603,23.977,53.579,53.579,53.579h553.652      c29.603,0,53.579-23.977,53.579-53.579c0-1.25-0.045-2.456-0.134-3.706l-17.726-228.471l35.228-224.854      C696.352,165.694,696.53,163.238,696.53,160.738z" />
    <path
       id="SVGID_7_-5"
       d="M696.53,160.738c0-23.307-14.913-43.087-35.719-50.454V53.579C660.811,23.977,636.834,0,607.231,0H89.299      C59.696,0,35.719,23.977,35.719,53.579l0.134,56.615C15.002,117.517,0,137.341,0,160.738c0,2.5,0.179,4.956,0.491,7.322      l35.228,224.854l0,0L17.994,621.385c-0.089,1.25-0.134,2.456-0.134,3.706c0,29.603,23.977,53.579,53.579,53.579h553.652      c29.603,0,53.579-23.977,53.579-53.579c0-1.25-0.045-2.456-0.134-3.706l-17.726-228.471l35.228-224.854      C696.352,165.694,696.53,163.238,696.53,160.738z" />
    <path
       id="SVGID_10_-6"
       d="M696.53,160.738c0-23.307-14.913-43.087-35.719-50.454V53.579C660.811,23.977,636.834,0,607.231,0      H89.299C59.696,0,35.719,23.977,35.719,53.579l0.134,56.615C15.002,117.517,0,137.341,0,160.738c0,2.5,0.179,4.956,0.491,7.322      l35.228,224.854l0,0L17.994,621.385c-0.089,1.25-0.134,2.456-0.134,3.706c0,29.603,23.977,53.579,53.579,53.579h553.652      c29.603,0,53.579-23.977,53.579-53.579c0-1.25-0.045-2.456-0.134-3.706l-17.726-228.471l35.228-224.854      C696.352,165.694,696.53,163.238,696.53,160.738z" />
    <path
       id="SVGID_12_-2"
       d="M696.53,160.738c0-23.307-14.913-43.087-35.719-50.454V53.579C660.811,23.977,636.834,0,607.231,0      H89.299C59.696,0,35.719,23.977,35.719,53.579l0.134,56.615C15.002,117.517,0,137.341,0,160.738c0,2.5,0.179,4.956,0.491,7.322      l35.228,224.854l0,0L17.994,621.385c-0.089,1.25-0.134,2.456-0.134,3.706c0,29.603,23.977,53.579,53.579,53.579h553.652      c29.603,0,53.579-23.977,53.579-53.579c0-1.25-0.045-2.456-0.134-3.706l-17.726-228.471l35.228-224.854      C696.352,165.694,696.53,163.238,696.53,160.738z" />
    <path
       id="SVGID_14_-9"
       d="M696.53,160.738c0-23.307-14.913-43.087-35.719-50.454V53.579C660.811,23.977,636.834,0,607.231,0      H89.299C59.696,0,35.719,23.977,35.719,53.579l0.134,56.615C15.002,117.517,0,137.341,0,160.738c0,2.5,0.179,4.956,0.491,7.322      l35.228,224.854l0,0L17.994,621.385c-0.089,1.25-0.134,2.456-0.134,3.706c0,29.603,23.977,53.579,53.579,53.579h553.652      c29.603,0,53.579-23.977,53.579-53.579c0-1.25-0.045-2.456-0.134-3.706l-17.726-228.471l35.228-224.854      C696.352,165.694,696.53,163.238,696.53,160.738z" />
    <path
       id="SVGID_16_-1"
       d="M696.53,160.738c0-23.307-14.913-43.087-35.719-50.454V53.579C660.811,23.977,636.834,0,607.231,0      H89.299C59.696,0,35.719,23.977,35.719,53.579l0.134,56.615C15.002,117.517,0,137.341,0,160.738c0,2.5,0.179,4.956,0.491,7.322      l35.228,224.854l0,0L17.994,621.385c-0.089,1.25-0.134,2.456-0.134,3.706c0,29.603,23.977,53.579,53.579,53.579h553.652      c29.603,0,53.579-23.977,53.579-53.579c0-1.25-0.045-2.456-0.134-3.706l-17.726-228.471l35.228-224.854      C696.352,165.694,696.53,163.238,696.53,160.738z" />
    <path
       id="SVGID_18_-2"
       d="M642.951,107.158H53.579C23.977,107.158,0,131.135,0,160.738c0,2.5,0.179,4.956,0.491,7.322        l35.228,224.854h625.091l35.228-224.854c0.313-2.411,0.491-4.867,0.491-7.322C696.53,131.135,672.553,107.158,642.951,107.158        z" />
    <path
       id="SVGID_20_-7"
       d="M696.53,160.738c0-23.307-14.913-43.087-35.719-50.454V53.579C660.811,23.977,636.834,0,607.231,0      H89.299C59.696,0,35.719,23.977,35.719,53.579l0.134,56.615C15.002,117.517,0,137.341,0,160.738c0,2.5,0.179,4.956,0.491,7.322      l35.228,224.854l0,0L17.994,621.385c-0.089,1.25-0.134,2.456-0.134,3.706c0,29.603,23.977,53.579,53.579,53.579h553.652      c29.603,0,53.579-23.977,53.579-53.579c0-1.25-0.045-2.456-0.134-3.706l-17.726-228.471l35.228-224.854      C696.352,165.694,696.53,163.238,696.53,160.738z" />
    <path
       id="SVGID_22_-0"
       d="M678.536,621.385l-17.726-228.471H35.719L17.994,621.385c-0.089,1.25-0.134,2.456-0.134,3.706        c0,29.603,23.977,53.579,53.579,53.579h553.652c29.603,0,53.579-23.977,53.579-53.579        C678.67,623.841,678.626,622.635,678.536,621.385z" />
    <path
       id="SVGID_24_-9"
       d="M696.53,160.738c0-23.307-14.913-43.087-35.719-50.454V53.579C660.811,23.977,636.834,0,607.231,0      H89.299C59.696,0,35.719,23.977,35.719,53.579l0.134,56.615C15.002,117.517,0,137.341,0,160.738c0,2.5,0.179,4.956,0.491,7.322      l35.228,224.854l0,0L17.994,621.385c-0.089,1.25-0.134,2.456-0.134,3.706c0,29.603,23.977,53.579,53.579,53.579h553.652      c29.603,0,53.579-23.977,53.579-53.579c0-1.25-0.045-2.456-0.134-3.706l-17.726-228.471l35.228-224.854      C696.352,165.694,696.53,163.238,696.53,160.738z" />
    <path
       id="SVGID_27_-3"
       d="M696.53,160.738c0-23.307-14.913-43.087-35.719-50.454V53.579C660.811,23.977,636.834,0,607.231,0      H89.299C59.696,0,35.719,23.977,35.719,53.579l0.134,56.615C15.002,117.517,0,137.341,0,160.738c0,2.5,0.179,4.956,0.491,7.322      l35.228,224.854l0,0L17.994,621.385c-0.089,1.25-0.134,2.456-0.134,3.706c0,29.603,23.977,53.579,53.579,53.579h553.652      c29.603,0,53.579-23.977,53.579-53.579c0-1.25-0.045-2.456-0.134-3.706l-17.726-228.471l35.228-224.854      C696.352,165.694,696.53,163.238,696.53,160.738z" />
    <path
       id="SVGID_29_-6"
       d="M696.53,160.738c0-23.307-14.913-43.087-35.719-50.454V53.579C660.811,23.977,636.834,0,607.231,0      H89.299C59.696,0,35.719,23.977,35.719,53.579l0.134,56.615C15.002,117.517,0,137.341,0,160.738c0,2.5,0.179,4.956,0.491,7.322      l35.228,224.854l0,0L17.994,621.385c-0.089,1.25-0.134,2.456-0.134,3.706c0,29.603,23.977,53.579,53.579,53.579h553.652      c29.603,0,53.579-23.977,53.579-53.579c0-1.25-0.045-2.456-0.134-3.706l-17.726-228.471l35.228-224.854      C696.352,165.694,696.53,163.238,696.53,160.738z" />
  </defs>
  <sodipodi:namedview
     id="base"
     pagecolor="#ffffff"
     bordercolor="#666666"
     borderopacity="1.0"
     inkscape:pageopacity="0.0"
     inkscape:pageshadow="2"
     inkscape:zoom="2.2847406"
     inkscape:cx="178.65064"
     inkscape:cy="148.09786"
     inkscape:document-units="px"
     inkscape:current-layer="layer3"
     showgrid="false"
     inkscape:window-width="1860"
     inkscape:window-height="1016"
     inkscape:window-x="60"
     inkscape:window-y="27"
     inkscape:window-maximized="1"
     showguides="true"
     inkscape:guide-bbox="true">
    <sodipodi:guide
       position="51.185607,65.661175"
       orientation="0,1"
       id="guide12694"
       inkscape:locked="false" />
    <sodipodi:guide
       position="14.243958,27.677285"
       orientation="1,0"
       id="guide12696"
       inkscape:locked="false" />
  </sodipodi:namedview>
  <metadata
     id="metadata12115">
    <rdf:RDF>
      <cc:Work
         rdf:about="">
        <dc:format>image/svg+xml</dc:format>
        <dc:type
           rdf:resource="http://purl.org/dc/dcmitype/StillImage" />
        <dc:title />
      </cc:Work>
    </rdf:RDF>
  </metadata>
  <g
     inkscape:groupmode="layer"
     id="layer2"
     inkscape:label="backg"
     sodipodi:insensitive="true">
    <rect
       style="fill:#ffffff;stroke:#f9f9f9;stroke-width:0.5291667;stroke-miterlimit:10;stroke-dasharray:none;stroke-opacity:1"
       id="rect2940"
       width="100.22869"
       height="71.077194"
       x="1.4143448"
       y="1.4008824" />
    <g
       transform="matrix(0.03823494,0,0,0.03823494,7.6522796,4.8764686)"
       id="g14">
      <polygon
         style="fill:#343434"
         id="polygon2"
         points="127.9611,287.958 255.9231,212.32 127.9611,0 125.1661,9.5 125.1661,285.168 " />
      <polygon
         style="fill:#8c8c8c"
         id="polygon4"
         points="127.962,154.158 127.962,0 0,212.32 127.962,287.959 " />
      <polygon
         style="fill:#3c3c3b"
         id="polygon6"
         points="127.9611,416.9066 255.9991,236.5866 127.9611,312.1866 126.3861,314.1066 126.3861,412.3056 " />
      <polygon
         style="fill:#8c8c8c"
         id="polygon8"
         points="0,236.5852 127.962,416.9052 127.962,312.1852 " />
      <polygon
         style="fill:#141414"
         id="polygon10"
         points="127.9611,154.1587 127.9611,287.9577 255.9211,212.3207 " />
      <polygon
         style="fill:#393939"
         id="polygon12"
         points="127.9609,154.1588 0.0009,212.3208 127.9609,287.9578 " />
    </g>
    <g
       aria-label="Crypto/Financial Candlesticks"
       style="font-style:normal;font-weight:normal;font-size:9.04227352px;line-height:1.25;font-family:sans-serif;letter-spacing:0px;word-spacing:0px;fill:#000000;fill-opacity:1;stroke:none;stroke-width:0.22605684"
       id="text100">
      <path
         d="m 28.164688,11.861873 c 0.859016,0 1.510059,-0.343606 2.034511,-0.949438 l -0.461156,-0.524452 c -0.424986,0.461156 -0.904227,0.741466 -1.537186,0.741466 -1.265918,0 -2.061638,-1.048904 -2.061638,-2.7217242 0,-1.6547361 0.831889,-2.6855552 2.088765,-2.6855552 0.569663,0 1.012734,0.2622259 1.356341,0.6329591 L 30.036438,5.8125923 C 29.656663,5.3876054 29.023704,4.9897454 28.218941,4.9897454 c -1.681862,0 -2.938738,1.3020874 -2.938738,3.4451062 0,2.1520614 1.238791,3.4270214 2.884485,3.4270214 z"
         style="font-style:normal;font-variant:normal;font-weight:normal;font-stretch:normal;font-family:'Noto Sans CJK HK';-inkscape-font-specification:'Noto Sans CJK HK';stroke-width:0.22605684"
         id="path249"
         inkscape:connector-curvature="0" />
      <path
         d="m 31.356597,11.744324 h 0.822847 V 8.5885703 c 0.325522,-0.8409315 0.831889,-1.1302842 1.238792,-1.1302842 0.19893,0 0.316479,0.018085 0.47924,0.08138 L 34.051195,6.8162843 C 33.897476,6.7349043 33.743758,6.707777 33.526743,6.707777 c -0.551579,0 -1.048904,0.39786 -1.39251,1.0217769 h -0.02713 l -0.07234,-0.8951851 h -0.678171 z"
         style="font-style:normal;font-variant:normal;font-weight:normal;font-stretch:normal;font-family:'Noto Sans CJK HK';-inkscape-font-specification:'Noto Sans CJK HK';stroke-width:0.22605684"
         id="path251"
         inkscape:connector-curvature="0" />
      <path
         d="m 35.208587,13.860216 c 0.976566,0 1.491975,-0.741467 1.82654,-1.70899 L 38.888793,6.8343692 H 38.08403 l -0.8771,2.7307666 C 37.071296,9.9991649 36.926619,10.49649 36.790985,10.939561 h -0.04521 C 36.592055,10.49649 36.420252,9.9901227 36.275576,9.5651358 L 35.271883,6.8343692 h -0.859016 l 1.971216,4.9189968 -0.108507,0.370733 c -0.19893,0.605833 -0.551579,1.057946 -1.1122,1.057946 -0.126592,0 -0.271268,-0.04521 -0.370733,-0.08138 l -0.162761,0.660086 c 0.153718,0.0633 0.343606,0.09946 0.578705,0.09946 z"
         style="font-style:normal;font-variant:normal;font-weight:normal;font-stretch:normal;font-family:'Noto Sans CJK HK';-inkscape-font-specification:'Noto Sans CJK HK';stroke-width:0.22605684"
         id="path253"
         inkscape:connector-curvature="0" />
      <path
         d="m 39.83823,13.815004 h 0.822847 v -1.663778 l -0.01808,-0.859016 c 0.443072,0.361691 0.91327,0.569663 1.356342,0.569663 1.130284,0 2.133976,-0.967523 2.133976,-2.6493859 0,-1.5100596 -0.687213,-2.5047097 -1.953131,-2.5047097 -0.569663,0 -1.121242,0.3255218 -1.564313,0.6872128 h -0.02713 l -0.07234,-0.560621 H 39.83823 Z m 2.025469,-2.640344 c -0.325521,0 -0.759551,-0.135634 -1.202622,-0.515409 V 8.082203 c 0.479241,-0.4430714 0.904227,-0.6781706 1.320172,-0.6781706 0.931354,0 1.293045,0.7324242 1.293045,1.817497 0,1.2207066 -0.59679,1.9531306 -1.410595,1.9531306 z"
         style="font-style:normal;font-variant:normal;font-weight:normal;font-stretch:normal;font-family:'Noto Sans CJK HK';-inkscape-font-specification:'Noto Sans CJK HK';stroke-width:0.22605684"
         id="path255"
         inkscape:connector-curvature="0" />
      <path
         d="m 46.818847,11.861873 c 0.298395,0 0.623917,-0.09042 0.904227,-0.180845 l -0.16276,-0.614875 c -0.162761,0.0633 -0.388818,0.126592 -0.560621,0.126592 -0.569664,0 -0.759551,-0.343606 -0.759551,-0.949439 V 7.5034974 h 1.329214 V 6.8343692 H 46.240142 V 5.4509014 h -0.687213 l -0.09947,1.3834678 -0.768593,0.045211 V 7.503497 h 0.732424 v 2.721725 c 0,0.976565 0.352648,1.636651 1.401552,1.636651 z"
         style="font-style:normal;font-variant:normal;font-weight:normal;font-stretch:normal;font-family:'Noto Sans CJK HK';-inkscape-font-specification:'Noto Sans CJK HK';stroke-width:0.22605684"
         id="path257"
         inkscape:connector-curvature="0" />
      <path
         d="m 50.453819,11.861873 c 1.202622,0 2.278653,-0.940396 2.278653,-2.5680054 0,-1.6366515 -1.076031,-2.5860902 -2.278653,-2.5860902 -1.202622,0 -2.278653,0.9494387 -2.278653,2.5860902 0,1.6276094 1.076031,2.5680054 2.278653,2.5680054 z m 0,-0.687213 c -0.849974,0 -1.419637,-0.750508 -1.419637,-1.8807924 0,-1.1302842 0.569663,-1.8988774 1.419637,-1.8988774 0.849974,0 1.428679,0.7685932 1.428679,1.8988774 0,1.1302844 -0.578705,1.8807924 -1.428679,1.8807924 z"
         style="font-style:normal;font-variant:normal;font-weight:normal;font-stretch:normal;font-family:'Noto Sans CJK HK';-inkscape-font-specification:'Noto Sans CJK HK';stroke-width:0.22605684"
         id="path259"
         inkscape:connector-curvature="0" />
      <path
         d="m 53.293084,13.362891 h 0.605832 l 2.70364,-8.7981324 h -0.59679 z"
         style="font-style:normal;font-variant:normal;font-weight:normal;font-stretch:normal;font-family:'Noto Sans CJK HK';-inkscape-font-specification:'Noto Sans CJK HK';stroke-width:0.22605684"
         id="path261"
         inkscape:connector-curvature="0" />
      <path
         d="m 57.642402,11.744324 h 0.840931 V 8.7694157 H 61.01517 V 8.0641184 H 58.483333 V 5.8216346 h 2.98395 V 5.107295 h -3.824881 z"
         style="font-style:normal;font-variant:normal;font-weight:normal;font-stretch:normal;font-family:'Noto Sans CJK HK';-inkscape-font-specification:'Noto Sans CJK HK';stroke-width:0.22605684"
         id="path263"
         inkscape:connector-curvature="0" />
      <path
         d="M 62.561383,11.744324 H 63.38423 V 6.8343692 h -0.822847 z m 0.415945,-5.9226894 c 0.325522,0 0.551579,-0.2170146 0.551579,-0.5515787 0,-0.3164796 -0.226057,-0.5334941 -0.551579,-0.5334941 -0.325522,0 -0.551579,0.2170145 -0.551579,0.5334941 0,0.3345641 0.226057,0.5515787 0.551579,0.5515787 z"
         style="font-style:normal;font-variant:normal;font-weight:normal;font-stretch:normal;font-family:'Noto Sans CJK HK';-inkscape-font-specification:'Noto Sans CJK HK';stroke-width:0.22605684"
         id="path265"
         inkscape:connector-curvature="0" />
      <path
         d="m 65.048005,11.744324 h 0.822847 V 8.181668 c 0.497325,-0.4973251 0.840931,-0.7505087 1.347299,-0.7505087 0.651043,0 0.931354,0.3888177 0.931354,1.3111296 v 3.0020351 h 0.822847 V 8.6337816 c 0,-1.256876 -0.470198,-1.9260042 -1.501018,-1.9260042 -0.669128,0 -1.175495,0.3707332 -1.645693,0.8318891 h -0.02713 L 65.726171,6.8343692 H 65.048 Z"
         style="font-style:normal;font-variant:normal;font-weight:normal;font-stretch:normal;font-family:'Noto Sans CJK HK';-inkscape-font-specification:'Noto Sans CJK HK';stroke-width:0.22605684"
         id="path267"
         inkscape:connector-curvature="0" />
      <path
         d="m 71.7031,11.861873 c 0.605832,0 1.157411,-0.316479 1.627609,-0.705297 h 0.02713 l 0.07234,0.587748 H 74.10835 V 8.7242044 c 0,-1.2116647 -0.506367,-2.016427 -1.699948,-2.016427 -0.786677,0 -1.482932,0.3526486 -1.935046,0.6420014 l 0.325522,0.5696632 c 0.388818,-0.2622259 0.904227,-0.5244518 1.47389,-0.5244518 0.804763,0 1.012735,0.6058323 1.012735,1.2387914 -2.088765,0.2350992 -3.020119,0.7685933 -3.020119,1.8355814 0,0.886143 0.614874,1.39251 1.437721,1.39251 z m 0.235099,-0.660086 c -0.488283,0 -0.868058,-0.226057 -0.868058,-0.786677 0,-0.6329596 0.560621,-1.0398619 2.215357,-1.2387919 v 1.3744259 c -0.479241,0.424986 -0.868058,0.651043 -1.347299,0.651043 z"
         style="font-style:normal;font-variant:normal;font-weight:normal;font-stretch:normal;font-family:'Noto Sans CJK HK';-inkscape-font-specification:'Noto Sans CJK HK';stroke-width:0.22605684"
         id="path269"
         inkscape:connector-curvature="0" />
      <path
         d="m 75.67265,11.744324 h 0.822847 V 8.181668 c 0.497325,-0.4973251 0.840932,-0.7505087 1.347299,-0.7505087 0.651044,0 0.931354,0.3888177 0.931354,1.3111296 v 3.0020351 h 0.822847 V 8.6337816 c 0,-1.256876 -0.470198,-1.9260042 -1.501017,-1.9260042 -0.669129,0 -1.175496,0.3707332 -1.645694,0.8318891 h -0.02713 L 76.350821,6.8343692 H 75.67265 Z"
         style="font-style:normal;font-variant:normal;font-weight:normal;font-stretch:normal;font-family:'Noto Sans CJK HK';-inkscape-font-specification:'Noto Sans CJK HK';stroke-width:0.22605684"
         id="path271"
         inkscape:connector-curvature="0" />
      <path
         d="m 83.132511,11.861873 c 0.587748,0 1.148369,-0.226057 1.591441,-0.623917 l -0.361691,-0.551578 c -0.307438,0.28031 -0.705298,0.488282 -1.157411,0.488282 -0.904228,0 -1.519102,-0.750508 -1.519102,-1.8807924 0,-1.1302842 0.651043,-1.8988774 1.546228,-1.8988774 0.388818,0 0.687213,0.1808454 0.976566,0.4340291 L 84.633529,7.2864829 C 84.28088,6.9790456 83.837809,6.7077774 83.195807,6.7077774 c -1.256876,0 -2.369075,0.9494387 -2.369075,2.5860902 0,1.6276094 1.003692,2.5680054 2.305779,2.5680054 z"
         style="font-style:normal;font-variant:normal;font-weight:normal;font-stretch:normal;font-family:'Noto Sans CJK HK';-inkscape-font-specification:'Noto Sans CJK HK';stroke-width:0.22605684"
         id="path273"
         inkscape:connector-curvature="0" />
      <path
         d="m 85.79997,11.744324 h 0.822847 V 6.8343692 H 85.79997 Z m 0.415944,-5.9226894 c 0.325522,0 0.551579,-0.2170146 0.551579,-0.5515787 0,-0.3164796 -0.226057,-0.5334941 -0.551579,-0.5334941 -0.325522,0 -0.551578,0.2170145 -0.551578,0.5334941 0,0.3345641 0.226056,0.5515787 0.551578,0.5515787 z"
         style="font-style:normal;font-variant:normal;font-weight:normal;font-stretch:normal;font-family:'Noto Sans CJK HK';-inkscape-font-specification:'Noto Sans CJK HK';stroke-width:0.22605684"
         id="path275"
         inkscape:connector-curvature="0" />
      <path
         d="m 89.416876,11.861873 c 0.605832,0 1.157411,-0.316479 1.627609,-0.705297 h 0.02713 l 0.07234,0.587748 h 0.67817 V 8.7242044 c 0,-1.2116647 -0.506367,-2.016427 -1.699947,-2.016427 -0.786678,0 -1.482933,0.3526486 -1.935046,0.6420014 l 0.325521,0.5696632 c 0.388818,-0.2622259 0.904228,-0.5244518 1.473891,-0.5244518 0.804762,0 1.012735,0.6058323 1.012735,1.2387914 -2.088766,0.2350992 -3.02012,0.7685933 -3.02012,1.8355814 0,0.886143 0.614875,1.39251 1.437722,1.39251 z m 0.235099,-0.660086 c -0.488283,0 -0.868058,-0.226057 -0.868058,-0.786677 0,-0.6329596 0.560621,-1.0398619 2.215357,-1.2387919 v 1.3744259 c -0.479241,0.424986 -0.868059,0.651043 -1.347299,0.651043 z"
         style="font-style:normal;font-variant:normal;font-weight:normal;font-stretch:normal;font-family:'Noto Sans CJK HK';-inkscape-font-specification:'Noto Sans CJK HK';stroke-width:0.22605684"
         id="path277"
         inkscape:connector-curvature="0" />
      <path
         d="m 94.254488,11.861873 c 0.226057,0 0.361691,-0.02713 0.479241,-0.07234 l -0.11755,-0.632959 c -0.09042,0.01808 -0.126592,0.01808 -0.171803,0.01808 -0.126592,0 -0.235099,-0.09946 -0.235099,-0.352648 V 4.546674 H 93.38643 v 6.221084 c 0,0.696255 0.253183,1.094115 0.868058,1.094115 z"
         style="font-style:normal;font-variant:normal;font-weight:normal;font-stretch:normal;font-family:'Noto Sans CJK HK';-inkscape-font-specification:'Noto Sans CJK HK';stroke-width:0.22605684"
         id="path279"
         inkscape:connector-curvature="0" />
      <path
         d="m 28.164688,24.251907 c 0.859016,0 1.510059,-0.343606 2.034511,-0.949438 l -0.461156,-0.524452 c -0.424986,0.461156 -0.904227,0.741466 -1.537186,0.741466 -1.265918,0 -2.061638,-1.048904 -2.061638,-2.721724 0,-1.654736 0.831889,-2.685555 2.088765,-2.685555 0.569663,0 1.012734,0.262226 1.356341,0.632959 l 0.452113,-0.542537 c -0.379775,-0.424987 -1.012734,-0.822847 -1.817497,-0.822847 -1.681862,0 -2.938738,1.302088 -2.938738,3.445107 0,2.152061 1.238791,3.427021 2.884485,3.427021 z"
         style="font-style:normal;font-variant:normal;font-weight:normal;font-stretch:normal;font-family:'Noto Sans CJK HK';-inkscape-font-specification:'Noto Sans CJK HK';stroke-width:0.22605684"
         id="path281"
         inkscape:connector-curvature="0" />
      <path
         d="m 32.486882,24.251907 c 0.605832,0 1.157411,-0.316479 1.627609,-0.705297 h 0.02713 l 0.07234,0.587748 h 0.67817 v -3.02012 c 0,-1.211664 -0.506367,-2.016427 -1.699947,-2.016427 -0.786678,0 -1.482933,0.352649 -1.935047,0.642002 l 0.325522,0.569663 c 0.388818,-0.262226 0.904228,-0.524452 1.473891,-0.524452 0.804762,0 1.012734,0.605832 1.012734,1.238792 -2.088765,0.235099 -3.020119,0.768593 -3.020119,1.835581 0,0.886143 0.614875,1.39251 1.437722,1.39251 z m 0.235099,-0.660086 c -0.488283,0 -0.868059,-0.226057 -0.868059,-0.786677 0,-0.63296 0.560621,-1.039862 2.215357,-1.238792 v 1.374426 c -0.47924,0.424986 -0.868058,0.651043 -1.347298,0.651043 z"
         style="font-style:normal;font-variant:normal;font-weight:normal;font-stretch:normal;font-family:'Noto Sans CJK HK';-inkscape-font-specification:'Noto Sans CJK HK';stroke-width:0.22605684"
         id="path283"
         inkscape:connector-curvature="0" />
      <path
         d="m 36.456432,24.134358 h 0.822847 v -3.562656 c 0.497325,-0.497325 0.840932,-0.750509 1.347299,-0.750509 0.651044,0 0.931354,0.388818 0.931354,1.31113 v 3.002035 h 0.822847 v -3.110542 c 0,-1.256876 -0.470198,-1.926005 -1.501017,-1.926005 -0.669129,0 -1.175496,0.370734 -1.645694,0.83189 h -0.02713 l -0.07234,-0.705298 h -0.678171 z"
         style="font-style:normal;font-variant:normal;font-weight:normal;font-stretch:normal;font-family:'Noto Sans CJK HK';-inkscape-font-specification:'Noto Sans CJK HK';stroke-width:0.22605684"
         id="path285"
         inkscape:connector-curvature="0" />
      <path
         d="m 43.654065,24.251907 c 0.587747,0 1.103157,-0.316479 1.491975,-0.696255 h 0.02713 l 0.07234,0.578706 h 0.669128 v -7.19765 h -0.813805 v 1.889835 l 0.03617,0.849974 c -0.43403,-0.361691 -0.804763,-0.578706 -1.383468,-0.578706 -1.121242,0 -2.124935,0.99465 -2.124935,2.586091 0,1.636651 0.795721,2.568005 2.02547,2.568005 z m 0.180845,-0.687212 c -0.868058,0 -1.356341,-0.705298 -1.356341,-1.889836 0,-1.121242 0.623917,-1.880793 1.419637,-1.880793 0.406902,0 0.777636,0.144677 1.202622,0.51541 v 2.577048 c -0.415944,0.452114 -0.813804,0.678171 -1.265918,0.678171 z"
         style="font-style:normal;font-variant:normal;font-weight:normal;font-stretch:normal;font-family:'Noto Sans CJK HK';-inkscape-font-specification:'Noto Sans CJK HK';stroke-width:0.22605684"
         id="path287"
         inkscape:connector-curvature="0" />
      <path
         d="m 48.455504,24.251907 c 0.226056,0 0.36169,-0.02713 0.47924,-0.07234 l -0.11755,-0.632959 c -0.09042,0.01808 -0.126591,0.01808 -0.171803,0.01808 -0.126592,0 -0.235099,-0.09947 -0.235099,-0.352649 v -6.275338 h -0.822847 v 6.221084 c 0,0.696255 0.253184,1.094115 0.868059,1.094115 z"
         style="font-style:normal;font-variant:normal;font-weight:normal;font-stretch:normal;font-family:'Noto Sans CJK HK';-inkscape-font-specification:'Noto Sans CJK HK';stroke-width:0.22605684"
         id="path289"
         inkscape:connector-curvature="0" />
      <path
         d="m 52.144749,24.251907 c 0.669128,0 1.19358,-0.226057 1.627609,-0.506367 l -0.298395,-0.542536 c -0.361691,0.244141 -0.750509,0.388817 -1.229749,0.388817 -0.931355,0 -1.573356,-0.669128 -1.62761,-1.718032 h 3.309472 c 0.01808,-0.117549 0.03617,-0.289352 0.03617,-0.470198 0,-1.401552 -0.705298,-2.30578 -1.953131,-2.30578 -1.139327,0 -2.215358,0.99465 -2.215358,2.586091 0,1.618567 1.048904,2.568005 2.350992,2.568005 z m -1.537187,-2.974908 c 0.09946,-0.958481 0.71434,-1.519102 1.410595,-1.519102 0.768593,0 1.220707,0.533494 1.220707,1.519102 z"
         style="font-style:normal;font-variant:normal;font-weight:normal;font-stretch:normal;font-family:'Noto Sans CJK HK';-inkscape-font-specification:'Noto Sans CJK HK';stroke-width:0.22605684"
         id="path291"
         inkscape:connector-curvature="0" />
      <path
         d="m 56.457904,24.251907 c 1.157411,0 1.790371,-0.660086 1.790371,-1.455806 0,-0.931354 -0.786678,-1.220707 -1.501018,-1.491975 -0.551579,-0.207972 -1.057946,-0.379775 -1.057946,-0.849974 0,-0.379775 0.289353,-0.705297 0.91327,-0.705297 0.434029,0 0.777635,0.180846 1.112199,0.434029 l 0.39786,-0.533494 c -0.379775,-0.298395 -0.913269,-0.551579 -1.519101,-0.551579 -1.066989,0 -1.699948,0.614875 -1.699948,1.392511 0,0.831889 0.750509,1.166453 1.437722,1.419636 0.542536,0.207973 1.121241,0.424987 1.121241,0.931355 0,0.424986 -0.316479,0.768593 -0.967523,0.768593 -0.587748,0 -1.030819,-0.235099 -1.455806,-0.578706 l -0.406902,0.542537 c 0.470198,0.388818 1.139326,0.67817 1.835581,0.67817 z"
         style="font-style:normal;font-variant:normal;font-weight:normal;font-stretch:normal;font-family:'Noto Sans CJK HK';-inkscape-font-specification:'Noto Sans CJK HK';stroke-width:0.22605684"
         id="path293"
         inkscape:connector-curvature="0" />
      <path
         d="m 60.75296,24.251907 c 0.298395,0 0.623916,-0.09042 0.904227,-0.180845 l -0.162761,-0.614875 c -0.162761,0.0633 -0.388818,0.126592 -0.560621,0.126592 -0.569663,0 -0.759551,-0.343606 -0.759551,-0.949439 v -2.739809 h 1.329214 v -0.669128 h -1.329214 v -1.383468 h -0.687213 l -0.09946,1.383468 -0.768593,0.04521 v 0.623916 h 0.732424 v 2.721725 c 0,0.976565 0.352649,1.636651 1.401553,1.636651 z"
         style="font-style:normal;font-variant:normal;font-weight:normal;font-stretch:normal;font-family:'Noto Sans CJK HK';-inkscape-font-specification:'Noto Sans CJK HK';stroke-width:0.22605684"
         id="path295"
         inkscape:connector-curvature="0" />
      <path
         d="m 62.615655,24.134358 h 0.822847 V 19.224403 H 62.615655 Z M 63.0316,18.211669 c 0.325521,0 0.551578,-0.217015 0.551578,-0.551579 0,-0.31648 -0.226057,-0.533494 -0.551578,-0.533494 -0.325522,0 -0.551579,0.217014 -0.551579,0.533494 0,0.334564 0.226057,0.551579 0.551579,0.551579 z"
         style="font-style:normal;font-variant:normal;font-weight:normal;font-stretch:normal;font-family:'Noto Sans CJK HK';-inkscape-font-specification:'Noto Sans CJK HK';stroke-width:0.22605684"
         id="path297"
         inkscape:connector-curvature="0" />
      <path
         d="m 67.037327,24.251907 c 0.587748,0 1.148369,-0.226057 1.59144,-0.623917 l -0.361691,-0.551578 c -0.307437,0.28031 -0.705297,0.488283 -1.157411,0.488283 -0.904227,0 -1.519102,-0.750509 -1.519102,-1.880793 0,-1.130285 0.651044,-1.898878 1.546229,-1.898878 0.388818,0 0.687213,0.180846 0.976566,0.434029 l 0.424987,-0.542536 c -0.352649,-0.307437 -0.795721,-0.578706 -1.437722,-0.578706 -1.256876,0 -2.369076,0.949439 -2.369076,2.586091 0,1.627609 1.003693,2.568005 2.30578,2.568005 z"
         style="font-style:normal;font-variant:normal;font-weight:normal;font-stretch:normal;font-family:'Noto Sans CJK HK';-inkscape-font-specification:'Noto Sans CJK HK';stroke-width:0.22605684"
         id="path299"
         inkscape:connector-curvature="0" />
      <path
         d="m 69.704785,24.134358 h 0.813805 v -1.293045 l 0.922312,-1.076031 1.437721,2.369076 h 0.895185 l -1.853666,-2.929697 1.636652,-1.980258 h -0.922312 l -2.088765,2.595133 h -0.02713 v -4.882828 h -0.813805 z"
         style="font-style:normal;font-variant:normal;font-weight:normal;font-stretch:normal;font-family:'Noto Sans CJK HK';-inkscape-font-specification:'Noto Sans CJK HK';stroke-width:0.22605684"
         id="path301"
         inkscape:connector-curvature="0" />
      <path
         d="m 75.980106,24.251907 c 1.157411,0 1.79037,-0.660086 1.79037,-1.455806 0,-0.931354 -0.786678,-1.220707 -1.501017,-1.491975 -0.551579,-0.207972 -1.057946,-0.379775 -1.057946,-0.849974 0,-0.379775 0.289352,-0.705297 0.913269,-0.705297 0.434029,0 0.777636,0.180846 1.1122,0.434029 l 0.39786,-0.533494 c -0.379775,-0.298395 -0.91327,-0.551579 -1.519102,-0.551579 -1.066988,0 -1.699947,0.614875 -1.699947,1.392511 0,0.831889 0.750508,1.166453 1.437721,1.419636 0.542537,0.207973 1.121242,0.424987 1.121242,0.931355 0,0.424986 -0.31648,0.768593 -0.967523,0.768593 -0.587748,0 -1.030819,-0.235099 -1.455806,-0.578706 l -0.406903,0.542537 c 0.470199,0.388818 1.139327,0.67817 1.835582,0.67817 z"
         style="font-style:normal;font-variant:normal;font-weight:normal;font-stretch:normal;font-family:'Noto Sans CJK HK';-inkscape-font-specification:'Noto Sans CJK HK';stroke-width:0.22605684"
         id="path303"
         inkscape:connector-curvature="0" />
    </g>
  </g>
  <g
     inkscape:groupmode="layer"
     id="layer3"
     inkscape:label="mid">
    <rect
       style="fill:#ff0000;stroke-width:0.09472383"
       id="rect104"
       width="4.9438634"
       height="5.0785537"
       x="51.8134"
       y="59.176414" />
    <rect
       style="fill:#ff0000;stroke-width:0.09472383"
       id="rect106"
       width="0.34015012"
       height="8.337924"
       x="54.104095"
       y="57.988892" />
    <rect
       style="fill:#666666;stroke-width:0.1598343"
       id="rect104-5"
       width="4.9438634"
       height="14.459774"
       x="58.503193"
       y="45.968018" />
    <rect
       style="fill:#666666;stroke-width:0.1598343"
       id="rect106-0"
       width="0.34015012"
       height="23.739927"
       x="60.793888"
       y="42.586884" />
    <rect
       style="fill:#666666;stroke-width:0.12580413"
       id="rect104-5-6"
       width="4.9438634"
       height="8.9580059"
       x="65.170128"
       y="42.886566" />
    <rect
       style="fill:#666666;stroke-width:0.12580413"
       id="rect106-0-4"
       width="0.34015012"
       height="14.707173"
       x="67.460831"
       y="40.791916" />
    <rect
       style="fill:#666666;stroke-width:0.12580413"
       id="rect104-5-6-6"
       width="4.9438634"
       height="8.9580059"
       x="71.428902"
       y="38.485992" />
    <rect
       style="fill:#666666;stroke-width:0.12580413"
       id="rect106-0-4-2"
       width="0.34015012"
       height="14.707173"
       x="73.719597"
       y="36.391338" />
    <rect
       style="fill:#ff0000;stroke-width:0.07058979"
       id="rect104-5-6-6-5"
       width="4.9438634"
       height="2.8203652"
       x="77.678207"
       y="41.149494" />
    <rect
       style="fill:#ff0000;stroke-width:0.11274391"
       id="rect106-0-4-2-8"
       width="0.34015012"
       height="11.812059"
       x="79.968895"
       y="39.054844" />
    <rect
       style="fill:#666666;stroke-width:0.12580413"
       id="rect104-5-6-6-2"
       width="4.9438634"
       height="8.9580059"
       x="45.441433"
       y="52.269009" />
    <rect
       style="fill:#666666;stroke-width:0.12580413"
       id="rect106-0-4-2-84"
       width="0.34015012"
       height="14.707173"
       x="47.732121"
       y="50.174362" />
    <rect
       style="fill:#666666;stroke-width:0.10590447"
       id="rect104-5-6-6-2-7"
       width="4.9438634"
       height="6.3481927"
       x="39.046608"
       y="59.41766" />
    <rect
       style="fill:#666666;stroke-width:0.10590447"
       id="rect106-0-4-2-84-2"
       width="0.34015012"
       height="10.422404"
       x="41.337299"
       y="57.933262" />
    <rect
       style="fill:#666666;stroke-width:0.08353855"
       id="rect104-5-6-6-2-7-4"
       width="4.9438634"
       height="3.9499855"
       x="32.810696"
       y="63.894386" />
    <rect
       style="fill:#666666;stroke-width:0.08353855"
       id="rect106-0-4-2-84-2-0"
       width="0.34015012"
       height="6.4850497"
       x="35.101387"
       y="62.970764" />
    <rect
       style="fill:#666666;stroke-width:0.1348868"
       id="rect104-5-3"
       width="4.9438634"
       height="10.29818"
       x="83.902596"
       y="31.417967" />
    <rect
       style="fill:#666666;stroke-width:0.1348868"
       id="rect106-0-6"
       width="0.34015012"
       height="16.907459"
       x="86.193291"
       y="29.009937" />
    <rect
       style="fill:#55d400;stroke-width:0.14767672"
       id="rect104-5-3-3"
       width="4.9438629"
       height="12.343709"
       x="90.335823"
       y="18.239763" />
    <rect
       style="fill:#55d400;stroke-width:0.14767672"
       id="rect106-0-6-6"
       width="0.34015012"
       height="20.265791"
       x="92.626518"
       y="15.353429" />
    <g
       id="g167"
       transform="matrix(0.04535763,0,0,0.04535763,6.688284,27.15943)"
       style="fill:#333333">
      <g
         id="g165"
         style="fill:#333333">
        <path
           id="path163"
           d="m 217.021,167.042 c 18.631,-9.483 30.288,-26.184 27.565,-54.007 C 240.919,75.012 208.06,62.262 166.58,58.631 L 166.572,5.89 h -32.139 l -0.009,51.354 c -8.456,0 -17.076,0.166 -25.657,0.338 L 108.76,5.897 76.65,5.894 76.644,58.622 c -6.959,0.142 -13.793,0.277 -20.466,0.277 v -0.156 l -44.33,-0.018 0.006,34.282 c 0,0 23.734,-0.446 23.343,-0.013 13.013,0.009 17.262,7.559 18.484,14.076 l 0.01,60.083 v 84.397 c -0.573,4.09 -2.984,10.625 -12.083,10.637 0.414,0.364 -23.379,-0.004 -23.379,-0.004 l -6.375,38.335 h 41.817 c 7.792,0.009 15.448,0.13 22.959,0.19 l 0.028,53.338 32.102,0.009 -0.009,-52.779 c 8.832,0.18 17.357,0.258 25.684,0.247 l -0.009,52.532 h 32.138 l 0.018,-53.249 c 54.022,-3.1 91.842,-16.697 96.544,-67.385 3.79,-40.809 -15.434,-59.025 -46.105,-66.379 z M 109.535,95.321 c 18.126,0 75.132,-5.767 75.14,32.064 -0.008,36.269 -56.996,32.032 -75.14,32.032 V 95.321 Z m -0.014,167.126 0.014,-70.672 c 21.778,-0.006 90.085,-6.261 90.094,35.32 0.009,39.876 -68.316,35.336 -90.108,35.352 z"
           inkscape:connector-curvature="0"
           style="fill:#333333" />
      </g>
    </g>
    <rect
       style="fill:#666666;stroke-width:0.06314919"
       id="rect104-5-6-6-2-7-4-3"
       width="4.9438629"
       height="2.2571335"
       x="26.147884"
       y="67.629364" />
    <rect
       style="fill:#666666;stroke-width:0.06314919"
       id="rect106-0-4-2-84-2-0-6"
       width="0.34015012"
       height="3.7057407"
       x="28.438576"
       y="67.101585" />
  </g>
  <g
     inkscape:label="Layer 1"
     inkscape:groupmode="layer"
     id="layer1"
     transform="translate(0,-223)" />
</svg>
