<?xml version="1.0" encoding="UTF-8" standalone="no"?>
<svg 
  version="1.1" 
  xmlns="http://www.w3.org/2000/svg" 
  xmlns:xlink="http://www.w3.org/1999/xlink" 
  xmlns:svg="http://www.w3.org/2000/svg"
  xmlns:rdf="http://www.w3.org/1999/02/22-rdf-syntax-ns#"
  xmlns:cc="http://creativecommons.org/ns#"
  xmlns:dc="http://purl.org/dc/elements/1.1/"
  viewBox="0 0 544 416"
  width="544"
  height="416"
>
<style>svg {background-color: white; }</style>"
<metadata id="metadata1">
Created by https://svgstud.io and licensed under CC-BY-SA 4.0 license. Please attribute https://svgstud.io
</metadata>
<metadata id="prompt">
scd40 sensirion sensor
</metadata>
<metadata id="version">
7
</metadata>
<metadata id="metadata2">
<rdf:RDF>
<cc:Work
    rdf:about="">
    <cc:license
    rdf:resource="http://creativecommons.org/licenses/by-sa/4.0/" />
    <dc:creator>
        <cc:Agent>
            <dc:title>https://svgstud.io</dc:title>
        </cc:Agent>
    </dc:creator>
</cc:Work>
<cc:License
    rdf:about="http://creativecommons.org/licenses/by-sa/4.0/">
    <cc:permits
    rdf:resource="http://creativecommons.org/ns#Reproduction" />
    <cc:permits
    rdf:resource="http://creativecommons.org/ns#Distribution" />
    <cc:requires
    rdf:resource="http://creativecommons.org/ns#Notice" />
    <cc:requires
    rdf:resource="http://creativecommons.org/ns#Attribution" />
    <cc:permits
    rdf:resource="http://creativecommons.org/ns#DerivativeWorks" />
    <cc:requires
    rdf:resource="http://creativecommons.org/ns#ShareAlike" />
</cc:License>
</rdf:RDF>
</metadata>
<metadata id="uid">
b1f90469bcb26ab2b87744b8479f499a1605eed8edb413afdfdea58939396dc2
</metadata>
<path stroke="none" fill="black" fill-rule="evenodd" d="M307.00,394.26C278.12,394.44 225.93,394.35 191.00,394.05C129.26,393.52 127.40,393.44 124.00,391.45C122.08,390.32 119.49,387.89 118.25,386.05C117.01,384.21 116.00,381.43 116.00,379.87C116.00,378.15 117.15,375.75 118.92,373.77C121.83,370.50 121.83,370.50 153.42,370.20C185.00,369.89 185.00,369.89 185.00,361.45C185.00,356.80 184.76,353.00 184.46,353.00C184.16,353.00 182.55,354.01 180.87,355.25C177.83,357.50 177.83,357.50 132.06,357.50C86.30,357.50 86.30,357.50 79.49,354.00C75.50,351.95 71.39,348.90 69.59,346.66C66.50,342.81 66.50,342.81 66.21,215.16C66.05,144.95 66.18,86.09 66.49,84.36C66.80,82.64 68.27,80.00 69.76,78.51C71.25,77.02 74.28,74.83 76.49,73.65C80.50,71.50 80.50,71.50 235.50,71.50C390.50,71.50 390.50,71.50 396.30,74.35C400.06,76.20 402.95,78.48 404.51,80.85C406.92,84.50 406.92,84.50 407.06,213.63C407.15,301.92 406.87,343.38 406.15,344.72C405.58,345.79 403.23,348.36 400.94,350.43C398.65,352.50 395.14,354.94 393.14,355.85C390.02,357.26 385.30,357.50 359.96,357.50C333.50,357.50 330.13,357.32 327.74,355.75C326.27,354.79 324.83,354.00 324.54,354.00C324.24,354.00 324.00,357.09 324.00,360.88C324.00,365.16 324.47,368.14 325.25,368.79C325.98,369.39 334.96,369.98 347.00,370.20C361.93,370.48 368.27,370.96 370.32,371.99C371.88,372.76 373.79,374.63 374.57,376.15C375.36,377.66 376.00,379.85 376.00,381.00C376.00,382.15 375.34,384.38 374.52,385.95C373.71,387.52 371.58,389.71 369.77,390.82C367.97,391.93 364.93,393.08 363.00,393.38C361.07,393.69 335.88,394.08 307.00,394.26zM290.96,386.00C304.02,386.00 306.60,385.73 309.93,384.03C312.65,382.65 314.45,380.70 316.04,377.43C318.03,373.30 318.22,371.78 317.70,363.78C317.38,358.83 316.84,354.51 316.51,354.18C316.18,353.84 315.14,354.05 314.20,354.64C312.89,355.46 312.38,357.66 312.00,364.10C311.50,372.50 311.50,372.50 301.00,373.00C295.23,373.27 289.82,373.93 289.00,374.45C288.18,374.98 285.02,377.41 282.00,379.85C278.98,382.30 276.35,384.68 276.17,385.15C275.98,385.62 282.64,386.00 290.96,386.00zM239.68,341.69C394.85,341.50 394.85,341.50 397.68,339.39C399.23,338.23 400.50,336.54 400.50,335.63C400.50,334.10 388.48,333.98 237.59,333.98C147.98,333.99 74.48,334.19 74.25,334.42C74.01,334.66 74.11,335.78 74.47,336.91C74.90,338.27 76.74,339.47 79.81,340.43C83.83,341.67 106.57,341.85 239.68,341.69zM102.45,327.00C105.69,327.00 105.69,327.00 106.34,314.25C106.70,307.24 107.05,261.45 107.13,212.50C107.20,163.55 107.54,115.01 107.88,104.63C108.50,85.75 108.50,85.75 113.50,85.31C116.25,85.07 120.52,85.17 122.99,85.53C127.47,86.19 127.47,86.20 124.89,87.55C122.30,88.91 122.30,88.91 122.67,134.70C122.88,159.89 123.48,189.28 124.00,200.00C124.53,210.72 125.26,228.15 125.63,238.72C126.00,249.28 126.68,257.70 127.15,257.41C127.62,257.12 128.00,260.85 127.99,265.69C127.98,270.54 128.49,285.52 129.12,299.00C129.74,312.48 130.63,323.91 131.09,324.41C131.54,324.91 137.18,325.72 143.62,326.22C152.87,326.93 155.58,326.84 156.57,325.81C157.55,324.78 157.97,298.80 158.50,205.50C158.88,140.05 159.51,86.15 159.91,85.73C160.31,85.31 170.06,85.08 181.57,85.23C202.50,85.50 202.50,85.50 203.00,205.00C203.28,270.73 203.87,325.08 204.33,325.78C204.95,326.74 208.16,326.96 217.14,326.66C223.73,326.45 229.50,325.87 229.96,325.39C230.42,324.90 231.06,296.60 231.40,262.50C231.73,228.40 232.28,198.59 232.61,196.25C232.94,193.91 233.55,192.00 233.98,192.00C234.40,192.00 235.06,194.81 235.45,198.25C235.84,201.69 236.40,205.73 236.70,207.23C237.00,208.74 237.64,209.72 238.12,209.42C238.60,209.13 239.00,206.48 239.00,203.55C239.00,200.61 239.45,193.55 239.99,187.86C240.54,182.16 241.26,175.49 241.59,173.04C242.08,169.39 242.37,168.90 243.19,170.37C243.74,171.35 244.81,185.96 245.57,202.83C246.33,219.70 247.21,234.58 247.53,235.91C248.05,238.04 248.29,238.14 249.61,236.82C250.45,235.97 251.69,231.26 252.47,225.92C253.22,220.74 254.32,207.72 254.91,197.00C255.50,186.28 256.46,162.03 257.06,143.13C257.65,124.22 258.44,103.53 258.82,97.14C259.41,86.99 259.73,85.48 261.33,85.17C262.34,84.98 264.25,85.10 265.58,85.43C267.60,85.94 268.00,86.66 268.01,89.77C268.01,91.82 268.30,95.85 268.64,98.72C268.99,101.60 269.66,103.71 270.14,103.42C270.61,103.12 271.00,99.40 271.00,95.14C271.00,90.45 271.47,86.93 272.20,86.20C272.86,85.54 275.11,85.00 277.20,85.00C281.00,85.00 281.00,85.00 281.00,193.84C281.00,253.71 281.29,308.16 281.65,314.84C282.31,327.00 282.31,327.00 334.40,326.98C363.06,326.98 387.11,326.58 387.86,326.11C388.98,325.40 389.33,304.46 389.89,203.87C390.55,85.20 390.53,82.46 388.66,80.74C386.85,79.07 378.80,78.99 235.98,79.24C88.73,79.49 85.16,79.54 83.08,81.43C81.63,82.74 81.28,83.68 81.98,84.38C82.62,85.02 83.00,95.36 83.00,112.54C83.00,127.46 83.30,153.90 83.66,171.30C84.02,188.69 84.63,202.73 85.00,202.50C85.38,202.27 86.05,195.20 86.49,186.79C86.94,178.38 87.28,169.28 87.26,166.57C87.24,163.71 87.55,162.24 88.00,163.07C88.42,163.86 89.10,177.32 89.51,193.00C89.91,208.68 90.55,224.65 90.93,228.50C91.60,235.50 91.60,235.50 92.32,226.50C92.72,221.55 93.31,214.12 93.64,210.00C94.11,204.12 94.43,203.01 95.13,204.85C95.61,206.15 96.45,217.40 96.99,229.85C97.53,242.31 97.97,268.55 97.98,288.17C97.99,307.79 98.27,324.55 98.61,325.42C98.99,326.41 100.42,327.00 102.45,327.00zM258.25,325.75C259.19,325.44 259.58,319.23 259.82,300.42C259.99,286.71 259.83,266.35 259.45,255.16C259.01,241.79 258.44,235.16 257.79,235.81C257.19,236.41 256.58,253.62 256.25,279.79C255.95,303.43 255.99,323.54 256.35,324.47C256.71,325.40 257.56,325.98 258.25,325.75zM332.11,315.00C296.11,315.00 296.11,315.00 293.31,312.59C290.52,310.20 290.50,310.06 290.17,296.66C289.85,283.14 289.85,283.14 293.35,279.32C296.85,275.50 296.85,275.50 332.17,275.50C351.60,275.50 368.72,275.84 370.22,276.26C371.72,276.68 373.49,278.03 374.16,279.26C374.92,280.66 375.40,286.19 375.44,294.00C375.47,300.88 375.16,307.73 374.74,309.23C374.31,310.76 372.68,312.63 371.04,313.48C368.57,314.76 362.34,315.00 332.11,315.00zM298.95,307.77C300.23,307.53 300.55,305.32 300.78,295.04C300.94,288.21 300.83,282.00 300.55,281.26C300.15,280.23 299.55,280.17 298.01,280.99C296.16,281.98 296.00,283.06 296.00,294.37C296.00,301.13 296.32,306.98 296.70,307.37C297.09,307.75 298.10,307.94 298.95,307.77zM363.25,307.81C366.50,307.50 366.50,307.50 366.78,294.74C367.06,281.97 367.06,281.97 364.54,281.01C363.15,280.49 361.29,280.34 360.39,280.68C359.09,281.18 358.89,282.19 359.38,285.79C359.72,288.26 360.00,294.29 360.00,299.20C360.00,308.13 360.00,308.13 363.25,307.81zM342.25,306.80C347.18,306.52 347.52,306.33 347.82,303.69C348.00,302.14 347.61,300.23 346.95,299.44C346.29,298.65 344.31,298.00 342.54,298.00C340.06,298.00 339.05,298.59 338.16,300.55C337.52,301.95 337.00,304.00 337.00,305.10C337.00,306.89 337.56,307.07 342.25,306.80zM342.62,296.00C343.30,296.00 344.57,295.29 345.44,294.42C346.30,293.55 347.50,291.94 348.09,290.83C348.87,289.37 348.84,288.02 347.96,285.90C347.29,284.29 345.73,282.72 344.49,282.41C343.26,282.10 340.95,281.99 339.37,282.17C337.16,282.42 336.56,282.96 336.77,284.50C336.91,285.60 337.31,288.07 337.64,290.00C337.97,291.93 338.95,294.06 339.81,294.75C340.68,295.44 341.94,296.00 342.62,296.00zM335.03,246.00C298.11,246.00 292.15,245.79 290.22,244.44C288.00,242.89 288.00,242.89 288.00,178.01C288.00,139.12 288.38,112.12 288.96,110.61C289.48,109.23 291.26,107.40 292.91,106.55C295.46,105.23 301.65,105.00 334.90,105.00C360.50,105.00 374.71,105.37 376.26,106.07C377.55,106.66 379.13,107.98 379.77,109.00C380.61,110.35 381.01,129.00 381.21,177.01C381.49,241.51 381.45,243.20 379.56,244.58C377.95,245.75 370.23,246.00 335.03,246.00zM336.22,228.19C339.67,227.94 342.83,227.24 343.23,226.62C343.64,226.00 343.97,225.28 343.97,225.00C343.97,224.72 343.64,224.01 343.23,223.40C342.83,222.80 339.68,222.02 336.22,221.67C330.24,221.06 329.89,221.14 328.83,223.48C328.00,225.29 328.00,226.30 328.82,227.29C329.62,228.25 331.73,228.51 336.22,228.19zM308.61,228.00C312.61,228.00 316.16,227.55 316.51,226.99C316.85,226.44 316.86,225.13 316.53,224.09C316.20,223.05 314.76,221.90 313.32,221.55C311.89,221.19 308.31,221.19 305.36,221.56C300.69,222.14 300.00,222.52 300.00,224.45C300.00,225.67 300.30,226.97 300.67,227.33C301.03,227.70 304.61,228.00 308.61,228.00zM363.33,227.79C370.50,227.50 370.50,227.50 370.50,224.50C370.50,221.50 370.50,221.50 363.37,221.21C357.45,220.97 356.14,221.20 355.60,222.60C355.25,223.52 355.23,225.14 355.56,226.18C356.09,227.86 357.02,228.05 363.33,227.79zM126.61,221.00C126.39,221.00 125.92,214.14 125.56,205.75C125.20,197.36 125.31,184.88 125.81,178.00C126.65,166.39 126.72,167.46 126.86,193.25C126.94,208.51 126.82,221.00 126.61,221.00zM337.00,215.29C340.02,215.00 342.88,214.43 343.33,214.00C343.79,213.58 344.02,212.17 343.83,210.87C343.53,208.74 342.81,208.42 336.61,207.67C331.26,207.03 329.53,207.14 328.87,208.17C328.41,208.90 328.02,210.70 328.02,212.18C328.01,213.89 328.63,215.03 329.75,215.33C330.71,215.59 333.98,215.57 337.00,215.29zM363.24,215.20C366.68,214.97 370.09,214.31 370.80,213.73C371.52,213.15 371.97,211.51 371.80,210.09C371.51,207.55 371.36,207.50 363.50,207.50C355.50,207.50 355.50,207.50 355.18,210.90C355.00,212.76 355.33,214.59 355.92,214.95C356.50,215.31 359.80,215.42 363.24,215.20zM307.90,215.00C314.81,215.00 316.07,214.73 316.96,213.07C317.53,212.01 317.73,210.47 317.42,209.65C317.10,208.83 316.32,207.99 315.67,207.80C315.03,207.60 311.35,207.46 307.50,207.47C300.50,207.50 300.50,207.50 300.19,211.25C299.88,215.00 299.88,215.00 307.90,215.00zM337.50,200.31C340.25,200.00 342.88,199.41 343.33,198.99C343.79,198.57 344.02,197.17 343.83,195.87C343.52,193.62 343.13,193.50 336.00,193.50C328.56,193.50 328.50,193.52 328.18,196.26C327.94,198.37 328.41,199.23 330.18,199.94C331.46,200.46 334.75,200.62 337.50,200.31zM308.01,200.00C313.38,200.00 315.04,199.61 316.47,198.04C317.44,196.96 317.98,195.38 317.65,194.54C317.19,193.32 315.28,193.00 308.53,193.00C300.00,193.00 300.00,193.00 300.00,195.83C300.00,197.39 300.30,198.97 300.67,199.33C301.03,199.70 304.34,200.00 308.01,200.00zM362.85,200.00C367.67,200.00 370.12,199.56 370.96,198.55C371.62,197.75 372.01,196.29 371.82,195.30C371.52,193.75 370.38,193.50 363.50,193.50C356.60,193.50 355.48,193.74 355.18,195.31C354.99,196.30 355.08,197.77 355.38,198.56C355.79,199.62 357.75,200.00 362.85,200.00zM329.07,176.00C329.45,176.00 330.31,175.33 330.99,174.51C331.67,173.69 331.96,172.34 331.64,171.51C331.32,170.68 329.91,170.00 328.50,170.00C327.04,170.00 325.66,170.71 325.31,171.64C324.92,172.65 325.39,173.81 326.53,174.64C327.55,175.39 328.69,176.00 329.07,176.00zM361.56,172.97C362.14,172.99 363.47,172.37 364.52,171.61C366.14,170.43 366.22,169.97 365.09,168.61C364.36,167.72 362.95,167.00 361.96,167.00C360.97,167.00 359.45,167.27 358.58,167.61C357.71,167.94 357.00,168.82 357.00,169.56C357.00,170.30 357.79,171.36 358.75,171.92C359.71,172.48 360.98,172.95 361.56,172.97zM362.41,149.00C363.70,149.00 365.29,148.35 365.95,147.56C366.83,146.50 366.85,145.60 366.03,144.06C365.43,142.93 364.08,142.00 363.04,142.00C361.99,142.00 360.44,142.71 359.57,143.57C358.39,144.75 358.26,145.61 359.04,147.07C359.61,148.13 361.12,149.00 362.41,149.00zM305.59,148.00C307.85,148.00 309.28,147.44 309.68,146.40C310.01,145.52 309.66,144.40 308.90,143.91C308.13,143.43 306.54,143.02 305.37,143.02C304.20,143.01 302.70,143.66 302.04,144.46C301.37,145.26 301.12,146.38 301.47,146.96C301.83,147.53 303.68,148.00 305.59,148.00zM326.50,128.00C327.74,128.00 329.28,127.37 329.91,126.61C330.81,125.53 330.70,124.85 329.46,123.61C328.58,122.72 327.04,122.00 326.05,122.00C325.06,122.00 323.68,122.67 323.00,123.50C322.01,124.70 322.01,125.30 323.00,126.50C323.68,127.33 325.26,128.00 326.50,128.00zM343.20,128.00C344.88,128.00 346.31,127.35 346.67,126.42C347.00,125.55 346.58,124.15 345.72,123.29C344.69,122.26 343.30,121.96 341.58,122.39C339.99,122.79 339.00,123.74 339.00,124.85C339.00,125.85 339.30,126.97 339.67,127.33C340.03,127.70 341.62,128.00 343.20,128.00z" />

</svg>