<?xml version="1.0" encoding="UTF-8" standalone="no"?>
<svg
   version="1.1"
   viewBox="0 0 544 416"
   width="544"
   height="416"
   id="svg11"
   sodipodi:docname="12.svg"
   inkscape:version="1.1.2 (0a00cf5339, 2022-02-04)"
   xmlns:inkscape="http://www.inkscape.org/namespaces/inkscape"
   xmlns:sodipodi="http://sodipodi.sourceforge.net/DTD/sodipodi-0.dtd"
   xmlns="http://www.w3.org/2000/svg"
   xmlns:svg="http://www.w3.org/2000/svg"
   xmlns:rdf="http://www.w3.org/1999/02/22-rdf-syntax-ns#"
   xmlns:cc="http://creativecommons.org/ns#"
   xmlns:dc="http://purl.org/dc/elements/1.1/"><defs
   id="defs15">
  <style
     id="style1341">.cls-1{fill-rule:evenodd;}</style>
</defs>
<sodipodi:namedview
   id="namedview13"
   pagecolor="#ffffff"
   bordercolor="#666666"
   borderopacity="1.0"
   inkscape:pageshadow="2"
   inkscape:pageopacity="0.0"
   inkscape:pagecheckerboard="0"
   showgrid="false"
   inkscape:zoom="1.3808888"
   inkscape:cx="228.11395"
   inkscape:cy="78.572582"
   inkscape:window-width="1862"
   inkscape:window-height="1016"
   inkscape:window-x="58"
   inkscape:window-y="27"
   inkscape:window-maximized="1"
   inkscape:current-layer="svg11" />
<style
   id="style2">svg {background-color: white; }</style>

&quot;
<metadata
   id="metadata1">
Created by https://svgstud.io and licensed under CC-BY-SA 4.0 license. Please attribute https://svgstud.io
</metadata>
<metadata
   id="prompt">
scd40 sensirion sensor
</metadata>
<metadata
   id="version">
7
</metadata>
<metadata
   id="metadata2">
  <rdf:RDF>
    <cc:Work
       rdf:about="">
      <cc:license
         rdf:resource="http://creativecommons.org/licenses/by-sa/4.0/" />
      <dc:creator>
        <cc:Agent>
          <dc:title>https://svgstud.io</dc:title>
        </cc:Agent>
      </dc:creator>
    </cc:Work>
    <cc:License
       rdf:about="http://creativecommons.org/licenses/by-sa/4.0/">
      <cc:permits
         rdf:resource="http://creativecommons.org/ns#Reproduction" />
      <cc:permits
         rdf:resource="http://creativecommons.org/ns#Distribution" />
      <cc:requires
         rdf:resource="http://creativecommons.org/ns#Notice" />
      <cc:requires
         rdf:resource="http://creativecommons.org/ns#Attribution" />
      <cc:permits
         rdf:resource="http://creativecommons.org/ns#DerivativeWorks" />
      <cc:requires
         rdf:resource="http://creativecommons.org/ns#ShareAlike" />
    </cc:License>
  </rdf:RDF>
</metadata>
<metadata
   id="uid">
b1f90469bcb26ab2b87744b8479f499a1605eed8edb413afdfdea58939396dc2
</metadata>
<path
   stroke="none"
   fill="#000000"
   fill-rule="evenodd"
   d="m 343.70289,386.23974 c -28.88,0.18 -81.07,0.09 -116,-0.21 -61.74,-0.53 -63.6,-0.61 -67,-2.6 -1.92,-1.13 -4.51,-3.56 -5.75,-5.4 -1.24,-1.84 -2.25,-4.62 -2.25,-6.18 0,-1.72 1.15,-4.12 2.92,-6.1 2.91,-3.27 2.91,-3.27 34.5,-3.57 31.58,-0.31 31.58,-0.31 31.58,-8.75 0,-4.65 -0.24,-8.45 -0.54,-8.45 -0.3,0 -1.91,1.01 -3.59,2.25 -3.04,2.25 -3.04,2.25 -48.81,2.25 -45.76,0 -45.76,0 -52.57,-3.5 -3.99,-2.05 -8.1,-5.1 -9.9,-7.34 -3.09,-3.85 -3.09,-3.85 -3.38,-131.5 -0.16,-70.21 -0.03,-129.069996 0.28,-130.799996 0.31,-1.72 1.78,-4.36 3.27,-5.85 1.49,-1.49 4.52,-3.68 6.73,-4.86 4.01,-2.15 4.01,-2.15 159.01,-2.15 155,0 155,0 160.8,2.85 3.76,1.85 6.65,4.13 8.21,6.5 2.41,3.65 2.41,3.65 2.55,132.779996 0.09,88.29 -0.19,129.75 -0.91,131.09 -0.57,1.07 -2.92,3.64 -5.21,5.71 -2.29,2.07 -5.8,4.51 -7.8,5.42 -3.12,1.41 -7.84,1.65 -33.18,1.65 -26.46,0 -29.83,-0.18 -32.22,-1.75 -1.47,-0.96 -2.91,-1.75 -3.2,-1.75 -0.3,0 -0.54,3.09 -0.54,6.88 0,4.28 0.47,7.26 1.25,7.91 0.73,0.6 9.71,1.19 21.75,1.41 14.93,0.28 21.27,0.76 23.32,1.79 1.56,0.77 3.47,2.64 4.25,4.16 0.79,1.51 1.43,3.7 1.43,4.85 0,1.15 -0.66,3.38 -1.48,4.95 -0.81,1.57 -2.94,3.76 -4.75,4.87 -1.8,1.11 -4.84,2.26 -6.77,2.56 -1.93,0.31 -27.12,0.7 -56,0.88 z m -16.04,-8.26 c 13.06,0 15.64,-0.27 18.97,-1.97 2.72,-1.38 4.52,-3.33 6.11,-6.6 1.99,-4.13 2.18,-5.65 1.66,-13.65 -0.32,-4.95 -0.86,-9.27 -1.19,-9.6 -0.33,-0.34 -1.37,-0.13 -2.31,0.46 -1.31,0.82 -1.82,3.02 -2.2,9.46 -0.5,8.4 -0.5,8.4 -11,8.9 -5.77,0.27 -11.18,0.93 -12,1.45 -0.82,0.53 -3.98,2.96 -7,5.4 -3.02,2.45 -5.65,4.83 -5.83,5.3 -0.19,0.47 6.47,0.85 14.79,0.85 z m -51.28,-44.31 c 155.17,-0.19 155.17,-0.19 158,-2.3 1.55,-1.16 2.82,-2.85 2.82,-3.76 0,-1.53 -12.02,-1.65 -162.91,-1.65 -89.61,0.01 -163.11,0.21 -163.34,0.44 -0.24,0.24 -0.14,1.36 0.22,2.49 0.43,1.36 2.27,2.56 5.34,3.52 4.02,1.24 26.76,1.42 159.87,1.26 z m 148.18,-15.58 c 1.12,-0.71 1.47,-21.65 2.03,-122.24 0.66,-118.669996 0.64,-121.409996 -1.23,-123.129996 -1.81,-1.67 -9.86,-1.75 -152.68,-1.5 -147.25,0.25 -150.82,0.3 -152.9,2.19 -1.45,1.31 -1.8,2.25 -1.1,2.95 0.64,0.64 1.02,10.98 1.02,28.159996 7.15296,280.61953 -23.287896,196.95549 304.86,213.57 z"
   id="path9"
   sodipodi:nodetypes="sccssccsscsccccscsccccscscssccccscccssccccccccccsccscsccccccccscc" />
<circle
   id="path949"
   style="fill:#008000;stroke:#ff0000"
   cx="169.93179"
   cy="156.6389"
   r="0.018228589" />
<path
   class="cls-1"
   d="m 243.16502,250.2593 v 10.74 c 0,21.68 9.63,32.29 31.73,35 v 21.64 h 16.16 v -21.92 c 21.88,-2.1 31.73,-15 31.73,-36 v -9.46 h 3.16 a 5.12,5.12 0 0 0 5.11,-5.11 v -5.91 a 5.12,5.12 0 0 0 -5.1,-5.11 h -15.17 v -31.33 a 8.11,8.11 0 0 0 -8.09,-8.08 v 0 a 8.11,8.11 0 0 0 -8.08,8.08 v 31.33 h -23.72 v -31.33 a 8.11,8.11 0 0 0 -8.08,-8.08 v 0 a 8.1,8.1 0 0 0 -8.08,8.08 v 31.33 h -15.58 a 5.12,5.12 0 0 0 -5.1,5.11 v 5.91 a 5.12,5.12 0 0 0 5.1,5.11 z m 42.81,9.1 h 4.62 a 1.22,1.22 0 0 1 1.21,1.22 1.16,1.16 0 0 1 -0.21,0.67 l -11,18.79 a 1.21,1.21 0 0 1 -2.25,-0.63 1,1 0 0 1 0,-0.24 l 1.62,-11.53 -5.44,0.08 v 0 a 1.2,1.2 0 0 1 -1.21,-1.18 v 0 a 1.26,1.26 0 0 1 0.16,-0.63 l 10.82,-18.78 a 1.21,1.21 0 0 1 2.25,0.62 0.81,0.81 0 0 1 0,0.16 l -0.56,11.45 z"
   id="path1347"
   style="fill:#aa0000" />
<text
   xml:space="preserve"
   style="font-size:20px;line-height:1.25;font-family:NTR;-inkscape-font-specification:NTR;letter-spacing:0px;word-spacing:0px"
   x="153.21437"
   y="120.58427"
   id="text3324"><tspan
     sodipodi:role="line"
     id="tspan3322"
     x="153.21437"
     y="120.58427">Any IOT service that logs energy </tspan><tspan
     sodipodi:role="line"
     x="153.21437"
     y="145.58427"
     id="tspan3326">consumption such as PZEM04xxx</tspan></text>
</svg>
