<?xml version="1.0" encoding="UTF-8" standalone="no"?>
<!-- Created with Inkscape (http://www.inkscape.org/) -->

<svg
   xmlns:dc="http://purl.org/dc/elements/1.1/"
   xmlns:cc="http://creativecommons.org/ns#"
   xmlns:rdf="http://www.w3.org/1999/02/22-rdf-syntax-ns#"
   xmlns:svg="http://www.w3.org/2000/svg"
   xmlns="http://www.w3.org/2000/svg"
   xmlns:sodipodi="http://sodipodi.sourceforge.net/DTD/sodipodi-0.dtd"
   xmlns:inkscape="http://www.inkscape.org/namespaces/inkscape"
   width="105mm"
   height="74mm"
   viewBox="0 0 105 74"
   version="1.1"
   id="svg12118"
   inkscape:version="0.92.3 (2405546, 2018-03-11)"
   sodipodi:docname="cale-timetree.svg">
  <defs
     id="defs12112">
    <path
       d="M696.53,160.738c0-23.307-14.913-43.087-35.719-50.454V53.579C660.811,23.977,636.834,0,607.231,0H89.299      C59.696,0,35.719,23.977,35.719,53.579l0.134,56.615C15.002,117.517,0,137.341,0,160.738c0,2.5,0.179,4.956,0.491,7.322      l35.228,224.854l0,0L17.994,621.385c-0.089,1.25-0.134,2.456-0.134,3.706c0,29.603,23.977,53.579,53.579,53.579h553.652      c29.603,0,53.579-23.977,53.579-53.579c0-1.25-0.045-2.456-0.134-3.706l-17.726-228.471l35.228-224.854      C696.352,165.694,696.53,163.238,696.53,160.738z"
       id="SVGID_1_" />
    <path
       d="M696.53,160.738c0-23.307-14.913-43.087-35.719-50.454V53.579C660.811,23.977,636.834,0,607.231,0H89.299      C59.696,0,35.719,23.977,35.719,53.579l0.134,56.615C15.002,117.517,0,137.341,0,160.738c0,2.5,0.179,4.956,0.491,7.322      l35.228,224.854l0,0L17.994,621.385c-0.089,1.25-0.134,2.456-0.134,3.706c0,29.603,23.977,53.579,53.579,53.579h553.652      c29.603,0,53.579-23.977,53.579-53.579c0-1.25-0.045-2.456-0.134-3.706l-17.726-228.471l35.228-224.854      C696.352,165.694,696.53,163.238,696.53,160.738z"
       id="SVGID_3_" />
    <path
       d="M696.53,160.738c0-23.307-14.913-43.087-35.719-50.454V53.579C660.811,23.977,636.834,0,607.231,0H89.299      C59.696,0,35.719,23.977,35.719,53.579l0.134,56.615C15.002,117.517,0,137.341,0,160.738c0,2.5,0.179,4.956,0.491,7.322      l35.228,224.854l0,0L17.994,621.385c-0.089,1.25-0.134,2.456-0.134,3.706c0,29.603,23.977,53.579,53.579,53.579h553.652      c29.603,0,53.579-23.977,53.579-53.579c0-1.25-0.045-2.456-0.134-3.706l-17.726-228.471l35.228-224.854      C696.352,165.694,696.53,163.238,696.53,160.738z"
       id="SVGID_5_" />
    <path
       d="M696.53,160.738c0-23.307-14.913-43.087-35.719-50.454V53.579C660.811,23.977,636.834,0,607.231,0H89.299      C59.696,0,35.719,23.977,35.719,53.579l0.134,56.615C15.002,117.517,0,137.341,0,160.738c0,2.5,0.179,4.956,0.491,7.322      l35.228,224.854l0,0L17.994,621.385c-0.089,1.25-0.134,2.456-0.134,3.706c0,29.603,23.977,53.579,53.579,53.579h553.652      c29.603,0,53.579-23.977,53.579-53.579c0-1.25-0.045-2.456-0.134-3.706l-17.726-228.471l35.228-224.854      C696.352,165.694,696.53,163.238,696.53,160.738z"
       id="SVGID_7_" />
    <path
       d="M696.53,160.738c0-23.307-14.913-43.087-35.719-50.454V53.579C660.811,23.977,636.834,0,607.231,0      H89.299C59.696,0,35.719,23.977,35.719,53.579l0.134,56.615C15.002,117.517,0,137.341,0,160.738c0,2.5,0.179,4.956,0.491,7.322      l35.228,224.854l0,0L17.994,621.385c-0.089,1.25-0.134,2.456-0.134,3.706c0,29.603,23.977,53.579,53.579,53.579h553.652      c29.603,0,53.579-23.977,53.579-53.579c0-1.25-0.045-2.456-0.134-3.706l-17.726-228.471l35.228-224.854      C696.352,165.694,696.53,163.238,696.53,160.738z"
       id="SVGID_10_" />
    <path
       d="M696.53,160.738c0-23.307-14.913-43.087-35.719-50.454V53.579C660.811,23.977,636.834,0,607.231,0      H89.299C59.696,0,35.719,23.977,35.719,53.579l0.134,56.615C15.002,117.517,0,137.341,0,160.738c0,2.5,0.179,4.956,0.491,7.322      l35.228,224.854l0,0L17.994,621.385c-0.089,1.25-0.134,2.456-0.134,3.706c0,29.603,23.977,53.579,53.579,53.579h553.652      c29.603,0,53.579-23.977,53.579-53.579c0-1.25-0.045-2.456-0.134-3.706l-17.726-228.471l35.228-224.854      C696.352,165.694,696.53,163.238,696.53,160.738z"
       id="SVGID_12_" />
    <path
       d="M696.53,160.738c0-23.307-14.913-43.087-35.719-50.454V53.579C660.811,23.977,636.834,0,607.231,0      H89.299C59.696,0,35.719,23.977,35.719,53.579l0.134,56.615C15.002,117.517,0,137.341,0,160.738c0,2.5,0.179,4.956,0.491,7.322      l35.228,224.854l0,0L17.994,621.385c-0.089,1.25-0.134,2.456-0.134,3.706c0,29.603,23.977,53.579,53.579,53.579h553.652      c29.603,0,53.579-23.977,53.579-53.579c0-1.25-0.045-2.456-0.134-3.706l-17.726-228.471l35.228-224.854      C696.352,165.694,696.53,163.238,696.53,160.738z"
       id="SVGID_14_" />
    <path
       d="M696.53,160.738c0-23.307-14.913-43.087-35.719-50.454V53.579C660.811,23.977,636.834,0,607.231,0      H89.299C59.696,0,35.719,23.977,35.719,53.579l0.134,56.615C15.002,117.517,0,137.341,0,160.738c0,2.5,0.179,4.956,0.491,7.322      l35.228,224.854l0,0L17.994,621.385c-0.089,1.25-0.134,2.456-0.134,3.706c0,29.603,23.977,53.579,53.579,53.579h553.652      c29.603,0,53.579-23.977,53.579-53.579c0-1.25-0.045-2.456-0.134-3.706l-17.726-228.471l35.228-224.854      C696.352,165.694,696.53,163.238,696.53,160.738z"
       id="SVGID_16_" />
    <path
       d="M642.951,107.158H53.579C23.977,107.158,0,131.135,0,160.738c0,2.5,0.179,4.956,0.491,7.322        l35.228,224.854h625.091l35.228-224.854c0.313-2.411,0.491-4.867,0.491-7.322C696.53,131.135,672.553,107.158,642.951,107.158        z"
       id="SVGID_18_" />
    <path
       d="M696.53,160.738c0-23.307-14.913-43.087-35.719-50.454V53.579C660.811,23.977,636.834,0,607.231,0      H89.299C59.696,0,35.719,23.977,35.719,53.579l0.134,56.615C15.002,117.517,0,137.341,0,160.738c0,2.5,0.179,4.956,0.491,7.322      l35.228,224.854l0,0L17.994,621.385c-0.089,1.25-0.134,2.456-0.134,3.706c0,29.603,23.977,53.579,53.579,53.579h553.652      c29.603,0,53.579-23.977,53.579-53.579c0-1.25-0.045-2.456-0.134-3.706l-17.726-228.471l35.228-224.854      C696.352,165.694,696.53,163.238,696.53,160.738z"
       id="SVGID_20_" />
    <path
       d="M678.536,621.385l-17.726-228.471H35.719L17.994,621.385c-0.089,1.25-0.134,2.456-0.134,3.706        c0,29.603,23.977,53.579,53.579,53.579h553.652c29.603,0,53.579-23.977,53.579-53.579        C678.67,623.841,678.626,622.635,678.536,621.385z"
       id="SVGID_22_" />
    <path
       d="M696.53,160.738c0-23.307-14.913-43.087-35.719-50.454V53.579C660.811,23.977,636.834,0,607.231,0      H89.299C59.696,0,35.719,23.977,35.719,53.579l0.134,56.615C15.002,117.517,0,137.341,0,160.738c0,2.5,0.179,4.956,0.491,7.322      l35.228,224.854l0,0L17.994,621.385c-0.089,1.25-0.134,2.456-0.134,3.706c0,29.603,23.977,53.579,53.579,53.579h553.652      c29.603,0,53.579-23.977,53.579-53.579c0-1.25-0.045-2.456-0.134-3.706l-17.726-228.471l35.228-224.854      C696.352,165.694,696.53,163.238,696.53,160.738z"
       id="SVGID_24_" />
    <path
       d="M696.53,160.738c0-23.307-14.913-43.087-35.719-50.454V53.579C660.811,23.977,636.834,0,607.231,0      H89.299C59.696,0,35.719,23.977,35.719,53.579l0.134,56.615C15.002,117.517,0,137.341,0,160.738c0,2.5,0.179,4.956,0.491,7.322      l35.228,224.854l0,0L17.994,621.385c-0.089,1.25-0.134,2.456-0.134,3.706c0,29.603,23.977,53.579,53.579,53.579h553.652      c29.603,0,53.579-23.977,53.579-53.579c0-1.25-0.045-2.456-0.134-3.706l-17.726-228.471l35.228-224.854      C696.352,165.694,696.53,163.238,696.53,160.738z"
       id="SVGID_27_" />
    <path
       d="M696.53,160.738c0-23.307-14.913-43.087-35.719-50.454V53.579C660.811,23.977,636.834,0,607.231,0      H89.299C59.696,0,35.719,23.977,35.719,53.579l0.134,56.615C15.002,117.517,0,137.341,0,160.738c0,2.5,0.179,4.956,0.491,7.322      l35.228,224.854l0,0L17.994,621.385c-0.089,1.25-0.134,2.456-0.134,3.706c0,29.603,23.977,53.579,53.579,53.579h553.652      c29.603,0,53.579-23.977,53.579-53.579c0-1.25-0.045-2.456-0.134-3.706l-17.726-228.471l35.228-224.854      C696.352,165.694,696.53,163.238,696.53,160.738z"
       id="SVGID_29_" />
  </defs>
  <sodipodi:namedview
     id="base"
     pagecolor="#ffffff"
     bordercolor="#666666"
     borderopacity="1.0"
     inkscape:pageopacity="0.0"
     inkscape:pageshadow="2"
     inkscape:zoom="1.6155556"
     inkscape:cx="58.483397"
     inkscape:cy="137.23493"
     inkscape:document-units="px"
     inkscape:current-layer="layer1"
     showgrid="false"
     inkscape:window-width="1748"
     inkscape:window-height="1079"
     inkscape:window-x="95"
     inkscape:window-y="55"
     inkscape:window-maximized="0"
     showguides="true"
     inkscape:guide-bbox="true">
    <sodipodi:guide
       position="67.742455,61.812143"
       orientation="0,1"
       id="guide12694"
       inkscape:locked="false" />
    <sodipodi:guide
       position="12.544899,47.214442"
       orientation="1,0"
       id="guide12696"
       inkscape:locked="false" />
  </sodipodi:namedview>
  <metadata
     id="metadata12115">
    <rdf:RDF>
      <cc:Work
         rdf:about="">
        <dc:format>image/svg+xml</dc:format>
        <dc:type
           rdf:resource="http://purl.org/dc/dcmitype/StillImage" />
        <dc:title></dc:title>
      </cc:Work>
    </rdf:RDF>
  </metadata>
  <g
     inkscape:groupmode="layer"
     id="layer2"
     inkscape:label="backg"
     sodipodi:insensitive="true">
    <rect
       style="fill:#ffffff;stroke:#f9f9f9;stroke-width:0.5291667;stroke-miterlimit:10;stroke-dasharray:none;stroke-opacity:1"
       id="rect2940"
       width="100.22869"
       height="71.077194"
       x="2.4565856"
       y="1.2850778" />
  </g>
  <g
     inkscape:label="Layer 1"
     inkscape:groupmode="layer"
     id="layer1"
     transform="translate(0,-223)">
    <text
       xml:space="preserve"
       style="font-style:normal;font-weight:normal;font-size:10.58333397px;line-height:1.25;font-family:sans-serif;letter-spacing:0px;word-spacing:0px;fill:#2fcc87;fill-opacity:1;stroke:none;stroke-width:0.26458335;"
       x="12.282924"
       y="245.17796"
       id="text3416"><tspan
         sodipodi:role="line"
         id="tspan3414"
         x="12.282924"
         y="245.17796"
         style="font-style:normal;font-variant:normal;font-weight:normal;font-stretch:normal;font-size:19.75555611px;font-family:Ubuntu;-inkscape-font-specification:Ubuntu;stroke-width:0.26458335;fill:#2fcc87;fill-opacity:1;">TimeTree</tspan></text>
    <path
       style="fill:#2fcc87;fill-opacity:1;stroke:#000000;stroke-width:0.26458335px;stroke-linecap:butt;stroke-linejoin:miter;stroke-opacity:1"
       d="m 43.235899,254.17353 c 0,0 12.856131,1.96527 11.341236,14.86234 0,0 -12.29968,0.16577 -11.341236,-14.86234 z"
       id="path3485"
       inkscape:connector-curvature="0"
       sodipodi:nodetypes="ccc" />
    <path
       style="fill:#2fcc87;fill-opacity:1;stroke:none;stroke-width:0.1158875;stroke-miterlimit:10;stroke-dasharray:none;stroke-opacity:1"
       d="m 53.9859,268.85264 c -1.072097,-0.0931 -2.421054,-0.40722 -3.410988,-0.79429 -1.64547,-0.64339 -2.823368,-1.42076 -3.972292,-2.62155 -0.744847,-0.77847 -1.249217,-1.50315 -1.76606,-2.53747 -0.800031,-1.60103 -1.229791,-3.19818 -1.417804,-5.2691 -0.06079,-0.66957 -0.08114,-3.27148 -0.02558,-3.27148 0.01778,0 0.336973,0.0773 0.709303,0.17176 3.024812,0.76749 5.737934,2.3344 7.522726,4.34462 1.197851,1.34914 2.049468,2.95371 2.504612,4.71903 0.303363,1.17663 0.374803,1.82635 0.375626,3.41624 7.94e-4,1.57074 -0.03122,1.88767 -0.189224,1.87208 -0.05429,-0.005 -0.202931,-0.0188 -0.330314,-0.0298 z"
       id="path3487"
       inkscape:connector-curvature="0" />
    <path
       style="fill:#2fcc87;fill-opacity:1;stroke:#000000;stroke-width:0.26458335px;stroke-linecap:butt;stroke-linejoin:miter;stroke-opacity:1"
       d="m 56.494451,269.12061 c 0,0 -2.663505,-10.2487 9.66968,-13.37542 0.579025,11.29094 -9.66968,13.37542 -9.66968,13.37542 z"
       id="path3489"
       inkscape:connector-curvature="0" />
    <path
       style="fill:#2fcc87;fill-opacity:1;stroke:#000000;stroke-width:0.26458335px;stroke-linecap:butt;stroke-linejoin:miter;stroke-opacity:1"
       d="m 56.957668,270.74188 c 0,0 8.164221,-4.22687 13.25962,4.57428 0,0 -7.932611,4.28477 -13.25962,-4.57428 z"
       id="path3491"
       inkscape:connector-curvature="0" />
    <path
       style="fill:#2fcc87;fill-opacity:1;stroke:#000000;stroke-width:0.26458335px;stroke-linecap:butt;stroke-linejoin:miter;stroke-opacity:1"
       d="m 55.510111,271.89992 c 0,0 6.485054,6.25345 0.463219,13.72284 0,0 -6.948273,-5.90604 -0.463219,-13.72284 z"
       id="path3493"
       inkscape:connector-curvature="0" />
    <path
       style="fill:#2fcc87;fill-opacity:1;stroke:#000000;stroke-width:0.26458335px;stroke-linecap:butt;stroke-linejoin:miter;stroke-opacity:1"
       d="m 54.120459,270.97349 c 0,0 -8.743244,-6.31135 -15.865225,5.55861 0,0 10.306609,5.26912 15.865225,-5.55861 z"
       id="path3495"
       inkscape:connector-curvature="0" />
  </g>
</svg>
