<?xml version="1.0" encoding="UTF-8" standalone="no"?>
<!-- Created with Inkscape (http://www.inkscape.org/) -->

<svg
   xmlns:dc="http://purl.org/dc/elements/1.1/"
   xmlns:cc="http://creativecommons.org/ns#"
   xmlns:rdf="http://www.w3.org/1999/02/22-rdf-syntax-ns#"
   xmlns:svg="http://www.w3.org/2000/svg"
   xmlns="http://www.w3.org/2000/svg"
   xmlns:sodipodi="http://sodipodi.sourceforge.net/DTD/sodipodi-0.dtd"
   xmlns:inkscape="http://www.inkscape.org/namespaces/inkscape"
   width="105mm"
   height="74mm"
   viewBox="0 0 105 74"
   version="1.1"
   id="svg12118"
   inkscape:version="0.92.3 (2405546, 2018-03-11)"
   sodipodi:docname="cale-ical.svg">
  <defs
     id="defs12112">
    <path
       d="M696.53,160.738c0-23.307-14.913-43.087-35.719-50.454V53.579C660.811,23.977,636.834,0,607.231,0H89.299      C59.696,0,35.719,23.977,35.719,53.579l0.134,56.615C15.002,117.517,0,137.341,0,160.738c0,2.5,0.179,4.956,0.491,7.322      l35.228,224.854l0,0L17.994,621.385c-0.089,1.25-0.134,2.456-0.134,3.706c0,29.603,23.977,53.579,53.579,53.579h553.652      c29.603,0,53.579-23.977,53.579-53.579c0-1.25-0.045-2.456-0.134-3.706l-17.726-228.471l35.228-224.854      C696.352,165.694,696.53,163.238,696.53,160.738z"
       id="SVGID_1_" />
    <path
       d="M696.53,160.738c0-23.307-14.913-43.087-35.719-50.454V53.579C660.811,23.977,636.834,0,607.231,0H89.299      C59.696,0,35.719,23.977,35.719,53.579l0.134,56.615C15.002,117.517,0,137.341,0,160.738c0,2.5,0.179,4.956,0.491,7.322      l35.228,224.854l0,0L17.994,621.385c-0.089,1.25-0.134,2.456-0.134,3.706c0,29.603,23.977,53.579,53.579,53.579h553.652      c29.603,0,53.579-23.977,53.579-53.579c0-1.25-0.045-2.456-0.134-3.706l-17.726-228.471l35.228-224.854      C696.352,165.694,696.53,163.238,696.53,160.738z"
       id="SVGID_3_" />
    <path
       d="M696.53,160.738c0-23.307-14.913-43.087-35.719-50.454V53.579C660.811,23.977,636.834,0,607.231,0H89.299      C59.696,0,35.719,23.977,35.719,53.579l0.134,56.615C15.002,117.517,0,137.341,0,160.738c0,2.5,0.179,4.956,0.491,7.322      l35.228,224.854l0,0L17.994,621.385c-0.089,1.25-0.134,2.456-0.134,3.706c0,29.603,23.977,53.579,53.579,53.579h553.652      c29.603,0,53.579-23.977,53.579-53.579c0-1.25-0.045-2.456-0.134-3.706l-17.726-228.471l35.228-224.854      C696.352,165.694,696.53,163.238,696.53,160.738z"
       id="SVGID_5_" />
    <path
       d="M696.53,160.738c0-23.307-14.913-43.087-35.719-50.454V53.579C660.811,23.977,636.834,0,607.231,0H89.299      C59.696,0,35.719,23.977,35.719,53.579l0.134,56.615C15.002,117.517,0,137.341,0,160.738c0,2.5,0.179,4.956,0.491,7.322      l35.228,224.854l0,0L17.994,621.385c-0.089,1.25-0.134,2.456-0.134,3.706c0,29.603,23.977,53.579,53.579,53.579h553.652      c29.603,0,53.579-23.977,53.579-53.579c0-1.25-0.045-2.456-0.134-3.706l-17.726-228.471l35.228-224.854      C696.352,165.694,696.53,163.238,696.53,160.738z"
       id="SVGID_7_" />
    <path
       d="M696.53,160.738c0-23.307-14.913-43.087-35.719-50.454V53.579C660.811,23.977,636.834,0,607.231,0      H89.299C59.696,0,35.719,23.977,35.719,53.579l0.134,56.615C15.002,117.517,0,137.341,0,160.738c0,2.5,0.179,4.956,0.491,7.322      l35.228,224.854l0,0L17.994,621.385c-0.089,1.25-0.134,2.456-0.134,3.706c0,29.603,23.977,53.579,53.579,53.579h553.652      c29.603,0,53.579-23.977,53.579-53.579c0-1.25-0.045-2.456-0.134-3.706l-17.726-228.471l35.228-224.854      C696.352,165.694,696.53,163.238,696.53,160.738z"
       id="SVGID_10_" />
    <path
       d="M696.53,160.738c0-23.307-14.913-43.087-35.719-50.454V53.579C660.811,23.977,636.834,0,607.231,0      H89.299C59.696,0,35.719,23.977,35.719,53.579l0.134,56.615C15.002,117.517,0,137.341,0,160.738c0,2.5,0.179,4.956,0.491,7.322      l35.228,224.854l0,0L17.994,621.385c-0.089,1.25-0.134,2.456-0.134,3.706c0,29.603,23.977,53.579,53.579,53.579h553.652      c29.603,0,53.579-23.977,53.579-53.579c0-1.25-0.045-2.456-0.134-3.706l-17.726-228.471l35.228-224.854      C696.352,165.694,696.53,163.238,696.53,160.738z"
       id="SVGID_12_" />
    <path
       d="M696.53,160.738c0-23.307-14.913-43.087-35.719-50.454V53.579C660.811,23.977,636.834,0,607.231,0      H89.299C59.696,0,35.719,23.977,35.719,53.579l0.134,56.615C15.002,117.517,0,137.341,0,160.738c0,2.5,0.179,4.956,0.491,7.322      l35.228,224.854l0,0L17.994,621.385c-0.089,1.25-0.134,2.456-0.134,3.706c0,29.603,23.977,53.579,53.579,53.579h553.652      c29.603,0,53.579-23.977,53.579-53.579c0-1.25-0.045-2.456-0.134-3.706l-17.726-228.471l35.228-224.854      C696.352,165.694,696.53,163.238,696.53,160.738z"
       id="SVGID_14_" />
    <path
       d="M696.53,160.738c0-23.307-14.913-43.087-35.719-50.454V53.579C660.811,23.977,636.834,0,607.231,0      H89.299C59.696,0,35.719,23.977,35.719,53.579l0.134,56.615C15.002,117.517,0,137.341,0,160.738c0,2.5,0.179,4.956,0.491,7.322      l35.228,224.854l0,0L17.994,621.385c-0.089,1.25-0.134,2.456-0.134,3.706c0,29.603,23.977,53.579,53.579,53.579h553.652      c29.603,0,53.579-23.977,53.579-53.579c0-1.25-0.045-2.456-0.134-3.706l-17.726-228.471l35.228-224.854      C696.352,165.694,696.53,163.238,696.53,160.738z"
       id="SVGID_16_" />
    <path
       d="M642.951,107.158H53.579C23.977,107.158,0,131.135,0,160.738c0,2.5,0.179,4.956,0.491,7.322        l35.228,224.854h625.091l35.228-224.854c0.313-2.411,0.491-4.867,0.491-7.322C696.53,131.135,672.553,107.158,642.951,107.158        z"
       id="SVGID_18_" />
    <path
       d="M696.53,160.738c0-23.307-14.913-43.087-35.719-50.454V53.579C660.811,23.977,636.834,0,607.231,0      H89.299C59.696,0,35.719,23.977,35.719,53.579l0.134,56.615C15.002,117.517,0,137.341,0,160.738c0,2.5,0.179,4.956,0.491,7.322      l35.228,224.854l0,0L17.994,621.385c-0.089,1.25-0.134,2.456-0.134,3.706c0,29.603,23.977,53.579,53.579,53.579h553.652      c29.603,0,53.579-23.977,53.579-53.579c0-1.25-0.045-2.456-0.134-3.706l-17.726-228.471l35.228-224.854      C696.352,165.694,696.53,163.238,696.53,160.738z"
       id="SVGID_20_" />
    <path
       d="M678.536,621.385l-17.726-228.471H35.719L17.994,621.385c-0.089,1.25-0.134,2.456-0.134,3.706        c0,29.603,23.977,53.579,53.579,53.579h553.652c29.603,0,53.579-23.977,53.579-53.579        C678.67,623.841,678.626,622.635,678.536,621.385z"
       id="SVGID_22_" />
    <path
       d="M696.53,160.738c0-23.307-14.913-43.087-35.719-50.454V53.579C660.811,23.977,636.834,0,607.231,0      H89.299C59.696,0,35.719,23.977,35.719,53.579l0.134,56.615C15.002,117.517,0,137.341,0,160.738c0,2.5,0.179,4.956,0.491,7.322      l35.228,224.854l0,0L17.994,621.385c-0.089,1.25-0.134,2.456-0.134,3.706c0,29.603,23.977,53.579,53.579,53.579h553.652      c29.603,0,53.579-23.977,53.579-53.579c0-1.25-0.045-2.456-0.134-3.706l-17.726-228.471l35.228-224.854      C696.352,165.694,696.53,163.238,696.53,160.738z"
       id="SVGID_24_" />
    <path
       d="M696.53,160.738c0-23.307-14.913-43.087-35.719-50.454V53.579C660.811,23.977,636.834,0,607.231,0      H89.299C59.696,0,35.719,23.977,35.719,53.579l0.134,56.615C15.002,117.517,0,137.341,0,160.738c0,2.5,0.179,4.956,0.491,7.322      l35.228,224.854l0,0L17.994,621.385c-0.089,1.25-0.134,2.456-0.134,3.706c0,29.603,23.977,53.579,53.579,53.579h553.652      c29.603,0,53.579-23.977,53.579-53.579c0-1.25-0.045-2.456-0.134-3.706l-17.726-228.471l35.228-224.854      C696.352,165.694,696.53,163.238,696.53,160.738z"
       id="SVGID_27_" />
    <path
       d="M696.53,160.738c0-23.307-14.913-43.087-35.719-50.454V53.579C660.811,23.977,636.834,0,607.231,0      H89.299C59.696,0,35.719,23.977,35.719,53.579l0.134,56.615C15.002,117.517,0,137.341,0,160.738c0,2.5,0.179,4.956,0.491,7.322      l35.228,224.854l0,0L17.994,621.385c-0.089,1.25-0.134,2.456-0.134,3.706c0,29.603,23.977,53.579,53.579,53.579h553.652      c29.603,0,53.579-23.977,53.579-53.579c0-1.25-0.045-2.456-0.134-3.706l-17.726-228.471l35.228-224.854      C696.352,165.694,696.53,163.238,696.53,160.738z"
       id="SVGID_29_" />
  </defs>
  <sodipodi:namedview
     id="base"
     pagecolor="#ffffff"
     bordercolor="#666666"
     borderopacity="1.0"
     inkscape:pageopacity="0.0"
     inkscape:pageshadow="2"
     inkscape:zoom="0.8077778"
     inkscape:cx="108.87824"
     inkscape:cy="39.317673"
     inkscape:document-units="px"
     inkscape:current-layer="layer1"
     showgrid="false"
     inkscape:window-width="1595"
     inkscape:window-height="908"
     inkscape:window-x="95"
     inkscape:window-y="55"
     inkscape:window-maximized="0"
     showguides="true"
     inkscape:guide-bbox="true">
    <sodipodi:guide
       position="67.742455,61.812143"
       orientation="0,1"
       id="guide12694"
       inkscape:locked="false" />
    <sodipodi:guide
       position="12.544899,47.214442"
       orientation="1,0"
       id="guide12696"
       inkscape:locked="false" />
  </sodipodi:namedview>
  <metadata
     id="metadata12115">
    <rdf:RDF>
      <cc:Work
         rdf:about="">
        <dc:format>image/svg+xml</dc:format>
        <dc:type
           rdf:resource="http://purl.org/dc/dcmitype/StillImage" />
        <dc:title></dc:title>
      </cc:Work>
    </rdf:RDF>
  </metadata>
  <g
     inkscape:groupmode="layer"
     id="layer2"
     inkscape:label="backg"
     sodipodi:insensitive="true">
    <rect
       style="fill:#ffffff;stroke:#f9f9f9;stroke-width:0.5291667;stroke-miterlimit:10;stroke-dasharray:none;stroke-opacity:1"
       id="rect2940"
       width="100.22869"
       height="71.077194"
       x="2.4565856"
       y="1.2850778" />
  </g>
  <g
     inkscape:label="Layer 1"
     inkscape:groupmode="layer"
     id="layer1"
     transform="translate(0,-223)">
    <g
       id="g3412"
       transform="matrix(0.08771861,0,0,0.08771861,33.582631,248.69663)">
      <g
         id="g3356">
	<path
   id="path3354"
   d="M 60.652,75.816 V 15.163 C 60.652,6.781 67.433,0 75.817,0 c 8.38,0 15.161,6.781 15.161,15.163 v 60.653 c 0,8.38 -6.781,15.161 -15.161,15.161 -8.384,10e-4 -15.165,-6.781 -15.165,-15.161 z m 257.772,15.162 c 8.378,0 15.163,-6.781 15.163,-15.161 V 15.163 C 333.587,6.781 326.802,0 318.424,0 310.042,0 303.256,6.781 303.256,15.163 v 60.653 c 0,8.38 6.786,15.162 15.168,15.162 z m 166.788,272.928 c 0,66.996 -54.312,121.307 -121.303,121.307 -66.986,0 -121.302,-54.311 -121.302,-121.307 0,-66.986 54.315,-121.3 121.302,-121.3 66.991,0 121.303,54.313 121.303,121.3 z m -30.322,0 c 0,-50.161 -40.81,-90.976 -90.98,-90.976 -50.166,0 -90.976,40.814 -90.976,90.976 0,50.171 40.81,90.98 90.976,90.98 50.17,0 90.98,-40.809 90.98,-90.98 z M 121.305,181.955 H 60.652 v 60.651 h 60.653 z M 60.652,333.584 h 60.653 V 272.93 H 60.652 Z m 90.977,-90.978 h 60.654 v -60.651 h -60.654 z m 0,90.978 h 60.654 V 272.93 H 151.629 Z M 30.328,360.891 V 151.628 H 363.91 v 60.653 h 30.327 V 94 c 0,-18.421 -14.692,-33.349 -32.843,-33.349 h -12.647 v 15.166 c 0,16.701 -13.596,30.325 -30.322,30.325 -16.731,0 -30.326,-13.624 -30.326,-30.325 V 60.651 H 106.14 v 15.166 c 0,16.701 -13.593,30.325 -30.322,30.325 -16.733,0 -30.327,-13.624 -30.327,-30.325 V 60.651 H 32.859 C 14.707,60.651 0.001,75.579 0.001,94 v 266.892 c 0,18.36 14.706,33.346 32.858,33.346 H 212.283 V 363.907 H 32.859 c -1.374,-10e-4 -2.531,-1.42 -2.531,-3.016 z M 303.256,242.606 v -60.651 h -60.648 v 60.651 z m 106.143,121.3 h -45.49 v -45.49 c 0,-8.377 -6.781,-15.158 -15.163,-15.158 -8.382,0 -15.159,6.781 -15.159,15.158 v 60.658 c 0,8.378 6.777,15.163 15.159,15.163 h 60.653 c 8.382,0 15.163,-6.785 15.163,-15.163 0,-8.382 -6.781,-15.168 -15.163,-15.168 z"
   inkscape:connector-curvature="0" />

</g>
      <g
         id="g3358">
</g>
      <g
         id="g3360">
</g>
      <g
         id="g3362">
</g>
      <g
         id="g3364">
</g>
      <g
         id="g3366">
</g>
      <g
         id="g3368">
</g>
      <g
         id="g3370">
</g>
      <g
         id="g3372">
</g>
      <g
         id="g3374">
</g>
      <g
         id="g3376">
</g>
      <g
         id="g3378">
</g>
      <g
         id="g3380">
</g>
      <g
         id="g3382">
</g>
      <g
         id="g3384">
</g>
      <g
         id="g3386">
</g>
    </g>
    <text
       xml:space="preserve"
       style="font-style:normal;font-weight:normal;font-size:10.58333397px;line-height:1.25;font-family:sans-serif;letter-spacing:0px;word-spacing:0px;fill:#000000;fill-opacity:1;stroke:none;stroke-width:0.26458335"
       x="33.737103"
       y="242.39383"
       id="text3416"><tspan
         sodipodi:role="line"
         id="tspan3414"
         x="33.737103"
         y="242.39383"
         style="font-size:19.75555611px;stroke-width:0.26458335">iCal</tspan></text>
  </g>
</svg>
