<?xml version="1.0" encoding="UTF-8" standalone="no"?>
<!-- Created with Inkscape (http://www.inkscape.org/) -->

<svg
   xmlns:dc="http://purl.org/dc/elements/1.1/"
   xmlns:cc="http://creativecommons.org/ns#"
   xmlns:rdf="http://www.w3.org/1999/02/22-rdf-syntax-ns#"
   xmlns:svg="http://www.w3.org/2000/svg"
   xmlns="http://www.w3.org/2000/svg"
   xmlns:sodipodi="http://sodipodi.sourceforge.net/DTD/sodipodi-0.dtd"
   xmlns:inkscape="http://www.inkscape.org/namespaces/inkscape"
   width="105mm"
   height="74mm"
   viewBox="0 0 105 74"
   version="1.1"
   id="svg12118"
   inkscape:version="0.92.3 (2405546, 2018-03-11)"
   sodipodi:docname="6.svg">
  <defs
     id="defs12112">
    <path
       d="M696.53,160.738c0-23.307-14.913-43.087-35.719-50.454V53.579C660.811,23.977,636.834,0,607.231,0H89.299      C59.696,0,35.719,23.977,35.719,53.579l0.134,56.615C15.002,117.517,0,137.341,0,160.738c0,2.5,0.179,4.956,0.491,7.322      l35.228,224.854l0,0L17.994,621.385c-0.089,1.25-0.134,2.456-0.134,3.706c0,29.603,23.977,53.579,53.579,53.579h553.652      c29.603,0,53.579-23.977,53.579-53.579c0-1.25-0.045-2.456-0.134-3.706l-17.726-228.471l35.228-224.854      C696.352,165.694,696.53,163.238,696.53,160.738z"
       id="SVGID_1_" />
    <path
       d="M696.53,160.738c0-23.307-14.913-43.087-35.719-50.454V53.579C660.811,23.977,636.834,0,607.231,0H89.299      C59.696,0,35.719,23.977,35.719,53.579l0.134,56.615C15.002,117.517,0,137.341,0,160.738c0,2.5,0.179,4.956,0.491,7.322      l35.228,224.854l0,0L17.994,621.385c-0.089,1.25-0.134,2.456-0.134,3.706c0,29.603,23.977,53.579,53.579,53.579h553.652      c29.603,0,53.579-23.977,53.579-53.579c0-1.25-0.045-2.456-0.134-3.706l-17.726-228.471l35.228-224.854      C696.352,165.694,696.53,163.238,696.53,160.738z"
       id="SVGID_3_" />
    <path
       d="M696.53,160.738c0-23.307-14.913-43.087-35.719-50.454V53.579C660.811,23.977,636.834,0,607.231,0H89.299      C59.696,0,35.719,23.977,35.719,53.579l0.134,56.615C15.002,117.517,0,137.341,0,160.738c0,2.5,0.179,4.956,0.491,7.322      l35.228,224.854l0,0L17.994,621.385c-0.089,1.25-0.134,2.456-0.134,3.706c0,29.603,23.977,53.579,53.579,53.579h553.652      c29.603,0,53.579-23.977,53.579-53.579c0-1.25-0.045-2.456-0.134-3.706l-17.726-228.471l35.228-224.854      C696.352,165.694,696.53,163.238,696.53,160.738z"
       id="SVGID_5_" />
    <path
       d="M696.53,160.738c0-23.307-14.913-43.087-35.719-50.454V53.579C660.811,23.977,636.834,0,607.231,0H89.299      C59.696,0,35.719,23.977,35.719,53.579l0.134,56.615C15.002,117.517,0,137.341,0,160.738c0,2.5,0.179,4.956,0.491,7.322      l35.228,224.854l0,0L17.994,621.385c-0.089,1.25-0.134,2.456-0.134,3.706c0,29.603,23.977,53.579,53.579,53.579h553.652      c29.603,0,53.579-23.977,53.579-53.579c0-1.25-0.045-2.456-0.134-3.706l-17.726-228.471l35.228-224.854      C696.352,165.694,696.53,163.238,696.53,160.738z"
       id="SVGID_7_" />
    <path
       d="M696.53,160.738c0-23.307-14.913-43.087-35.719-50.454V53.579C660.811,23.977,636.834,0,607.231,0      H89.299C59.696,0,35.719,23.977,35.719,53.579l0.134,56.615C15.002,117.517,0,137.341,0,160.738c0,2.5,0.179,4.956,0.491,7.322      l35.228,224.854l0,0L17.994,621.385c-0.089,1.25-0.134,2.456-0.134,3.706c0,29.603,23.977,53.579,53.579,53.579h553.652      c29.603,0,53.579-23.977,53.579-53.579c0-1.25-0.045-2.456-0.134-3.706l-17.726-228.471l35.228-224.854      C696.352,165.694,696.53,163.238,696.53,160.738z"
       id="SVGID_10_" />
    <path
       d="M696.53,160.738c0-23.307-14.913-43.087-35.719-50.454V53.579C660.811,23.977,636.834,0,607.231,0      H89.299C59.696,0,35.719,23.977,35.719,53.579l0.134,56.615C15.002,117.517,0,137.341,0,160.738c0,2.5,0.179,4.956,0.491,7.322      l35.228,224.854l0,0L17.994,621.385c-0.089,1.25-0.134,2.456-0.134,3.706c0,29.603,23.977,53.579,53.579,53.579h553.652      c29.603,0,53.579-23.977,53.579-53.579c0-1.25-0.045-2.456-0.134-3.706l-17.726-228.471l35.228-224.854      C696.352,165.694,696.53,163.238,696.53,160.738z"
       id="SVGID_12_" />
    <path
       d="M696.53,160.738c0-23.307-14.913-43.087-35.719-50.454V53.579C660.811,23.977,636.834,0,607.231,0      H89.299C59.696,0,35.719,23.977,35.719,53.579l0.134,56.615C15.002,117.517,0,137.341,0,160.738c0,2.5,0.179,4.956,0.491,7.322      l35.228,224.854l0,0L17.994,621.385c-0.089,1.25-0.134,2.456-0.134,3.706c0,29.603,23.977,53.579,53.579,53.579h553.652      c29.603,0,53.579-23.977,53.579-53.579c0-1.25-0.045-2.456-0.134-3.706l-17.726-228.471l35.228-224.854      C696.352,165.694,696.53,163.238,696.53,160.738z"
       id="SVGID_14_" />
    <path
       d="M696.53,160.738c0-23.307-14.913-43.087-35.719-50.454V53.579C660.811,23.977,636.834,0,607.231,0      H89.299C59.696,0,35.719,23.977,35.719,53.579l0.134,56.615C15.002,117.517,0,137.341,0,160.738c0,2.5,0.179,4.956,0.491,7.322      l35.228,224.854l0,0L17.994,621.385c-0.089,1.25-0.134,2.456-0.134,3.706c0,29.603,23.977,53.579,53.579,53.579h553.652      c29.603,0,53.579-23.977,53.579-53.579c0-1.25-0.045-2.456-0.134-3.706l-17.726-228.471l35.228-224.854      C696.352,165.694,696.53,163.238,696.53,160.738z"
       id="SVGID_16_" />
    <path
       d="M642.951,107.158H53.579C23.977,107.158,0,131.135,0,160.738c0,2.5,0.179,4.956,0.491,7.322        l35.228,224.854h625.091l35.228-224.854c0.313-2.411,0.491-4.867,0.491-7.322C696.53,131.135,672.553,107.158,642.951,107.158        z"
       id="SVGID_18_" />
    <path
       d="M696.53,160.738c0-23.307-14.913-43.087-35.719-50.454V53.579C660.811,23.977,636.834,0,607.231,0      H89.299C59.696,0,35.719,23.977,35.719,53.579l0.134,56.615C15.002,117.517,0,137.341,0,160.738c0,2.5,0.179,4.956,0.491,7.322      l35.228,224.854l0,0L17.994,621.385c-0.089,1.25-0.134,2.456-0.134,3.706c0,29.603,23.977,53.579,53.579,53.579h553.652      c29.603,0,53.579-23.977,53.579-53.579c0-1.25-0.045-2.456-0.134-3.706l-17.726-228.471l35.228-224.854      C696.352,165.694,696.53,163.238,696.53,160.738z"
       id="SVGID_20_" />
    <path
       d="M678.536,621.385l-17.726-228.471H35.719L17.994,621.385c-0.089,1.25-0.134,2.456-0.134,3.706        c0,29.603,23.977,53.579,53.579,53.579h553.652c29.603,0,53.579-23.977,53.579-53.579        C678.67,623.841,678.626,622.635,678.536,621.385z"
       id="SVGID_22_" />
    <path
       d="M696.53,160.738c0-23.307-14.913-43.087-35.719-50.454V53.579C660.811,23.977,636.834,0,607.231,0      H89.299C59.696,0,35.719,23.977,35.719,53.579l0.134,56.615C15.002,117.517,0,137.341,0,160.738c0,2.5,0.179,4.956,0.491,7.322      l35.228,224.854l0,0L17.994,621.385c-0.089,1.25-0.134,2.456-0.134,3.706c0,29.603,23.977,53.579,53.579,53.579h553.652      c29.603,0,53.579-23.977,53.579-53.579c0-1.25-0.045-2.456-0.134-3.706l-17.726-228.471l35.228-224.854      C696.352,165.694,696.53,163.238,696.53,160.738z"
       id="SVGID_24_" />
    <path
       d="M696.53,160.738c0-23.307-14.913-43.087-35.719-50.454V53.579C660.811,23.977,636.834,0,607.231,0      H89.299C59.696,0,35.719,23.977,35.719,53.579l0.134,56.615C15.002,117.517,0,137.341,0,160.738c0,2.5,0.179,4.956,0.491,7.322      l35.228,224.854l0,0L17.994,621.385c-0.089,1.25-0.134,2.456-0.134,3.706c0,29.603,23.977,53.579,53.579,53.579h553.652      c29.603,0,53.579-23.977,53.579-53.579c0-1.25-0.045-2.456-0.134-3.706l-17.726-228.471l35.228-224.854      C696.352,165.694,696.53,163.238,696.53,160.738z"
       id="SVGID_27_" />
    <path
       d="M696.53,160.738c0-23.307-14.913-43.087-35.719-50.454V53.579C660.811,23.977,636.834,0,607.231,0      H89.299C59.696,0,35.719,23.977,35.719,53.579l0.134,56.615C15.002,117.517,0,137.341,0,160.738c0,2.5,0.179,4.956,0.491,7.322      l35.228,224.854l0,0L17.994,621.385c-0.089,1.25-0.134,2.456-0.134,3.706c0,29.603,23.977,53.579,53.579,53.579h553.652      c29.603,0,53.579-23.977,53.579-53.579c0-1.25-0.045-2.456-0.134-3.706l-17.726-228.471l35.228-224.854      C696.352,165.694,696.53,163.238,696.53,160.738z"
       id="SVGID_29_" />
    <style
       id="style1050">.cls-1{fill:#d86613;}</style>
  </defs>
  <sodipodi:namedview
     id="base"
     pagecolor="#ffffff"
     bordercolor="#666666"
     borderopacity="1.0"
     inkscape:pageopacity="0.0"
     inkscape:pageshadow="2"
     inkscape:zoom="1.6155556"
     inkscape:cx="179.86327"
     inkscape:cy="131.04511"
     inkscape:document-units="px"
     inkscape:current-layer="layer1"
     showgrid="false"
     inkscape:window-width="1366"
     inkscape:window-height="713"
     inkscape:window-x="0"
     inkscape:window-y="27"
     inkscape:window-maximized="1"
     showguides="true"
     inkscape:guide-bbox="true">
    <sodipodi:guide
       position="67.742455,61.812143"
       orientation="0,1"
       id="guide12694"
       inkscape:locked="false" />
    <sodipodi:guide
       position="-20.799088,78.446955"
       orientation="1,0"
       id="guide12696"
       inkscape:locked="false" />
  </sodipodi:namedview>
  <metadata
     id="metadata12115">
    <rdf:RDF>
      <cc:Work
         rdf:about="">
        <dc:format>image/svg+xml</dc:format>
        <dc:type
           rdf:resource="http://purl.org/dc/dcmitype/StillImage" />
        <dc:title />
      </cc:Work>
    </rdf:RDF>
  </metadata>
  <g
     inkscape:groupmode="layer"
     id="layer2"
     inkscape:label="backg"
     sodipodi:insensitive="true">
    <rect
       style="fill:#ffffff;stroke:#f9f9f9;stroke-width:0.5291667;stroke-miterlimit:10;stroke-dasharray:none;stroke-opacity:1"
       id="rect2940"
       width="100.22869"
       height="71.077194"
       x="2.4565856"
       y="1.2850778" />
  </g>
  <g
     inkscape:label="Layer 1"
     inkscape:groupmode="layer"
     id="layer1"
     transform="translate(0,-223)">
    <path
       style="fill:#d86613;stroke-width:1.19778669"
       inkscape:connector-curvature="0"
       class="cls-1"
       d="m 77.097914,267.87309 h -7.11485 a 4.4198328,4.4198328 0 0 1 -2.323706,-0.67077 7.18672,7.18672 0 0 1 -3.401715,-6.22848 6.4680479,6.4680479 0 0 1 4.21621,-6.32432 v -0.11985 a 9.4505368,9.4505368 0 0 1 5.390041,-8.32462 9.0193336,9.0193336 0 0 1 10.16921,2.01229 9.8458064,9.8458064 0 0 1 1.77272,2.39557 4.312032,4.312032 0 0 1 2.17997,-0.58692 4.7911466,4.7911466 0 0 1 4.58753,4.37192 6.5878267,6.5878267 0 0 1 5.138501,6.62377 6.4081587,6.4081587 0 0 1 -3.341821,5.91706 l -1.19779,-2.09612 a 4.0125854,4.0125854 0 0 0 2.14404,-3.82094 4.4078549,4.4078549 0 0 0 -4.04852,-4.43182 1.1977867,1.1977867 0 0 1 -0.79054,-0.50307 1.1977867,1.1977867 0 0 1 -0.20362,-0.79054 c -0.17967,-2.09612 -1.34152,-2.83875 -2.28778,-2.83875 a 2.0961267,2.0961267 0 0 0 -1.65294,0.87439 1.1977867,1.1977867 0 0 1 -2.08415,-0.31142 8.3845066,8.3845066 0 0 0 -1.90448,-3.10228 6.6477159,6.6477159 0 0 0 -7.54606,-1.53316 7.1148527,7.1148527 0 0 0 -3.92874,6.10871 6.2524464,6.2524464 0 0 0 0,0.82647 1.1977867,1.1977867 0 0 1 -0.29944,0.94625 1.1977867,1.1977867 0 0 1 -0.64681,0.37131 4.120386,4.120386 0 0 0 -3.317869,4.30006 4.7911466,4.7911466 0 0 0 2.35964,4.21621 2.0841487,2.0841487 0 0 0 1.054049,0.29945 h 7.10288 z"
       id="path1098" />
    <path
       style="fill:#d86613;stroke-width:1.19778669"
       inkscape:connector-curvature="0"
       class="cls-1"
       d="m 85.578244,271.22689 a 7.4023215,7.4023215 0 1 1 7.40232,-7.39035 7.4023215,7.4023215 0 0 1 -7.40232,7.39035 z m 0,-12.3971 a 5.0067482,5.0067482 0 1 0 5.00675,5.00675 5.0067482,5.0067482 0 0 0 -5.00675,-5.00675 z"
       id="path1100" />
    <path
       style="fill:#d86613;stroke-width:1.19778669"
       inkscape:connector-curvature="0"
       class="cls-1"
       d="m 82.895204,266.85497 a 4.0246377,4.0246377 0 0 1 4.79115,-6.46805 l -1.42537,1.91645 a 1.6314246,1.6314246 0 0 0 -1.94041,2.62316 z"
       id="path1102" />
    <path
       style="fill:#d86613;stroke-width:1.19778669"
       inkscape:connector-curvature="0"
       class="cls-1"
       d="m 94.825164,275.64672 a 2.778865,2.778865 0 0 1 -2.00031,-0.82648 l -4.85103,-4.79114 1.68887,-1.68888 4.79115,4.79114 a 0.38329174,0.38329174 0 0 0 0.62285,0 0.44318106,0.44318106 0 0 0 0,-0.62284 l -4.85103,-4.95884 1.68887,-1.68888 4.922911,4.93488 a 2.8507323,2.8507323 0 0 1 0,4.00061 2.778865,2.778865 0 0 1 -2.012281,0.85043 z"
       id="path1104" />
    <g
       id="g1150"
       transform="matrix(0.12843594,0,0,0.12843594,7.5034878,248.80942)">
	<path
   id="path1142"
   d="m 86.4,66.4 c 0,3.7 0.4,6.7 1.1,8.9 0.8,2.2 1.8,4.6 3.2,7.2 0.5,0.8 0.7,1.6 0.7,2.3 0,1 -0.6,2 -1.9,3 L 83.2,92 c -0.9,0.6 -1.8,0.9 -2.6,0.9 -1,0 -2,-0.5 -3,-1.4 C 76.2,90 75,88.4 74,86.8 73,85.1 72,83.2 70.9,80.9 63.1,90.1 53.3,94.7 41.5,94.7 c -8.4,0 -15.1,-2.4 -20,-7.2 -4.9,-4.8 -7.4,-11.2 -7.4,-19.2 0,-8.5 3,-15.4 9.1,-20.6 6.1,-5.2 14.2,-7.8 24.5,-7.8 3.4,0 6.9,0.3 10.6,0.8 3.7,0.5 7.5,1.3 11.5,2.2 V 35.6 C 69.8,28 68.2,22.7 65.1,19.6 61.9,16.5 56.5,15 48.8,15 c -3.5,0 -7.1,0.4 -10.8,1.3 -3.7,0.9 -7.3,2 -10.8,3.4 -1.6,0.7 -2.8,1.1 -3.5,1.3 -0.7,0.2 -1.2,0.3 -1.6,0.3 -1.4,0 -2.1,-1 -2.1,-3.1 V 13.3 C 20,11.7 20.2,10.5 20.7,9.8 21.2,9.1 22.1,8.4 23.5,7.7 27,5.9 31.2,4.4 36.1,3.2 41,1.9 46.2,1.3 51.7,1.3 63.6,1.3 72.3,4 77.9,9.4 83.4,14.8 86.2,23 86.2,34 V 66.4 Z M 45.8,81.6 c 3.3,0 6.7,-0.6 10.3,-1.8 3.6,-1.2 6.8,-3.4 9.5,-6.4 1.6,-1.9 2.8,-4 3.4,-6.4 0.6,-2.4 1,-5.3 1,-8.7 v -4.2 c -2.9,-0.7 -6,-1.3 -9.2,-1.7 -3.2,-0.4 -6.3,-0.6 -9.4,-0.6 -6.7,0 -11.6,1.3 -14.9,4 -3.3,2.7 -4.9,6.5 -4.9,11.5 0,4.7 1.2,8.2 3.7,10.6 2.4,2.5 5.9,3.7 10.5,3.7 z m 80.3,10.8 c -1.8,0 -3,-0.3 -3.8,-1 -0.8,-0.6 -1.5,-2 -2.1,-3.9 L 96.7,10.2 c -0.6,-2 -0.9,-3.3 -0.9,-4 0,-1.6 0.8,-2.5 2.4,-2.5 h 9.8 c 1.9,0 3.2,0.3 3.9,1 0.8,0.6 1.4,2 2,3.9 l 16.8,66.2 15.6,-66.2 c 0.5,-2 1.1,-3.3 1.9,-3.9 0.8,-0.6 2.2,-1 4,-1 h 8 c 1.9,0 3.2,0.3 4,1 0.8,0.6 1.5,2 1.9,3.9 l 15.8,67 17.3,-67 c 0.6,-2 1.3,-3.3 2,-3.9 0.8,-0.6 2.1,-1 3.9,-1 h 9.3 c 1.6,0 2.5,0.8 2.5,2.5 0,0.5 -0.1,1 -0.2,1.6 -0.1,0.6 -0.3,1.4 -0.7,2.5 l -24.1,77.3 c -0.6,2 -1.3,3.3 -2.1,3.9 -0.8,0.6 -2.1,1 -3.8,1 h -8.6 c -1.9,0 -3.2,-0.3 -4,-1 -0.8,-0.7 -1.5,-2 -1.9,-4 L 156,23 140.6,87.4 c -0.5,2 -1.1,3.3 -1.9,4 -0.8,0.7 -2.2,1 -4,1 z m 128.5,2.7 c -5.2,0 -10.4,-0.6 -15.4,-1.8 -5,-1.2 -8.9,-2.5 -11.5,-4 -1.6,-0.9 -2.7,-1.9 -3.1,-2.8 -0.4,-0.9 -0.6,-1.9 -0.6,-2.8 v -5.1 c 0,-2.1 0.8,-3.1 2.3,-3.1 0.6,0 1.2,0.1 1.8,0.3 0.6,0.2 1.5,0.6 2.5,1 3.4,1.5 7.1,2.7 11,3.5 4,0.8 7.9,1.2 11.9,1.2 6.3,0 11.2,-1.1 14.6,-3.3 3.4,-2.2 5.2,-5.4 5.2,-9.5 0,-2.8 -0.9,-5.1 -2.7,-7 -1.8,-1.9 -5.2,-3.6 -10.1,-5.2 L 246,52 c -7.3,-2.3 -12.7,-5.7 -16,-10.2 -3.3,-4.4 -5,-9.3 -5,-14.5 0,-4.2 0.9,-7.9 2.7,-11.1 1.8,-3.2 4.2,-6 7.2,-8.2 3,-2.3 6.4,-4 10.4,-5.2 4,-1.2 8.2,-1.7 12.6,-1.7 2.2,0 4.5,0.1 6.7,0.4 2.3,0.3 4.4,0.7 6.5,1.1 2,0.5 3.9,1 5.7,1.6 1.8,0.6 3.2,1.2 4.2,1.8 1.4,0.8 2.4,1.6 3,2.5 0.6,0.8 0.9,1.9 0.9,3.3 v 4.7 c 0,2.1 -0.8,3.2 -2.3,3.2 -0.8,0 -2.1,-0.4 -3.8,-1.2 -5.7,-2.6 -12.1,-3.9 -19.2,-3.9 -5.7,0 -10.2,0.9 -13.3,2.8 -3.1,1.9 -4.7,4.8 -4.7,8.9 0,2.8 1,5.2 3,7.1 2,1.9 5.7,3.8 11,5.5 l 14.2,4.5 c 7.2,2.3 12.4,5.5 15.5,9.6 3.1,4.1 4.6,8.8 4.6,14 0,4.3 -0.9,8.2 -2.6,11.6 -1.8,3.4 -4.2,6.4 -7.3,8.8 -3.1,2.5 -6.8,4.3 -11.1,5.6 -4.5,1.4 -9.2,2.1 -14.3,2.1 z"
   class="st0"
   inkscape:connector-curvature="0"
   style="fill:#252f3e" />

	<g
   id="g1148">
		<path
   id="path1144"
   d="M 273.5,143.7 C 240.6,168 192.8,180.9 151.7,180.9 94.1,180.9 42.2,159.6 3,124.2 c -3.1,-2.8 -0.3,-6.6 3.4,-4.4 42.4,24.6 94.7,39.5 148.8,39.5 36.5,0 76.6,-7.6 113.5,-23.2 5.5,-2.5 10.2,3.6 4.8,7.6 z"
   class="st1"
   inkscape:connector-curvature="0"
   style="clip-rule:evenodd;fill:#ff9900;fill-rule:evenodd" />

		<path
   id="path1146"
   d="m 287.2,128.1 c -4.2,-5.4 -27.8,-2.6 -38.5,-1.3 -3.2,0.4 -3.7,-2.4 -0.8,-4.5 18.8,-13.2 49.7,-9.4 53.3,-5 3.6,4.5 -1,35.4 -18.6,50.2 -2.7,2.3 -5.3,1.1 -4.1,-1.9 4,-9.9 12.9,-32.2 8.7,-37.5 z"
   class="st1"
   inkscape:connector-curvature="0"
   style="clip-rule:evenodd;fill:#ff9900;fill-rule:evenodd" />

	</g>

</g>
  </g>
  <style
     id="style1140"
     type="text/css">
	.st0{fill:#252F3E;}
	.st1{fill-rule:evenodd;clip-rule:evenodd;fill:#FF9900;}
</style>
</svg>
