<?xml version="1.0" encoding="UTF-8" standalone="no"?>
<!-- Created with Inkscape (http://www.inkscape.org/) -->

<svg
   xmlns:dc="http://purl.org/dc/elements/1.1/"
   xmlns:cc="http://creativecommons.org/ns#"
   xmlns:rdf="http://www.w3.org/1999/02/22-rdf-syntax-ns#"
   xmlns:svg="http://www.w3.org/2000/svg"
   xmlns="http://www.w3.org/2000/svg"
   xmlns:sodipodi="http://sodipodi.sourceforge.net/DTD/sodipodi-0.dtd"
   xmlns:inkscape="http://www.inkscape.org/namespaces/inkscape"
   width="105mm"
   height="74mm"
   viewBox="0 0 105 74"
   version="1.1"
   id="svg12118"
   inkscape:version="0.92.5 (2060ec1f9f, 2020-04-08)"
   sodipodi:docname="8.svg">
  <defs
     id="defs12112">
    <path
       d="M696.53,160.738c0-23.307-14.913-43.087-35.719-50.454V53.579C660.811,23.977,636.834,0,607.231,0H89.299      C59.696,0,35.719,23.977,35.719,53.579l0.134,56.615C15.002,117.517,0,137.341,0,160.738c0,2.5,0.179,4.956,0.491,7.322      l35.228,224.854l0,0L17.994,621.385c-0.089,1.25-0.134,2.456-0.134,3.706c0,29.603,23.977,53.579,53.579,53.579h553.652      c29.603,0,53.579-23.977,53.579-53.579c0-1.25-0.045-2.456-0.134-3.706l-17.726-228.471l35.228-224.854      C696.352,165.694,696.53,163.238,696.53,160.738z"
       id="SVGID_1_" />
    <path
       d="M696.53,160.738c0-23.307-14.913-43.087-35.719-50.454V53.579C660.811,23.977,636.834,0,607.231,0H89.299      C59.696,0,35.719,23.977,35.719,53.579l0.134,56.615C15.002,117.517,0,137.341,0,160.738c0,2.5,0.179,4.956,0.491,7.322      l35.228,224.854l0,0L17.994,621.385c-0.089,1.25-0.134,2.456-0.134,3.706c0,29.603,23.977,53.579,53.579,53.579h553.652      c29.603,0,53.579-23.977,53.579-53.579c0-1.25-0.045-2.456-0.134-3.706l-17.726-228.471l35.228-224.854      C696.352,165.694,696.53,163.238,696.53,160.738z"
       id="SVGID_3_" />
    <path
       d="M696.53,160.738c0-23.307-14.913-43.087-35.719-50.454V53.579C660.811,23.977,636.834,0,607.231,0H89.299      C59.696,0,35.719,23.977,35.719,53.579l0.134,56.615C15.002,117.517,0,137.341,0,160.738c0,2.5,0.179,4.956,0.491,7.322      l35.228,224.854l0,0L17.994,621.385c-0.089,1.25-0.134,2.456-0.134,3.706c0,29.603,23.977,53.579,53.579,53.579h553.652      c29.603,0,53.579-23.977,53.579-53.579c0-1.25-0.045-2.456-0.134-3.706l-17.726-228.471l35.228-224.854      C696.352,165.694,696.53,163.238,696.53,160.738z"
       id="SVGID_5_" />
    <path
       d="M696.53,160.738c0-23.307-14.913-43.087-35.719-50.454V53.579C660.811,23.977,636.834,0,607.231,0H89.299      C59.696,0,35.719,23.977,35.719,53.579l0.134,56.615C15.002,117.517,0,137.341,0,160.738c0,2.5,0.179,4.956,0.491,7.322      l35.228,224.854l0,0L17.994,621.385c-0.089,1.25-0.134,2.456-0.134,3.706c0,29.603,23.977,53.579,53.579,53.579h553.652      c29.603,0,53.579-23.977,53.579-53.579c0-1.25-0.045-2.456-0.134-3.706l-17.726-228.471l35.228-224.854      C696.352,165.694,696.53,163.238,696.53,160.738z"
       id="SVGID_7_" />
    <path
       d="M696.53,160.738c0-23.307-14.913-43.087-35.719-50.454V53.579C660.811,23.977,636.834,0,607.231,0      H89.299C59.696,0,35.719,23.977,35.719,53.579l0.134,56.615C15.002,117.517,0,137.341,0,160.738c0,2.5,0.179,4.956,0.491,7.322      l35.228,224.854l0,0L17.994,621.385c-0.089,1.25-0.134,2.456-0.134,3.706c0,29.603,23.977,53.579,53.579,53.579h553.652      c29.603,0,53.579-23.977,53.579-53.579c0-1.25-0.045-2.456-0.134-3.706l-17.726-228.471l35.228-224.854      C696.352,165.694,696.53,163.238,696.53,160.738z"
       id="SVGID_10_" />
    <path
       d="M696.53,160.738c0-23.307-14.913-43.087-35.719-50.454V53.579C660.811,23.977,636.834,0,607.231,0      H89.299C59.696,0,35.719,23.977,35.719,53.579l0.134,56.615C15.002,117.517,0,137.341,0,160.738c0,2.5,0.179,4.956,0.491,7.322      l35.228,224.854l0,0L17.994,621.385c-0.089,1.25-0.134,2.456-0.134,3.706c0,29.603,23.977,53.579,53.579,53.579h553.652      c29.603,0,53.579-23.977,53.579-53.579c0-1.25-0.045-2.456-0.134-3.706l-17.726-228.471l35.228-224.854      C696.352,165.694,696.53,163.238,696.53,160.738z"
       id="SVGID_12_" />
    <path
       d="M696.53,160.738c0-23.307-14.913-43.087-35.719-50.454V53.579C660.811,23.977,636.834,0,607.231,0      H89.299C59.696,0,35.719,23.977,35.719,53.579l0.134,56.615C15.002,117.517,0,137.341,0,160.738c0,2.5,0.179,4.956,0.491,7.322      l35.228,224.854l0,0L17.994,621.385c-0.089,1.25-0.134,2.456-0.134,3.706c0,29.603,23.977,53.579,53.579,53.579h553.652      c29.603,0,53.579-23.977,53.579-53.579c0-1.25-0.045-2.456-0.134-3.706l-17.726-228.471l35.228-224.854      C696.352,165.694,696.53,163.238,696.53,160.738z"
       id="SVGID_14_" />
    <path
       d="M696.53,160.738c0-23.307-14.913-43.087-35.719-50.454V53.579C660.811,23.977,636.834,0,607.231,0      H89.299C59.696,0,35.719,23.977,35.719,53.579l0.134,56.615C15.002,117.517,0,137.341,0,160.738c0,2.5,0.179,4.956,0.491,7.322      l35.228,224.854l0,0L17.994,621.385c-0.089,1.25-0.134,2.456-0.134,3.706c0,29.603,23.977,53.579,53.579,53.579h553.652      c29.603,0,53.579-23.977,53.579-53.579c0-1.25-0.045-2.456-0.134-3.706l-17.726-228.471l35.228-224.854      C696.352,165.694,696.53,163.238,696.53,160.738z"
       id="SVGID_16_" />
    <path
       d="M642.951,107.158H53.579C23.977,107.158,0,131.135,0,160.738c0,2.5,0.179,4.956,0.491,7.322        l35.228,224.854h625.091l35.228-224.854c0.313-2.411,0.491-4.867,0.491-7.322C696.53,131.135,672.553,107.158,642.951,107.158        z"
       id="SVGID_18_" />
    <path
       d="M696.53,160.738c0-23.307-14.913-43.087-35.719-50.454V53.579C660.811,23.977,636.834,0,607.231,0      H89.299C59.696,0,35.719,23.977,35.719,53.579l0.134,56.615C15.002,117.517,0,137.341,0,160.738c0,2.5,0.179,4.956,0.491,7.322      l35.228,224.854l0,0L17.994,621.385c-0.089,1.25-0.134,2.456-0.134,3.706c0,29.603,23.977,53.579,53.579,53.579h553.652      c29.603,0,53.579-23.977,53.579-53.579c0-1.25-0.045-2.456-0.134-3.706l-17.726-228.471l35.228-224.854      C696.352,165.694,696.53,163.238,696.53,160.738z"
       id="SVGID_20_" />
    <path
       d="M678.536,621.385l-17.726-228.471H35.719L17.994,621.385c-0.089,1.25-0.134,2.456-0.134,3.706        c0,29.603,23.977,53.579,53.579,53.579h553.652c29.603,0,53.579-23.977,53.579-53.579        C678.67,623.841,678.626,622.635,678.536,621.385z"
       id="SVGID_22_" />
    <path
       d="M696.53,160.738c0-23.307-14.913-43.087-35.719-50.454V53.579C660.811,23.977,636.834,0,607.231,0      H89.299C59.696,0,35.719,23.977,35.719,53.579l0.134,56.615C15.002,117.517,0,137.341,0,160.738c0,2.5,0.179,4.956,0.491,7.322      l35.228,224.854l0,0L17.994,621.385c-0.089,1.25-0.134,2.456-0.134,3.706c0,29.603,23.977,53.579,53.579,53.579h553.652      c29.603,0,53.579-23.977,53.579-53.579c0-1.25-0.045-2.456-0.134-3.706l-17.726-228.471l35.228-224.854      C696.352,165.694,696.53,163.238,696.53,160.738z"
       id="SVGID_24_" />
    <path
       d="M696.53,160.738c0-23.307-14.913-43.087-35.719-50.454V53.579C660.811,23.977,636.834,0,607.231,0      H89.299C59.696,0,35.719,23.977,35.719,53.579l0.134,56.615C15.002,117.517,0,137.341,0,160.738c0,2.5,0.179,4.956,0.491,7.322      l35.228,224.854l0,0L17.994,621.385c-0.089,1.25-0.134,2.456-0.134,3.706c0,29.603,23.977,53.579,53.579,53.579h553.652      c29.603,0,53.579-23.977,53.579-53.579c0-1.25-0.045-2.456-0.134-3.706l-17.726-228.471l35.228-224.854      C696.352,165.694,696.53,163.238,696.53,160.738z"
       id="SVGID_27_" />
    <path
       d="M696.53,160.738c0-23.307-14.913-43.087-35.719-50.454V53.579C660.811,23.977,636.834,0,607.231,0      H89.299C59.696,0,35.719,23.977,35.719,53.579l0.134,56.615C15.002,117.517,0,137.341,0,160.738c0,2.5,0.179,4.956,0.491,7.322      l35.228,224.854l0,0L17.994,621.385c-0.089,1.25-0.134,2.456-0.134,3.706c0,29.603,23.977,53.579,53.579,53.579h553.652      c29.603,0,53.579-23.977,53.579-53.579c0-1.25-0.045-2.456-0.134-3.706l-17.726-228.471l35.228-224.854      C696.352,165.694,696.53,163.238,696.53,160.738z"
       id="SVGID_29_" />
  </defs>
  <sodipodi:namedview
     id="base"
     pagecolor="#ffffff"
     bordercolor="#666666"
     borderopacity="1.0"
     inkscape:pageopacity="0.0"
     inkscape:pageshadow="2"
     inkscape:zoom="1.1423703"
     inkscape:cx="208.69092"
     inkscape:cy="179.7461"
     inkscape:document-units="px"
     inkscape:current-layer="layer2"
     showgrid="false"
     inkscape:window-width="1221"
     inkscape:window-height="632"
     inkscape:window-x="260"
     inkscape:window-y="56"
     inkscape:window-maximized="0"
     showguides="true"
     inkscape:guide-bbox="true">
    <sodipodi:guide
       position="33.082015,65.672712"
       orientation="0,1"
       id="guide12694"
       inkscape:locked="false" />
    <sodipodi:guide
       position="12.544899,47.214442"
       orientation="1,0"
       id="guide12696"
       inkscape:locked="false" />
  </sodipodi:namedview>
  <metadata
     id="metadata12115">
    <rdf:RDF>
      <cc:Work
         rdf:about="">
        <dc:format>image/svg+xml</dc:format>
        <dc:type
           rdf:resource="http://purl.org/dc/dcmitype/StillImage" />
        <dc:title />
      </cc:Work>
    </rdf:RDF>
  </metadata>
  <g
     inkscape:groupmode="layer"
     id="layer2"
     inkscape:label="backg">
    <rect
       style="fill:#ffffff;stroke:#f9f9f9;stroke-width:0.5291667;stroke-miterlimit:10;stroke-dasharray:none;stroke-opacity:1"
       id="rect2940"
       width="100.22869"
       height="71.077194"
       x="2.4565856"
       y="1.2850778" />
    <path
       inkscape:connector-curvature="0"
       style="fill:#f57c00;stroke-width:0.71074486"
       d="M 63.784169,28.065016 H 44.12629 c -1.544547,0 -2.808268,-1.295154 -2.808268,-2.878118 V 10.796302 c 0,-1.5829644 1.263721,-2.8781168 2.808268,-2.8781168 h 19.657879 c 1.54455,0 2.808271,1.2951524 2.808271,2.8781168 v 14.390596 c 0,1.582964 -1.263721,2.878118 -2.808271,2.878118 z"
       id="path30" />
    <ellipse
       style="fill:#fff9c4;stroke-width:0.71074486"
       cx="60.273834"
       cy="13.674427"
       id="circle32"
       rx="2.1062014"
       ry="2.1585894" />
    <polygon
       transform="matrix(0.70206717,0,0,0.71952978,39.211821,2.1619487)"
       style="fill:#942a09"
       points="17,17.9 8,31 26,31 "
       id="polygon34" />
    <polygon
       transform="matrix(0.70206717,0,0,0.71952978,39.211821,2.1619487)"
       style="fill:#bf360c"
       points="28,23.5 22,31 34,31 "
       id="polygon36" />
    <path
       inkscape:connector-curvature="0"
       style="fill:#cccccc;stroke-width:0.71074486"
       d="m 43.729784,48.498801 19.656571,-0.226773 c 1.544444,-0.01782 2.823022,1.262671 2.841283,2.84553 l 0.16601,14.389638 c 0.01826,1.582859 -1.230435,2.892504 -2.774879,2.910322 l -19.656571,0.226773 c -1.544447,0.01782 -2.823025,-1.26267 -2.841286,-2.845529 l -0.16601,-14.389638 c -0.01826,-1.582859 1.230435,-2.892505 2.774882,-2.910323 z"
       id="path30-3" />
    <ellipse
       style="fill:#f2f2f2;stroke-width:0.71074486"
       cx="-46.677769"
       cy="-63.390678"
       id="circle32-6"
       rx="2.1062014"
       ry="2.1585894"
       transform="rotate(179.33902)" />
    <polygon
       transform="matrix(-0.70202045,0.00809904,-0.00830049,-0.7194819,68.599314,74.116678)"
       style="fill:#666666"
       points="17,17.9 8,31 26,31 "
       id="polygon34-7" />
    <polygon
       transform="matrix(-0.70202045,0.00809904,-0.00830049,-0.7194819,68.599314,74.116678)"
       style="fill:#808080"
       points="28,23.5 22,31 34,31 "
       id="polygon36-5" />
    <path
       d="M 84.696594,28.091545 H 73.325173 c -0.89347,0 -1.62449,-0.967592 -1.62449,-2.150204 V 15.190316 c 0,-1.182612 0.73102,-2.150204 1.62449,-2.150204 h 11.371421 c 0.893469,0 1.624489,0.967592 1.624489,2.150204 v 10.751025 c 0,1.182612 -0.73102,2.150204 -1.624489,2.150204 z"
       id="path28"
       inkscape:connector-curvature="0"
       style="fill:#e65100;stroke-width:0.46723816" />
    <path
       d="M 31.779894,28.091545 H 20.408473 c -0.89347,0 -1.62449,-0.967592 -1.62449,-2.150204 V 15.190316 c 0,-1.182612 0.73102,-2.150204 1.62449,-2.150204 h 11.371421 c 0.893469,0 1.624489,0.967592 1.624489,2.150204 v 10.751025 c 0,1.182612 -0.73102,2.150204 -1.624489,2.150204 z"
       id="path28-3"
       inkscape:connector-curvature="0"
       style="fill:#e65100;stroke-width:0.46723816" />
    <path
       d="m 96.952593,28.089968 h -6.867912 c -0.539622,0 -0.981131,-0.446472 -0.981131,-0.992159 v -4.960797 c 0,-0.545688 0.441509,-0.992159 0.981131,-0.992159 h 6.867912 c 0.539622,0 0.981129,0.446471 0.981129,0.992159 v 4.960797 c 0,0.545687 -0.441507,0.992159 -0.981129,0.992159 z"
       id="path28-5"
       inkscape:connector-curvature="0"
       style="fill:#e65100;stroke-width:0.24665736" />
    <path
       d="M 14.356499,27.908215 H 7.4885885 c -0.5396217,0 -0.9811304,-0.446472 -0.9811304,-0.992159 v -4.960797 c 0,-0.545688 0.4415087,-0.992159 0.9811304,-0.992159 h 6.8679105 c 0.539622,0 0.981129,0.446471 0.981129,0.992159 v 4.960797 c 0,0.545687 -0.441507,0.992159 -0.981129,0.992159 z"
       id="path28-5-6"
       inkscape:connector-curvature="0"
       style="fill:#e65100;stroke-width:0.24665734" />
    <path
       d="M 84.872343,64.240561 H 73.500929 c -0.89347,0 -1.62449,-0.967592 -1.62449,-2.150204 V 51.339332 c 0,-1.182612 0.73102,-2.150204 1.62449,-2.150204 h 11.371414 c 0.893467,0 1.624487,0.967592 1.624487,2.150204 v 10.751025 c 0,1.182612 -0.73102,2.150204 -1.624487,2.150204 z"
       id="path28-2"
       inkscape:connector-curvature="0"
       style="fill:#b3b3b3;stroke-width:0.46723816" />
    <path
       d="M 31.955662,64.240561 H 20.584241 c -0.89347,0 -1.62449,-0.967592 -1.62449,-2.150204 V 51.339332 c 0,-1.182612 0.73102,-2.150204 1.62449,-2.150204 h 11.371421 c 0.893469,0 1.624489,0.967592 1.624489,2.150204 v 10.751025 c 0,1.182612 -0.73102,2.150204 -1.624489,2.150204 z"
       id="path28-3-9"
       inkscape:connector-curvature="0"
       style="fill:#b3b3b3;stroke-width:0.46723816" />
    <path
       d="M 97.128334,56.301479 H 90.26043 c -0.53962,0 -0.98113,-0.446472 -0.98113,-0.992159 v -4.960797 c 0,-0.545688 0.44151,-0.992159 0.98113,-0.992159 h 6.867904 c 0.53962,0 0.98113,0.446471 0.98113,0.992159 v 4.960797 c 0,0.545687 -0.44151,0.992159 -0.98113,0.992159 z"
       id="path28-5-1"
       inkscape:connector-curvature="0"
       style="fill:#b3b3b3;stroke-width:0.24665734" />
    <path
       d="M 14.532266,56.119726 H 7.6643554 c -0.539622,0 -0.98113,-0.446472 -0.98113,-0.992159 V 50.16677 c 0,-0.545688 0.441508,-0.992159 0.98113,-0.992159 h 6.8679106 c 0.539622,0 0.981129,0.446471 0.981129,0.992159 v 4.960797 c 0,0.545687 -0.441507,0.992159 -0.981129,0.992159 z"
       id="path28-5-6-2"
       inkscape:connector-curvature="0"
       style="fill:#b3b3b3;stroke-width:0.24665734" />
  </g>
  <g
     inkscape:label="Layer 1"
     inkscape:groupmode="layer"
     id="layer1"
     transform="translate(0,-223)">
    <text
       xml:space="preserve"
       style="font-style:normal;font-variant:normal;font-weight:normal;font-stretch:normal;font-size:10.58333302px;line-height:1.25;font-family:sans-serif;-inkscape-font-specification:'sans-serif, Normal';font-variant-ligatures:normal;font-variant-caps:normal;font-variant-numeric:normal;font-feature-settings:normal;text-align:start;letter-spacing:0px;word-spacing:0px;writing-mode:lr-tb;text-anchor:start;fill:#1a1a1a;fill-opacity:1;stroke:none;stroke-width:0.26458335"
       x="12.471444"
       y="264.47842"
       id="text3416"><tspan
         sodipodi:role="line"
         id="tspan3414"
         x="12.471444"
         y="264.47842"
         style="font-style:normal;font-variant:normal;font-weight:normal;font-stretch:normal;font-size:10.58333302px;font-family:sans-serif;-inkscape-font-specification:'sans-serif, Normal';font-variant-ligatures:normal;font-variant-caps:normal;font-variant-numeric:normal;font-feature-settings:normal;text-align:start;writing-mode:lr-tb;text-anchor:start;fill:#1a1a1a;fill-opacity:1;stroke-width:0.26458335">Internal gallery</tspan></text>
  </g>
</svg>
