<?xml version="1.0" encoding="UTF-8" standalone="no"?>
<!-- Created with Inkscape (http://www.inkscape.org/) -->

<svg
   xmlns:dc="http://purl.org/dc/elements/1.1/"
   xmlns:cc="http://creativecommons.org/ns#"
   xmlns:rdf="http://www.w3.org/1999/02/22-rdf-syntax-ns#"
   xmlns:svg="http://www.w3.org/2000/svg"
   xmlns="http://www.w3.org/2000/svg"
   xmlns:sodipodi="http://sodipodi.sourceforge.net/DTD/sodipodi-0.dtd"
   xmlns:inkscape="http://www.inkscape.org/namespaces/inkscape"
   width="105mm"
   height="74mm"
   viewBox="0 0 105 74"
   version="1.1"
   id="svg12118"
   inkscape:version="0.92.5 (2060ec1f9f, 2020-04-08)"
   sodipodi:docname="9.svg">
  <defs
     id="defs12112">
    <path
       d="M696.53,160.738c0-23.307-14.913-43.087-35.719-50.454V53.579C660.811,23.977,636.834,0,607.231,0H89.299      C59.696,0,35.719,23.977,35.719,53.579l0.134,56.615C15.002,117.517,0,137.341,0,160.738c0,2.5,0.179,4.956,0.491,7.322      l35.228,224.854l0,0L17.994,621.385c-0.089,1.25-0.134,2.456-0.134,3.706c0,29.603,23.977,53.579,53.579,53.579h553.652      c29.603,0,53.579-23.977,53.579-53.579c0-1.25-0.045-2.456-0.134-3.706l-17.726-228.471l35.228-224.854      C696.352,165.694,696.53,163.238,696.53,160.738z"
       id="SVGID_1_" />
    <path
       d="M696.53,160.738c0-23.307-14.913-43.087-35.719-50.454V53.579C660.811,23.977,636.834,0,607.231,0H89.299      C59.696,0,35.719,23.977,35.719,53.579l0.134,56.615C15.002,117.517,0,137.341,0,160.738c0,2.5,0.179,4.956,0.491,7.322      l35.228,224.854l0,0L17.994,621.385c-0.089,1.25-0.134,2.456-0.134,3.706c0,29.603,23.977,53.579,53.579,53.579h553.652      c29.603,0,53.579-23.977,53.579-53.579c0-1.25-0.045-2.456-0.134-3.706l-17.726-228.471l35.228-224.854      C696.352,165.694,696.53,163.238,696.53,160.738z"
       id="SVGID_3_" />
    <path
       d="M696.53,160.738c0-23.307-14.913-43.087-35.719-50.454V53.579C660.811,23.977,636.834,0,607.231,0H89.299      C59.696,0,35.719,23.977,35.719,53.579l0.134,56.615C15.002,117.517,0,137.341,0,160.738c0,2.5,0.179,4.956,0.491,7.322      l35.228,224.854l0,0L17.994,621.385c-0.089,1.25-0.134,2.456-0.134,3.706c0,29.603,23.977,53.579,53.579,53.579h553.652      c29.603,0,53.579-23.977,53.579-53.579c0-1.25-0.045-2.456-0.134-3.706l-17.726-228.471l35.228-224.854      C696.352,165.694,696.53,163.238,696.53,160.738z"
       id="SVGID_5_" />
    <path
       d="M696.53,160.738c0-23.307-14.913-43.087-35.719-50.454V53.579C660.811,23.977,636.834,0,607.231,0H89.299      C59.696,0,35.719,23.977,35.719,53.579l0.134,56.615C15.002,117.517,0,137.341,0,160.738c0,2.5,0.179,4.956,0.491,7.322      l35.228,224.854l0,0L17.994,621.385c-0.089,1.25-0.134,2.456-0.134,3.706c0,29.603,23.977,53.579,53.579,53.579h553.652      c29.603,0,53.579-23.977,53.579-53.579c0-1.25-0.045-2.456-0.134-3.706l-17.726-228.471l35.228-224.854      C696.352,165.694,696.53,163.238,696.53,160.738z"
       id="SVGID_7_" />
    <path
       d="M696.53,160.738c0-23.307-14.913-43.087-35.719-50.454V53.579C660.811,23.977,636.834,0,607.231,0      H89.299C59.696,0,35.719,23.977,35.719,53.579l0.134,56.615C15.002,117.517,0,137.341,0,160.738c0,2.5,0.179,4.956,0.491,7.322      l35.228,224.854l0,0L17.994,621.385c-0.089,1.25-0.134,2.456-0.134,3.706c0,29.603,23.977,53.579,53.579,53.579h553.652      c29.603,0,53.579-23.977,53.579-53.579c0-1.25-0.045-2.456-0.134-3.706l-17.726-228.471l35.228-224.854      C696.352,165.694,696.53,163.238,696.53,160.738z"
       id="SVGID_10_" />
    <path
       d="M696.53,160.738c0-23.307-14.913-43.087-35.719-50.454V53.579C660.811,23.977,636.834,0,607.231,0      H89.299C59.696,0,35.719,23.977,35.719,53.579l0.134,56.615C15.002,117.517,0,137.341,0,160.738c0,2.5,0.179,4.956,0.491,7.322      l35.228,224.854l0,0L17.994,621.385c-0.089,1.25-0.134,2.456-0.134,3.706c0,29.603,23.977,53.579,53.579,53.579h553.652      c29.603,0,53.579-23.977,53.579-53.579c0-1.25-0.045-2.456-0.134-3.706l-17.726-228.471l35.228-224.854      C696.352,165.694,696.53,163.238,696.53,160.738z"
       id="SVGID_12_" />
    <path
       d="M696.53,160.738c0-23.307-14.913-43.087-35.719-50.454V53.579C660.811,23.977,636.834,0,607.231,0      H89.299C59.696,0,35.719,23.977,35.719,53.579l0.134,56.615C15.002,117.517,0,137.341,0,160.738c0,2.5,0.179,4.956,0.491,7.322      l35.228,224.854l0,0L17.994,621.385c-0.089,1.25-0.134,2.456-0.134,3.706c0,29.603,23.977,53.579,53.579,53.579h553.652      c29.603,0,53.579-23.977,53.579-53.579c0-1.25-0.045-2.456-0.134-3.706l-17.726-228.471l35.228-224.854      C696.352,165.694,696.53,163.238,696.53,160.738z"
       id="SVGID_14_" />
    <path
       d="M696.53,160.738c0-23.307-14.913-43.087-35.719-50.454V53.579C660.811,23.977,636.834,0,607.231,0      H89.299C59.696,0,35.719,23.977,35.719,53.579l0.134,56.615C15.002,117.517,0,137.341,0,160.738c0,2.5,0.179,4.956,0.491,7.322      l35.228,224.854l0,0L17.994,621.385c-0.089,1.25-0.134,2.456-0.134,3.706c0,29.603,23.977,53.579,53.579,53.579h553.652      c29.603,0,53.579-23.977,53.579-53.579c0-1.25-0.045-2.456-0.134-3.706l-17.726-228.471l35.228-224.854      C696.352,165.694,696.53,163.238,696.53,160.738z"
       id="SVGID_16_" />
    <path
       d="M642.951,107.158H53.579C23.977,107.158,0,131.135,0,160.738c0,2.5,0.179,4.956,0.491,7.322        l35.228,224.854h625.091l35.228-224.854c0.313-2.411,0.491-4.867,0.491-7.322C696.53,131.135,672.553,107.158,642.951,107.158        z"
       id="SVGID_18_" />
    <path
       d="M696.53,160.738c0-23.307-14.913-43.087-35.719-50.454V53.579C660.811,23.977,636.834,0,607.231,0      H89.299C59.696,0,35.719,23.977,35.719,53.579l0.134,56.615C15.002,117.517,0,137.341,0,160.738c0,2.5,0.179,4.956,0.491,7.322      l35.228,224.854l0,0L17.994,621.385c-0.089,1.25-0.134,2.456-0.134,3.706c0,29.603,23.977,53.579,53.579,53.579h553.652      c29.603,0,53.579-23.977,53.579-53.579c0-1.25-0.045-2.456-0.134-3.706l-17.726-228.471l35.228-224.854      C696.352,165.694,696.53,163.238,696.53,160.738z"
       id="SVGID_20_" />
    <path
       d="M678.536,621.385l-17.726-228.471H35.719L17.994,621.385c-0.089,1.25-0.134,2.456-0.134,3.706        c0,29.603,23.977,53.579,53.579,53.579h553.652c29.603,0,53.579-23.977,53.579-53.579        C678.67,623.841,678.626,622.635,678.536,621.385z"
       id="SVGID_22_" />
    <path
       d="M696.53,160.738c0-23.307-14.913-43.087-35.719-50.454V53.579C660.811,23.977,636.834,0,607.231,0      H89.299C59.696,0,35.719,23.977,35.719,53.579l0.134,56.615C15.002,117.517,0,137.341,0,160.738c0,2.5,0.179,4.956,0.491,7.322      l35.228,224.854l0,0L17.994,621.385c-0.089,1.25-0.134,2.456-0.134,3.706c0,29.603,23.977,53.579,53.579,53.579h553.652      c29.603,0,53.579-23.977,53.579-53.579c0-1.25-0.045-2.456-0.134-3.706l-17.726-228.471l35.228-224.854      C696.352,165.694,696.53,163.238,696.53,160.738z"
       id="SVGID_24_" />
    <path
       d="M696.53,160.738c0-23.307-14.913-43.087-35.719-50.454V53.579C660.811,23.977,636.834,0,607.231,0      H89.299C59.696,0,35.719,23.977,35.719,53.579l0.134,56.615C15.002,117.517,0,137.341,0,160.738c0,2.5,0.179,4.956,0.491,7.322      l35.228,224.854l0,0L17.994,621.385c-0.089,1.25-0.134,2.456-0.134,3.706c0,29.603,23.977,53.579,53.579,53.579h553.652      c29.603,0,53.579-23.977,53.579-53.579c0-1.25-0.045-2.456-0.134-3.706l-17.726-228.471l35.228-224.854      C696.352,165.694,696.53,163.238,696.53,160.738z"
       id="SVGID_27_" />
    <path
       d="M696.53,160.738c0-23.307-14.913-43.087-35.719-50.454V53.579C660.811,23.977,636.834,0,607.231,0      H89.299C59.696,0,35.719,23.977,35.719,53.579l0.134,56.615C15.002,117.517,0,137.341,0,160.738c0,2.5,0.179,4.956,0.491,7.322      l35.228,224.854l0,0L17.994,621.385c-0.089,1.25-0.134,2.456-0.134,3.706c0,29.603,23.977,53.579,53.579,53.579h553.652      c29.603,0,53.579-23.977,53.579-53.579c0-1.25-0.045-2.456-0.134-3.706l-17.726-228.471l35.228-224.854      C696.352,165.694,696.53,163.238,696.53,160.738z"
       id="SVGID_29_" />
    <path
       id="SVGID_1_-7"
       d="M696.53,160.738c0-23.307-14.913-43.087-35.719-50.454V53.579C660.811,23.977,636.834,0,607.231,0H89.299      C59.696,0,35.719,23.977,35.719,53.579l0.134,56.615C15.002,117.517,0,137.341,0,160.738c0,2.5,0.179,4.956,0.491,7.322      l35.228,224.854l0,0L17.994,621.385c-0.089,1.25-0.134,2.456-0.134,3.706c0,29.603,23.977,53.579,53.579,53.579h553.652      c29.603,0,53.579-23.977,53.579-53.579c0-1.25-0.045-2.456-0.134-3.706l-17.726-228.471l35.228-224.854      C696.352,165.694,696.53,163.238,696.53,160.738z" />
    <path
       id="SVGID_3_-5"
       d="M696.53,160.738c0-23.307-14.913-43.087-35.719-50.454V53.579C660.811,23.977,636.834,0,607.231,0H89.299      C59.696,0,35.719,23.977,35.719,53.579l0.134,56.615C15.002,117.517,0,137.341,0,160.738c0,2.5,0.179,4.956,0.491,7.322      l35.228,224.854l0,0L17.994,621.385c-0.089,1.25-0.134,2.456-0.134,3.706c0,29.603,23.977,53.579,53.579,53.579h553.652      c29.603,0,53.579-23.977,53.579-53.579c0-1.25-0.045-2.456-0.134-3.706l-17.726-228.471l35.228-224.854      C696.352,165.694,696.53,163.238,696.53,160.738z" />
    <path
       id="SVGID_5_-3"
       d="M696.53,160.738c0-23.307-14.913-43.087-35.719-50.454V53.579C660.811,23.977,636.834,0,607.231,0H89.299      C59.696,0,35.719,23.977,35.719,53.579l0.134,56.615C15.002,117.517,0,137.341,0,160.738c0,2.5,0.179,4.956,0.491,7.322      l35.228,224.854l0,0L17.994,621.385c-0.089,1.25-0.134,2.456-0.134,3.706c0,29.603,23.977,53.579,53.579,53.579h553.652      c29.603,0,53.579-23.977,53.579-53.579c0-1.25-0.045-2.456-0.134-3.706l-17.726-228.471l35.228-224.854      C696.352,165.694,696.53,163.238,696.53,160.738z" />
    <path
       id="SVGID_7_-5"
       d="M696.53,160.738c0-23.307-14.913-43.087-35.719-50.454V53.579C660.811,23.977,636.834,0,607.231,0H89.299      C59.696,0,35.719,23.977,35.719,53.579l0.134,56.615C15.002,117.517,0,137.341,0,160.738c0,2.5,0.179,4.956,0.491,7.322      l35.228,224.854l0,0L17.994,621.385c-0.089,1.25-0.134,2.456-0.134,3.706c0,29.603,23.977,53.579,53.579,53.579h553.652      c29.603,0,53.579-23.977,53.579-53.579c0-1.25-0.045-2.456-0.134-3.706l-17.726-228.471l35.228-224.854      C696.352,165.694,696.53,163.238,696.53,160.738z" />
    <path
       id="SVGID_10_-6"
       d="M696.53,160.738c0-23.307-14.913-43.087-35.719-50.454V53.579C660.811,23.977,636.834,0,607.231,0      H89.299C59.696,0,35.719,23.977,35.719,53.579l0.134,56.615C15.002,117.517,0,137.341,0,160.738c0,2.5,0.179,4.956,0.491,7.322      l35.228,224.854l0,0L17.994,621.385c-0.089,1.25-0.134,2.456-0.134,3.706c0,29.603,23.977,53.579,53.579,53.579h553.652      c29.603,0,53.579-23.977,53.579-53.579c0-1.25-0.045-2.456-0.134-3.706l-17.726-228.471l35.228-224.854      C696.352,165.694,696.53,163.238,696.53,160.738z" />
    <path
       id="SVGID_12_-2"
       d="M696.53,160.738c0-23.307-14.913-43.087-35.719-50.454V53.579C660.811,23.977,636.834,0,607.231,0      H89.299C59.696,0,35.719,23.977,35.719,53.579l0.134,56.615C15.002,117.517,0,137.341,0,160.738c0,2.5,0.179,4.956,0.491,7.322      l35.228,224.854l0,0L17.994,621.385c-0.089,1.25-0.134,2.456-0.134,3.706c0,29.603,23.977,53.579,53.579,53.579h553.652      c29.603,0,53.579-23.977,53.579-53.579c0-1.25-0.045-2.456-0.134-3.706l-17.726-228.471l35.228-224.854      C696.352,165.694,696.53,163.238,696.53,160.738z" />
    <path
       id="SVGID_14_-9"
       d="M696.53,160.738c0-23.307-14.913-43.087-35.719-50.454V53.579C660.811,23.977,636.834,0,607.231,0      H89.299C59.696,0,35.719,23.977,35.719,53.579l0.134,56.615C15.002,117.517,0,137.341,0,160.738c0,2.5,0.179,4.956,0.491,7.322      l35.228,224.854l0,0L17.994,621.385c-0.089,1.25-0.134,2.456-0.134,3.706c0,29.603,23.977,53.579,53.579,53.579h553.652      c29.603,0,53.579-23.977,53.579-53.579c0-1.25-0.045-2.456-0.134-3.706l-17.726-228.471l35.228-224.854      C696.352,165.694,696.53,163.238,696.53,160.738z" />
    <path
       id="SVGID_16_-1"
       d="M696.53,160.738c0-23.307-14.913-43.087-35.719-50.454V53.579C660.811,23.977,636.834,0,607.231,0      H89.299C59.696,0,35.719,23.977,35.719,53.579l0.134,56.615C15.002,117.517,0,137.341,0,160.738c0,2.5,0.179,4.956,0.491,7.322      l35.228,224.854l0,0L17.994,621.385c-0.089,1.25-0.134,2.456-0.134,3.706c0,29.603,23.977,53.579,53.579,53.579h553.652      c29.603,0,53.579-23.977,53.579-53.579c0-1.25-0.045-2.456-0.134-3.706l-17.726-228.471l35.228-224.854      C696.352,165.694,696.53,163.238,696.53,160.738z" />
    <path
       id="SVGID_18_-2"
       d="M642.951,107.158H53.579C23.977,107.158,0,131.135,0,160.738c0,2.5,0.179,4.956,0.491,7.322        l35.228,224.854h625.091l35.228-224.854c0.313-2.411,0.491-4.867,0.491-7.322C696.53,131.135,672.553,107.158,642.951,107.158        z" />
    <path
       id="SVGID_20_-7"
       d="M696.53,160.738c0-23.307-14.913-43.087-35.719-50.454V53.579C660.811,23.977,636.834,0,607.231,0      H89.299C59.696,0,35.719,23.977,35.719,53.579l0.134,56.615C15.002,117.517,0,137.341,0,160.738c0,2.5,0.179,4.956,0.491,7.322      l35.228,224.854l0,0L17.994,621.385c-0.089,1.25-0.134,2.456-0.134,3.706c0,29.603,23.977,53.579,53.579,53.579h553.652      c29.603,0,53.579-23.977,53.579-53.579c0-1.25-0.045-2.456-0.134-3.706l-17.726-228.471l35.228-224.854      C696.352,165.694,696.53,163.238,696.53,160.738z" />
    <path
       id="SVGID_22_-0"
       d="M678.536,621.385l-17.726-228.471H35.719L17.994,621.385c-0.089,1.25-0.134,2.456-0.134,3.706        c0,29.603,23.977,53.579,53.579,53.579h553.652c29.603,0,53.579-23.977,53.579-53.579        C678.67,623.841,678.626,622.635,678.536,621.385z" />
    <path
       id="SVGID_24_-9"
       d="M696.53,160.738c0-23.307-14.913-43.087-35.719-50.454V53.579C660.811,23.977,636.834,0,607.231,0      H89.299C59.696,0,35.719,23.977,35.719,53.579l0.134,56.615C15.002,117.517,0,137.341,0,160.738c0,2.5,0.179,4.956,0.491,7.322      l35.228,224.854l0,0L17.994,621.385c-0.089,1.25-0.134,2.456-0.134,3.706c0,29.603,23.977,53.579,53.579,53.579h553.652      c29.603,0,53.579-23.977,53.579-53.579c0-1.25-0.045-2.456-0.134-3.706l-17.726-228.471l35.228-224.854      C696.352,165.694,696.53,163.238,696.53,160.738z" />
    <path
       id="SVGID_27_-3"
       d="M696.53,160.738c0-23.307-14.913-43.087-35.719-50.454V53.579C660.811,23.977,636.834,0,607.231,0      H89.299C59.696,0,35.719,23.977,35.719,53.579l0.134,56.615C15.002,117.517,0,137.341,0,160.738c0,2.5,0.179,4.956,0.491,7.322      l35.228,224.854l0,0L17.994,621.385c-0.089,1.25-0.134,2.456-0.134,3.706c0,29.603,23.977,53.579,53.579,53.579h553.652      c29.603,0,53.579-23.977,53.579-53.579c0-1.25-0.045-2.456-0.134-3.706l-17.726-228.471l35.228-224.854      C696.352,165.694,696.53,163.238,696.53,160.738z" />
    <path
       id="SVGID_29_-6"
       d="M696.53,160.738c0-23.307-14.913-43.087-35.719-50.454V53.579C660.811,23.977,636.834,0,607.231,0      H89.299C59.696,0,35.719,23.977,35.719,53.579l0.134,56.615C15.002,117.517,0,137.341,0,160.738c0,2.5,0.179,4.956,0.491,7.322      l35.228,224.854l0,0L17.994,621.385c-0.089,1.25-0.134,2.456-0.134,3.706c0,29.603,23.977,53.579,53.579,53.579h553.652      c29.603,0,53.579-23.977,53.579-53.579c0-1.25-0.045-2.456-0.134-3.706l-17.726-228.471l35.228-224.854      C696.352,165.694,696.53,163.238,696.53,160.738z" />
  </defs>
  <sodipodi:namedview
     id="base"
     pagecolor="#ffffff"
     bordercolor="#666666"
     borderopacity="1.0"
     inkscape:pageopacity="0.0"
     inkscape:pageshadow="2"
     inkscape:zoom="2.2847406"
     inkscape:cx="270.23099"
     inkscape:cy="91.636301"
     inkscape:document-units="px"
     inkscape:current-layer="layer2"
     showgrid="false"
     inkscape:window-width="1860"
     inkscape:window-height="1016"
     inkscape:window-x="60"
     inkscape:window-y="27"
     inkscape:window-maximized="1"
     showguides="true"
     inkscape:guide-bbox="true">
    <sodipodi:guide
       position="33.082015,65.672712"
       orientation="0,1"
       id="guide12694"
       inkscape:locked="false" />
    <sodipodi:guide
       position="12.544899,47.214442"
       orientation="1,0"
       id="guide12696"
       inkscape:locked="false" />
  </sodipodi:namedview>
  <metadata
     id="metadata12115">
    <rdf:RDF>
      <cc:Work
         rdf:about="">
        <dc:format>image/svg+xml</dc:format>
        <dc:type
           rdf:resource="http://purl.org/dc/dcmitype/StillImage" />
        <dc:title />
      </cc:Work>
    </rdf:RDF>
  </metadata>
  <g
     inkscape:groupmode="layer"
     id="layer2"
     inkscape:label="backg">
    <rect
       style="fill:#ffffff;stroke:#f9f9f9;stroke-width:0.5291667;stroke-miterlimit:10;stroke-dasharray:none;stroke-opacity:1"
       id="rect2940"
       width="100.22869"
       height="71.077194"
       x="2.4565856"
       y="1.2850778" />
    <g
       transform="matrix(0.09839923,0,0,0.09839923,9.3698086,17.820558)"
       id="g14">
      <polygon
         style="fill:#343434"
         id="polygon2"
         points="125.1661,285.168 127.9611,287.958 255.9231,212.32 127.9611,0 125.1661,9.5 " />
      <polygon
         style="fill:#8c8c8c"
         id="polygon4"
         points="127.962,0 0,212.32 127.962,287.959 127.962,154.158 " />
      <polygon
         style="fill:#3c3c3b"
         id="polygon6"
         points="126.3861,412.3056 127.9611,416.9066 255.9991,236.5866 127.9611,312.1866 126.3861,314.1066 " />
      <polygon
         style="fill:#8c8c8c"
         id="polygon8"
         points="127.962,416.9052 127.962,312.1852 0,236.5852 " />
      <polygon
         style="fill:#141414"
         id="polygon10"
         points="127.9611,287.9577 255.9211,212.3207 127.9611,154.1587 " />
      <polygon
         style="fill:#393939"
         id="polygon12"
         points="0.0009,212.3208 127.9609,287.9578 127.9609,154.1588 " />
    </g>
    <path
       inkscape:connector-curvature="0"
       id="path50"
       style="font-style:normal;font-weight:normal;font-size:7.76111126px;line-height:1.25;font-family:sans-serif;letter-spacing:0px;word-spacing:0px;fill:#000000;fill-opacity:1;stroke:none;stroke-width:0.26458335"
       d="m 41.756519,30.094435 h 3.577387 v 0.644233 h -2.811887 v 1.675005 h 2.694409 v 0.644233 h -2.694409 v 2.050177 h 2.8801 v 0.644233 h -3.6456 z" />
    <path
       inkscape:connector-curvature="0"
       id="path52"
       style="font-style:normal;font-weight:normal;font-size:7.76111126px;line-height:1.25;font-family:sans-serif;letter-spacing:0px;word-spacing:0px;fill:#000000;fill-opacity:1;stroke:none;stroke-width:0.26458335"
       d="m 45.87582,30.094435 h 4.786271 v 0.644233 H 48.6536 v 5.013648 h -0.76929 v -5.013648 h -2.00849 z" />
    <path
       inkscape:connector-curvature="0"
       id="path54"
       style="font-style:normal;font-weight:normal;font-size:7.76111126px;line-height:1.25;font-family:sans-serif;letter-spacing:0px;word-spacing:0px;fill:#000000;fill-opacity:1;stroke:none;stroke-width:0.26458335"
       d="m 51.401063,30.094435 h 0.765501 v 2.319238 h 2.78157 v -2.319238 h 0.7655 v 5.657881 h -0.7655 v -2.69441 h -2.78157 v 2.69441 h -0.765501 z" />
    <path
       inkscape:connector-curvature="0"
       id="path56"
       style="font-style:normal;font-weight:normal;font-size:7.76111126px;line-height:1.25;font-family:sans-serif;letter-spacing:0px;word-spacing:0px;fill:#000000;fill-opacity:1;stroke:none;stroke-width:0.26458335"
       d="m 57.237056,30.094435 h 3.577387 v 0.644233 h -2.811887 v 1.675005 h 2.69441 v 0.644233 h -2.69441 v 2.050177 h 2.8801 v 0.644233 h -3.6456 z" />
    <path
       inkscape:connector-curvature="0"
       id="path58"
       style="font-style:normal;font-weight:normal;font-size:7.76111126px;line-height:1.25;font-family:sans-serif;letter-spacing:0px;word-spacing:0px;fill:#000000;fill-opacity:1;stroke:none;stroke-width:0.26458335"
       d="m 64.823844,33.099592 q 0.246325,0.08337 0.47749,0.356223 0.234956,0.272851 0.469911,0.750342 l 0.77687,1.546159 H 65.72577 l -0.723814,-1.451419 q -0.280431,-0.568441 -0.545703,-0.754132 -0.261483,-0.18569 -0.716236,-0.18569 h -0.833713 v 2.391241 h -0.7655 v -5.657881 h 1.72806 q 0.970139,0 1.447629,0.405488 0.47749,0.405488 0.47749,1.224042 0,0.534335 -0.250114,0.886768 -0.246324,0.352433 -0.720025,0.488859 z M 62.906304,30.72351 V 32.732 h 0.96256 q 0.553282,0 0.833713,-0.253903 0.28422,-0.257693 0.28422,-0.754132 0,-0.496438 -0.28422,-0.746552 -0.280431,-0.253903 -0.833713,-0.253903 z" />
    <path
       inkscape:connector-curvature="0"
       id="path60"
       style="font-style:normal;font-weight:normal;font-size:7.76111126px;line-height:1.25;font-family:sans-serif;letter-spacing:0px;word-spacing:0px;fill:#000000;fill-opacity:1;stroke:none;stroke-width:0.26458335"
       d="m 70.925109,30.280126 v 0.746552 q -0.435805,-0.208428 -0.822344,-0.310748 -0.38654,-0.102319 -0.746553,-0.102319 -0.625284,0 -0.966349,0.242535 -0.337275,0.242534 -0.337275,0.689708 0,0.375171 0.223587,0.568441 0.227376,0.18948 0.856451,0.306958 l 0.462332,0.09474 q 0.85645,0.162953 1.261938,0.57602 0.409277,0.409277 0.409277,1.098985 0,0.822345 -0.553282,1.24678 -0.549493,0.424436 -1.614372,0.424436 -0.401698,0 -0.85645,-0.09095 -0.450963,-0.09095 -0.936033,-0.269062 v -0.788238 q 0.466122,0.261482 0.913295,0.394119 0.447173,0.132636 0.879188,0.132636 0.655602,0 1.011825,-0.257693 0.356223,-0.257693 0.356223,-0.735184 0,-0.416856 -0.257693,-0.651812 -0.253904,-0.234955 -0.837503,-0.352433 l -0.466122,-0.09095 q -0.85645,-0.170532 -1.2392,-0.534334 -0.38275,-0.363802 -0.38275,-1.011824 0,-0.750342 0.526755,-1.182357 0.530544,-0.432015 1.458998,-0.432015 0.397908,0 0.810975,0.072 0.413067,0.072 0.845082,0.216009 z" />
    <path
       inkscape:connector-curvature="0"
       id="path62"
       style="font-style:normal;font-weight:normal;font-size:7.76111126px;line-height:1.25;font-family:sans-serif;letter-spacing:0px;word-spacing:0px;fill:#000000;fill-opacity:1;stroke:none;stroke-width:0.26458335"
       d="m 76.696678,30.53024 v 0.807186 q -0.38654,-0.360013 -0.826134,-0.538124 -0.435805,-0.178112 -0.928453,-0.178112 -0.970139,0 -1.485525,0.594968 -0.515387,0.591179 -0.515387,1.712902 0,1.117933 0.515387,1.712901 0.515386,0.591179 1.485525,0.591179 0.492648,0 0.928453,-0.178112 0.439594,-0.178111 0.826134,-0.538124 v 0.799607 q -0.401698,0.272852 -0.852661,0.409277 -0.447174,0.136426 -0.947402,0.136426 -1.284676,0 -2.023649,-0.784448 -0.738973,-0.788238 -0.738973,-2.148706 0,-1.364258 0.738973,-2.148706 0.738973,-0.788238 2.023649,-0.788238 0.507808,0 0.954981,0.136426 0.450963,0.132636 0.845082,0.401698 z" />
    <path
       inkscape:connector-curvature="0"
       id="path64"
       style="font-style:normal;font-weight:normal;font-size:7.76111126px;line-height:1.25;font-family:sans-serif;letter-spacing:0px;word-spacing:0px;fill:#000000;fill-opacity:1;stroke:none;stroke-width:0.26458335"
       d="m 79.770048,30.848567 -1.038351,2.815676 h 2.080493 z m -0.432015,-0.754132 h 0.86782 l 2.156285,5.657881 h -0.795817 l -0.515386,-1.451419 h -2.550404 l -0.515387,1.451419 h -0.807185 z" />
    <path
       inkscape:connector-curvature="0"
       id="path66"
       style="font-style:normal;font-weight:normal;font-size:7.76111126px;line-height:1.25;font-family:sans-serif;letter-spacing:0px;word-spacing:0px;fill:#000000;fill-opacity:1;stroke:none;stroke-width:0.26458335"
       d="m 83.18827,30.094435 h 1.030773 l 2.508718,4.733217 v -4.733217 h 0.742763 v 5.657881 h -1.030773 l -2.508718,-4.733217 v 4.733217 H 83.18827 Z" />
    <path
       inkscape:connector-curvature="0"
       id="path68"
       style="font-style:normal;font-weight:normal;font-size:7.76111126px;line-height:1.25;font-family:sans-serif;letter-spacing:0px;word-spacing:0px;fill:#000000;fill-opacity:1;stroke:none;stroke-width:0.26458335"
       d="m 89.062158,34.789756 h 0.799607 v 0.96256 h -0.799607 z" />
    <path
       inkscape:connector-curvature="0"
       id="path70"
       style="font-style:normal;font-weight:normal;font-size:7.76111126px;line-height:1.25;font-family:sans-serif;letter-spacing:0px;word-spacing:0px;fill:#000000;fill-opacity:1;stroke:none;stroke-width:0.26458335"
       d="m 91.460979,30.094435 h 0.7655 v 5.657881 h -0.7655 z" />
    <path
       inkscape:connector-curvature="0"
       id="path72"
       style="font-style:normal;font-weight:normal;font-size:7.76111126px;line-height:1.25;font-family:sans-serif;letter-spacing:0px;word-spacing:0px;fill:#000000;fill-opacity:1;stroke:none;stroke-width:0.26458335"
       d="m 96.046401,30.613611 q -0.833713,0 -1.326362,0.621495 -0.488859,0.621495 -0.488859,1.693954 0,1.068668 0.488859,1.690164 0.492649,0.621495 1.326362,0.621495 0.833713,0 1.318783,-0.621495 0.488859,-0.621496 0.488859,-1.690164 0,-1.072459 -0.488859,-1.693954 -0.48507,-0.621495 -1.318783,-0.621495 z m 0,-0.621495 q 1.189936,0 1.902382,0.799606 0.712446,0.795818 0.712446,2.137338 0,1.33773 -0.712446,2.137337 -0.712446,0.795817 -1.902382,0.795817 -1.193726,0 -1.909961,-0.795817 -0.712446,-0.795817 -0.712446,-2.137337 0,-1.34152 0.712446,-2.137338 0.716235,-0.799606 1.909961,-0.799606 z" />
    <g
       aria-label="BALANCE | TRANSACTIONS"
       style="font-style:normal;font-weight:normal;font-size:10.58333302px;line-height:1.25;font-family:sans-serif;letter-spacing:0px;word-spacing:0px;fill:#000000;fill-opacity:1;stroke:none;stroke-width:0.26458335"
       id="text395-9">
      <path
         d="m 41.882218,46.399143 v 1.130681 h 0.669727 q 0.33693,0 0.498161,-0.138493 0.163297,-0.14056 0.163297,-0.427881 0,-0.289388 -0.163297,-0.425814 -0.161231,-0.138493 -0.498161,-0.138493 z m 0,-1.269173 v 0.930176 h 0.618051 q 0.305924,0 0.454752,-0.113688 0.150895,-0.115755 0.150895,-0.3514 0,-0.233577 -0.150895,-0.349333 -0.148828,-0.115755 -0.454752,-0.115755 z m -0.417545,-0.343131 h 1.066602 q 0.47749,0 0.735872,0.198437 0.258382,0.198438 0.258382,0.564307 0,0.283187 -0.132292,0.450618 -0.132291,0.167432 -0.388606,0.208773 0.307991,0.06615 0.47749,0.276986 0.171566,0.208773 0.171566,0.522965 0,0.413412 -0.28112,0.638721 -0.28112,0.225309 -0.799951,0.225309 h -1.107943 z"
         style="font-size:4.23333359px;stroke-width:0.26458335"
         id="path87" />
      <path
         d="m 45.40035,45.198183 -0.566374,1.535824 h 1.134815 z m -0.235644,-0.411344 h 0.473356 l 1.176155,3.086116 h -0.434082 l -0.281119,-0.791683 h -1.39113 l -0.28112,0.791683 h -0.440283 z"
         style="font-size:4.23333359px;stroke-width:0.26458335"
         id="path89" />
      <path
         d="m 47.264836,44.786839 h 0.417546 v 2.734717 h 1.50275 v 0.351399 h -1.920296 z"
         style="font-size:4.23333359px;stroke-width:0.26458335"
         id="path91" />
      <path
         d="m 50.751961,45.198183 -0.566373,1.535824 h 1.134814 z m -0.235644,-0.411344 h 0.473356 l 1.176156,3.086116 h -0.434082 l -0.28112,-0.791683 h -1.39113 l -0.28112,0.791683 h -0.440283 z"
         style="font-size:4.23333359px;stroke-width:0.26458335"
         id="path93" />
      <path
         d="m 52.616447,44.786839 h 0.56224 l 1.368392,2.581754 v -2.581754 h 0.405143 v 3.086116 h -0.562239 l -1.368392,-2.581754 v 2.581754 h -0.405144 z"
         style="font-size:4.23333359px;stroke-width:0.26458335"
         id="path95" />
      <path
         d="m 58.094149,45.02455 v 0.440283 q -0.21084,-0.19637 -0.450618,-0.293522 -0.237712,-0.09715 -0.506429,-0.09715 -0.529167,0 -0.810287,0.324528 -0.28112,0.322461 -0.28112,0.93431 0,0.609781 0.28112,0.934309 0.28112,0.322461 0.810287,0.322461 0.268717,0 0.506429,-0.09715 0.239778,-0.09715 0.450618,-0.293522 v 0.436149 q -0.219108,0.148828 -0.465088,0.223242 -0.243912,0.07441 -0.516764,0.07441 -0.700732,0 -1.103809,-0.427881 -0.403076,-0.429948 -0.403076,-1.172021 0,-0.744141 0.403076,-1.172022 0.403077,-0.429948 1.103809,-0.429948 0.276986,0 0.520899,0.07441 0.245979,0.07235 0.460953,0.219108 z"
         style="font-size:4.23333359px;stroke-width:0.26458335"
         id="path97" />
      <path
         d="m 58.739072,44.786839 h 1.951302 v 0.351399 h -1.533757 v 0.91364 h 1.469678 v 0.351399 h -1.469678 v 1.118279 h 1.570964 v 0.351399 h -1.988509 z"
         style="font-size:4.23333359px;stroke-width:0.26458335"
         id="path99" />
      <path
         d="m 63.232854,44.63801 v 4.233334 h -0.3514 V 44.63801 Z"
         style="font-size:4.23333359px;stroke-width:0.26458335"
         id="path101" />
      <path
         d="m 65.103542,44.786839 h 2.610693 v 0.351399 h -1.09554 v 2.734717 h -0.419613 v -2.734717 h -1.09554 z"
         style="font-size:4.23333359px;stroke-width:0.26458335"
         id="path103" />
      <path
         d="m 69.580787,46.426015 q 0.134359,0.04548 0.260449,0.194304 0.128158,0.148828 0.256315,0.409277 l 0.423747,0.843359 h -0.448551 l -0.394808,-0.791683 q -0.152963,-0.310058 -0.297657,-0.411344 -0.142627,-0.101286 -0.390673,-0.101286 h -0.454753 v 1.304313 H 68.11731 v -3.086116 h 0.942579 q 0.529166,0 0.789615,0.221175 0.26045,0.221175 0.26045,0.667659 0,0.291455 -0.136426,0.483692 -0.134359,0.192236 -0.392741,0.26665 z M 68.534856,45.12997 v 1.095541 h 0.525033 q 0.30179,0 0.454752,-0.138493 0.155029,-0.14056 0.155029,-0.411345 0,-0.270784 -0.155029,-0.40721 -0.152962,-0.138493 -0.454752,-0.138493 z"
         style="font-size:4.23333359px;stroke-width:0.26458335"
         id="path105" />
      <path
         d="m 71.918629,45.198183 -0.566373,1.535824 h 1.134814 z m -0.235644,-0.411344 h 0.473356 l 1.176156,3.086116 h -0.434082 l -0.28112,-0.791683 h -1.39113 l -0.28112,0.791683 h -0.440283 z"
         style="font-size:4.23333359px;stroke-width:0.26458335"
         id="path107" />
      <path
         d="m 73.783116,44.786839 h 0.56224 l 1.368392,2.581754 v -2.581754 h 0.405143 v 3.086116 h -0.56224 l -1.368392,-2.581754 v 2.581754 h -0.405143 z"
         style="font-size:4.23333359px;stroke-width:0.26458335"
         id="path109" />
      <path
         d="m 78.799865,44.888124 v 0.407211 q -0.237711,-0.113688 -0.448551,-0.169499 -0.21084,-0.05581 -0.40721,-0.05581 -0.341065,0 -0.5271,0.132292 -0.183968,0.132292 -0.183968,0.376205 0,0.204638 0.121956,0.310058 0.124024,0.103353 0.467155,0.167432 l 0.252181,0.05168 q 0.467155,0.08888 0.68833,0.314193 0.223243,0.223242 0.223243,0.599447 0,0.448551 -0.301791,0.680062 -0.299723,0.23151 -0.880566,0.23151 -0.219108,0 -0.467155,-0.04961 -0.24598,-0.04961 -0.510563,-0.146761 v -0.429948 q 0.254248,0.142627 0.49816,0.214974 0.243913,0.07235 0.479558,0.07235 0.357601,0 0.551904,-0.14056 0.194303,-0.14056 0.194303,-0.401009 0,-0.227377 -0.14056,-0.355534 -0.138492,-0.128158 -0.456819,-0.192237 l -0.254248,-0.04961 q -0.467155,-0.09302 -0.675928,-0.291455 -0.208773,-0.198438 -0.208773,-0.551904 0,-0.409278 0.287321,-0.644922 0.289388,-0.235645 0.795817,-0.235645 0.217041,0 0.442351,0.03927 0.225309,0.03927 0.460953,0.117822 z"
         style="font-size:4.23333359px;stroke-width:0.26458335"
         id="path111" />
      <path
         d="m 80.747031,45.198183 -0.566374,1.535824 h 1.134815 z m -0.235645,-0.411344 h 0.473357 l 1.176155,3.086116 h -0.434082 l -0.28112,-0.791683 h -1.391129 l -0.28112,0.791683 h -0.440283 z"
         style="font-size:4.23333359px;stroke-width:0.26458335"
         id="path113" />
      <path
         d="m 84.848073,45.02455 v 0.440283 q -0.21084,-0.19637 -0.450619,-0.293522 -0.237711,-0.09715 -0.506429,-0.09715 -0.529167,0 -0.810286,0.324528 -0.28112,0.322461 -0.28112,0.93431 0,0.609781 0.28112,0.934309 0.281119,0.322461 0.810286,0.322461 0.268718,0 0.506429,-0.09715 0.239779,-0.09715 0.450619,-0.293522 v 0.436149 q -0.219108,0.148828 -0.465088,0.223242 -0.243913,0.07441 -0.516765,0.07441 -0.700732,0 -1.103808,-0.427881 -0.403076,-0.429948 -0.403076,-1.172021 0,-0.744141 0.403076,-1.172022 0.403076,-0.429948 1.103808,-0.429948 0.276986,0 0.520899,0.07441 0.24598,0.07235 0.460954,0.219108 z"
         style="font-size:4.23333359px;stroke-width:0.26458335"
         id="path115" />
      <path
         d="m 85.065116,44.786839 h 2.610694 v 0.351399 h -1.095541 v 2.734717 h -0.419612 v -2.734717 h -1.095541 z"
         style="font-size:4.23333359px;stroke-width:0.26458335"
         id="path117" />
      <path
         d="m 88.078885,44.786839 h 0.417546 v 3.086116 h -0.417546 z"
         style="font-size:4.23333359px;stroke-width:0.26458335"
         id="path119" />
      <path
         d="m 90.580023,45.070025 q -0.454753,0 -0.723471,0.338998 -0.26665,0.338997 -0.26665,0.923975 0,0.58291 0.26665,0.921907 0.268718,0.338998 0.723471,0.338998 0.454752,0 0.719336,-0.338998 0.26665,-0.338997 0.26665,-0.921907 0,-0.584978 -0.26665,-0.923975 -0.264584,-0.338998 -0.719336,-0.338998 z m 0,-0.338997 q 0.649056,0 1.037662,0.436149 0.388607,0.434082 0.388607,1.165821 0,0.729671 -0.388607,1.16582 -0.388606,0.434082 -1.037662,0.434082 -0.651124,0 -1.041797,-0.434082 -0.388607,-0.434082 -0.388607,-1.16582 0,-0.731739 0.388607,-1.165821 0.390673,-0.436149 1.041797,-0.436149 z"
         style="font-size:4.23333359px;stroke-width:0.26458335"
         id="path121" />
      <path
         d="m 92.659486,44.786839 h 0.562239 l 1.368392,2.581754 v -2.581754 h 0.405144 v 3.086116 h -0.56224 l -1.368392,-2.581754 v 2.581754 h -0.405143 z"
         style="font-size:4.23333359px;stroke-width:0.26458335"
         id="path123" />
      <path
         d="m 97.676231,44.888124 v 0.407211 q -0.237712,-0.113688 -0.448551,-0.169499 -0.21084,-0.05581 -0.407211,-0.05581 -0.341064,0 -0.527099,0.132292 -0.183969,0.132292 -0.183969,0.376205 0,0.204638 0.121957,0.310058 0.124023,0.103353 0.467155,0.167432 l 0.252181,0.05168 q 0.467155,0.08888 0.68833,0.314193 0.223242,0.223242 0.223242,0.599447 0,0.448551 -0.30179,0.680062 -0.299724,0.23151 -0.880567,0.23151 -0.219108,0 -0.467155,-0.04961 -0.245979,-0.04961 -0.510563,-0.146761 v -0.429948 q 0.254248,0.142627 0.498161,0.214974 0.243913,0.07235 0.479557,0.07235 0.357601,0 0.551905,-0.14056 0.194303,-0.14056 0.194303,-0.401009 0,-0.227377 -0.14056,-0.355534 -0.138493,-0.128158 -0.45682,-0.192237 l -0.254248,-0.04961 q -0.467155,-0.09302 -0.675927,-0.291455 -0.208773,-0.198438 -0.208773,-0.551904 0,-0.409278 0.287321,-0.644922 0.289388,-0.235645 0.795817,-0.235645 0.217041,0 0.44235,0.03927 0.225309,0.03927 0.460954,0.117822 z"
         style="font-size:4.23333359px;stroke-width:0.26458335"
         id="path125" />
    </g>
  </g>
  <g
     inkscape:label="Layer 1"
     inkscape:groupmode="layer"
     id="layer1"
     transform="translate(0,-223)" />
</svg>
