<?xml version="1.0" encoding="UTF-8" standalone="no"?>
<!-- Generator: Gravit.io -->

<svg
   style="isolation:isolate"
   viewBox="0 0 514.451 512"
   width="514.451"
   height="512"
   version="1.1"
   id="svg4"
   sodipodi:docname="01n.svg"
   inkscape:version="1.1.2 (0a00cf5339, 2022-02-04)"
   xmlns:inkscape="http://www.inkscape.org/namespaces/inkscape"
   xmlns:sodipodi="http://sodipodi.sourceforge.net/DTD/sodipodi-0.dtd"
   xmlns="http://www.w3.org/2000/svg"
   xmlns:svg="http://www.w3.org/2000/svg">
  <defs
     id="defs8" />
  <sodipodi:namedview
     id="namedview6"
     pagecolor="#ffffff"
     bordercolor="#666666"
     borderopacity="1.0"
     inkscape:pageshadow="2"
     inkscape:pageopacity="0.0"
     inkscape:pagecheckerboard="0"
     showgrid="false"
     inkscape:zoom="0.63446243"
     inkscape:cx="169.43478"
     inkscape:cy="410.5838"
     inkscape:window-width="1858"
     inkscape:window-height="1016"
     inkscape:window-x="62"
     inkscape:window-y="27"
     inkscape:window-maximized="1"
     inkscape:current-layer="svg4" />
  <path
     sodipodi:type="star"
     style="fill:#ffffff;stroke:#000000;stroke-width:12"
     id="path1770"
     inkscape:flatsided="false"
     sodipodi:sides="5"
     sodipodi:cx="347.19623"
     sodipodi:cy="137.68292"
     sodipodi:r1="41.111534"
     sodipodi:r2="20.555771"
     sodipodi:arg1="-0.2364025"
     sodipodi:arg2="0.39191603"
     inkscape:rounded="0"
     inkscape:randomized="0"
     d="m 387.16432,128.05433 -20.97088,17.48007 2.51095,27.18504 -23.1049,-14.54286 -25.07858,10.7887 6.69127,-26.46806 -18.01036,-20.51725 27.24033,-1.81531 13.94756,-23.469052 10.14418,25.346132 z"
     inkscape:transform-center-x="-6.8123071"
     inkscape:transform-center-y="0.076797425"
     transform="matrix(1.7035373,0.41995498,-0.41656191,1.7174133,-126.21378,-272.17827)" />
  <circle
     style="fill:#000000;stroke-width:12"
     id="path1794"
     cx="443.76938"
     cy="325.55231"
     r="18.952299" />
  <g
     id="g19"
     transform="matrix(7.7197136,3.6335014,-3.6335014,7.7197136,180.80348,2.6980042)">
    <g
       id="g6">
      <g
         id="g4">
        <path
           style="fill:#010002"
           d="M 24.997,47.511 C 11.214,47.511 0,36.298 0,22.515 0,12.969 5.314,4.392 13.869,0.132 c 0.385,-0.191 0.848,-0.117 1.151,0.186 0.303,0.303 0.381,0.766 0.192,1.15 -1.561,3.172 -2.352,6.582 -2.352,10.133 0,12.681 10.316,22.997 22.997,22.997 3.59,0 7.033,-0.809 10.236,-2.403 0.386,-0.191 0.848,-0.117 1.151,0.186 0.304,0.303 0.381,0.766 0.192,1.15 -4.24,8.622 -12.839,13.98 -22.439,13.98 z M 12.248,3.372 C 5.862,7.608 2,14.709 2,22.515 c 0,12.68 10.316,22.996 22.997,22.996 7.854,0 14.981,-3.898 19.207,-10.343 -2.668,0.95 -5.464,1.43 -8.346,1.43 -13.783,0 -24.997,-11.214 -24.997,-24.997 0,-2.84 0.466,-5.596 1.387,-8.229 z"
           id="path2" />
      </g>
    </g>
  </g>
</svg>
