<?xml version="1.0" encoding="UTF-8" standalone="no"?>
<!-- Generator: Gravit.io -->

<svg
   style="isolation:isolate"
   viewBox="0 0 512 512"
   width="512"
   height="512"
   version="1.1"
   id="svg21"
   sodipodi:docname="02d.svg"
   inkscape:version="1.1.2 (0a00cf5339, 2022-02-04)"
   xmlns:inkscape="http://www.inkscape.org/namespaces/inkscape"
   xmlns:sodipodi="http://sodipodi.sourceforge.net/DTD/sodipodi-0.dtd"
   xmlns="http://www.w3.org/2000/svg"
   xmlns:svg="http://www.w3.org/2000/svg">
  <defs
     id="defs25" />
  <sodipodi:namedview
     id="namedview23"
     pagecolor="#ffffff"
     bordercolor="#666666"
     borderopacity="1.0"
     inkscape:pageshadow="2"
     inkscape:pageopacity="0.0"
     inkscape:pagecheckerboard="0"
     showgrid="false"
     inkscape:zoom="1.6992188"
     inkscape:cx="255.70575"
     inkscape:cy="252.17471"
     inkscape:window-width="1858"
     inkscape:window-height="1016"
     inkscape:window-x="62"
     inkscape:window-y="27"
     inkscape:window-maximized="1"
     inkscape:current-layer="svg21" />
  <path
     d="m 367.73295,213.54305 c 37.56548,0 67.85991,-30.53712 67.85991,-67.85991 0,-37.32278 -30.53713,-67.85991 -67.85991,-67.85991 -37.32279,0 -67.85991,30.53713 -67.85991,67.85991 0,37.32279 30.29442,67.85991 67.85991,67.85991 z m 0,-116.088734 c 26.65944,0 48.22882,21.569374 48.22882,48.228824 0,26.65945 -21.56938,48.22882 -48.22882,48.22882 -26.65945,0 -48.22883,-21.56937 -48.22883,-48.22882 0,-26.65945 21.56938,-48.228824 48.22883,-48.228824 z"
     fill="#000000"
     id="path2"
     style="stroke-width:0.549091" />
  <path
     d="m 377.66984,46.316411 v -31.26357 c 0,-5.574368 -4.36253,-9.9368927 -9.93689,-9.9368927 -5.57437,0 -9.9369,4.3625247 -9.9369,9.9368927 v 31.26357 c 0,5.574368 4.36253,9.936893 9.9369,9.936893 5.57436,0 9.93689,-4.362525 9.93689,-9.936893 z"
     fill="#000000"
     id="path4"
     style="stroke-width:0.549091" />
  <path
     d="m 445.0449,82.427903 22.05477,-22.054772 c 3.87768,-3.877678 3.87768,-10.178493 0,-14.05672 -3.87822,-3.877677 -10.17904,-3.877677 -14.05671,0 l -22.05478,22.054773 c -3.87768,3.877678 -3.87768,10.179041 0,14.056719 1.93884,1.938839 4.36253,2.908533 7.02836,2.908533 2.66584,0 5.08952,-0.969694 7.02836,-2.908533 z"
     fill="#000000"
     id="path8"
     style="stroke-width:0.549091" />
  <path
     d="m 508.30014,145.68314 c 0,-5.57437 -4.36253,-9.93689 -9.93689,-9.93689 h -31.26358 c -5.57436,0 -9.93689,4.36252 -9.93689,9.93689 0,5.57437 4.36253,9.93689 9.93689,9.93689 h 31.26358 c 5.33221,0 9.93689,-4.36252 9.93689,-9.93689 z"
     fill="#000000"
     id="path12"
     style="stroke-width:0.549091" />
  <path
     d="m 284.24469,136.86433 c 0,-5.57437 -4.36253,-9.93689 -9.93689,-9.93689 h -31.26358 c -5.57436,0 -9.93689,4.36252 -9.93689,9.93689 0,5.57437 4.36253,9.93689 9.93689,9.93689 h 31.26358 c 5.3322,0 9.93689,-4.36252 9.93689,-9.93689 z"
     fill="#000000"
     id="path12-6"
     style="isolation:isolate;stroke-width:0.549091" />
  <path
     d="m 460.07131,247.95785 c 2.42314,0 5.08898,-0.96914 7.02836,-2.90798 3.87768,-3.87823 3.87768,-10.17904 0,-14.05672 L 445.0449,208.93838 c -3.87768,-3.87768 -10.17904,-3.87768 -14.05672,0 -3.87768,3.87768 -3.87768,10.17904 0,14.05672 l 22.05478,22.05477 c 1.93883,1.93884 4.60467,2.90798 7.02835,2.90798 z"
     fill="#000000"
     id="path16"
     style="stroke-width:0.549091" />
  <path
     d="m 304.47771,82.427903 c 3.87768,-3.877678 3.87768,-10.179041 0,-14.056719 L 282.42293,46.316411 c -3.87767,-3.877677 -10.17849,-3.877677 -14.05672,0 -3.87767,3.878227 -3.87767,10.179042 0,14.05672 l 22.05478,22.054772 c 1.93884,1.938839 4.36252,2.908533 7.02836,2.908533 2.66584,0 5.08952,-0.969694 7.02836,-2.908533 z"
     fill="#000000"
     id="path18"
     style="stroke-width:0.549091" />
  <path
     d="m 224.47709,151.93385 c -59.245,0 -107.445,47.246 -107.445,105.317 0,0.205 0,0.407 0.002,0.612 -39.738998,2.989 -71.145998,35.674 -71.145998,75.422 0,41.708 34.581,75.639 77.087998,75.639 h 206.801 c 37.259,0 69.717,-20.509 86.269,-50.615 52.17118,-98.89082 -100.50807,-204.85442 -191.569,-206.375 z m 105.298,231.84 h -206.799 c -28.638998,0 -51.937998,-22.65 -51.937998,-50.489 0,-27.841 23.299,-50.493 51.937998,-50.493 1.767,0 3.733,0.132 6.18,0.419 3.885,0.459 7.753,-0.922 10.478,-3.726 2.723,-2.801 3.989,-6.711 3.425,-10.579 -0.581,-3.989 -0.877,-7.911 -0.877,-11.655 0,-44.204 36.917,-80.167 82.295,-80.167 35.993,0 68.312,23.377 78.736,56.888 0.134,0.471 0.297,0.929 0.483,1.375 2.188,5.421 7.879,8.68 13.734,7.688 4.057,-0.681 8.21,-1.025 12.345,-1.025 40.138,0 72.791,31.798 72.791,70.881 0,39.085 -32.653,70.883 -72.791,70.883 z m 95.434,-49.373 c 1.622,-6.919 2.509,-14.112 2.509,-21.508 -11.0663,-53.27233 -56.70869,-97.54761 -100.235,-95.963 97.453,20.68213 100.235,95.963 97.726,117.471 z"
     fill="#000000"
     id="path2-3"
     sodipodi:nodetypes="cscsssccsssscccsscccssscccc"
     style="isolation:isolate" />
</svg>
