<?xml version="1.0" encoding="UTF-8" standalone="no"?>
<!-- Generator: Adobe Illustrator 16.0.0, SVG Export Plug-In . SVG Version: 6.00 Build 0)  -->

<svg
   version="1.1"
   id="Capa_1"
   x="0px"
   y="0px"
   width="512px"
   height="512px"
   viewBox="0 0 512 512"
   style="enable-background:new 0 0 512 512;"
   xml:space="preserve"
   sodipodi:docname="03n.svg"
   inkscape:version="1.1.2 (0a00cf5339, 2022-02-04)"
   xmlns:inkscape="http://www.inkscape.org/namespaces/inkscape"
   xmlns:sodipodi="http://sodipodi.sourceforge.net/DTD/sodipodi-0.dtd"
   xmlns="http://www.w3.org/2000/svg"
   xmlns:svg="http://www.w3.org/2000/svg"
   xmlns:sketch="http://www.bohemiancoding.com/sketch/ns"><defs
   id="defs39" /><sodipodi:namedview
   id="namedview37"
   pagecolor="#ffffff"
   bordercolor="#666666"
   borderopacity="1.0"
   inkscape:pageshadow="2"
   inkscape:pageopacity="0.0"
   inkscape:pagecheckerboard="0"
   showgrid="false"
   inkscape:zoom="1.6992188"
   inkscape:cx="255.70574"
   inkscape:cy="256.29425"
   inkscape:window-width="1858"
   inkscape:window-height="1016"
   inkscape:window-x="62"
   inkscape:window-y="27"
   inkscape:window-maximized="1"
   inkscape:current-layer="Capa_1" />

<g
   id="g6">
</g>
<g
   id="g8">
</g>
<g
   id="g10">
</g>
<g
   id="g12">
</g>
<g
   id="g14">
</g>
<g
   id="g16">
</g>
<g
   id="g18">
</g>
<g
   id="g20">
</g>
<g
   id="g22">
</g>
<g
   id="g24">
</g>
<g
   id="g26">
</g>
<g
   id="g28">
</g>
<g
   id="g30">
</g>
<g
   id="g32">
</g>
<g
   id="g34">
</g>
<g
   transform="matrix(7.8271999,0,0,7.9039799,212.48654,217.51938)"
   id="Shape"
   style="fill:none;fill-rule:evenodd;stroke:#000000;stroke-width:2"><path
     d="m 6.5,5.9 c 1.9,-3.5 5.5,-6 9.7,-6 6.1,0 11.1,5.1 11.1,11.4 0,0.9 -0.1,1.7 -0.3,2.6"
     id="path8"
     style="stroke:#000000" /><path
     d="M 0.2,8.1 C 1.7,6.8 3.7,6 5.8,6 8,6 10.1,6.9 11.7,8.3"
     id="path10"
     style="stroke:#000000" /><path
     d="m 27.6,9.5 c 0.7,-0.2 1.5,-0.4 2.2,-0.4 4,0 7.2,3.4 7.2,7.5 0,4.1 -3.2,7.5 -7.2,7.5 H 15"
     id="path12"
     style="stroke:#000000" /></g><g
   transform="matrix(7.8271999,0,0,7.9039799,16.806535,264.94326)"
   id="g19"
   style="fill:none;fill-rule:evenodd;stroke:#000000;stroke-width:2"><path
     d="M 9.5,5.7 C 11.4,2.3 15,0 19.2,0 c 6.1,0 11.1,4.9 11.1,10.9 0,0.8 -0.1,1.7 -0.3,2.5"
     id="path15"
     style="stroke:#000000" /><path
     d="m 30.6,9.4 c 0.7,-0.2 1.5,-0.3 2.2,-0.3 4,0 7.2,3.1 7.2,7 0,3.9 -3.2,7 -7.2,7 H 8.7 c -4.8,0 -8.8,-3.8 -8.8,-8.6 0,-4.7 3.9,-8.6 8.8,-8.6 2.2,0 4.3,0.8 5.9,2.2"
     id="path17"
     style="stroke:#000000" /></g><path
   d="m 234.87244,183.8927 c -54.67221,3.79668 -101.75106,-37.96682 -104.78841,-92.639029 -0.75933,-14.427389 1.51868,-28.095442 6.07469,-41.004159 -33.41079,17.464734 -54.672207,53.912878 -52.394198,94.157698 3.796682,54.67221 50.875528,95.67637 104.788408,92.63902 40.24482,-2.278 72.89628,-28.85477 86.56433,-63.78424 -12.14938,6.07469 -25.81743,9.87137 -40.24482,10.63071 z"
   id="path22"
   sketch:type="MSShapeGroup"
   style="fill:#ececec;fill-rule:evenodd;stroke:#000000;stroke-width:15.1867" /></svg>
